<svg xmlns="http://www.w3.org/2000/svg" viewBox="0 0 24 24"><g data-name="Group 1064"><path data-name="Rectangle 577" fill="none" opacity=".4" d="M0 0h24v24H0z"/><path data-name="shopping-bag (1)" d="M5.556 22h13.888a1.514 1.514 0 001.171-.569 1.749 1.749 0 00.373-1.306L19.617 8.46A1.6 1.6 0 0018.074 7h-1.71V4.5A2.417 2.417 0 0014.045 2h-3.091a2.417 2.417 0 00-2.318 2.5V7h-1.71a1.6 1.6 0 00-1.544 1.459l-1.37 11.666a1.748 1.748 0 00.373 1.306A1.514 1.514 0 005.556 22zm4.626-17.5a.806.806 0 01.773-.833h3.091a.806.806 0 01.773.833V7h-4.637zM6.914 8.672a.014.014 0 01.012 0h1.71V11.4a1.687 1.687 0 00-.773 1.435A1.611 1.611 0 009.409 14.5a1.611 1.611 0 001.545-1.667 1.687 1.687 0 00-.772-1.433V8.668h4.636V11.4a1.687 1.687 0 00-.773 1.435 1.611 1.611 0 001.546 1.665 1.611 1.611 0 001.545-1.667 1.687 1.687 0 00-.772-1.433V8.669h1.72l1.36 11.665H5.545zm0 0"/></g></svg>