<svg xmlns="http://www.w3.org/2000/svg" viewBox="0 0 24 24"><g data-name="Group 1068"><path data-name="Rectangle 581" fill="none" opacity=".4" d="M0 0h24v24H0z"/><path d="M22.333 10.004l-1.65-3.98a2.436 2.436 0 00-1.649-1.395l-4.359-1.13v2.293a2.108 2.108 0 01-2.175 2.03 2.108 2.108 0 01-2.174-2.03V3.5L5.967 4.63a2.436 2.436 0 00-1.649 1.395l-1.651 3.979a2.185 2.185 0 00.267 2.144 2.532 2.532 0 002.046 1.007h1.268l-.8 7.345h14.143l-.827-7.345h1.256a2.532 2.532 0 002.045-1.006 2.184 2.184 0 00.268-2.145zm-1.291 1.489a1.248 1.248 0 01-1.021.5h-1.185l-.285-3.277h-1.535l1.2 10.622H6.819L7.982 8.719H6.444l-.252 3.277H4.98a1.248 1.248 0 01-1.021-.5 1.077 1.077 0 01-.133-1.071l1.65-3.98a1.217 1.217 0 01.823-.7l2.785-.722v.767A3.312 3.312 0 0012.5 8.982a3.312 3.312 0 003.416-3.189v-.767l2.785.722a1.217 1.217 0 01.823.7l1.65 3.98a1.076 1.076 0 01-.132 1.065z" stroke="#000" stroke-width=".2"/></g></svg>