<svg xmlns="http://www.w3.org/2000/svg" viewBox="0 0 24 24"><g data-name="Group 779"><path data-name="Path 3" d="M20.573 5.641a5.613 5.613 0 00-7.911 0l-.553.55-.561-.558a5.608 5.608 0 00-7.911-.009 5.544 5.544 0 00.008 7.875l8.045 8.01a.576.576 0 00.814 0l8.061-7.993a5.56 5.56 0 00.009-7.878zm-.822 7.064L12.1 20.294l-7.637-7.6A4.412 4.412 0 017.59 5.157a4.43 4.43 0 013.144 1.3l.968.963a.578.578 0 00.818 0l.959-.955a4.451 4.451 0 016.275 0 4.411 4.411 0 010 6.25z" stroke="#000" stroke-width=".6"/><path data-name="Rectangle 3" fill="none" d="M0 0h24v24H0z"/></g></svg>