<svg xmlns="http://www.w3.org/2000/svg" viewBox="0 0 24 24"><g data-name="Group 1065"><path data-name="Rectangle 578" fill="none" opacity=".4" d="M0 0h24v24H0z"/><path d="M21.219 9.843h-.755V8.811A.8.8 0 0019.682 8h-6.146a.8.8 0 00-.781.811v1.032h-1.51V8.811A.8.8 0 0010.463 8H4.318a.8.8 0 00-.781.811v1.032h-.756a.8.8 0 00-.781.81.8.8 0 00.781.811h.755V12a3.934 3.934 0 003.855 4 3.934 3.934 0 003.854-4v-.536h1.51V12a3.934 3.934 0 003.854 4 3.934 3.934 0 003.854-4v-.536h.755a.8.8 0 00.782-.811.8.8 0 00-.781-.811zM9.682 12a2.339 2.339 0 01-2.291 2.378A2.339 2.339 0 015.1 12V9.622h4.582V12zm9.218 0a2.293 2.293 0 11-4.583 0V9.622H18.9zm0 0"/></g></svg>