<svg xmlns="http://www.w3.org/2000/svg" viewBox="0 0 24 24"><g data-name="Group 1063"><path data-name="Rectangle 576" fill="none" opacity=".4" d="M0 0h24v24H0z"/><path d="M20.855 15.676l-5.409-3.266a6.313 6.313 0 00-2.479-.859v-.818a1.284 1.284 0 01.686-1.12A3.094 3.094 0 109.1 6.888a.781.781 0 101.563 0 1.524 1.524 0 112.247 1.346 2.852 2.852 0 00-1.5 2.5v.818a6.312 6.312 0 00-2.47.852l-5.421 3.252a2.756 2.756 0 001.405 5.117l14.513.015a2.756 2.756 0 001.414-5.113zm-1.414 3.545l-14.515-.017a1.186 1.186 0 01-.605-2.2l5.416-3.256a4.751 4.751 0 014.9.006l5.408 3.266a1.186 1.186 0 01-.609 2.2zm0 0"/></g></svg>