<svg xmlns="http://www.w3.org/2000/svg" viewBox="0 0 24 24"><g data-name="Group 15"><path data-name="Rectangle 2" fill="none" d="M0 0h24v24H0z"/><path d="M18.781 4.782a.9.9 0 00-.656-.282 11.026 11.026 0 01-3.5-.559V2.833A.855.855 0 0013.75 2h-3.5a.855.855 0 00-.875.833V3.94a11.026 11.026 0 01-3.5.56.9.9 0 00-.656.282.807.807 0 00-.212.655A24.15 24.15 0 005.8 9.006a9.009 9.009 0 002.017 3.827 6.2 6.2 0 00-1.943 5v.833a.855.855 0 00.875.833h4.375V22h1.75v-2.5h4.376a.855.855 0 00.875-.833v-.833a6.2 6.2 0 00-1.943-5A9.006 9.006 0 0018.2 9.006a24.15 24.15 0 00.794-3.569.807.807 0 00-.212-.655zm-4.433 7.261a.841.841 0 00-.6.731.827.827 0 00.481.8c1.441.686 2.141 2.078 2.141 4.255H7.62c0-2.177.7-3.569 2.141-4.255a.827.827 0 00.481-.8.841.841 0 00-.6-.731c-1.285-.407-2.316-3.451-2.766-5.915a11.437 11.437 0 003.756-.883.83.83 0 00.484-.745v-.833h1.75V4.5a.83.83 0 00.484.745 11.437 11.437 0 003.756.883c-.442 2.464-1.473 5.507-2.758 5.915z" stroke="#fff" stroke-width=".3"/></g></svg>