<svg xmlns="http://www.w3.org/2000/svg" viewBox="0 0 24 24"><g data-name="Group 1066"><path data-name="Rectangle 579" fill="none" opacity=".4" d="M0 0h24v24H0z"/><g data-name="Group 1055"><g data-name="Group 1054"><path data-name="Path 2027" d="M20.132 12.233a.508.508 0 010-.466l.7-1.373a1.533 1.533 0 00-.7-2.075l-1.41-.717a.53.53 0 01-.286-.377l-.275-1.506a1.622 1.622 0 00-1.84-1.282l-1.58.214a.565.565 0 01-.462-.144l-1.138-1.063a1.678 1.678 0 00-2.274 0L9.718 4.502a.565.565 0 01-.462.144l-1.577-.214a1.621 1.621 0 00-1.838 1.287l-.275 1.506a.53.53 0 01-.286.377l-1.407.716a1.533 1.533 0 00-.7 2.075l.7 1.373a.508.508 0 010 .466l-.7 1.373a1.533 1.533 0 00.7 2.075l1.407.716a.53.53 0 01.286.377l.275 1.506a1.61 1.61 0 001.605 1.3 1.742 1.742 0 00.234-.016l1.577-.214a.564.564 0 01.462.144l1.145 1.063a1.678 1.678 0 002.274 0l1.145-1.063a.565.565 0 01.462-.144l1.577.214a1.621 1.621 0 001.84-1.282l.275-1.506a.53.53 0 01.286-.377l1.407-.716a1.533 1.533 0 00.7-2.075zm-.51 2.531l-1.407.716a1.565 1.565 0 00-.844 1.115l-.276 1.507a.549.549 0 01-.622.434l-1.577-.214a1.668 1.668 0 00-1.366.426l-1.145 1.063a.568.568 0 01-.769 0l-1.145-1.063a1.66 1.66 0 00-1.13-.446 1.73 1.73 0 00-.233.016l-1.577.214a.549.549 0 01-.622-.434l-.275-1.506a1.565 1.565 0 00-.844-1.115l-1.407-.716a.518.518 0 01-.238-.7l.7-1.373a1.5 1.5 0 000-1.378l-.7-1.373a.518.518 0 01.238-.7l1.407-.716a1.565 1.565 0 00.839-1.119l.276-1.5a.549.549 0 01.622-.434l1.577.214a1.668 1.668 0 001.366-.426l1.145-1.063a.568.568 0 01.769 0l1.145 1.063a1.668 1.668 0 001.366.426l1.577-.214a.549.549 0 01.622.434l.276 1.5a1.565 1.565 0 00.844 1.115l1.407.716a.518.518 0 01.238.7l-.7 1.373a1.5 1.5 0 000 1.378l.7 1.373a.519.519 0 01-.237.708z" stroke="#000" stroke-width=".2"/></g></g><g data-name="Group 1057"><g data-name="Group 1056"><path data-name="Path 2028" d="M16.055 7.946a.555.555 0 00-.785 0L7.946 15.27a.555.555 0 10.785.785l7.324-7.324a.555.555 0 000-.785z" stroke="#000" stroke-width=".2"/></g></g><g data-name="Group 1059"><g data-name="Group 1058"><path data-name="Path 2029" d="M9.852 7.248a2.035 2.035 0 102.035 2.035 2.037 2.037 0 00-2.035-2.035zm0 2.959a.925.925 0 11.925-.925.926.926 0 01-.925.925z" stroke="#000" stroke-width=".2"/></g></g><g data-name="Group 1061"><g data-name="Group 1060"><path data-name="Path 2030" d="M14.149 12.683a2.035 2.035 0 102.034 2.034 2.037 2.037 0 00-2.034-2.034zm0 2.959a.925.925 0 11.925-.925.926.926 0 01-.925.925z" stroke="#000" stroke-width=".2"/></g></g></g></svg>