<svg xmlns="http://www.w3.org/2000/svg" viewBox="0 0 24 24"><g data-name="Group 1081"><path data-name="Rectangle 582" fill="none" opacity=".4" d="M0 0h24v24H0z"/><g data-name="Group 1070"><g data-name="Group 1069"><path data-name="Path 2031" d="M6.959 15.345a1.7 1.7 0 101.7 1.7 1.7 1.7 0 00-1.7-1.7zm0 2.262a.566.566 0 11.566-.566.566.566 0 01-.566.566z"/></g></g><g data-name="Group 1072"><g data-name="Group 1071"><path data-name="Path 2032" d="M17.063 13.254a4.013 4.013 0 00-.695.06l-1.186-1.167L18.382 9a4.369 4.369 0 00.422-5.781.569.569 0 00-.847-.059l-5.955 5.857-5.957-5.855a.569.569 0 00-.847.059 4.369 4.369 0 00.422 5.781l3.2 3.147-1.186 1.167a4.008 4.008 0 00-.695-.06 3.873 3.873 0 103.937 3.873 3.816 3.816 0 00-.061-.683l1.186-1.167 1.186 1.167a3.819 3.819 0 00-.061.683 3.938 3.938 0 103.937-3.873zM6.415 8.219a3.282 3.282 0 01-.661-3.779l5.451 5.361-1.591 1.561zm.523 11.674a2.767 2.767 0 110-5.532 2.833 2.833 0 012.812 2.766 2.793 2.793 0 01-2.812 2.766zm3.463-4.608A3.934 3.934 0 008.81 13.72l9.436-9.281a3.281 3.281 0 01-.661 3.779l-3.6 3.537zm2.395-.791l1.591-1.564.8.791a3.934 3.934 0 00-1.591 1.565zm4.267 5.4a2.793 2.793 0 01-2.812-2.766 2.831 2.831 0 012.812-2.766 2.767 2.767 0 110 5.532z"/></g></g><g data-name="Group 1074"><g data-name="Group 1073"><path data-name="Path 2033" d="M17.041 15.345a1.7 1.7 0 101.7 1.7 1.7 1.7 0 00-1.7-1.7zm0 2.262a.566.566 0 11.566-.566.566.566 0 01-.566.566z"/></g></g><g data-name="Group 1076"><g data-name="Group 1075"><circle data-name="Ellipse 27" cx=".566" cy=".566" r=".566" transform="translate(11.406 11.509)"/></g></g></g></svg>