<svg xmlns="http://www.w3.org/2000/svg" viewBox="0 0 24 24"><g data-name="Group 1062"><path data-name="Rectangle 575" fill="none" opacity=".4" d="M0 0h24v24H0z"/><g data-name="Group 1053"><path data-name="Path 2026" d="M18.724 13.124l-3.686-1.77a.666.666 0 00-.764.134 2.142 2.142 0 01-2.942.109L4.018 5.168c-.256-.225-.742-.31-1.094.3A6.782 6.782 0 002 8.893v9.44a.667.667 0 00.667.667h1.8a.667.667 0 00.6-.373l1.444-2.939C9.449 17.94 10.422 19 12.634 19h8.7a.667.667 0 00.666-.667 5.778 5.778 0 00-3.276-5.209zm-14.67 4.542h-.72v-4.753a10.243 10.243 0 002.1 1.953zm8.58 0c-1.742 0-2.4-.8-5.957-3.531-1.243-.953-3.338-2.23-3.343-5.242a5.437 5.437 0 01.444-2.16l6.675 5.866a3.476 3.476 0 004.407.148l3.288 1.579a4.471 4.471 0 012.468 3.339h-7.982z"/></g></g></svg>