<svg xmlns="http://www.w3.org/2000/svg" viewBox="0 0 24 24"><g data-name="Group 1067"><path data-name="Rectangle 580" fill="none" opacity=".4" d="M0 0h24v24H0z"/><path d="M17.447 7.655V2.781A.785.785 0 0016.658 2H7.343a.785.785 0 00-.789.781v4.874a6.854 6.854 0 000 8.69v4.874a.785.785 0 00.789.781h9.315a.785.785 0 00.789-.781v-4.874a6.854 6.854 0 000-8.69zM6.58 12a5.421 5.421 0 115.421 5.365A5.4 5.4 0 016.58 12zm9.289-8.437V6.23a7.042 7.042 0 00-7.736 0V3.563zM8.132 20.437V17.77a7.042 7.042 0 007.736 0v2.667zm3.31-7.885a.778.778 0 01-.231-.552V8.927a.79.79 0 011.579 0v2.749l1.321 1.308a.775.775 0 010 1.1.8.8 0 01-1.116 0zm0 0"/></g></svg>