<svg xmlns="http://www.w3.org/2000/svg" viewBox="0 0 24 24"><g data-name="Group 1083"><path data-name="Rectangle 2" fill="none" d="M0 0h24v24H0z"/><path data-name="Path 17" d="M19.965 20.859a8.673 8.673 0 00-4.809-4.219v-1.223a6.667 6.667 0 004.133-1.437.562.562 0 00.149-.546.58.58 0 00-.412-.4c-.018 0-1.527-.5-1.224-3.483a12.483 12.483 0 00-.058-3.398 5.074 5.074 0 00-1.167-2.628 3.175 3.175 0 00-2.413-1h-.12a3.761 3.761 0 00-2.438-.845 5.19 5.19 0 00-1.817.347l-.026.008a4.5 4.5 0 00-2.176 1.5A7.824 7.824 0 006.31 8.601a7.031 7.031 0 01-.649 3.817 1.071 1.071 0 01-.588.529.543.543 0 00-.518.279.561.561 0 00.057.618 3.1 3.1 0 001.1.859 7.48 7.48 0 003.155.741v1.166a8.707 8.707 0 00-4.787 4.253.559.559 0 00.031.55.6.6 0 00.5.267h14.823a.6.6 0 00.5-.267.568.568 0 00.031-.554zm-14.344-.326a7.567 7.567 0 014.015-2.979.574.574 0 00.408-.542V14.88a.553.553 0 00-.176-.406.6.6 0 00-.421-.165 6.468 6.468 0 01-3.3-.681c.039-.038.083-.076.127-.118.864-.868 1.272-2.526 1.215-4.934-.109-4.446 1.855-5.165 2.686-5.47l.026-.008a4.138 4.138 0 011.4-.271 2.41 2.41 0 011.76.656.587.587 0 00.509.2c.1-.008.193-.013.285-.013a1.988 1.988 0 011.536.626c.834.889 1.176 2.763.93 5.142-.246 2.4.531 3.6 1.2 4.185a7.244 7.244 0 01-3.159.664h-.088a.615.615 0 00-.43.161.56.56 0 00-.18.41v2.192a.57.57 0 00.412.542 7.643 7.643 0 014.037 2.95H5.621z" stroke="#000" stroke-width=".2"/></g></svg>