<svg xmlns="http://www.w3.org/2000/svg" width="40" height="24"><defs><filter id="a"><feFlood flood-color="#FFF" flood-opacity="1" result="floodOut"/><feComposite operator="atop" in="floodOut" in2="SourceGraphic" result="compOut"/><feBlend in="compOut" in2="SourceGraphic"/></filter></defs><g filter="url(#a)"><path fill-rule="evenodd" fill="#FFF" d="M12 24C5.373 24 0 18.627 0 12S5.373 0 12 0h16c6.627 0 12 5.373 12 12v12H12zm10.382-12.734c0-.458-.03-.832-.09-1.12a2.032 2.032 0 0 0-.403-.832c-.45-.565-1.091-.848-1.924-.848-.986 0-1.748.421-2.285 1.264-.438-.843-1.189-1.264-2.252-1.264-.866 0-1.573.336-2.121 1.008V8.69h-2.006v6.928h2.006v-3.536c0-.598.093-1.045.279-1.344.231-.405.597-.608 1.102-.608.35 0 .625.117.822.352.219.256.329.71.329 1.36v3.776h2.006v-3.536c0-.598.092-1.045.279-1.344.23-.405.597-.608 1.102-.608.35 0 .624.117.822.352.219.256.328.71.328 1.36v3.776h2.006v-4.352zm7.497-2.576l-1.972 3.936-2.204-3.936h-2.334l3.387 5.888-2.615 4.752h2.269l5.738-10.64h-2.269z"/></g></svg>