<svg xmlns="http://www.w3.org/2000/svg" viewBox="0 0 1114.81 311.1"><defs><style>.cls-1{fill:#fff;}</style></defs><title>Ресурс 1</title><g id="Слой_2" data-name="Слой 2"><g id="Layer_1" data-name="Layer 1"><path d="M89.66,154.48H58.17V239H0V0H95q42.91,0,67.12,18.86t24.2,53.3q0,24.93-10.2,41.32t-31.9,26.57l50.38,96.51V239H132.26ZM58.17,110.16H95q16.56,0,24.94-8.64t8.37-24.11q0-15.48-8.45-24.28T95,44.33H58.17Z"/><path d="M286.21,242.31q-41.26,0-66.79-24.38T193.9,154.48v-4.59q0-27.25,10.19-48.11a74.15,74.15,0,0,1,29.75-32.25q19.56-11.41,46.41-11.41,37.78,0,59.66,23.23t21.88,64.76v21.51h-111q3,14.94,13.09,23.47T290,199.63q26.5,0,41.43-18.39L357,211.12q-10.44,14.28-29.58,22.74A100.89,100.89,0,0,1,286.21,242.31ZM279.92,100.8q-24.54,0-29.17,32.18H307.1v-4.27q.33-13.31-6.8-20.61T279.92,100.8Z"/><path class="cls-1" d="M410.47,54.34q12,0,20,7.8t8,19.94q0,12.17-8,20t-20,7.8q-12.18,0-20.08-7.88T382.5,82.08q0-12,7.89-19.86T410.47,54.34Zm0,131q12,0,20,7.79t8,20q0,12.15-8,19.95t-20,7.79q-12.18,0-20.08-7.88t-7.89-19.86q0-12,7.89-19.86T410.47,185.35Z"/><path class="cls-1" d="M639.66,152.09q0,42.22-19.19,67.44t-51.82,25.22q-25.2,0-41.43-18.26V311.1h-57v-251H523.5l1.69,16.76q16.39-20.12,43.12-20.11,33.81,0,52.58,24.72t18.77,67.93Zm-57-3.51q0-48.26-28.41-48.26-20.28,0-27,14.41v71.38q7.44,15.07,27.39,15.08,27.23,0,28.07-46.58Z"/><path class="cls-1" d="M650.66,149.08q0-27.14,10.65-48.34a75.67,75.67,0,0,1,30.61-32.58q19.94-11.4,46.83-11.4,41.09,0,64.76,25.22t23.67,68.61v2q0,42.39-23.75,67.27t-64.34,24.88q-39.06,0-62.73-23.21t-25.53-62.91Zm57,3.52q0,25.13,8,36.86t23.5,11.73q30.43,0,31.11-46.41v-5.7q0-48.75-31.45-48.76-28.57,0-30.94,42.06Z"/><path class="cls-1" d="M941.15,190.46q0-7.2-7.61-11.56t-28.91-9q-21.3-4.7-35.17-12.32T848.32,139a44,44,0,0,1-7.27-25q0-25,20.8-41.13T916.3,56.76q36.18,0,58.16,16.25t22,42.73H939.29Q939.29,94,916.13,94a23.12,23.12,0,0,0-15,4.94A15.26,15.26,0,0,0,895,111.21q0,7.55,7.44,12.24t23.76,7.7a207.38,207.38,0,0,1,28.66,7.21q41.25,14.07,41.25,50.43,0,24.79-22.23,40.38T916.3,244.75q-23.5,0-41.94-8.38t-28.74-22.79q-10.32-14.4-10.31-30.32h53.26q.33,12.57,8.45,18.34t20.8,5.79q11.67,0,17.5-4.7A14.93,14.93,0,0,0,941.15,190.46Z"/><path class="cls-1" d="M1082.18,15V60.11h30.09V99.32h-30.09v82.93q0,10.23,3.71,14.24t14.72,4a84.3,84.3,0,0,0,14.2-1v40.38a106.06,106.06,0,0,1-32.13,4.86q-29.42,0-43.45-13.74t-14-41.72v-90h-23.33V60.11h23.33V15Z"/></g></g></svg>