<svg xmlns="http://www.w3.org/2000/svg" width="90" height="24" viewBox="0 0 90 24">
  <g id="Vector_Smart_Object" data-name="Vector Smart Object" transform="translate(-17.827 -28.166)">
    <path id="Path_1" data-name="Path 1" d="M27.359,40.475H24.714v6.737H19.827V28.166H27.8a9.318,9.318,0,0,1,5.638,1.5,4.972,4.972,0,0,1,2.033,4.247,5.891,5.891,0,0,1-.856,3.293,5.992,5.992,0,0,1-2.68,2.117l4.232,7.69v.2H30.937Zm-2.645-3.532H27.8a2.881,2.881,0,0,0,2.1-.688,2.567,2.567,0,0,0,.7-1.921,2.6,2.6,0,0,0-.71-1.934,2.852,2.852,0,0,0-2.088-.7H24.714Z" transform="translate(-2 0)" fill="#fff"/>
    <path id="Path_2" data-name="Path 2" d="M38.664,46.388a6.8,6.8,0,0,1-5.071-1.967A6.98,6.98,0,0,1,31.654,39.3v-.371a9.194,9.194,0,0,1,.774-3.881,5.86,5.86,0,0,1,2.259-2.6,6.553,6.553,0,0,1,3.524-.921,5.745,5.745,0,0,1,4.53,1.874A7.61,7.61,0,0,1,44.4,38.627v1.735H35.971a3.263,3.263,0,0,0,.994,1.894,2.864,2.864,0,0,0,1.988.689A3.735,3.735,0,0,0,42.1,41.462l1.938,2.41a5.468,5.468,0,0,1-2.246,1.834A7.271,7.271,0,0,1,38.664,46.388Zm-.478-11.417q-1.863,0-2.215,2.6h4.279v-.344a2.286,2.286,0,0,0-.516-1.662A2,2,0,0,0,38.186,34.972Z" transform="translate(3.582 0.823)" fill="#fff"/>
    <path id="Path_3" data-name="Path 3" d="M45.282,31.31a2.147,2.147,0,0,1,1.519.562,2.008,2.008,0,0,1,0,2.873,2.332,2.332,0,0,1-3.043-.006,2.007,2.007,0,0,1,0-2.861A2.128,2.128,0,0,1,45.282,31.31Zm0,9.436a2.147,2.147,0,0,1,1.519.562,2.008,2.008,0,0,1,0,2.873,2.332,2.332,0,0,1-3.043-.006,2.007,2.007,0,0,1,0-2.861A2.128,2.128,0,0,1,45.282,40.745Z" transform="translate(6.923 1.465)" fill="#fff"/>
    <g id="Group_1" data-name="Group 1" transform="translate(58.886 29.249)">
      <path id="Path_4" data-name="Path 4" d="M61.374,38.913a8.7,8.7,0,0,1-1.457,5.28,4.639,4.639,0,0,1-3.935,1.974,3.967,3.967,0,0,1-3.145-1.43v6.624H48.51V31.712h4.044l.128,1.312a3.972,3.972,0,0,1,3.274-1.574,4.673,4.673,0,0,1,3.993,1.935A8.8,8.8,0,0,1,61.374,38.7Zm-4.326-.275q0-3.778-2.157-3.778a2.028,2.028,0,0,0-2.054,1.128v5.588a2.1,2.1,0,0,0,2.08,1.181q2.067,0,2.131-3.647Z" transform="translate(-48.51 -28.445)" fill="#fff"/>
      <path id="Path_5" data-name="Path 5" d="M59.515,38.1a7.323,7.323,0,0,1,.809-3.482,5.588,5.588,0,0,1,2.324-2.347A7.357,7.357,0,0,1,66.2,31.45a6.606,6.606,0,0,1,4.917,1.816,6.718,6.718,0,0,1,1.8,4.942v.145a6.523,6.523,0,0,1-1.8,4.845,6.625,6.625,0,0,1-4.885,1.792,6.714,6.714,0,0,1-4.763-1.671,6.339,6.339,0,0,1-1.939-4.531Zm4.326.253a4.619,4.619,0,0,0,.6,2.655,2.051,2.051,0,0,0,1.785.845q2.311,0,2.362-3.343V38.1q0-3.512-2.388-3.512-2.17,0-2.349,3.029Z" transform="translate(-45.816 -28.445)" fill="#fff"/>
      <path id="Path_6" data-name="Path 6" d="M78.815,41.079a.938.938,0,0,0-.578-.833,9.194,9.194,0,0,0-2.2-.652,10.425,10.425,0,0,1-2.67-.887,4.393,4.393,0,0,1-1.6-1.333,3.046,3.046,0,0,1-.552-1.8,3.541,3.541,0,0,1,1.579-2.963,6.8,6.8,0,0,1,4.134-1.164,7.545,7.545,0,0,1,4.416,1.171A3.6,3.6,0,0,1,83.013,35.7H78.674q0-1.569-1.759-1.569a1.817,1.817,0,0,0-1.143.356,1.08,1.08,0,0,0-.462.887,1,1,0,0,0,.565.881,5.571,5.571,0,0,0,1.8.555,16.424,16.424,0,0,1,2.176.519q3.132,1.014,3.133,3.632A3.373,3.373,0,0,1,81.3,43.867a7.758,7.758,0,0,1-4.371,1.122,7.973,7.973,0,0,1-3.184-.6,5.273,5.273,0,0,1-2.182-1.641,3.57,3.57,0,0,1-.783-2.184h4.044a1.537,1.537,0,0,0,.642,1.321,2.764,2.764,0,0,0,1.579.416,2.175,2.175,0,0,0,1.329-.338A1.057,1.057,0,0,0,78.815,41.079Z" transform="translate(-43.059 -28.445)" fill="#fff"/>
      <path id="Path_7" data-name="Path 7" d="M87.036,29.036v3.246h2.285v2.824H87.036v5.973a1.459,1.459,0,0,0,.282,1.026,1.582,1.582,0,0,0,1.117.29,6.753,6.753,0,0,0,1.078-.072V45.23a8.457,8.457,0,0,1-2.439.35,4.72,4.72,0,0,1-3.3-.989,3.909,3.909,0,0,1-1.066-3v-6.48H80.938V32.282h1.772V29.036Z" transform="translate(-40.572 -29.036)" fill="#fff"/>
    </g>
  </g>
</svg>
