<svg xmlns="http://www.w3.org/2000/svg" xmlns:xlink="http://www.w3.org/1999/xlink" viewBox="0 0 96.12 132.65"><defs><style>.cls-1{fill:none;}.cls-2{clip-path:url(#clip-path);}.cls-3{fill:#1c458f;}.cls-3,.cls-4{fill-rule:evenodd;}.cls-4{fill:#f6871f;}</style><clipPath id="clip-path" transform="translate(-88.58 -126.93)"><rect class="cls-1" width="273.16" height="386.55"/></clipPath></defs><title>Ресурс 3</title><g id="Слой_2" data-name="Слой 2"><g id="Layer_1" data-name="Layer 1"><g class="cls-2"><path class="cls-3" d="M178.75,182.4q0,24.54-11.21,36.5T133,230.81q-21.81,0-33.09-11.91T88.58,183V129.21a2.29,2.29,0,0,1,2.29-2.28h26.36a2.29,2.29,0,0,1,2.29,2.28v54.91c0,6.54,1.21,11.58,3.67,15.13a12,12,0,0,0,10.53,5.3c4.59,0,8.1-1.65,10.5-5s3.6-8.25,3.6-14.74V174.54h30.93Z" transform="translate(-88.58 -126.93)"/><path class="cls-3" d="M176.36,168.54H147.82V129.32a2.4,2.4,0,0,1,2.39-2.39h4.27a24.26,24.26,0,0,0,24.27,24.24h0v17.37Z" transform="translate(-88.58 -126.93)"/><path class="cls-4" d="M160.56,126.93h15.8a2.39,2.39,0,0,1,2.39,2.39v15.82A18.2,18.2,0,0,1,160.56,127Z" transform="translate(-88.58 -126.93)"/><path class="cls-3" d="M172.67,254.55h-2.08v-7.17h2.08a3.35,3.35,0,0,1,3.59,3.59A3.43,3.43,0,0,1,172.67,254.55Zm0,2.15c3.59,0,6.08-2.27,6.08-5.73s-2.49-5.74-6.08-5.74h-4.53V256.7Zm-15.08-6.22H155v-3.1h2.56a1.56,1.56,0,1,1,0,3.1Zm5.91,9.1-4.21-7.25a3.28,3.28,0,0,0,2.51-3.4,3.57,3.57,0,0,0-3.85-3.7h-5.36V256.7H155v-4.08h1.79l3.88,7Zm-20.64-7h-3.58l1.79-4.94ZM147,256.7l-4.42-11.47h-3.06L135.1,256.7h2.79l.72-1.94h4.92l.7,1.94Zm-21.34.21a5.29,5.29,0,0,0,4.8-2.82l-2.09-1a3.09,3.09,0,0,1-2.71,1.67,3.77,3.77,0,0,1,0-7.53,3.13,3.13,0,0,1,2.71,1.67l2.09-1a5.26,5.26,0,0,0-4.8-2.8,5.94,5.94,0,1,0,0,11.87ZM114,256.7v-2.15h-5.53l5.41-7.36v-2h-8.61v2.15h5.41l-5.41,7.34v2Zm-20.25.21c3.49,0,5.18-2,5.18-4.8v-6.88h-2.5V252a2.69,2.69,0,1,1-5.38,0v-6.81H88.58v6.9C88.58,255,90.27,256.91,93.76,256.91Z" transform="translate(-88.58 -126.93)"/><path class="cls-3" d="M184.7,244.22v0a2.14,2.14,0,1,1-2.14-2.13h2.14Z" transform="translate(-88.58 -126.93)"/></g></g></g></svg>