<svg xmlns="http://www.w3.org/2000/svg" viewBox="0 0 402.42 555.19"><defs><style>.cls-1{fill:#fff;}.cls-2{fill:#f68720;}</style></defs><title>Ресурс 2</title><g id="Слой_2" data-name="Слой 2"><g id="Layer_1" data-name="Layer 1"><path class="cls-1" d="M131.67,135.17c0,39.05-.59,78.12.26,117.16A99.61,99.61,0,0,0,147.08,303c17.37,28.39,72.23,29.2,88.09-4.83,6.39-13.71,11-27.48,10.85-42.72-.16-15.88.16-31.76-.15-47.63-.1-5.4.7-7.71,7.06-7.66,39.37.34,78.74.19,118.11.14,3.75,0,6.49-.21,6.52,5.21.24,42.9-.58,85.56-15.25,126.73-18,50.53-53.54,81-104.74,94.92-32,8.7-64.78,9.36-97.22,7.05-42.88-3.06-82.74-16.28-113.13-49-20.88-22.46-32.74-49.91-39.31-79.62-3.77-17.07-5.22-34.39-6-51.94-3.72-78-.51-155.95-1.62-233.91C0,5,2.94,2.23,17.53,2.23q50,0,100,0c10.67,0,14.1,3.37,14.11,13.88Q131.69,75.63,131.67,135.17Z"/><path class="cls-1" d="M246,94.06c0-25.08-.08-50.17,0-75.25.07-14.19,16.34-23.38,28.83-16.45,2.21,1.22,1.49,3.23,1.61,5,3.14,45.74,34.3,82.51,78.91,93.38,4.81,1.17,9.85,2.56,14.67,2.23,6.79-.46,7.6,2.45,7.52,8.16q-.44,30,0,60c.06,4.87-1.11,6.51-6.27,6.48-39.68-.21-79.37-.27-119.06,0-6.23,0-6.33-2.75-6.3-7.41C246.06,144.86,246,119.46,246,94.06Z"/><path class="cls-2" d="M336.37,2.23c9.82,0,19.64-.07,29.46,0,7.57.06,11.56,4,11.59,11.6.06,20.27-.13,40.55.12,60.82.06,4.74-1.51,6.17-6,5.68-35-3.83-64.83-26.85-70.42-64.11-.27-1.8-1.41-3.47-1.71-5.28-1-5.77-.18-9.49,7.49-8.91C316.69,2.79,326.55,2.23,336.37,2.23Z"/><path class="cls-1" d="M301.06,530.75c-1.79-3.14-5.14-5.18.88-9.08,5.64-3.66,6.95-11.42,3.92-18.48-2.84-6.69-7.39-10.35-15.26-9.53-6,.61-12,.27-18,.06-3.7-.12-5.81.43-5.74,5,.27,13.28.14,26.58.08,39.85,0,2.81.25,5.3,3.94,4.67,2.52-.44,6.25,1.87,7.24-2.07.76-3,.06-6.31.33-9.45.17-1.93-1.32-4.63,2-5.45,2.61-.65,4.42,1,5.54,2.76a139.48,139.48,0,0,1,7.57,13.77c4.06,8.65,8.88,15.55,20.69,10.86C309.88,546.15,305.46,538.47,301.06,530.75Zm-15.79-16.06c-3.39,0-7.32,1.2-7.07-5.14.19-4.67,1.08-7,6.21-6.31,3.91.52,8.46.14,9.09,5.39C294.22,514.6,289.92,515,285.27,514.69Z"/><path class="cls-1" d="M374.79,505.43c-5.41-10-23.28-16.3-39.47-11.16-8.42,2.67-1.66,12.65-3.55,19-.42,1.45,0,3.15,0,4.73v6.67c0,20.42,0,20.42,20.5,18.61C372.26,541.54,383.84,522.12,374.79,505.43ZM362.89,524c-1.83,3.37-4.75,7.32-9.85,8-9.91,1.21-9.89,1.39-9.89-14.9a6.62,6.62,0,0,1,0-1.89c1.2-3.85-2.92-9.83,2.47-11.47,5.78-1.77,11.53.93,15.87,5.55S365.29,519.53,362.89,524Z"/><path class="cls-1" d="M229,498c-2.48-6.61-7.87-3.31-12-4.25s-5.68,1.91-6.79,4.75c-4.68,12-9.37,24-13.47,36.16-.8,2.38-5.69,6.78.1,8.25,4.08,1.05,10,2.91,12.57-4.1,2-5.37,18.5-7.94,19.89-3,2.92,10.37,9.84,7.19,17.17,7.22C240.4,527.61,234.51,512.86,229,498Zm-14.88,25.93c2.28-4.78,2-10.36,6.15-14.86,1.64,4.94,3.13,9.34,5,14.86Z"/><path class="cls-1" d="M45.93,512.72v8.57c0,9.17-1.32,17.22-12.06,20.42-12.67,3.79-23.17,1.91-29.61-6.9C1.13,530.53.18,525.28.2,519.94q0-9,0-18.08c0-4.42-.95-8.31,6.32-8.4,7.47-.1,7.23,3.54,7.07,8.65-.21,7,.06,14-.08,20.94-.1,4.84,2,8,6.71,8.71,5.22.82,10.1.28,12.35-5.82,3.16-8.55,1.74-17.41,1.83-26.13.05-4.18.65-6.32,5.61-6.19,4.37.1,6.45.93,6,5.78C45.61,503.81,45.93,508.28,45.93,512.72Z"/><path class="cls-1" d="M156.14,543.23c-11.73,1.63-22.7-7.37-25.3-16.79-3.07-11.17.61-24.67,9-30.22A26.89,26.89,0,0,1,171,497.5c2.76,2.17,7.42,5,4.1,8.43-2.47,2.53-7.34,7.45-12.22,1.11s-10-4.61-15.28-.09c-6.16,5.28-7.44,11.9-3.74,18.43,3.32,5.84,9.39,8.13,16.23,5.66a21.55,21.55,0,0,0,5.41-3.47c4.51-3.46,8.22-.21,10.44,2.49,1.88,2.27-.74,5.59-3.23,7.37C167.59,541.05,162.35,544.5,156.14,543.23Z"/><path class="cls-1" d="M92,503.3c-6.61,0-11.36-.1-16.1,0-3.2.09-5.27-.21-5.33-4.42-.07-4.36,1.6-5.31,5.54-5.21,8.54.24,17.09,0,25.63.15,2.29,0,5.71-1.5,6.66,1.49.88,2.75,1,5.88-1.32,8.86-5.18,6.5-9.66,13.56-14.72,20.16-1.73,2.26-3.29,4.35-3.48,7.52,4.53,0,9,.18,13.34,0s6.8.34,6.81,5.93c0,6-3.13,5.65-7.14,5.58-7.27-.12-14.57.21-21.83-.15-3.08-.15-7.94,2.25-9-2.07s-1.51-8.88,2.31-13.24C79.85,520.54,85.27,512.33,92,503.3Z"/><path class="cls-1" d="M395.55,480.44c4.83-1,7.51.69,6.74,6.94s-.77,12-9.4,12.23c-6.78.2-10-3.74-10.86-9.14C381.1,484.42,386.91,480.38,395.55,480.44Z"/></g></g></svg>