<svg xmlns="http://www.w3.org/2000/svg" width="114.844" height="25.343" viewBox="0 0 114.844 25.343">
  <metadata><?xpacket begin="﻿" id="W5M0MpCehiHzreSzNTczkc9d"?>
<x:xmpmeta xmlns:x="adobe:ns:meta/" x:xmptk="Adobe XMP Core 5.6-c140 79.160451, 2017/05/06-01:08:21        ">
   <rdf:RDF xmlns:rdf="http://www.w3.org/1999/02/22-rdf-syntax-ns#">
      <rdf:Description rdf:about=""/>
   </rdf:RDF>
</x:xmpmeta>
                                                                                                    
                                                                                                    
                                                                                                    
                                                                                                    
                                                                                                    
                                                                                                    
                                                                                                    
                                                                                                    
                                                                                                    
                                                                                                    
                                                                                                    
                                                                                                    
                                                                                                    
                                                                                                    
                                                                                                    
                                                                                                    
                                                                                                    
                                                                                                    
                                                                                                    
                                                                                                    
                           
<?xpacket end="w"?></metadata>
<defs>
    <style>
      .cls-1 {
        fill-rule: evenodd;
      }
    </style>
  </defs>
  <path id="booked" class="cls-1" d="M431.024,360.163a8.389,8.389,0,0,0,2.712-1.941,9.534,9.534,0,0,0,1.862-2.95,10.344,10.344,0,0,0,0-7.445,9.539,9.539,0,0,0-1.862-2.951,8.4,8.4,0,0,0-2.712-1.94,7.85,7.85,0,0,0-3.248-.693,7,7,0,0,0-1.881.237,7.233,7.233,0,0,0-1.445.555,6.142,6.142,0,0,0-1.228.792v-8.118h-5.346v24.949h3.96l0.792-1.783a6.844,6.844,0,0,0,1.386.991,7.791,7.791,0,0,0,1.624.693,7.151,7.151,0,0,0,2.138.3A7.85,7.85,0,0,0,431.024,360.163ZM429.8,354.7a3.878,3.878,0,0,1-5.623,0,4.888,4.888,0,0,1,0-6.3,3.876,3.876,0,0,1,5.623,0A4.892,4.892,0,0,1,429.8,354.7Zm8.613,0.594a9.578,9.578,0,0,0,2,3.009,9.3,9.3,0,0,0,2.95,2.02,9.325,9.325,0,0,0,7.248,0,9.308,9.308,0,0,0,2.95-2.02,9.6,9.6,0,0,0,2-3.009,9.933,9.933,0,0,0,0-7.485,9.6,9.6,0,0,0-2-3.01,9.341,9.341,0,0,0-2.95-2.02,9.337,9.337,0,0,0-7.248,0,9.33,9.33,0,0,0-2.95,2.02,9.582,9.582,0,0,0-2,3.01A9.933,9.933,0,0,0,438.409,355.292Zm11.386-.416a3.836,3.836,0,0,1-5.624,0,5.394,5.394,0,0,1,0-6.653,3.834,3.834,0,0,1,5.624,0A5.394,5.394,0,0,1,449.8,354.876Zm8.613,0.416a9.578,9.578,0,0,0,2,3.009,9.3,9.3,0,0,0,2.95,2.02,9.323,9.323,0,0,0,7.247,0,9.313,9.313,0,0,0,2.951-2.02,9.612,9.612,0,0,0,2-3.009,9.933,9.933,0,0,0,0-7.485,9.616,9.616,0,0,0-2-3.01,9.345,9.345,0,0,0-2.951-2.02,9.334,9.334,0,0,0-7.247,0,9.33,9.33,0,0,0-2.95,2.02,9.582,9.582,0,0,0-2,3.01A9.921,9.921,0,0,0,458.408,355.292Zm11.386-.416a3.836,3.836,0,0,1-5.624,0,5.394,5.394,0,0,1,0-6.653,3.834,3.834,0,0,1,5.624,0A5.394,5.394,0,0,1,469.794,354.876Zm25.7,5.782-6.732-9.5,6.138-8.712h-6.138l-4.951,7.326V335.709h-5.346v24.949h5.346v-8.119l5.545,8.119H495.5Zm11.484-5.743a1.953,1.953,0,0,1-.633.594,3.018,3.018,0,0,1-.852.416,4.089,4.089,0,0,1-1.287.178,3.562,3.562,0,0,1-2.475-.871,4.241,4.241,0,0,1-1.287-1.9h12.474q0.039-.276.08-0.594c0.026-.184.052-0.376,0.079-0.574a4.706,4.706,0,0,0,.039-0.614,10.578,10.578,0,0,0-.693-3.9,8.993,8.993,0,0,0-1.9-3.009,8.347,8.347,0,0,0-2.831-1.921,9.348,9.348,0,0,0-7.109.059,9.33,9.33,0,0,0-2.95,2.02,9.582,9.582,0,0,0-2,3.01,9.933,9.933,0,0,0,0,7.485,9.769,9.769,0,0,0,1.98,3.009,9.191,9.191,0,0,0,2.891,2.02,8.516,8.516,0,0,0,3.5.733,9.927,9.927,0,0,0,3.188-.476,8.589,8.589,0,0,0,2.475-1.287,8.135,8.135,0,0,0,2.851-3.98Zm-0.3-7.029a4.284,4.284,0,0,1,1.287,2.079h-7.524a4.284,4.284,0,0,1,1.287-2.079A3.883,3.883,0,0,1,506.682,347.886Zm18.276,12.673a7.791,7.791,0,0,0,1.624-.693,8.782,8.782,0,0,0,1.386-.991l0.792,1.783h3.96V335.709h-5.346v8.118a6.114,6.114,0,0,0-1.228-.792,7.257,7.257,0,0,0-1.445-.555,7.007,7.007,0,0,0-1.881-.237,7.846,7.846,0,0,0-3.248.693,8.391,8.391,0,0,0-2.712,1.94A9.52,9.52,0,0,0,515,347.827a10.344,10.344,0,0,0,0,7.445,9.516,9.516,0,0,0,1.862,2.95,8.379,8.379,0,0,0,2.712,1.941,7.846,7.846,0,0,0,3.248.693A7.151,7.151,0,0,0,524.958,360.559ZM520.8,348.4a3.877,3.877,0,0,1,5.624,0,4.892,4.892,0,0,1,0,6.3,3.879,3.879,0,0,1-5.624,0A4.892,4.892,0,0,1,520.8,348.4Z" transform="translate(-417.875 -335.719)"/>
</svg>
