<svg id="Группа_2" data-name="Группа 2" xmlns="http://www.w3.org/2000/svg" width="71.688" height="72" viewBox="0 0 71.688 72">
  <metadata><?xpacket begin="﻿" id="W5M0MpCehiHzreSzNTczkc9d"?>
<x:xmpmeta xmlns:x="adobe:ns:meta/" x:xmptk="Adobe XMP Core 5.6-c138 79.159824, 2016/09/14-01:09:01        ">
   <rdf:RDF xmlns:rdf="http://www.w3.org/1999/02/22-rdf-syntax-ns#">
      <rdf:Description rdf:about=""/>
   </rdf:RDF>
</x:xmpmeta>
                                                                                                    
                                                                                                    
                                                                                                    
                                                                                                    
                                                                                                    
                                                                                                    
                                                                                                    
                                                                                                    
                                                                                                    
                                                                                                    
                                                                                                    
                                                                                                    
                                                                                                    
                                                                                                    
                                                                                                    
                                                                                                    
                                                                                                    
                                                                                                    
                                                                                                    
                                                                                                    
                           
<?xpacket end="w"?></metadata>
<defs>
    <style>
      .cls-1 {
        fill: #e1fbeb;
        opacity: 0.59;
      }

      .cls-2 {
        fill: #00a13c;
        fill-rule: evenodd;
      }
    </style>
  </defs>
  <ellipse id="Эллипс_1_копия_2" data-name="Эллипс 1 копия 2" class="cls-1" cx="35.844" cy="36" rx="35.844" ry="36"/>
  <path class="cls-2" d="M788.138,1067H739.766a3.742,3.742,0,0,0-3.766,3.83v7.95a4.985,4.985,0,0,0,1.545,3.63,6.058,6.058,0,0,0,1.352.85v36.76a0.918,0.918,0,0,0,.965.98h48.276a0.919,0.919,0,0,0,.966-0.98V1088.6h0v-5.34a5.27,5.27,0,0,0,2.9-4.67v-7.76A3.764,3.764,0,0,0,788.138,1067Zm-11.586,1.96h5.7v9.82a4.381,4.381,0,0,0,.042.59,2.894,2.894,0,0,1-5.738-.59v-9.82Zm-7.724,0h5.793v9.82a2.9,2.9,0,1,1-5.793,0v-9.82Zm-7.725,0H766.9v9.82a2.9,2.9,0,1,1-5.794,0v-9.82Zm-7.724,0h5.794v9.82a2.9,2.9,0,1,1-5.794,0v-9.82Zm-7.724,0h5.793v9.82a2.9,2.9,0,1,1-5.793,0v-9.82Zm-7.724,9.82v-7.95a1.794,1.794,0,0,1,1.834-1.87h3.959v9.63a3.185,3.185,0,0,1-2.327,3.08,2.144,2.144,0,0,1-.441.05A2.973,2.973,0,0,1,737.931,1078.78Zm3.379,4.91a4.584,4.584,0,0,0,1.105-.28,4.954,4.954,0,0,0,2.263-1.67,4.826,4.826,0,0,0,7.736.02,4.829,4.829,0,0,0,7.724,0,4.829,4.829,0,0,0,7.724,0,13.137,13.137,0,0,1,11.586,1.93,4.778,4.778,0,0,0,3.854-1.92,5.049,5.049,0,0,0,.587.64,5.6,5.6,0,0,0,.479.36,4.949,4.949,0,0,0,2.363.9h0.021c0.059,0,.118.01,0.178,0.01a1.959,1.959,0,0,0,.242.01v3.93H740.828v-3.93h0.482Zm4.345,35.35v-25.53h11.586v13.74H755.31a0.985,0.985,0,0,0,0,1.97h1.931v9.82H745.655Zm41.517,0h-28v-26.51a0.918,0.918,0,0,0-.965-0.98H744.69a0.918,0.918,0,0,0-.966.98v26.51h-2.9v-29.46h46.344v29.46Zm2.9-40.45a3.126,3.126,0,0,1-2.055,3.01,0.486,0.486,0,0,0-.166.03,1.391,1.391,0,0,1-.506.1,3.04,3.04,0,0,1-2.1-.79,2.987,2.987,0,0,1-.965-2.16v-9.82h3.958a1.854,1.854,0,0,1,1.835,1.87v7.76h0Zm-27.035,36.52h21.242a0.918,0.918,0,0,0,.965-0.98v-21.6a0.918,0.918,0,0,0-.965-0.98H763.034a0.918,0.918,0,0,0-.965.98v21.6A0.918,0.918,0,0,0,763.034,1115.11Zm13.518-4.91a0.98,0.98,0,0,0,0-1.96h-5.793a0.98,0.98,0,0,0,0,1.96h1.931v2.95H768.8c-0.19-3.5-1.391-6.42-3.159-7.86,2.278-1.95,3.954-6.34,4.135-11.78h7.757c0.172,5.44,1.767,9.83,4.136,11.78-1.768,1.44-2.969,4.36-3.159,7.86h-3.889v-2.95h1.931Zm6.758,2.95h-2.9c0.289-3.34,1.545-5.8,2.9-6.58v6.58Zm0-19.64v10.5c-1.931-1.08-3.669-5-3.862-10.5h3.862Zm-19.31,0h3.862c-0.193,5.5-2.028,9.42-3.862,10.5v-10.5Zm0,13.06c1.448,0.78,2.7,3.24,2.9,6.58H764v-6.58Zm-8.69-4.22v-5.9a0.923,0.923,0,0,0-.965-0.98h-5.793a0.923,0.923,0,0,0-.966.98v5.9a0.923,0.923,0,0,0,.966.98h5.793A0.923,0.923,0,0,0,755.31,1102.35Zm-1.931-.99h-3.862v-3.92h3.862v3.92Z" transform="translate(-728 -1062)"/>
</svg>
