<svg id="Группа_6" data-name="Группа 6" xmlns="http://www.w3.org/2000/svg" width="35" height="35" viewBox="0 0 35 35">
  <metadata><?xpacket begin="﻿" id="W5M0MpCehiHzreSzNTczkc9d"?>
<x:xmpmeta xmlns:x="adobe:ns:meta/" x:xmptk="Adobe XMP Core 5.6-c138 79.159824, 2016/09/14-01:09:01        ">
   <rdf:RDF xmlns:rdf="http://www.w3.org/1999/02/22-rdf-syntax-ns#">
      <rdf:Description rdf:about=""/>
   </rdf:RDF>
</x:xmpmeta>
                                                                                                    
                                                                                                    
                                                                                                    
                                                                                                    
                                                                                                    
                                                                                                    
                                                                                                    
                                                                                                    
                                                                                                    
                                                                                                    
                                                                                                    
                                                                                                    
                                                                                                    
                                                                                                    
                                                                                                    
                                                                                                    
                                                                                                    
                                                                                                    
                                                                                                    
                                                                                                    
                           
<?xpacket end="w"?></metadata>
<defs>
    <style>
      .cls-1 {
        fill: none;
        stroke: #fff;
        stroke-linejoin: round;
        stroke-width: 3px;
      }

      .cls-2 {
        fill: #fff;
        fill-rule: evenodd;
      }
    </style>
  </defs>
  <circle id="Эллипс_3" data-name="Эллипс 3" class="cls-1" cx="17.5" cy="17.5" r="16"/>
  <path id="_" data-name="“" class="cls-2" d="M996.931,3774.74a2.482,2.482,0,0,0-1.807-.71,6.728,6.728,0,0,1,.614-2.19,12.165,12.165,0,0,1,.965-1.66,13.107,13.107,0,0,1,1.3-1.49l-0.7-.7a10.26,10.26,0,0,0-2.387,2.19,12.564,12.564,0,0,0-1.6,2.6,7.791,7.791,0,0,0-.719,3.36,2.908,2.908,0,0,0,.719,2.1,2.4,2.4,0,0,0,1.808.75,2.474,2.474,0,0,0,1.807-.7,2.347,2.347,0,0,0,.72-1.77A2.4,2.4,0,0,0,996.931,3774.74Zm-8.634,0a2.482,2.482,0,0,0-1.807-.71,6.728,6.728,0,0,1,.614-2.19,12.165,12.165,0,0,1,.965-1.66,13.107,13.107,0,0,1,1.3-1.49l-0.7-.7a10.26,10.26,0,0,0-2.387,2.19,13.6,13.6,0,0,0-1.562,2.6,7.791,7.791,0,0,0-.719,3.36,2.95,2.95,0,0,0,.7,2.1,2.342,2.342,0,0,0,1.79.75,2.474,2.474,0,0,0,1.807-.7,2.347,2.347,0,0,0,.72-1.77A2.4,2.4,0,0,0,988.3,3774.74Z" transform="translate(-973.5 -3756.5)"/>
</svg>
