<svg id="Группа_1" data-name="Группа 1" xmlns="http://www.w3.org/2000/svg" width="71.688" height="74" viewBox="0 0 71.688 74">
  <metadata><?xpacket begin="﻿" id="W5M0MpCehiHzreSzNTczkc9d"?>
<x:xmpmeta xmlns:x="adobe:ns:meta/" x:xmptk="Adobe XMP Core 5.6-c138 79.159824, 2016/09/14-01:09:01        ">
   <rdf:RDF xmlns:rdf="http://www.w3.org/1999/02/22-rdf-syntax-ns#">
      <rdf:Description rdf:about=""/>
   </rdf:RDF>
</x:xmpmeta>
                                                                                                    
                                                                                                    
                                                                                                    
                                                                                                    
                                                                                                    
                                                                                                    
                                                                                                    
                                                                                                    
                                                                                                    
                                                                                                    
                                                                                                    
                                                                                                    
                                                                                                    
                                                                                                    
                                                                                                    
                                                                                                    
                                                                                                    
                                                                                                    
                                                                                                    
                                                                                                    
                           
<?xpacket end="w"?></metadata>
<defs>
    <style>
      .cls-1 {
        fill: #e1fbeb;
        opacity: 0.59;
      }

      .cls-2 {
        fill: #00a13c;
        fill-rule: evenodd;
      }
    </style>
  </defs>
  <ellipse id="Эллипс_1_копия_3" data-name="Эллипс 1 копия 3" class="cls-1" cx="35.844" cy="38" rx="35.844" ry="36"/>
  <path id="Forma_1" data-name="Forma 1" class="cls-2" d="M464.6,1060h-25.19a4.414,4.414,0,0,0-4.4,4.41v51.18a4.414,4.414,0,0,0,4.4,4.41h25.189a4.412,4.412,0,0,0,4.406-4.4v-51.19A4.414,4.414,0,0,0,464.6,1060Zm-27.6,8h30v38H437v-38Zm2.4-6h25.189a2.41,2.41,0,0,1,2.406,2.41V1066H437v-1.59A2.41,2.41,0,0,1,439.405,1062Zm25.19,56h-25.19a2.407,2.407,0,0,1-2.4-2.4V1108h30v7.6A2.407,2.407,0,0,1,464.6,1118Zm-12.6-9a4,4,0,1,0,4,4A4,4,0,0,0,452,1109Zm0,6a2,2,0,1,1,2-2A2,2,0,0,1,452,1115Zm-4-50h4a1,1,0,0,0,0-2h-4A1,1,0,0,0,448,1065Zm7,0h1a1,1,0,0,0,0-2h-1A1,1,0,0,0,455,1065Zm5,16a5,5,0,0,0,0-10H444a5,5,0,0,0-5,5v10.41l5.414-5.41H460Zm-19,.59V1076a3.006,3.006,0,0,1,3-3h16a3,3,0,0,1,0,6H443.586Zm19,6.41H444a5,5,0,0,0,0,10h15.586l5.414,5.41V1093A5,5,0,0,0,460,1088Zm3,10.59-2.586-2.59H444a3,3,0,0,1,0-6h16a3.006,3.006,0,0,1,3,3v5.59Z" transform="translate(-416 -1060)"/>
</svg>
