<svg xmlns="http://www.w3.org/2000/svg" width="208" height="24.563" viewBox="0 0 208 24.563">
  <g id="alburdan-logo" transform="translate(-0.076 -0.383)">
    <g id="AlBurdan_Logo_final" transform="translate(0.076 0.383)">
      <g id="Group-20" transform="translate(0 0)">
        <path id="Fill-1" d="M74.259,284.955a8.731,8.731,0,0,1,7.219,3.77l.006-.026,2.462,4.131L86,296.442a6.8,6.8,0,0,0,9.435,3.326V287.736a6.8,6.8,0,0,0-9.776,4.315l-.146.569L84.3,290.5l-.039-.072-.059-.1v-8.873H71.076v4.1a8.779,8.779,0,0,1,3.183-.6" transform="translate(-71.076 -281.454)" fill="#fff" fill-rule="evenodd"/>
        <path id="Fill-3" d="M101.94,287.385a8.826,8.826,0,0,1,6.07-2.43,8.728,8.728,0,0,1,3.18.6v-4.105H101.94Z" transform="translate(-86.827 -281.454)" fill="#fff" fill-rule="evenodd"/>
        <path id="Fill-5" d="M92.26,308.27a8.847,8.847,0,0,1-7.308-3.9l0,.01L83.19,301.5l-2.816-5.018a6.95,6.95,0,0,0-.356-.635h0L80,295.82a6.81,6.81,0,0,0-8.927-2.369V305.5a6.816,6.816,0,0,0,9.777-4.322l.148-.578,1.3,2.33.021.1v5.245H80.335v-2.438a8.755,8.755,0,0,1-9.259,1.833v3.873H95.44v-3.873a8.737,8.737,0,0,1-3.18.6" transform="translate(-71.076 -287.174)" fill="#fff" fill-rule="evenodd"/>
        <path id="Fill-7" d="M140.9,301.212a4.17,4.17,0,0,1,3.118,1.25,4.705,4.705,0,0,1,0,6.348,4.168,4.168,0,0,1-3.118,1.25,4.046,4.046,0,0,1-3.058-1.249,4.706,4.706,0,0,1,0-6.348,4.045,4.045,0,0,1,3.058-1.25m.089-3.941a8.34,8.34,0,0,0-6.058,2.373,8.1,8.1,0,0,0-2.441,6.006,8.215,8.215,0,0,0,2.314,5.97A7.793,7.793,0,0,0,140.375,314l.032.032h.228a6.96,6.96,0,0,0,3.366-.865,6.868,6.868,0,0,0,1.515-1.119v1.689H149.4V305.5a7.931,7.931,0,0,0-2.381-5.888,8.3,8.3,0,0,0-6.028-2.344" transform="translate(-102.418 -289.526)" fill="#fff" fill-rule="evenodd"/>
        <path id="Fill-9" d="M174.832,305.731h4.06V281.588h-4.06Z" transform="translate(-124.026 -281.522)" fill="#fff" fill-rule="evenodd"/>
        <path id="Fill-11" d="M199.285,302.144a4.14,4.14,0,0,1-3.146-1.219,4.314,4.314,0,0,1-1.174-3.159v-.13l-.028-.056a4.3,4.3,0,0,1,1.231-3.033,4.168,4.168,0,0,1,3.117-1.249,4.043,4.043,0,0,1,3.058,1.249,4.706,4.706,0,0,1,0,6.348,4.043,4.043,0,0,1-3.058,1.249m.878-12.877h-.553A7.362,7.362,0,0,0,194.877,291v-9.412h-4.06v16.088a8.172,8.172,0,0,0,2.377,6,8.956,8.956,0,0,0,12.149,0,8.087,8.087,0,0,0,2.411-6.007,8.22,8.22,0,0,0-2.344-5.969,7.831,7.831,0,0,0-5.247-2.441" transform="translate(-132.183 -281.522)" fill="#fff" fill-rule="evenodd"/>
        <path id="Fill-12" d="M241.729,306.549a3.988,3.988,0,0,1-.968,2.866,3.738,3.738,0,0,1-5.05,0,3.891,3.891,0,0,1-.968-2.836V297.9h-4.06v8.675a7.745,7.745,0,0,0,2.111,5.707,8.069,8.069,0,0,0,10.883,0,7.745,7.745,0,0,0,2.111-5.707v-8.7h-4.06Z" transform="translate(-152.529 -289.833)" fill="#fff" fill-rule="evenodd"/>
        <path id="Fill-13" d="M270.441,299.93c-1.488,1.393-2.243,3.476-2.243,6.192V314h4.06v-7.878a4.224,4.224,0,0,1,1.167-3.153,4.108,4.108,0,0,1,3.064-1.167h2.089V297.79l-2.089.041a8.53,8.53,0,0,0-6.048,2.1" transform="translate(-171.674 -289.791)" fill="#fff" fill-rule="evenodd"/>
        <path id="Fill-14" d="M300.25,302.025a4.166,4.166,0,0,1-3.117-1.249,4.7,4.7,0,0,1,0-6.348,4.167,4.167,0,0,1,3.117-1.25,4.044,4.044,0,0,1,3.058,1.25,4.7,4.7,0,0,1,0,6.348A4.043,4.043,0,0,1,300.25,302.025Zm4.349-11.084a7.366,7.366,0,0,0-4.733-1.733,10.489,10.489,0,0,0-1.583.072c-.183.028-.362.075-.542.12a6.942,6.942,0,0,0-1.193.43,7.506,7.506,0,0,0-1.094.631,9.011,9.011,0,0,0-1.008.816q-.179.166-.349.34a8.4,8.4,0,0,0,6.095,14.349,8.34,8.34,0,0,0,6.058-2.373,8.05,8.05,0,0,0,2.411-5.977V281.529H304.6Z" transform="translate(-183.709 -281.492)" fill="#fff" fill-rule="evenodd"/>
        <path id="Fill-15" d="M339.938,301.212a4.168,4.168,0,0,1,3.117,1.25,4.7,4.7,0,0,1,0,6.348,4.166,4.166,0,0,1-3.117,1.25,4.045,4.045,0,0,1-3.058-1.249,4.706,4.706,0,0,1,0-6.348,4.043,4.043,0,0,1,3.058-1.25m.089-3.941a8.339,8.339,0,0,0-6.058,2.373,8.1,8.1,0,0,0-2.44,6.006,8.216,8.216,0,0,0,2.314,5.97A7.793,7.793,0,0,0,339.411,314l.032.032h.228a6.958,6.958,0,0,0,3.366-.865,6.859,6.859,0,0,0,1.515-1.119v1.689h3.883V305.5a7.933,7.933,0,0,0-2.381-5.888,8.3,8.3,0,0,0-6.028-2.344" transform="translate(-203.993 -289.526)" fill="#fff" fill-rule="evenodd"/>
        <path id="Fill-16" d="M380.422,297.27a7.359,7.359,0,0,0-7.76,7.848v8.616h4.179v-8.557a4.01,4.01,0,0,1,1-2.924,3.958,3.958,0,0,1,5.286,0,4.008,4.008,0,0,1,1,2.924v8.557h4.06v-8.616a7.359,7.359,0,0,0-7.76-7.848" transform="translate(-224.985 -289.526)" fill="#fff" fill-rule="evenodd"/>
        <path id="Fill-17" d="M436.32,301.212a4.169,4.169,0,0,1,3.117,1.25,4.7,4.7,0,0,1,0,6.348,4.166,4.166,0,0,1-3.117,1.25,4.045,4.045,0,0,1-3.059-1.249,4.7,4.7,0,0,1,0-6.348,4.043,4.043,0,0,1,3.059-1.25m.089-3.941a8.339,8.339,0,0,0-6.058,2.373,8.1,8.1,0,0,0-2.441,6.006,8.216,8.216,0,0,0,2.314,5.97A7.792,7.792,0,0,0,435.793,314l.032.032h.228a6.958,6.958,0,0,0,3.366-.865,6.86,6.86,0,0,0,1.515-1.119v1.689h3.883V305.5a7.933,7.933,0,0,0-2.381-5.888,8.3,8.3,0,0,0-6.028-2.344" transform="translate(-253.18 -289.526)" fill="#fff" fill-rule="evenodd"/>
        <path id="Fill-18" d="M471.6,310.216l7.111-5.818c1.545-.962,2.328-2.1,2.328-3.375a3.3,3.3,0,0,0-.919-2.3,3.563,3.563,0,0,0-2.706-.971H467.261v3.764h9.2l-7.306,5.9a3.656,3.656,0,0,0-2.1,3.113,3.43,3.43,0,0,0,.909,2.347,3.472,3.472,0,0,0,2.716,1.011h10.477v-3.675Z" transform="translate(-273.156 -289.772)" fill="#fff" fill-rule="evenodd"/>
        <path id="Fill-19" d="M413.43,297.27a2.8,2.8,0,1,0,2.8,2.8,2.8,2.8,0,0,0-2.8-2.8" transform="translate(-244.359 -289.526)" fill="#fff" fill-rule="evenodd"/>
      </g>
    </g>
  </g>
</svg>
