<svg xmlns="http://www.w3.org/2000/svg" xmlns:xlink="http://www.w3.org/1999/xlink" width="104" height="40" viewBox="0 0 104 40">
  <defs>
    <clipPath id="clip-path">
      <rect id="Rectangle_2" data-name="Rectangle 2" width="104" height="40" transform="translate(714 155)" fill="#fff" stroke="#707070" stroke-width="1"/>
    </clipPath>
  </defs>
  <g id="Logo" transform="translate(-714 -155)" clip-path="url(#clip-path)">
    <path id="logo_white" d="M57.853,2.926H64.3a5.318,5.318,0,0,1,2.5.542,4.521,4.521,0,0,1,1.561,1.409,3.413,3.413,0,0,1,.52,1.843,3.253,3.253,0,0,1-.676,2.059,3.543,3.543,0,0,1-1.873,1.246,2.866,2.866,0,0,1,1.665.7,3.8,3.8,0,0,1,1.093,1.463,4.157,4.157,0,0,1,.364,1.734,3.287,3.287,0,0,1-.52,1.843,3.161,3.161,0,0,1-1.509,1.355,5.957,5.957,0,0,1-2.549.542H57.853ZM60.87,9h2.653a2.434,2.434,0,0,0,1.717-.65,2.11,2.11,0,0,0,.676-1.409,1.979,1.979,0,0,0-.572-1.355,2.512,2.512,0,0,0-1.769-.6H60.87Zm0,6.612h2.965a2.648,2.648,0,0,0,1.353-.325,2.452,2.452,0,0,0,.832-.813,1.789,1.789,0,0,0,.26-1.03,1.836,1.836,0,0,0-.312-1.03,2.216,2.216,0,0,0-.884-.813,2.648,2.648,0,0,0-1.353-.325H60.87ZM71.64,7.262a15.69,15.69,0,0,1,4.422-.7,6.713,6.713,0,0,1,3.122.65,2.341,2.341,0,0,1,1.3,2.114v8.292H77.623V12.085a6.782,6.782,0,0,1-1.249.542c-.52.163-.988.325-1.509.488a2.832,2.832,0,0,0-1.2.65,1.525,1.525,0,0,0-.52,1.084,1.2,1.2,0,0,0,.52.975,2.035,2.035,0,0,0,1.145.325,3.742,3.742,0,0,0,1.041-.163c.364-.108.624-.217.78-.271l-.312,1.9a10.356,10.356,0,0,1-2.341.325,3.723,3.723,0,0,1-2.809-.975,3.036,3.036,0,0,1-.988-2.276,3.874,3.874,0,0,1,.1-.7,3.242,3.242,0,0,1,.728-1.246,4.448,4.448,0,0,1,1.145-.813,7.215,7.215,0,0,1,1.4-.488c.468-.108,1.249-.325,2.237-.542,1.093-.217,1.665-.65,1.665-1.246a1.069,1.069,0,0,0-.312-.7,1.277,1.277,0,0,0-.728-.434,5.9,5.9,0,0,0-.832-.054,12.042,12.042,0,0,0-4.162.921l.208-2.114Zm9.781,10.351V6.72h3.018V8.292A4.776,4.776,0,0,1,86.1,6.828a4.7,4.7,0,0,1,2.081-.488,6.484,6.484,0,0,1,2.445.379A3.515,3.515,0,0,1,92.086,7.8a2.953,2.953,0,0,1,.468,1.626v8.129H89.589V10.73a1.675,1.675,0,0,0-.676-1.409,2.574,2.574,0,0,0-1.665-.542,2.729,2.729,0,0,0-1.3.325,2.609,2.609,0,0,0-1.041.975,3.115,3.115,0,0,0-.416,1.626v5.907ZM100.046,6.72h3.33l-3.85,4.661L104,17.613h-3.33l-4.162-6.232,3.538-4.661ZM93.439,2.764h3.018V17.613H93.439V2.764ZM0,10.3,9.885,0,19.77,10.3l-9.885,10.3Zm2.965,2.71L9.885,8.834l6.867,4.173L9.885,5.8ZM27.678,2.926H31.32L35.742,14.2l1.4,3.414h-3.33L32,12.627H26.481L24.5,17.613H21.071L26.065,6.395l1.613-3.468Zm3.486,7.262L29.447,5.2l-2.133,4.986h3.85Zm11.29-6.016v2.6h2.705V9.05H42.453v5.04c.208,1.03.676,1.572,1.457,1.572a1.723,1.723,0,0,0,.468-.054L45,15.445a2.353,2.353,0,0,0,.468-.163L45.159,17.5a10.756,10.756,0,0,1-2.757.379c-1.925,0-2.913-1.03-2.913-3.143V9H37.979V6.72h1.509V5.04ZM47.6,7.262a15.69,15.69,0,0,1,4.422-.7,6.713,6.713,0,0,1,3.122.65,2.341,2.341,0,0,1,1.3,2.114v8.292H53.587V12.085a6.782,6.782,0,0,1-1.249.542c-.52.163-.988.325-1.509.488a2.833,2.833,0,0,0-1.2.65,1.525,1.525,0,0,0-.52,1.084,1.2,1.2,0,0,0,.52.975,2.035,2.035,0,0,0,1.145.325,3.742,3.742,0,0,0,1.041-.163c.364-.108.624-.217.78-.271l-.312,1.9a10.355,10.355,0,0,1-2.341.325,3.723,3.723,0,0,1-2.809-.975,3.036,3.036,0,0,1-.988-2.276,3.874,3.874,0,0,1,.1-.7,3.242,3.242,0,0,1,.728-1.246,4.448,4.448,0,0,1,1.145-.813,7.215,7.215,0,0,1,1.4-.488c.468-.108,1.249-.325,2.237-.542,1.093-.217,1.665-.65,1.665-1.246a1.069,1.069,0,0,0-.312-.7,1.278,1.278,0,0,0-.728-.434,5.9,5.9,0,0,0-.832-.054,12.043,12.043,0,0,0-4.162.921L47.6,7.262Z" transform="translate(714 164.703)" fill="#224099" fill-rule="evenodd"/>
  </g>
</svg>
