<svg xmlns="http://www.w3.org/2000/svg" width="136" height="31.37" viewBox="0 0 136 31.37">
  <g id="Group_12" data-name="Group 12" transform="translate(-110.934 -262.668)">
    <g id="Group_12-2" data-name="Group 12" transform="translate(200.675 262.668)">
      <rect id="Rectangle_38" data-name="Rectangle 38" width="4.775" height="17.532" transform="translate(33.696 6.971)" fill="#fff"/>
      <path id="Path_84" data-name="Path 84" d="M448.869,262.668v24.4h-4.636l.035-24.4Z" transform="translate(-402.61 -262.668)" fill="#fff"/>
      <path id="Path_85" data-name="Path 85" d="M357.257,285.19a9.264,9.264,0,0,0-1.952-2.876,9.158,9.158,0,0,0-2.91-1.952,8.96,8.96,0,0,0-3.555-.715,6.347,6.347,0,0,0-5.507,2.626v-2.348h-4.706v24.4h4.706V288.684a4.748,4.748,0,0,1,.384-1.9,4.9,4.9,0,0,1,2.6-2.6,5.006,5.006,0,0,1,3.851,0,5.087,5.087,0,0,1,1.586,1.054,4.83,4.83,0,0,1,1.447,3.474,5,5,0,0,1-1.447,3.563,4.931,4.931,0,0,1-1.586,1.071,4.836,4.836,0,0,1-1.917.386,4.669,4.669,0,0,1-1.917-.419l-.035-.034-.006.011v4.173a7.513,7.513,0,0,0,2.55.416,8.96,8.96,0,0,0,3.555-.715,9.114,9.114,0,0,0,5.577-8.452A8.712,8.712,0,0,0,357.257,285.19Z" transform="translate(-338.627 -272.956)" fill="#fff"/>
      <path id="Path_86" data-name="Path 86" d="M403.5,293.47a5.268,5.268,0,0,1-.887.374,3.834,3.834,0,0,1-1.15.174,4.029,4.029,0,0,1-1.987-.4,2.5,2.5,0,0,1-1.028-1.063,3.913,3.913,0,0,1-.384-1.534q-.053-.871-.052-1.813v-8.853h-4.775v8.853q0,4.5,1.638,6.553,1.778,2.3,6.03,2.3a7.213,7.213,0,0,0,2.595-.454Z" transform="translate(-371.715 -273.384)" fill="#fff"/>
    </g>
    <g id="Group_13" data-name="Group 13" transform="translate(146.272 265.142)">
      <rect id="Rectangle_39" data-name="Rectangle 39" width="4.741" height="17.427" transform="translate(0 4.497)" fill="#fff"/>
      <path id="Path_87" data-name="Path 87" d="M308.906,286.827a1.905,1.905,0,0,1-1.377-.558,1.819,1.819,0,0,1-.575-1.359v-5.786h4.9v-3.869h-4.9v-6.309h-4.636v6.309h-2.51v3.869h2.51v5.228a6.235,6.235,0,0,0,.523,2.544,6.767,6.767,0,0,0,1.412,2.073,6.46,6.46,0,0,0,2.091,1.395,6.551,6.551,0,0,0,2.562.505h3.381v-4.044Z" transform="translate(-260.706 -268.946)" fill="#fff"/>
      <path id="Path_88" data-name="Path 88" d="M227.689,284.667a6.7,6.7,0,0,0-1.255-2.719q-1.778-2.3-5.96-2.3a7.025,7.025,0,0,0-3.1.663v4.126a6.3,6.3,0,0,1,2.539-.641,4.173,4.173,0,0,1,1.987.385,2.3,2.3,0,0,1,1.011,1.066,4.35,4.35,0,0,1,.366,1.572q.052.891.052,1.87v8.666h4.74V288.71A18.093,18.093,0,0,0,227.689,284.667Z" transform="translate(-210.763 -275.43)" fill="#fff"/>
      <path id="Path_89" data-name="Path 89" d="M267.57,285.155a9.117,9.117,0,0,0-4.793-4.793,8.629,8.629,0,0,0-3.485-.715,8.837,8.837,0,0,0-3.538.715,9.07,9.07,0,0,0-4.81,4.793,8.943,8.943,0,0,0,0,7.006,9.178,9.178,0,0,0,1.934,2.858,8.894,8.894,0,0,0,2.876,1.917,9.017,9.017,0,0,0,3.538.7,8.9,8.9,0,0,0,4.1-.984,8.714,8.714,0,0,0,3.189-2.741l.07-.071-4.043-1.78-.07-.035-.035.035a3.221,3.221,0,0,1-1.481,1.168,5.428,5.428,0,0,1-1.725.261,3.783,3.783,0,0,1-1.882-.469,5.2,5.2,0,0,1-1.429-1.163,5.048,5.048,0,0,1-.906-1.545,4.757,4.757,0,0,1-.314-1.65,5.213,5.213,0,0,1,.349-1.927,4.671,4.671,0,0,1,.959-1.529,4.621,4.621,0,0,1,1.446-1.024,4.231,4.231,0,0,1,1.778-.383,4.042,4.042,0,0,1,2.666.942,5.192,5.192,0,0,1,1.621,2.4l-4.869.015v3.54h9.33l.035-.07a8.983,8.983,0,0,0,.209-1.952A8.712,8.712,0,0,0,267.57,285.155Z" transform="translate(-230.667 -275.43)" fill="#fff"/>
    </g>
    <g id="Group_14" data-name="Group 14" transform="translate(110.934 265.504)">
      <path id="Path_90" data-name="Path 90" d="M126.992,295.32l-13.821-4.643c-2.272,3.44-2.937,7.426-1.422,10.9,2.658,6.1,11.034,8.345,18.847,5.131Z" transform="translate(-110.934 -282.474)" fill="#fff"/>
      <path id="Path_91" data-name="Path 91" d="M145.519,276.461c-2.7-6.2-11.315-8.423-19.237-4.97a18.842,18.842,0,0,0-6.961,5.145L138.4,276.5l-.413,16.477C144.651,289.175,147.994,282.138,145.519,276.461Z" transform="translate(-116.015 -269.865)" fill="#fff"/>
    </g>
  </g>
</svg>
