<svg xmlns="http://www.w3.org/2000/svg" width="13.186" height="16.135" viewBox="0 0 13.186 16.135"><path d="M28.556,74.425c-1.364,2.367-.5,5.959,1.012,8.137.753,1.089,1.515,2.066,2.559,2.066h.06a3.161,3.161,0,0,0,1.188-.317,3.253,3.253,0,0,1,1.407-.334,3.059,3.059,0,0,1,1.339.323,2.837,2.837,0,0,0,1.283.308c1.176-.022,1.9-1.077,2.535-2.007a8.9,8.9,0,0,0,1.111-2.275l0-.014a.132.132,0,0,0-.07-.162l-.01,0a3.371,3.371,0,0,1-2.043-3.087,3.47,3.47,0,0,1,1.64-2.9l.013-.008a.132.132,0,0,0,.038-.186,3.816,3.816,0,0,0-3-1.63c-.085-.009-.173-.013-.262-.013a5.232,5.232,0,0,0-1.884.47,3.028,3.028,0,0,1-.9.27,2.953,2.953,0,0,1-.933-.273,4.523,4.523,0,0,0-1.645-.418h-.042A4.034,4.034,0,0,0,28.556,74.425Z" transform="translate(-27.875 -68.494)" fill="#f7f8fa"/><path d="M152.537,0a3.684,3.684,0,0,0-2.432,1.248,3.452,3.452,0,0,0-.874,2.559.132.132,0,0,0,.121.114c.056,0,.114.007.171.007a3.116,3.116,0,0,0,2.3-1.177,3.639,3.639,0,0,0,.855-2.633A.133.133,0,0,0,152.537,0Z" transform="translate(-142.791 0)" fill="#f7f8fa"/></svg>