<svg xmlns="http://www.w3.org/2000/svg" width="16.014" height="16" viewBox="0 0 16.014 16"><g transform="translate(0 0)"><path d="M.016.393A.5.5,0,0,1,.622.029l2,.5A.5.5,0,0,1,3,.935l.254,1.6L15.576,4.018c.01,0,.017.008.028.01s.022,0,.034,0a.45.45,0,0,1,.075.036.471.471,0,0,1,.08.038.5.5,0,0,1,.091.086.508.508,0,0,1,.045.041.07.07,0,0,1,.005.013.514.514,0,0,1,.057.137.468.468,0,0,1,.018.05.524.524,0,0,1-.007.2l-1.5,6-.5,2c0,.015-.012.026-.017.04a.44.44,0,0,1-.03.069.475.475,0,0,1-.061.091c-.014.017-.03.034-.046.05a.517.517,0,0,1-.1.065.427.427,0,0,1-.054.03.508.508,0,0,1-.178.034H3a.5.5,0,1,1,0-1h10.12l.25-1H4a.492.492,0,0,1-.176-.031.593.593,0,0,1-.061-.035.487.487,0,0,1-.089-.054.609.609,0,0,1-.051-.059.656.656,0,0,1-.061-.075.644.644,0,0,1-.03-.086.52.52,0,0,1-.03-.079l0-.01v-.006L2.06,1.419.38,1A.5.5,0,0,1,.016.393Zm13.607,9.621,1.269-5.07-1.552-.186-.752,5.256Zm-2.045,0,.769-5.375-1.559-.187-.253,5.562Zm-3.091,0H9.531L9.79,4.331,8.232,4.145Zm-2.039,0H7.485l-.26-5.99L5.674,3.838Zm-2.006,0h1l-.788-6.3L3.584,3.587Zm7.07,4a1,1,0,1,1-1,1A1,1,0,0,1,11.512,14.014ZM5,14.014a1,1,0,1,1-1,1A1,1,0,0,1,5,14.014Z" transform="translate(0 -0.014)" fill="#222426"/></g></svg>