<svg xmlns="http://www.w3.org/2000/svg" width="90.649" height="66.263" viewBox="0 0 90.649 66.263">
  <g id="delivery" transform="translate(0 -68.867)">
    <g id="Group_445" data-name="Group 445" transform="translate(0 68.867)">
      <g id="Group_444" data-name="Group 444" transform="translate(0 0)">
        <path id="Path_5120" data-name="Path 5120" d="M73.387,90.052H67.68L69.4,70.31c0-.036,0-.071,0-.106,0,0,0-.006,0-.009h0a1.328,1.328,0,0,0-.8-1.217l-.012-.006c-.03-.012-.06-.023-.091-.033l-.034-.012c-.025-.008-.051-.014-.077-.02l-.054-.013-.069-.011c-.022,0-.043-.007-.065-.009h-.011c-.023,0-.046,0-.07,0l-.046,0H40.9a1.328,1.328,0,1,0,0,2.656H66.628l-2.643,30.342s0,0,0,.007l-.667,7.656H17.177l.772-7.967h8.785a1.328,1.328,0,0,0,0-2.656H18.206l1.63-16.819H33.818a1.328,1.328,0,1,0,0-2.656H20.093l.766-7.907H35.589a1.328,1.328,0,0,0,0-2.656H19.652a1.328,1.328,0,0,0-1.3,1.048l0,.013c-.007.033-.011.067-.016.1,0,.011,0,.021,0,.032v.006l-.907,9.363H1.328a1.328,1.328,0,1,0,0,2.656h15.84L15.538,98.9H10.8a1.328,1.328,0,0,0,0,2.656h4.48l-.887,9.157v0l-1.372,14.16v.01c0,.018,0,.036,0,.055s0,.048,0,.073c0,0,0,0,0,0,0,.034,0,.068,0,.1,0,.011,0,.022,0,.032,0,.034.009.068.016.1,0,.01,0,.02,0,.03.005.025.012.05.019.075s.008.035.014.053,0,.009.005.014a1.327,1.327,0,0,0,.316.52l.007.008c.014.014.03.027.044.04a1.318,1.318,0,0,0,.308.211c.024.012.047.024.071.034l.022.008c.033.013.067.026.1.037l.009,0c.039.012.079.022.12.03l.016,0c.039.007.077.013.117.017h0q.065.006.13.006h5.913a10.108,10.108,0,0,0,20.041,0H61.6a10.108,10.108,0,0,0,20.041,0h5.916c.044,0,.088,0,.131-.007l.023,0c.035,0,.069-.009.1-.016l.043-.01c.026-.006.052-.012.078-.02l.051-.017.065-.024.054-.023.058-.028.053-.029.054-.033.049-.033.053-.039.043-.035c.018-.015.035-.032.053-.048l.036-.035c.018-.019.036-.039.053-.059l.028-.032c.019-.024.037-.049.055-.074l.019-.026c.022-.032.042-.066.061-.1l0-.006c.02-.037.038-.075.055-.113,0-.011.008-.023.013-.034.011-.027.021-.055.03-.083s.01-.037.015-.056.012-.044.017-.067.007-.041.011-.061.007-.035.009-.054c.056-.451,1.1-8.794,1.561-14.188,0-.005,0-.01,0-.016.134-1.555.219-2.864.219-3.666A17.282,17.282,0,0,0,73.387,90.052Zm-5.938,2.656h5.432l-.694,7.967H66.754ZM30.277,132.474a7.454,7.454,0,1,1,7.454-7.454A7.463,7.463,0,0,1,30.277,132.474Zm41.339,0a7.454,7.454,0,1,1,7.455-7.454A7.463,7.463,0,0,1,71.616,132.474Zm14.76-8.783H81.637a10.108,10.108,0,0,0-20.041,0H40.3a10.108,10.108,0,0,0-20.041,0H15.8l1.115-11.509H64.536a1.307,1.307,0,0,0,.132-.007l.024,0c.035,0,.069-.009.1-.016l.044-.011c.027-.006.053-.013.079-.02l.052-.018.066-.024.055-.025.058-.028L65.2,112l.054-.033.05-.035.052-.038.045-.038.049-.045.04-.04.047-.051.035-.042c.015-.019.029-.038.042-.057l.03-.044c.013-.02.025-.041.037-.061s.018-.031.026-.047.021-.042.031-.064.016-.034.023-.052.016-.042.024-.064.013-.038.019-.057.011-.042.016-.062.011-.042.015-.063.007-.042.01-.063.007-.044.009-.066c0,0,0-.006,0-.009l.666-7.64h6.863c4.068,0,5.9,2.108,7.846,4.34,1.6,1.841,3.392,3.9,6.434,4.4C87.28,116.152,86.655,121.4,86.376,123.691Zm1.517-14.285c-1.973-.4-3.187-1.789-4.658-3.479-1.839-2.113-4.085-4.692-8.389-5.172l.687-7.887a14.628,14.628,0,0,1,12.461,14.448C87.993,107.813,87.956,108.536,87.893,109.406Z" transform="translate(0 -68.867)" fill="#73d684"/>
      </g>
    </g>
    <g id="Group_447" data-name="Group 447" transform="translate(25.408 120.151)">
      <g id="Group_446" data-name="Group 446">
        <path id="Path_5121" data-name="Path 5121" d="M148.377,358.524a4.869,4.869,0,1,0,4.869,4.869A4.874,4.874,0,0,0,148.377,358.524Zm0,7.082a2.213,2.213,0,1,1,2.213-2.213A2.216,2.216,0,0,1,148.377,365.606Z" transform="translate(-143.508 -358.524)" fill="#73d684"/>
      </g>
    </g>
    <g id="Group_449" data-name="Group 449" transform="translate(66.747 120.151)">
      <g id="Group_448" data-name="Group 448">
        <path id="Path_5122" data-name="Path 5122" d="M381.865,358.524a4.869,4.869,0,1,0,4.869,4.869A4.874,4.874,0,0,0,381.865,358.524Zm0,7.082a2.213,2.213,0,1,1,2.213-2.213A2.215,2.215,0,0,1,381.865,365.606Z" transform="translate(-376.996 -358.524)" fill="#73d684"/>
      </g>
    </g>
    <g id="Group_451" data-name="Group 451" transform="translate(4.751 90.053)">
      <g id="Group_450" data-name="Group 450" transform="translate(0 0)">
        <path id="Path_5123" data-name="Path 5123" d="M34.654,188.527H28.162a1.328,1.328,0,0,0,0,2.656h6.492a1.328,1.328,0,1,0,0-2.656Z" transform="translate(-26.834 -188.527)" fill="#73d684"/>
      </g>
    </g>
  </g>
</svg>
