<svg xmlns="http://www.w3.org/2000/svg" width="14.361" height="15.667" viewBox="0 0 14.361 15.667">
  <g id="trash" transform="translate(-18.269)" opacity="0.2">
    <g id="Group_434" data-name="Group 434" transform="translate(18.269)">
      <path id="Path_5116" data-name="Path 5116" d="M32.539,2.7a.318.318,0,0,0-.234-.092H29.152l-.714-1.7a1.414,1.414,0,0,0-.551-.643A1.441,1.441,0,0,0,27.082,0H23.818a1.44,1.44,0,0,0-.806.265,1.413,1.413,0,0,0-.551.643l-.714,1.7H18.6a.314.314,0,0,0-.326.326V3.59a.314.314,0,0,0,.326.326h.979v9.71a2.231,2.231,0,0,0,.479,1.443,1.436,1.436,0,0,0,1.153.6h8.486a1.422,1.422,0,0,0,1.153-.617,2.316,2.316,0,0,0,.479-1.464V3.917H32.3a.314.314,0,0,0,.326-.326V2.937A.318.318,0,0,0,32.539,2.7ZM23.665,1.418a.287.287,0,0,1,.173-.112h3.233a.288.288,0,0,1,.173.112l.49,1.193h-4.57Zm6.355,12.169a1.156,1.156,0,0,1-.071.413.92.92,0,0,1-.148.275c-.051.058-.087.087-.107.087H21.207c-.02,0-.056-.029-.107-.087A.915.915,0,0,1,20.951,14a1.159,1.159,0,0,1-.071-.413V3.917h9.139v9.67Z" transform="translate(-18.269)" fill="#222426"/>
      <path id="Path_5117" data-name="Path 5117" d="M128.231,170.977h.653a.314.314,0,0,0,.326-.326v-5.875a.314.314,0,0,0-.326-.326h-.653a.314.314,0,0,0-.326.326v5.875a.314.314,0,0,0,.326.326Z" transform="translate(-123.988 -158.574)" fill="#222426"/>
      <path id="Path_5118" data-name="Path 5118" d="M201.32,170.977h.653a.314.314,0,0,0,.326-.326v-5.875a.314.314,0,0,0-.326-.326h-.653a.314.314,0,0,0-.326.326v5.875a.314.314,0,0,0,.326.326Z" transform="translate(-194.466 -158.574)" fill="#222426"/>
      <path id="Path_5119" data-name="Path 5119" d="M274.409,170.977h.653a.314.314,0,0,0,.326-.326v-5.875a.314.314,0,0,0-.326-.326h-.653a.314.314,0,0,0-.326.326v5.875a.314.314,0,0,0,.326.326Z" transform="translate(-264.944 -158.574)" fill="#222426"/>
    </g>
  </g>
</svg>
