<svg xmlns="http://www.w3.org/2000/svg" width="16.021" height="16.021" viewBox="0 0 16.021 16.021"><g transform="translate(0)"><path d="M4.115,14.77H1.9a.636.636,0,0,1-.5-.238.654.654,0,0,1-.133-.548A6.914,6.914,0,0,1,7.851,8.508c.053,0,.106,0,.159,0s.107,0,.161,0a6.854,6.854,0,0,1,2.26.435.626.626,0,0,0,.44-1.172q-.155-.058-.313-.11a4.256,4.256,0,1,0-5.094,0A8.138,8.138,0,0,0,.041,13.728,1.9,1.9,0,0,0,1.9,16.021H4.115a.626.626,0,1,0,0-1.252ZM5.007,4.256a3,3,0,1,1,3.15,3l-.146,0-.147,0A3.008,3.008,0,0,1,5.007,4.256Z" transform="translate(0)" fill="#222426"/><path d="M156.973,313.989a1.686,1.686,0,0,0-1.539-.989h-1.956a1.657,1.657,0,0,0-1.565,1.058c-.033.086-.073.193-.115.319h-4.1a.626.626,0,0,0-.449.19l-1.075,1.107a.626.626,0,0,0,0,.875l1.1,1.114a.626.626,0,0,0,.446.187h2.034a.626.626,0,0,0,0-1.252h-1.772l-.483-.491.465-.479h4.3a.626.626,0,0,0,.608-.477,5.17,5.17,0,0,1,.206-.644.41.41,0,0,1,.4-.255h1.953a.427.427,0,0,1,.4.248,4.042,4.042,0,0,1,.37,1.6,4.161,4.161,0,0,1-.367,1.624.427.427,0,0,1-.393.256h-1.976a.445.445,0,0,1-.4-.277,4.161,4.161,0,0,1-.194-.619.626.626,0,1,0-1.217.291,5.386,5.386,0,0,0,.254.805,1.688,1.688,0,0,0,1.559,1.052h1.979a1.678,1.678,0,0,0,1.539-1.008,5.417,5.417,0,0,0,.472-2.127A5.3,5.3,0,0,0,156.973,313.989Z" transform="translate(-141.431 -303.206)" fill="#222426"/><circle cx="0.626" cy="0.626" r="0.626" transform="translate(12.861 12.266)" fill="#222426"/></g></svg>