<svg xmlns="http://www.w3.org/2000/svg" width="30.522" height="35.8" viewBox="0 0 30.522 35.8">
  <g id="_003-wiping-vacuum-tool" data-name="003-wiping-vacuum-tool" transform="translate(-54.65)">
    <g id="Group_102" data-name="Group 102" transform="translate(54.65)">
      <path id="Path_227" data-name="Path 227" d="M92.667,8.274l.016.007,24.069,8.769a1.258,1.258,0,0,1,.773,1.164v4.322a1.265,1.265,0,0,1-1.263,1.263h-.056l-3.245.376q.157.928.253,1.915l3.109-.36a3.2,3.2,0,0,0,3.134-3.194V18.215a3.182,3.182,0,0,0-1.992-2.96l-.016-.007L93.38,6.479a1.258,1.258,0,0,1-.773-1.164V5.277A1.265,1.265,0,0,1,93.87,4.014h21.1V5.9a.966.966,0,0,0,.966.966h.193a.966.966,0,0,0,.966-.966V.966A.966.966,0,0,0,116.125,0h-.193a.966.966,0,0,0-.966.966V2.082H93.87a3.2,3.2,0,0,0-3.195,3.195v.038A3.182,3.182,0,0,0,92.667,8.274Z" transform="translate(-88.935)" fill="#fff"/>
      <path id="Path_228" data-name="Path 228" d="M86.966,269.325c-4.758,0-8.854,2.688-10.692,8.59H97.658C95.819,272.013,91.724,269.325,86.966,269.325Zm5.456,6.444H81.51a.616.616,0,0,1-.6-.762c.511-2.031,3.028-3.573,6.056-3.573s5.545,1.542,6.056,3.573A.616.616,0,0,1,92.422,275.769Z" transform="translate(-75.23 -256.319)" fill="#fff"/>
      <path id="Path_229" data-name="Path 229" d="M60.69,479.309a6.04,6.04,0,0,1,4.444,10.134h.358c.756,0,1.538-.007,2.339-.007s1.583.007,2.339.007c5.355,0,9.386-.351,9.386-6.026q0-1.621-.141-3.07-.1-1-.254-1.915-.11-.64-.248-1.242H56.75a25.6,25.6,0,0,0-.581,4.155A6.03,6.03,0,0,1,60.69,479.309Z" transform="translate(-56.096 -454.147)" fill="#fff"/>
      <path id="Path_230" data-name="Path 230" d="M59.245,560.224a4.595,4.595,0,1,0-4.309-3A4.584,4.584,0,0,0,59.245,560.224Z" transform="translate(-54.65 -524.423)" fill="#fff"/>
    </g>
  </g>
</svg>
