<svg xmlns="http://www.w3.org/2000/svg" width="40.328" height="24" viewBox="0 0 40.328 24">
  <g id="_004-wiping-brush" data-name="004-wiping-brush" transform="translate(0 -157.5)">
    <g id="Group_103" data-name="Group 103" transform="translate(0 157.5)">
      <path id="Path_231" data-name="Path 231" d="M22.844,167.974H57.31a1.827,1.827,0,0,0,0-3.654H29.963l3.05-3.166H51.481a1.827,1.827,0,0,0,0-3.654H32.36a2.356,2.356,0,0,0-1.534.658l-5.935,6.162H22.844a1.827,1.827,0,0,0,0,3.654Z" transform="translate(-19.928 -157.5)" fill="#fff"/>
      <path id="Path_232" data-name="Path 232" d="M37.634,386.707a1.416,1.416,0,0,0-1.359-1.031H4.111a1.492,1.492,0,0,0-1.432,1.086L.051,396.148a1.339,1.339,0,0,0,1.29,1.7H38.988a1.339,1.339,0,0,0,1.29-1.7ZM33.3,396.4l-1.59-4.788a.213.213,0,0,0-.415.07l.058,4.718H25.711l-1.2-4.8a.213.213,0,0,0-.419.038l-.3,4.758H16.505l-.3-4.758a.213.213,0,0,0-.419-.038l-1.2,4.8H8.944L9,391.679a.213.213,0,0,0-.415-.07L7,396.4H1.488l2.588-9.244a.036.036,0,0,1,.035-.026H36.244l2.6,9.27Z" transform="translate(0 -373.849)" fill="#fff"/>
    </g>
  </g>
</svg>
