<svg xmlns="http://www.w3.org/2000/svg" width="1920" height="464.403" viewBox="0 0 1920 464.403">
  <g id="Group_116" data-name="Group 116" transform="translate(0 -1410.597)">
    <path id="Intersection_1" data-name="Intersection 1" d="M-3894.08,297.606c-.849-.794-2.933-2.767-5.92-5.765V45.537c2.063-.88,4.186-1.754,6.344-2.61C-3786.269.34-3694.7,22.219-3594.16,44.1c81.348,17.7,168.569,35.406,274.795,18.961,237.509-36.771,338.462-3.769,427.517,32.831,1.87.768-1.855,8.2,0,9.192,75.481,40.33-51.655,184.017-59.28,192.523Z" transform="translate(3900 1396)" fill="#f3f9ff" opacity="0.87"/>
    <path id="Path_197" data-name="Path 197" d="M0,0S83.811,57.6,437.56,49.452,1145.335-45.4,1413.656-45.4C1893.656-45.4,1920,0,1920,0V419H0Z" transform="translate(0 1456)" fill="#f9fcff"/>
  </g>
</svg>
