<svg viewBox="0 0 240 40" fill="none" xmlns="http://www.w3.org/2000/svg"><g clip-path="url(#clip0)" fill="#8695B3"><path fill-rule="evenodd" clip-rule="evenodd" d="M25.136 18.438a12.666 12.666 0 11-9.22-10.014.884.884 0 11-.431 1.713 10.9 10.9 0 107.813 8.136l-1.745 1.745a.804.804 0 01-1.133 0 .803.803 0 010-1.132l3.147-3.147a.803.803 0 011.133 0l3.019 3.02a.804.804 0 010 1.131.804.804 0 01-1.132 0l-1.456-1.455.005.003zm-1.26-8.83a.803.803 0 00-1.133 0l-5.607 5.613a.803.803 0 000 1.132.804.804 0 001.132 0l5.611-5.61a.803.803 0 000-1.133l-.004-.003z" stroke="#fff" stroke-width=".216" stroke-miterlimit="22.926"/><path d="M12.745 24.512a3.843 3.843 0 100-7.686 3.843 3.843 0 000 7.686zm26.479-.416a.278.278 0 01-.204-.084.278.278 0 01-.084-.204v-7.812a.32.32 0 01.072-.216.292.292 0 01.216-.084h3.216c.96 0 1.716.228 2.268.684.552.448.828 1.108.828 1.98 0 .872-.276 1.532-.828 1.98-.544.44-1.3.66-2.268.66h-1.788v2.808c0 .08-.028.148-.084.204a.254.254 0 01-.204.084h-1.14zm3.156-4.428c.464 0 .82-.108 1.068-.324.248-.224.372-.552.372-.984 0-.416-.12-.74-.36-.972-.24-.24-.6-.36-1.08-.36h-1.752v2.64h1.752zm6.134 4.548c-.408 0-.784-.08-1.128-.24a2.145 2.145 0 01-.804-.672 1.599 1.599 0 01-.288-.924c0-.544.22-.984.66-1.32.44-.336 1.044-.564 1.812-.684l1.644-.24v-.252c0-.352-.088-.616-.264-.792-.176-.176-.46-.264-.852-.264-.264 0-.48.052-.648.156-.16.096-.288.192-.384.288-.096.104-.16.172-.192.204-.032.096-.092.144-.18.144h-.924a.287.287 0 01-.192-.072.26.26 0 01-.072-.192c.008-.2.104-.428.288-.684.192-.256.484-.476.876-.66.392-.184.872-.276 1.44-.276.944 0 1.632.212 2.064.636.432.424.648.98.648 1.668v3.768c0 .08-.028.148-.084.204a.254.254 0 01-.204.084h-.972a.278.278 0 01-.204-.084.278.278 0 01-.084-.204v-.468a1.997 1.997 0 01-.756.636c-.32.16-.72.24-1.2.24zm.408-1.14c.44 0 .8-.144 1.08-.432.28-.288.42-.708.42-1.26v-.252l-1.2.192c-.464.072-.816.188-1.056.348-.232.16-.348.356-.348.588 0 .256.108.456.324.6.216.144.476.216.78.216zm7.036 1.14c-.64 0-1.16-.092-1.56-.276-.392-.192-.68-.424-.864-.696a1.667 1.667 0 01-.288-.804v-.036c0-.056.02-.1.06-.132.048-.04.1-.06.156-.06h.984c.08 0 .14.016.18.048a.353.353 0 01.12.156c.08.232.224.4.432.504.216.096.496.144.84.144.352 0 .632-.068.84-.204.208-.136.312-.344.312-.624 0-.544-.324-.816-.972-.816h-.66a.26.26 0 01-.192-.072.26.26 0 01-.072-.192v-.504c0-.072.024-.132.072-.18a.24.24 0 01.192-.084h.612c.288 0 .504-.052.648-.156.144-.112.216-.284.216-.516a.743.743 0 00-.252-.576c-.168-.16-.44-.24-.816-.24-.36 0-.62.056-.78.168-.16.112-.284.296-.372.552a.438.438 0 01-.132.156c-.04.032-.1.048-.18.048h-.948a.254.254 0 01-.168-.06.193.193 0 01-.06-.168c.016-.32.116-.62.3-.9.192-.28.484-.508.876-.684.392-.184.884-.276 1.476-.276.88 0 1.528.172 1.944.516.424.344.636.76.636 1.248 0 .312-.06.572-.18.78-.112.208-.304.38-.576.516.64.248.96.772.96 1.572 0 .576-.256 1.028-.768 1.356-.504.328-1.176.492-2.016.492zm4.322 2.16a.278.278 0 01-.205-.084.254.254 0 01-.084-.204v-7.944c0-.088.029-.156.084-.204a.278.278 0 01.204-.084h.948c.089 0 .157.028.205.084a.254.254 0 01.084.204v.48c.448-.592 1.087-.888 1.92-.888.807 0 1.428.256 1.86.768.431.504.663 1.188.695 2.052.008.096.013.236.013.42 0 .192-.005.336-.013.432-.031.84-.263 1.52-.695 2.04-.433.512-1.053.768-1.86.768-.809 0-1.425-.284-1.849-.852v2.724a.254.254 0 01-.084.204.254.254 0 01-.203.084h-1.02zm2.712-3.444c.864 0 1.324-.532 1.38-1.596.007-.08.011-.2.011-.36 0-.16-.004-.28-.011-.36-.056-1.064-.517-1.596-1.38-1.596-.464 0-.808.148-1.032.444-.224.296-.349.66-.373 1.092l-.012.456.012.468c.016.4.14.744.372 1.032.24.28.584.42 1.032.42zm6.171 1.284c-.408 0-.784-.08-1.128-.24a2.145 2.145 0 01-.804-.672 1.599 1.599 0 01-.288-.924c0-.544.22-.984.66-1.32.44-.336 1.044-.564 1.812-.684l1.644-.24v-.252c0-.352-.088-.616-.264-.792-.176-.176-.46-.264-.852-.264-.264 0-.48.052-.648.156-.16.096-.288.192-.384.288-.096.104-.16.172-.192.204-.032.096-.092.144-.18.144h-.924a.287.287 0 01-.192-.072.26.26 0 01-.072-.192c.008-.2.104-.428.288-.684.192-.256.484-.476.876-.66.392-.184.872-.276 1.44-.276.944 0 1.632.212 2.064.636.432.424.648.98.648 1.668v3.768c0 .08-.028.148-.084.204a.254.254 0 01-.204.084h-.972a.278.278 0 01-.204-.084.278.278 0 01-.084-.204v-.468a1.997 1.997 0 01-.756.636c-.32.16-.72.24-1.2.24zm.408-1.14c.44 0 .8-.144 1.08-.432.28-.288.42-.708.42-1.26v-.252l-1.2.192c-.464.072-.816.188-1.056.348-.232.16-.348.356-.348.588 0 .256.108.456.324.6.216.144.476.216.78.216zm10.455-2.244c.008.088.012.224.012.408 0 .176-.004.304-.012.384-.04.8-.316 1.432-.828 1.896-.504.464-1.228.696-2.172.696-.992 0-1.732-.256-2.22-.768-.48-.52-.74-1.284-.78-2.292l-.012-.72.012-.72c.024-1.136.2-1.988.528-2.556a2.833 2.833 0 011.428-1.248c.624-.264 1.632-.564 3.024-.9l.06-.012c.064 0 .124.024.18.072.056.04.088.096.096.168l.156.792.012.072c0 .064-.02.12-.06.168a.327.327 0 01-.156.084l-.384.084c-.952.216-1.636.4-2.052.552-.408.144-.72.368-.936.672-.216.304-.34.76-.372 1.368.192-.24.444-.432.756-.576a2.43 2.43 0 011.008-.216c.84 0 1.492.232 1.956.696.464.464.716 1.096.756 1.896zm-1.632.732c.008-.056.012-.16.012-.312 0-.168-.004-.288-.012-.36-.016-.496-.136-.876-.36-1.14-.224-.272-.528-.408-.912-.408-.44 0-.788.136-1.044.408-.256.264-.392.644-.408 1.14l-.012.36.012.312c.016.504.14.888.372 1.152.232.264.56.396.984.396.424 0 .752-.128.984-.384.24-.264.368-.652.384-1.164zm5.732 2.652c-.936 0-1.66-.24-2.172-.72-.512-.488-.788-1.152-.828-1.992l-.012-.528.012-.528c.04-.832.32-1.492.84-1.98s1.24-.732 2.16-.732c.92 0 1.64.244 2.16.732.52.488.8 1.148.84 1.98.008.096.012.272.012.528s-.004.432-.012.528c-.04.84-.316 1.504-.828 1.992-.512.48-1.236.72-2.172.72zm0-1.188c.424 0 .752-.132.984-.396.232-.272.36-.668.384-1.188.008-.08.012-.236.012-.468 0-.232-.004-.388-.012-.468-.024-.52-.152-.912-.384-1.176-.232-.272-.56-.408-.984-.408-.424 0-.752.136-.984.408-.232.264-.36.656-.384 1.176l-.012.468.012.468c.024.52.152.916.384 1.188.232.264.56.396.984.396zm6.25 1.068a.278.278 0 01-.204-.084.278.278 0 01-.084-.204v-4.68h-1.956a.278.278 0 01-.204-.084.292.292 0 01-.084-.216v-.684c0-.088.028-.156.084-.204a.278.278 0 01.204-.084h5.448c.088 0 .16.028.216.084a.278.278 0 01.084.204v.684a.32.32 0 01-.084.216.292.292 0 01-.216.084h-1.944v4.68c0 .08-.028.148-.084.204a.254.254 0 01-.204.084h-.972zm6.267.12c-.408 0-.784-.08-1.128-.24a2.145 2.145 0 01-.804-.672 1.599 1.599 0 01-.288-.924c0-.544.22-.984.66-1.32.44-.336 1.044-.564 1.812-.684l1.644-.24v-.252c0-.352-.088-.616-.264-.792-.176-.176-.46-.264-.852-.264-.264 0-.48.052-.648.156-.16.096-.288.192-.384.288-.096.104-.16.172-.192.204-.032.096-.092.144-.18.144h-.924a.287.287 0 01-.192-.072.26.26 0 01-.072-.192c.008-.2.104-.428.288-.684.192-.256.484-.476.876-.66.392-.184.872-.276 1.44-.276.944 0 1.632.212 2.064.636.432.424.648.98.648 1.668v3.768c0 .08-.028.148-.084.204a.254.254 0 01-.204.084h-.972a.278.278 0 01-.204-.084.278.278 0 01-.084-.204v-.468a1.997 1.997 0 01-.756.636c-.32.16-.72.24-1.2.24zm.408-1.14c.44 0 .8-.144 1.08-.432.28-.288.42-.708.42-1.26v-.252l-1.2.192c-.464.072-.816.188-1.056.348-.232.16-.348.356-.348.588 0 .256.108.456.324.6.216.144.476.216.78.216zm4.924 1.02a.278.278 0 01-.204-.084.278.278 0 01-.084-.204v-5.664c0-.08.028-.148.084-.204a.278.278 0 01.204-.084h.996c.088 0 .156.028.204.084a.254.254 0 01.084.204v2.148h2.712v-2.148c0-.088.028-.156.084-.204a.278.278 0 01.204-.084h.996c.088 0 .156.028.204.084a.254.254 0 01.084.204v5.664c0 .08-.028.148-.084.204a.254.254 0 01-.204.084h-.996a.278.278 0 01-.204-.084.278.278 0 01-.084-.204v-2.256h-2.712v2.256c0 .08-.028.148-.084.204a.254.254 0 01-.204.084h-.996zm9.948.12c-.936 0-1.66-.24-2.172-.72-.512-.488-.788-1.152-.828-1.992l-.012-.528.012-.528c.04-.832.32-1.492.84-1.98s1.24-.732 2.16-.732c.92 0 1.64.244 2.16.732.52.488.8 1.148.84 1.98.008.096.012.272.012.528s-.004.432-.012.528c-.04.84-.316 1.504-.828 1.992-.512.48-1.236.72-2.172.72zm0-1.188c.424 0 .752-.132.984-.396.232-.272.36-.668.384-1.188.008-.08.012-.236.012-.468 0-.232-.004-.388-.012-.468-.024-.52-.152-.912-.384-1.176-.232-.272-.56-.408-.984-.408-.424 0-.752.136-.984.408-.232.264-.36.656-.384 1.176l-.012.468.012.468c.024.52.152.916.384 1.188.232.264.56.396.984.396zm7.372 1.068a.278.278 0 01-.204-.084.278.278 0 01-.084-.204v-5.664c0-.08.028-.148.084-.204a.278.278 0 01.204-.084h2.664c.824 0 1.444.152 1.86.456.424.304.636.728.636 1.272 0 .32-.06.576-.18.768-.12.184-.3.348-.54.492.28.128.496.32.648.576.16.256.24.544.24.864 0 .584-.216 1.032-.648 1.344-.432.312-1.06.468-1.884.468h-2.796zm2.64-3.696c.32 0 .572-.064.756-.192.184-.136.276-.332.276-.588 0-.248-.088-.424-.264-.528-.176-.104-.432-.156-.768-.156h-1.392V20.4h1.392zm.048 2.616c.328 0 .584-.06.768-.18a.635.635 0 00.288-.564c0-.264-.088-.456-.264-.576-.168-.12-.432-.18-.792-.18h-1.44v1.5h1.44zm10.17 1.2c-1.096 0-1.952-.284-2.568-.852-.608-.568-.932-1.36-.972-2.376a36.379 36.379 0 01-.012-1.116c0-.512.004-.884.012-1.116.04-.992.368-1.768.984-2.328.624-.568 1.476-.852 2.556-.852.736 0 1.368.124 1.896.372.528.248.928.56 1.2.936.272.368.416.732.432 1.092V18a.23.23 0 01-.072.168.272.272 0 01-.18.06h-1.236a.357.357 0 01-.18-.036.41.41 0 01-.108-.156 1.672 1.672 0 00-.588-.756c-.28-.216-.668-.324-1.164-.324-.56 0-1 .152-1.32.456-.312.304-.48.772-.504 1.404-.008.232-.012.584-.012 1.056 0 .464.004.816.012 1.056.048 1.272.664 1.908 1.848 1.908.568 0 1.024-.152 1.368-.456.344-.312.516-.772.516-1.38v-.372h-1.464a.292.292 0 01-.216-.084.32.32 0 01-.072-.216v-.636a.32.32 0 01.072-.216.292.292 0 01.216-.084h2.868c.088 0 .156.028.204.084a.292.292 0 01.084.216v1.26c0 .664-.148 1.244-.444 1.74a2.855 2.855 0 01-1.248 1.128c-.544.264-1.18.396-1.908.396zm7.683 0c-.888 0-1.596-.256-2.124-.768-.52-.52-.796-1.248-.828-2.184l-.012-.3.012-.3c.04-.912.32-1.628.84-2.148.528-.52 1.232-.78 2.112-.78.944 0 1.672.288 2.184.864.52.576.78 1.344.78 2.304v.252c0 .08-.028.148-.084.204a.292.292 0 01-.216.084h-3.984v.096c.016.44.136.812.36 1.116.232.296.548.444.948.444.472 0 .852-.184 1.14-.552a.798.798 0 01.168-.168.466.466 0 01.204-.036h1.032c.072 0 .132.024.18.072.056.04.084.092.084.156 0 .192-.116.42-.348.684-.224.256-.548.48-.972.672-.424.192-.916.288-1.476.288zm1.332-3.78V20.4c0-.472-.12-.852-.36-1.14-.232-.288-.556-.432-.972-.432-.416 0-.74.144-.972.432-.232.288-.348.668-.348 1.14v.036h2.652zm3.193 3.66a.278.278 0 01-.204-.084.278.278 0 01-.084-.204v-5.664c0-.08.028-.148.084-.204a.278.278 0 01.204-.084h.984c.08 0 .148.028.204.084a.278.278 0 01.084.204v.492c.472-.6 1.14-.9 2.004-.9.736 0 1.32.244 1.752.732.432.48.648 1.136.648 1.968v3.372c0 .08-.028.148-.084.204a.254.254 0 01-.204.084h-1.056a.278.278 0 01-.204-.084.278.278 0 01-.084-.204v-3.3c0-.472-.116-.836-.348-1.092-.224-.264-.552-.396-.984-.396-.424 0-.76.132-1.008.396-.24.264-.36.628-.36 1.092v3.3c0 .08-.028.148-.084.204a.254.254 0 01-.204.084h-1.056zm9.889.12c-.888 0-1.596-.256-2.124-.768-.52-.52-.796-1.248-.828-2.184l-.012-.3.012-.3c.04-.912.32-1.628.84-2.148.528-.52 1.232-.78 2.112-.78.944 0 1.672.288 2.184.864.52.576.78 1.344.78 2.304v.252c0 .08-.028.148-.084.204a.292.292 0 01-.216.084h-3.984v.096c.016.44.136.812.36 1.116.232.296.548.444.948.444.472 0 .852-.184 1.14-.552a.798.798 0 01.168-.168.466.466 0 01.204-.036h1.032c.072 0 .132.024.18.072.056.04.084.092.084.156 0 .192-.116.42-.348.684-.224.256-.548.48-.972.672-.424.192-.916.288-1.476.288zm1.332-3.78V20.4c0-.472-.12-.852-.36-1.14-.232-.288-.556-.432-.972-.432-.416 0-.74.144-.972.432-.232.288-.348.668-.348 1.14v.036h2.652zm5.269 3.78c-.6 0-1.104-.088-1.512-.264-.408-.184-.712-.396-.912-.636-.192-.248-.288-.46-.288-.636a.24.24 0 01.084-.192.287.287 0 01.192-.072h.948c.072 0 .132.028.18.084.032.024.116.096.252.216.136.128.296.228.48.3.184.072.388.108.612.108.32 0 .584-.064.792-.192.208-.128.312-.304.312-.528a.578.578 0 00-.144-.408c-.088-.104-.252-.196-.492-.276a7.882 7.882 0 00-1.068-.276c-.68-.144-1.184-.364-1.512-.66-.32-.296-.48-.688-.48-1.176 0-.32.096-.62.288-.9.192-.288.476-.52.852-.696.384-.184.84-.276 1.368-.276.536 0 1 .088 1.392.264.392.168.688.372.888.612.208.232.312.44.312.624a.264.264 0 01-.084.192.244.244 0 01-.18.072h-.888a.339.339 0 01-.204-.084 3.071 3.071 0 01-.264-.228c-.12-.112-.26-.2-.42-.264a1.514 1.514 0 00-.564-.096c-.296 0-.528.064-.696.192a.614.614 0 00-.24.504c0 .152.04.276.12.372.08.096.236.188.468.276.232.088.58.176 1.044.264.768.152 1.316.388 1.644.708.336.32.504.712.504 1.176 0 .56-.244 1.016-.732 1.368-.488.352-1.172.528-2.052.528zm4.263-7.392a.278.278 0 01-.204-.084.278.278 0 01-.084-.204v-.864c0-.08.028-.148.084-.204a.278.278 0 01.204-.084h1.092c.08 0 .148.028.204.084a.261.261 0 01.096.204v.864c0 .08-.028.148-.084.204a.292.292 0 01-.216.084h-1.092zm.048 7.272a.278.278 0 01-.204-.084.278.278 0 01-.084-.204v-5.664c0-.08.028-.148.084-.204a.278.278 0 01.204-.084h.996c.088 0 .156.028.204.084a.254.254 0 01.084.204v5.664c0 .08-.028.148-.084.204a.254.254 0 01-.204.084h-.996zm5.24.12c-.6 0-1.104-.088-1.512-.264-.408-.184-.712-.396-.912-.636-.192-.248-.288-.46-.288-.636a.24.24 0 01.084-.192.287.287 0 01.192-.072h.948c.072 0 .132.028.18.084.032.024.116.096.252.216.136.128.296.228.48.3.184.072.388.108.612.108.32 0 .584-.064.792-.192.208-.128.312-.304.312-.528a.578.578 0 00-.144-.408c-.088-.104-.252-.196-.492-.276a7.882 7.882 0 00-1.068-.276c-.68-.144-1.184-.364-1.512-.66-.32-.296-.48-.688-.48-1.176 0-.32.096-.62.288-.9.192-.288.476-.52.852-.696.384-.184.84-.276 1.368-.276.536 0 1 .088 1.392.264.392.168.688.372.888.612.208.232.312.44.312.624a.264.264 0 01-.084.192.244.244 0 01-.18.072h-.888a.339.339 0 01-.204-.084 3.071 3.071 0 01-.264-.228c-.12-.112-.26-.2-.42-.264a1.514 1.514 0 00-.564-.096c-.296 0-.528.064-.696.192a.614.614 0 00-.24.504c0 .152.04.276.12.372.08.096.236.188.468.276.232.088.58.176 1.044.264.768.152 1.316.388 1.644.708.336.32.504.712.504 1.176 0 .56-.244 1.016-.732 1.368-.488.352-1.172.528-2.052.528zm7.197-.12a.278.278 0 01-.204-.084.278.278 0 01-.084-.204v-7.824c0-.088.028-.156.084-.204a.278.278 0 01.204-.084h1.128c.088 0 .156.028.204.084a.254.254 0 01.084.204v7.824c0 .08-.028.148-.084.204a.254.254 0 01-.204.084h-1.128zm3.442 0a.278.278 0 01-.204-.084.278.278 0 01-.084-.204v-5.664c0-.08.028-.148.084-.204a.278.278 0 01.204-.084h.984c.08 0 .148.028.204.084a.278.278 0 01.084.204v.492c.472-.6 1.14-.9 2.004-.9.736 0 1.32.244 1.752.732.432.48.648 1.136.648 1.968v3.372c0 .08-.028.148-.084.204a.254.254 0 01-.204.084h-1.056a.278.278 0 01-.204-.084.278.278 0 01-.084-.204v-3.3c0-.472-.116-.836-.348-1.092-.224-.264-.552-.396-.984-.396-.424 0-.76.132-1.008.396-.24.264-.36.628-.36 1.092v3.3c0 .08-.028.148-.084.204a.254.254 0 01-.204.084h-1.056zm7.488 0a.278.278 0 01-.204-.084.278.278 0 01-.084-.204v-5.664c0-.08.028-.148.084-.204a.278.278 0 01.204-.084h.984c.08 0 .148.028.204.084a.278.278 0 01.084.204v.492c.472-.6 1.14-.9 2.004-.9.736 0 1.32.244 1.752.732.432.48.648 1.136.648 1.968v3.372c0 .08-.028.148-.084.204a.254.254 0 01-.204.084h-1.056a.278.278 0 01-.204-.084.278.278 0 01-.084-.204v-3.3c0-.472-.116-.836-.348-1.092-.224-.264-.552-.396-.984-.396-.424 0-.76.132-1.008.396-.24.264-.36.628-.36 1.092v3.3c0 .08-.028.148-.084.204a.254.254 0 01-.204.084h-1.056zm9.961.12c-.936 0-1.66-.24-2.172-.72-.512-.488-.788-1.152-.828-1.992l-.012-.528.012-.528c.04-.832.32-1.492.84-1.98s1.24-.732 2.16-.732c.92 0 1.64.244 2.16.732.52.488.8 1.148.84 1.98.008.096.012.272.012.528s-.004.432-.012.528c-.04.84-.316 1.504-.828 1.992-.512.48-1.236.72-2.172.72zm0-1.188c.424 0 .752-.132.984-.396.232-.272.36-.668.384-1.188.008-.08.012-.236.012-.468 0-.232-.004-.388-.012-.468-.024-.52-.152-.912-.384-1.176-.232-.272-.56-.408-.984-.408-.424 0-.752.136-.984.408-.232.264-.36.656-.384 1.176l-.012.468.012.468c.024.52.152.916.384 1.188.232.264.56.396.984.396zm6.326 1.068a.454.454 0 01-.276-.072.606.606 0 01-.156-.228l-2.244-5.568-.024-.108c0-.072.024-.132.072-.18a.264.264 0 01.192-.084h.972c.152 0 .256.076.312.228l1.596 4.212 1.596-4.212a.498.498 0 01.108-.156.303.303 0 01.204-.072h.984c.064 0 .12.028.168.084a.227.227 0 01.084.18.364.364 0 01-.012.108l-2.256 5.568a.606.606 0 01-.156.228.454.454 0 01-.276.072h-.888zm6.237.12c-.408 0-.784-.08-1.128-.24a2.145 2.145 0 01-.804-.672 1.599 1.599 0 01-.288-.924c0-.544.22-.984.66-1.32.44-.336 1.044-.564 1.812-.684l1.644-.24v-.252c0-.352-.088-.616-.264-.792-.176-.176-.46-.264-.852-.264-.264 0-.48.052-.648.156-.16.096-.288.192-.384.288-.096.104-.16.172-.192.204-.032.096-.092.144-.18.144h-.924a.287.287 0 01-.192-.072.26.26 0 01-.072-.192c.008-.2.104-.428.288-.684.192-.256.484-.476.876-.66.392-.184.872-.276 1.44-.276.944 0 1.632.212 2.064.636.432.424.648.98.648 1.668v3.768c0 .08-.028.148-.084.204a.254.254 0 01-.204.084h-.972a.278.278 0 01-.204-.084.278.278 0 01-.084-.204v-.468a1.997 1.997 0 01-.756.636c-.32.16-.72.24-1.2.24zm.408-1.14c.44 0 .8-.144 1.08-.432.28-.288.42-.708.42-1.26v-.252l-1.2.192c-.464.072-.816.188-1.056.348-.232.16-.348.356-.348.588 0 .256.108.456.324.6.216.144.476.216.78.216zm7.397 1.02c-.728 0-1.276-.188-1.644-.564-.36-.384-.54-.944-.54-1.68v-2.724h-.948a.278.278 0 01-.204-.084.32.32 0 01-.084-.216v-.684c0-.08.028-.148.084-.204a.278.278 0 01.204-.084h.948v-1.992c0-.088.028-.156.084-.204a.278.278 0 01.204-.084h.972c.088 0 .156.028.204.084a.254.254 0 01.084.204v1.992h1.5c.088 0 .156.028.204.084a.254.254 0 01.084.204v.684c0 .088-.028.16-.084.216a.278.278 0 01-.204.084h-1.5v2.604c0 .344.06.604.18.78.12.176.32.264.6.264h.828c.08 0 .148.028.204.084a.278.278 0 01.084.204v.744c0 .08-.028.148-.084.204a.254.254 0 01-.204.084h-.972zm2.565-7.272a.278.278 0 01-.204-.084.278.278 0 01-.084-.204v-.864c0-.08.028-.148.084-.204a.278.278 0 01.204-.084h1.092c.08 0 .148.028.204.084a.261.261 0 01.096.204v.864c0 .08-.028.148-.084.204a.292.292 0 01-.216.084h-1.092zm.048 7.272a.278.278 0 01-.204-.084.278.278 0 01-.084-.204v-5.664c0-.08.028-.148.084-.204a.278.278 0 01.204-.084h.996c.088 0 .156.028.204.084a.254.254 0 01.084.204v5.664c0 .08-.028.148-.084.204a.254.254 0 01-.204.084h-.996zm5.636.12c-.936 0-1.66-.24-2.172-.72-.512-.488-.788-1.152-.828-1.992l-.012-.528.012-.528c.04-.832.32-1.492.84-1.98s1.24-.732 2.16-.732c.92 0 1.64.244 2.16.732.52.488.8 1.148.84 1.98.008.096.012.272.012.528s-.004.432-.012.528c-.04.84-.316 1.504-.828 1.992-.512.48-1.236.72-2.172.72zm0-1.188c.424 0 .752-.132.984-.396.232-.272.36-.668.384-1.188.008-.08.012-.236.012-.468 0-.232-.004-.388-.012-.468-.024-.52-.152-.912-.384-1.176-.232-.272-.56-.408-.984-.408-.424 0-.752.136-.984.408-.232.264-.36.656-.384 1.176l-.012.468.012.468c.024.52.152.916.384 1.188.232.264.56.396.984.396zm4.629 1.068a.278.278 0 01-.204-.084.278.278 0 01-.084-.204v-5.664c0-.08.028-.148.084-.204a.278.278 0 01.204-.084h.984c.08 0 .148.028.204.084a.278.278 0 01.084.204v.492c.472-.6 1.14-.9 2.004-.9.736 0 1.32.244 1.752.732.432.48.648 1.136.648 1.968v3.372c0 .08-.028.148-.084.204a.254.254 0 01-.204.084h-1.056a.278.278 0 01-.204-.084.278.278 0 01-.084-.204v-3.3c0-.472-.116-.836-.348-1.092-.224-.264-.552-.396-.984-.396-.424 0-.76.132-1.008.396-.24.264-.36.628-.36 1.092v3.3c0 .08-.028.148-.084.204a.254.254 0 01-.204.084h-1.056z"/></g><defs><clipPath id="clip0"><path fill="#fff" d="M0 0h240v40H0z"/></clipPath></defs></svg>