<?xml version="1.0" encoding="utf-8"?><svg xmlns="http://www.w3.org/2000/svg" xmlns:xlink="http://www.w3.org/1999/xlink"><symbol viewBox="0 0 30 30" id="acts"><path d="M29.884 20.15L24.799 3.195C24.372 1.776 22.814.94 21.4 1.365l-6.446 1.934A2.5 2.5 0 0012.5 1.25a2.503 2.503 0 00-2.5 2.5H2.5A2.503 2.503 0 000 6.25V25c0 1.379 1.122 2.5 2.5 2.5h5.528a2.706 2.706 0 002.288 1.25 2.7 2.7 0 00.784-.115l16.954-5.086A2.712 2.712 0 0030 20.934c0-.269-.04-.534-.116-.785zM12.5 2.5c.66 0 1.187.518 1.233 1.165l-.283.085h-2.2c0-.689.56-1.25 1.25-1.25zm1.25 2.465v3.16a.626.626 0 01-1.25 0V5.34l1.25-.375zM2.5 26.25c-.69 0-1.25-.56-1.25-1.25V6.25C1.25 5.561 1.81 5 2.5 5h6.784L4.446 6.451A2.712 2.712 0 002.5 9.066c0 .269.04.534.116.785l4.92 16.399H2.5zm25.195-3.899l-16.954 5.087a1.5 1.5 0 01-1.843-.993L3.812 9.49a1.47 1.47 0 01.992-1.84l6.446-1.934v2.41c0 1.034.841 1.875 1.875 1.875A1.877 1.877 0 0015 8.125V4.59l6.759-2.028a1.473 1.473 0 011.843.992l5.086 16.957a1.47 1.47 0 01-.992 1.84z"/></symbol><symbol viewBox="0 0 25 25" id="analitic"><path d="M21.359 3H9.249a.39.39 0 000 .782h10.713a1.63 1.63 0 00-.244.859v5.116a.39.39 0 00.782 0v-1.21h2.109a.39.39 0 00.39-.39V4.64A1.641 1.641 0 0021.36 3zm.86 4.766h-1.72V4.64a.86.86 0 011.72 0v3.125zm.354 11.153l-2.551-2.552c.294-.6.46-1.275.46-1.988a4.536 4.536 0 00-4.531-4.53A4.536 4.536 0 0011.72 16l-.457.457-1.881-1.88a.39.39 0 00-.552 0l-.44.44V11.45a.39.39 0 00-.781 0v4.348L4.077 19.33a.39.39 0 10.552.552l2.98-2.98v2.816H5.89a.39.39 0 00-.39.39v1.25c0 .905.736 1.64 1.64 1.64h11.72c.904 0 1.64-.735 1.64-1.64v-.335c.274.265.634.411 1.019.411h.007a1.473 1.473 0 001.04-.434c.577-.576.58-1.51.008-2.082zm-6.623-8.29a3.754 3.754 0 013.75 3.75 3.754 3.754 0 01-3.75 3.75 3.753 3.753 0 01-3.294-1.96l2.258-2.257v.886a.39.39 0 00.78 0v-1.874a.39.39 0 00-.39-.39H13.43a.39.39 0 000 .78h.977l-2.07 2.07a3.754 3.754 0 013.613-4.754zM7.14 22.22a.86.86 0 01-.86-.86v-.86h10.938v.47c0 .012 0 .025.002.037a.395.395 0 00-.002.038v.315c0 .315.09.61.244.86H7.14zm12.578-.86a.86.86 0 01-1.719 0v-.315c0-.013 0-.025-.002-.038a.394.394 0 00.002-.038v-.859a.39.39 0 00-.39-.39h-9.22v-3.597l.717-.716 1.88 1.881a.39.39 0 00.553 0l.546-.546a4.533 4.533 0 005.845 1.714l1.788 1.788v1.116zm2.295-.91a.696.696 0 01-.492.204h-.003a.676.676 0 01-.482-.197l-2.417-2.417c.377-.275.71-.608.986-.984l2.416 2.416a.692.692 0 01-.008.978z"/><path d="M18.424 13.989a.39.39 0 00-.39.39 2.085 2.085 0 01-2.083 2.083.39.39 0 100 .781 2.867 2.867 0 002.863-2.863.39.39 0 00-.39-.391zm-5.419-4.27h-.357V7.102a.39.39 0 00-.39-.39h-1.794a.39.39 0 00-.391.39v2.617h-.628V5.5a.39.39 0 00-.39-.39h-1.72a.39.39 0 00-.39.39v4.22H6.32V8a.39.39 0 00-.39-.39H4.21a.39.39 0 00-.39.39v1.72h-.43a.39.39 0 000 .781h9.615a.39.39 0 100-.781zm-7.466 0h-.937V8.39h.937v1.328zm3.125 0h-.938V5.89h.938v3.828zm3.203 0h-1.013V7.492h1.013V9.72zm4.315-4.609h-3.026a.39.39 0 000 .78h3.026a.39.39 0 100-.78zm2.208.114a.393.393 0 00-.552 0 .394.394 0 000 .552.393.393 0 00.552 0 .393.393 0 000-.552zm-3.721 1.604h-.64a.39.39 0 000 .782h.64a.39.39 0 100-.782zm3.445 0h-1.932a.39.39 0 100 .782h1.932a.39.39 0 000-.782zM3.667 20.293a.393.393 0 00-.552 0 .392.392 0 00.276.666.394.394 0 00.39-.39.393.393 0 00-.114-.276z"/></symbol><symbol viewBox="0 0 50 50" id="appstore"><path fill-rule="evenodd" clip-rule="evenodd" d="M35 29.984c-.392 1.302-1.01 2.605-1.854 3.907-1.297 2.041-2.588 3.062-3.875 3.062-.492 0-1.196-.167-2.11-.5-.864-.333-1.623-.5-2.277-.5-.613 0-1.326.172-2.14.516-.814.354-1.478.531-1.99.531-1.528 0-3.04-1.349-4.538-4.047C14.74 30.234 14 27.615 14 25.093c0-2.374.568-4.322 1.704-5.843 1.125-1.5 2.552-2.25 4.28-2.25.724 0 1.614.156 2.67.469 1.044.312 1.738.468 2.08.468.452 0 1.17-.177 2.155-.53 1.026-.355 1.895-.532 2.608-.532 1.197 0 2.267.338 3.212 1.016.522.375 1.045.896 1.567 1.562-.794.698-1.367 1.313-1.718 1.844a5.705 5.705 0 00-.98 3.234c0 1.292.347 2.453 1.04 3.485.694 1.03 1.487 1.687 2.382 1.968zm-5.668-18.328c0 .636-.146 1.344-.438 2.125a6.43 6.43 0 01-1.401 2.156c-.543.563-1.086.938-1.629 1.126-.372.114-.894.203-1.567.265.03-1.552.422-2.89 1.175-4.015.744-1.115 2-1.886 3.77-2.313.01.031.022.088.037.172.015.083.028.14.038.172 0 .041.002.094.007.156.005.063.008.115.008.156z"/></symbol><symbol viewBox="0 0 18 18" id="charity"><path d="M12.886 2.055a2.493 2.493 0 00-1.723-.673c-.701 0-1.409.277-1.936.805L9 2.413l-.227-.227a2.749 2.749 0 00-1.936-.804c-.623 0-1.24.218-1.723.673a2.574 2.574 0 00-.057 3.695L9 9.693l3.943-3.943a2.573 2.573 0 00-.057-3.695zM7.618 16.618l-.003-3.907c0-1.886-.967-2.993-2.247-3.41-.357-.107-.677-.392-.975-.69-.54-.563-1.119-1.333-1.868-1.323v-.003a.986.986 0 00-.7.303c-.498.497-.297 1.256.131 1.684l1.392 1.392a.693.693 0 010 .98L1.467 9.761a2.168 2.168 0 01-.61-1.213 1.683 1.683 0 01.477-1.45 1.675 1.675 0 011.023-.49l-.28-1.135C2.054 1.262 0 1.776 0 2.767v7.394c0 .46.178.892.501 1.219 3.44 3.472 2.962 2.353 2.962 5.238h4.155zM18 2.767c0-.99-2.055-1.505-2.076 2.707l-.28 1.135c.383.04.735.202 1.022.49.383.383.553.898.477 1.45-.06.444-.283.886-.61 1.213l-1.88 1.881a.692.692 0 010-.98l1.39-1.39c.43-.43.63-1.188.133-1.685a.986.986 0 00-.7-.303v.003c-.75-.01-1.328.76-1.87 1.324-.297.298-.617.582-.974.69-1.28.416-2.247 1.523-2.247 3.41l-.003 3.906h4.156c0-2.884-.48-1.766 2.961-5.238.323-.327.501-.76.501-1.219V2.767z"/></symbol><symbol viewBox="0 0 16 16" id="check-round"><path d="M11.536 5.462a.625.625 0 010 .883L7.344 10.54a.625.625 0 01-.884 0L4.464 8.542a.625.625 0 11.883-.883l1.554 1.554 3.752-3.751a.625.625 0 01.883 0zM16 8c0 4.422-3.579 8-8 8-4.422 0-8-3.579-8-8 0-4.422 3.579-8 8-8 4.422 0 8 3.579 8 8zm-1.25 0c0-3.731-3.02-6.75-6.75-6.75A6.746 6.746 0 001.25 8c0 3.731 3.02 6.75 6.75 6.75 3.731 0 6.75-3.02 6.75-6.75z"/></symbol><symbol viewBox="0 0 7 9" id="chevron"><path d="M5.168 4.227L2.053 1.112A.38.38 0 001.782 1a.38.38 0 00-.27.112l-.23.23a.383.383 0 000 .54L3.898 4.5l-2.62 2.618a.38.38 0 000 .542l.23.23A.38.38 0 001.78 8a.38.38 0 00.27-.112L5.169 4.77a.38.38 0 00.111-.271.38.38 0 00-.111-.272z"/></symbol><symbol viewBox="0 0 9 7" fill="none" id="chevron-main"><g clip-path="url(#agclip0)"><path d="M4.773 5.168l3.115-3.115A.38.38 0 008 1.782a.38.38 0 00-.112-.271l-.23-.23a.383.383 0 00-.54 0L4.5 3.898 1.883 1.28a.38.38 0 00-.542 0l-.23.23A.38.38 0 001 1.78c0 .102.04.199.112.27L4.23 5.169a.38.38 0 00.271.111c.103 0 .2-.04.272-.111z" fill="#3D79F2"/></g><defs><clipPath id="agclip0"><path transform="rotate(90 9 0)" fill="#fff" d="M9 0h7v9H9z"/></clipPath></defs></symbol><symbol viewBox="0 0 30 30" id="close"><path d="M16.769 15l7.865-7.864a1.25 1.25 0 10-1.769-1.769L15 13.232 7.135 5.367a1.25 1.25 0 10-1.769 1.769l7.866 7.865-7.866 7.865a1.25 1.25 0 101.769 1.768L15 16.769l7.865 7.865a1.247 1.247 0 001.769 0 1.25 1.25 0 000-1.769l-7.865-7.864z"/></symbol><symbol viewBox="0 0 30 30" id="contract"><path d="M26.067 6.433l-6.25-6.25A.625.625 0 0019.375 0H6.25a2.503 2.503 0 00-2.5 2.5v25c0 1.379 1.122 2.5 2.5 2.5h17.5c1.378 0 2.5-1.121 2.5-2.5V6.875a.624.624 0 00-.183-.442zM20 2.133l4.116 4.117H21.25C20.56 6.25 20 5.69 20 5V2.134zM25 27.5c0 .689-.56 1.25-1.25 1.25H6.25c-.69 0-1.25-.561-1.25-1.25v-25c0-.689.56-1.25 1.25-1.25h12.5V5c0 1.379 1.122 2.5 2.5 2.5H25v20z"/><path d="M21.875 17.5h-8.75a.625.625 0 100 1.25h8.75a.625.625 0 100-1.25zm-13.75-10h7.5a.625.625 0 100-1.25h-7.5a.625.625 0 100 1.25zm13.75 6.25H8.125a.625.625 0 100 1.25h13.75a.625.625 0 100-1.25zM7.5 10.625c0 .345.28.625.625.625h13.75a.625.625 0 100-1.25H8.125a.625.625 0 00-.625.625zm8.937 12.055c-.92.904-2.078 1.923-2.537 2.233a9.11 9.11 0 01-.306-.907c-.254-.841-.453-1.506-1.094-1.506-.548 0-.795.501-1.168 1.26-.183.37-.563 1.143-.7 1.24-.136-.014-.368-.172-.623-.41.688-.89 1.241-1.92 1.241-2.715C11.25 20.509 10.1 20 9.375 20 8.638 20 7.5 21.074 7.5 22.5c0 .632.35 1.414.847 2.099a5.741 5.741 0 01-.597.526.626.626 0 00.75 1c.216-.162.448-.365.68-.597.49.436 1.01.722 1.445.722.845 0 1.346-.961 1.782-1.846.288.955.567 1.846 1.343 1.846.209 0 .842 0 3.563-2.68a.625.625 0 10-.876-.89zm-7.252.928c-.254-.387-.435-.788-.435-1.108 0-.762.56-1.209.625-1.25.104 0 .625.03.625.625 0 .399-.337 1.071-.815 1.733z"/></symbol><symbol viewBox="0 0 30 30" id="contract-1"><path d="M5.625 18.75H15a.625.625 0 100-1.25H5.625a.625.625 0 100 1.25zm0-3.75h13.75a.625.625 0 100-1.25H5.625a.625.625 0 100 1.25zm6.25 6.25h-6.25a.625.625 0 100 1.25h6.25a.625.625 0 100-1.25zm0 3.75h-6.25a.625.625 0 100 1.25h6.25a.625.625 0 100-1.25zm-6.25-13.75h13.75a.625.625 0 100-1.25H5.625a.625.625 0 100 1.25z"/><path d="M28.567 22.683l-3.75-3.75a.625.625 0 00-.442-.183h-.625V6.875a.625.625 0 00-.183-.442l-6.25-6.25A.625.625 0 0016.875 0H3.75a2.503 2.503 0 00-2.5 2.5v25c0 1.379 1.122 2.5 2.5 2.5h17.5c.15 0 .302-.054.42-.162l6.875-6.25a.624.624 0 00.022-.905zM17.5 2.133l4.116 4.117H18.75c-.69 0-1.25-.56-1.25-1.25V2.134zM3.75 28.75c-.69 0-1.25-.56-1.25-1.25v-25c0-.689.56-1.25 1.25-1.25h12.5V5c0 1.379 1.122 2.5 2.5 2.5h3.75v11.25h-4.375a.625.625 0 00-.442.183l-3.75 3.75a.626.626 0 00.022.905l5.679 5.162H3.75zm19.133-6.25h-3.265l.833-2.5h1.598l.834 2.5zm-3.75-2.5l-.834 2.5h-2.415l2.5-2.5h.748zm-3.141 3.75h2.335l1.335 3.337-3.67-3.337zm5.258 3.942l-1.577-3.942h3.154l-1.577 3.942zm1.588-.605l1.335-3.337h2.335l-3.67 3.337zM24.2 22.5l-.833-2.5h.748l2.5 2.5H24.2z"/></symbol><symbol viewBox="0 0 25 25" id="dynamic"><path d="M6.496 6.906a.39.39 0 100-.781.39.39 0 000 .781zm1.954 6.641h3.905c.647 0 1.172-.526 1.172-1.172V7.687a.39.39 0 00-.39-.39H7.668a.39.39 0 00-.39.39v4.688c0 .646.525 1.172 1.171 1.172zm-.391-5.469h4.687v4.297a.39.39 0 01-.39.39H8.448a.391.391 0 01-.39-.39V8.078z"/><path d="M10.357 11.203h.09a1.52 1.52 0 001.518-1.518V9.25a.39.39 0 10-.781 0v.435c0 .406-.33.737-.737.737h-.09a.737.737 0 01-.736-.737V9.25a.39.39 0 10-.781 0v.435c0 .837.68 1.518 1.517 1.518z"/><path d="M17.84 10.393C17.84 6.309 14.525 3 10.418 3 6.317 3 2.98 6.316 2.98 10.393c0 4.092 3.337 7.422 7.438 7.422 1.56 0 3.091-.5 4.351-1.414l1.205 1.206-.276.273a.391.391 0 00-.002.552l3.961 3.996a1.954 1.954 0 002.973-.249c.55-.762.434-1.868-.269-2.57l-3.9-3.936a.391.391 0 00-.584.033c-.018.019-.072.076-.242.247l-1.209-1.209a7.438 7.438 0 001.414-4.351zm-1.31 6.664l-1.15-1.15c.193-.174.378-.359.552-.552l1.151 1.15-.554.552zM3.761 10.393c0-3.646 2.986-6.612 6.656-6.612 3.662 0 6.64 2.966 6.64 6.612 0 3.633-2.95 6.64-6.64 6.64-3.67 0-6.656-2.979-6.656-6.64zm14.424 6.114l3.622 3.652c.436.436.517 1.108.188 1.564a1.172 1.172 0 01-1.785.154l-3.685-3.717c.468-.464 1.199-1.188 1.66-1.653z"/><path d="M13.266 15.512c.007-.003.006-.003 0 0z"/><path d="M16.274 10.59a5.862 5.862 0 00-5.937-6.056 5.761 5.761 0 00-2.747.727.39.39 0 10.368.689 4.924 4.924 0 012.393-.635 5.08 5.08 0 015.142 5.25c-.093 2.789-2.392 4.906-5.075 4.906-2.723 0-5.156-2.19-5.072-5.322a5.087 5.087 0 01.603-2.166.39.39 0 00-.688-.37A5.681 5.681 0 004.7 9.11c-.828 3.615 1.946 7.142 5.717 7.142a5.86 5.86 0 005.856-5.661z"/></symbol><symbol viewBox="0 0 40 24" id="empty-box"><path d="M38.9 24.4H1.017A1.018 1.018 0 010 23.383V6.7a1.013 1.013 0 01.364-.77L4.7.525a1 1 0 01.166-.16A1.01 1.01 0 015.641 0h28.635a1.013 1.013 0 01.775.365c.06.046.114.1.162.159l4.336 5.4v.008a1.012 1.012 0 01.363.773v16.68A1.018 1.018 0 0138.9 24.4zM2.034 7.719v14.647h35.849V7.719h-11.9l-5.417 3.987a1.017 1.017 0 01-1.205 0l-5.423-3.987H2.034zm4.623-5.685v3.652h7.615c.216 0 .426.071.6.2l5.085 3.741 5.082-3.74c.173-.129.384-.2.6-.2h7.621V2.034H6.657zm28.636 1.838v1.814h1.458l-1.458-1.814zm-30.668 0L3.166 5.686h1.458l.001-1.814z"/></symbol><symbol viewBox="0 0 25 25" id="hands"><path d="M22.039 12.03l-3.177-3.34c-.333-.352-.898-.315-1.236.007l-.963.916a.897.897 0 00-.209 1.037l-1.02.959c-.27.253-.635.386-1.025.376a2.224 2.224 0 00-1.159.291c-.555-.178-1.081-.374-1.671-.193a1.03 1.03 0 01-1.035-.256c-.314-.315-.618-.644-.946-.944a.905.905 0 00-.218-.958l-.938-.941a.93.93 0 00-.604-.276.827.827 0 00-.632.235l-3.264 3.254a.827.827 0 00-.237.632.93.93 0 00.273.604l.939.941c.17.171.412.278.654.278a.875.875 0 00.223-.03c.423.523.97.975 1.446 1.451a.494.494 0 01.146.352 1.276 1.276 0 00.394.926c-.374.374-.854.733-.854 1.315 0 .335.152.623.389.85a1.1 1.1 0 00.721.323c.03.286.173.543.383.734.201.201.466.316.749.325.034.277.176.523.38.709.194.194.447.307.718.323.027.29.171.55.384.744.21.21.49.326.787.326.297 0 .576-.116.786-.326l.618-.617.586.586c.218.218.509.338.818.338a1.153 1.153 0 001.155-1.119c.268-.025.516-.14.708-.333.21-.21.329-.486.338-.781a1.152 1.152 0 001.046-1.075 1.159 1.159 0 00.87-1.834 1.82 1.82 0 00.29-.917c.023-.473-.036-1.034.32-1.403l1.083-1.127c.009-.009.308.047.312.047a.928.928 0 00.639-.259l.963-.916c.36-.343.391-.897.07-1.235zM5.598 13.858c-.08.08-1.179-1.029-1.101-1.106L7.76 9.5c.079-.079 1.177 1.03 1.101 1.106l-3.264 3.253zm2.734 5.1c-.31.31-.831-.217-.525-.524l1.467-1.467c.31-.309.831.218.525.524L8.332 18.96zm1.104 1.058c-.309.31-.831-.217-.524-.524l1.467-1.467c.309-.309.83.218.524.524l-1.467 1.467zm1.129 1.034c-.31.309-.831-.218-.525-.524l1.468-1.468c.308-.308.83.218.524.525l-1.467 1.467zm2.57-.4l-1.468 1.468c-.309.308-.83-.218-.524-.525l1.43-1.43c.323-.31.898.15.561.487zm1.372 1.436a.374.374 0 01-.524 0l-.586-.586c.172-.173.373-.34.49-.558l.585.586c.152.152.206.387.035.558zm3.18-3.83c.339.338-.187.861-.524.524l-1.404-1.404c-.36-.36-.923.192-.562.553l1.404 1.404c.338.338-.186.863-.524.525l-1.404-1.404c-.381-.38-.894.22-.524.59l1.403 1.404c.33.329-.16.845-.506.54l-1.387-1.386a1.152 1.152 0 00-.75-.356 1.158 1.158 0 00-.385-.743 1.104 1.104 0 00-.748-.325 1.104 1.104 0 00-.317-.646 1.154 1.154 0 00-.785-.387 1.104 1.104 0 00-.32-.67c-.226-.237-.514-.39-.85-.39-.52 0-.832.373-1.168.709-.187-.172-.142-.397-.192-.622a1.311 1.311 0 00-.348-.656l-1.368-1.368 2.393-2.393.27-.27.897.896a1.815 1.815 0 001.822.453c.232-.072.478-.052.704.03l-1.52 1.488c-.526.516-.438 1.441.185 1.84.514.329 1.203.185 1.698-.105.398-.234.681-.806 1.181-.825.41-.014.903.256 1.185.54l2.444 2.453zm-4.156-5.23c.25-.173.553-.264.856-.256.6.017 1.163-.193 1.585-.59l.996-.935 2.498 2.625-1.061 1.102a1.8 1.8 0 00-.502 1.164c-.016.35.021.78-.113 1.109L15.8 15.25c-.423-.428-1.152-.798-1.773-.773-.724.028-.991.607-1.547.932-.232.136-.524.299-.791.161-.244-.125-.357-.446-.144-.655l1.986-1.888zm7.896-.333c-.103.098-1.004 1.04-1.088.952l-3.177-3.34c-.074-.078 1.053-1.157 1.13-1.075l3.177 3.34c.012.013.012.072-.042.123z"/><path d="M12.982 9.555a3.281 3.281 0 003.152-4.18c-.139-.486-.895-.27-.756.216a2.494 2.494 0 01-2.396 3.179 2.495 2.495 0 01-2.491-2.492 2.494 2.494 0 013-2.44c.494.102.654-.667.159-.77a3.281 3.281 0 00-3.945 3.21 3.281 3.281 0 003.277 3.277z"/><path d="M13.629 5.547l-.852.852-.441-.44c-.359-.36-.915.197-.556.555l.719.72a.397.397 0 00.556 0l1.13-1.131c.358-.358-.197-.914-.556-.556zm-.005 11.941c-.133-.326-.614-.313-.732.018a.396.396 0 00.112.43.4.4 0 00.476.03.398.398 0 00.144-.478zm1.019-13.219a.397.397 0 00.513.212.397.397 0 00.213-.513.396.396 0 00-.513-.212.397.397 0 00-.213.513z"/></symbol><symbol viewBox="0 0 30 30" id="layers"><path d="M29.352 15c0-.755-.508-1.443-1.394-1.886l-3.61-1.805 3.61-1.806c.886-.443 1.394-1.13 1.395-1.886 0-.757-.509-1.445-1.395-1.888L17.593.547C16.888.194 15.967 0 14.998 0c-.967 0-1.889.194-2.594.547L2.039 5.729C1.153 6.172.645 6.86.645 7.617c0 .756.508 1.443 1.394 1.886l3.61 1.806-3.61 1.805C1.153 13.557.645 14.244.645 15s.508 1.444 1.394 1.887l3.61 1.805-3.61 1.805c-.886.443-1.394 1.13-1.394 1.887 0 .756.508 1.444 1.394 1.887l10.365 5.183c.727.363 1.66.545 2.594.545.934 0 1.868-.182 2.595-.545l10.365-5.183c.886-.443 1.394-1.13 1.394-1.887 0-.756-.508-1.444-1.394-1.887l-3.61-1.805 3.61-1.805c.886-.444 1.394-1.131 1.394-1.887zM2.41 7.618c.033-.055.147-.18.416-.315L13.19 2.119c.46-.23 1.118-.361 1.808-.361s1.35.132 1.809.361l10.365 5.183c.27.134.383.26.415.315-.032.054-.146.18-.415.314l-10.365 5.183c-.46.23-1.118.361-1.809.361-.69 0-1.349-.132-1.808-.361L2.825 7.93c-.27-.135-.383-.26-.416-.314zM27.172 22.07c.27.135.383.26.416.315-.033.054-.147.18-.416.314l-10.365 5.183c-.963.482-2.654.482-3.617 0L2.825 22.7c-.27-.134-.383-.26-.416-.314.033-.055.146-.18.416-.315l4.79-2.395 4.789 2.395c.727.364 1.66.546 2.594.546.934 0 1.868-.182 2.595-.546l4.79-2.395 4.79 2.395zm0-6.755l-10.365 5.183c-.963.482-2.654.482-3.617 0L2.825 15.315c-.27-.134-.383-.26-.416-.314.033-.055.146-.18.416-.315l4.79-2.395 4.789 2.395c.705.353 1.627.547 2.594.547.968 0 1.89-.194 2.595-.547l4.79-2.395 4.79 2.395c.268.135.382.26.414.315-.032.054-.146.18-.415.314z"/></symbol><symbol viewBox="0 0 16 16" id="levels"><path d="M12.364 10.182h.727v5.09a.727.727 0 101.455 0v-5.09h.727A.727.727 0 0016 9.455v-2.91a.727.727 0 00-.727-.727h-.728V.728a.727.727 0 10-1.454 0v5.09h-.727a.727.727 0 00-.728.727v2.91c0 .401.326.727.728.727zm2.181-2.91v1.455h-1.454V7.273h1.455zM.727 11.152h.728v4.12a.727.727 0 101.454 0v-4.12h.727a.727.727 0 00.728-.728V7.515a.727.727 0 00-.728-.727H2.91V.728a.727.727 0 00-1.454 0v6.06H.727A.727.727 0 000 7.515v2.91c0 .4.326.726.727.726zm2.182-2.91v1.455H1.455V8.242h1.454zm3.636.97h.728v6.06a.727.727 0 101.454 0v-6.06h.727a.727.727 0 00.728-.727v-2.91a.727.727 0 00-.728-.727h-.727V.728a.727.727 0 00-1.454 0v4.12h-.728a.727.727 0 00-.727.728v2.909c0 .402.326.727.727.727zm.728-2.909h1.454v1.455H7.273V6.303z"/></symbol><symbol viewBox="0 0 20 20" id="logout"><path d="M13.692 14.781v1.406A2.816 2.816 0 0110.879 19H3.813A2.816 2.816 0 011 16.187V3.813A2.816 2.816 0 013.813 1h7.066a2.816 2.816 0 012.813 2.813v1.406a.703.703 0 11-1.406 0V3.812c0-.775-.631-1.406-1.407-1.406H3.813c-.776 0-1.407.631-1.407 1.406v12.376c0 .775.631 1.406 1.407 1.406h7.066c.776 0 1.407-.631 1.407-1.407v-1.406a.703.703 0 111.406 0zm4.794-5.989L16.91 7.218a.703.703 0 00-.994.994l1.12 1.12H8.594a.703.703 0 100 1.406h8.443l-1.12 1.12a.703.703 0 10.994.995l1.575-1.575a1.76 1.76 0 000-2.486z"/></symbol><symbol viewBox="0 0 30 21" id="menu"><rect y="9" width="30" height="3" rx="1.5"/><rect width="30" height="3" rx="1.5"/><rect y="18" width="30" height="3" rx="1.5"/></symbol><symbol viewBox="0 -192 512 512" id="more"><path d="M320 64c0 35.348-28.652 64-64 64s-64-28.652-64-64 28.652-64 64-64 64 28.652 64 64zm-192 0c0 35.348-28.652 64-64 64S0 99.348 0 64 28.652 0 64 0s64 28.652 64 64zm384 0c0 35.348-28.652 64-64 64s-64-28.652-64-64 28.652-64 64-64 64 28.652 64 64zm0 0"/></symbol><symbol viewBox="0 0 14 14" id="notification"><path d="M12.022 9.513V6.848a5.03 5.03 0 00-3.795-4.87A1.371 1.371 0 007 0a1.371 1.371 0 00-1.226 1.978 5.03 5.03 0 00-3.796 4.87v2.665a1.372 1.372 0 00-.913 1.291c0 .755.615 1.37 1.37 1.37h2.329A2.286 2.286 0 007 14a2.286 2.286 0 002.237-1.826h2.328a1.37 1.37 0 00.457-2.66zM7 .913a.457.457 0 110 .914.457.457 0 010-.914zm0 12.174a1.375 1.375 0 01-1.29-.916h2.58a1.375 1.375 0 01-1.29.916zm4.565-1.826h-9.13a.457.457 0 010-.913h.913a.457.457 0 000-.913h-.456V6.848A4.113 4.113 0 017 2.739a4.113 4.113 0 014.109 4.109v2.587h-.457a.457.457 0 000 .913h.913a.457.457 0 010 .913z"/><path d="M7 3.652a3.2 3.2 0 00-3.195 3.196.457.457 0 00.913 0A2.285 2.285 0 017 4.565a.457.457 0 000-.913z"/></symbol><symbol viewBox="0 0 20 20" id="palette"><path d="M4.105 9.41a.587.587 0 100 1.174.587.587 0 000-1.174zm7.161-.714a1.2 1.2 0 00-1.658 0c-.14.14-.239.306-.294.494a2.808 2.808 0 01-1.28 1.606c1.01.572 2.388.402 3.232-.442.458-.459.458-1.2 0-1.658zM5.278 14.1a.587.587 0 100 1.173.587.587 0 000-1.173zM6.45 5.894a.587.587 0 100 1.173.587.587 0 000-1.173z"/><path d="M17.376 9.271a8.488 8.488 0 00-.956-2.455c-1.11.97-2.577 2.06-3.709 2.2a2.309 2.309 0 01-.616 2.206 3.84 3.84 0 01-2.735 1.133 3.843 3.843 0 01-2.736-1.133c-.233-.234-.424-.406-.308-.762a.586.586 0 01.464-.397c.679-.11 1.232-.568 1.41-1.167a2.34 2.34 0 01.59-.99c.576-.576 1.43-.77 2.202-.596.13-1.132 1.26-2.637 2.208-3.727C9.88 1.676 5.51 2.057 2.577 4.991.491 7.078-.39 9.961.16 12.901c.635 3.39 3.326 6.158 6.697 6.89A9.15 9.15 0 008.793 20c1.503 0 2.813-.285 3.312-1.803.309-.937.07-1.95-.623-2.644a1.17 1.17 0 010-1.657 1.2 1.2 0 011.657 0 2.578 2.578 0 002.644.623 2.496 2.496 0 001.704-2.003 8.952 8.952 0 00-.11-3.245zM6.45 4.761c.97 0 1.759.788 1.759 1.758A1.76 1.76 0 016.45 8.277 1.76 1.76 0 014.691 6.52c0-.97.789-1.758 1.758-1.758zm-4.103 5.275c0-.97.79-1.759 1.759-1.759.97 0 1.758.789 1.758 1.759a1.76 1.76 0 01-1.758 1.758 1.76 1.76 0 01-1.759-1.758zm2.931 6.447a1.76 1.76 0 01-1.758-1.758c0-.97.788-1.759 1.758-1.759s1.758.789 1.758 1.759a1.76 1.76 0 01-1.758 1.758zM19.922.063C19.904.044 19.86 0 19.715 0c-.729 0-2.056.884-3.384 2.051L17.91 3.63C19.53 1.784 20.253.394 19.922.063z"/><path d="M15.469 2.848c-.12.115-.242.23-.358.346-1.738 1.738-2.997 3.543-2.993 4.293.002.322.275.426.513.342.956-.16 2.778-1.618 4.138-2.978.122-.122.228-.239.344-.36L15.47 2.849z"/></symbol><symbol viewBox="0 0 25 25" id="people"><path d="M20.736 8.825c.255-.313.408-.712.408-1.146v-.357a1.818 1.818 0 00-1.816-1.816 1.818 1.818 0 00-1.816 1.816v.357c0 .434.153.833.409 1.146-.311.086-.607.22-.877.398V8.94a2.14 2.14 0 00-2.138-2.138h-.252c.302-.368.484-.84.484-1.352v-.317A2.136 2.136 0 0013.005 3a2.136 2.136 0 00-2.133 2.133v.317c0 .513.182.984.484 1.352h-.252A2.14 2.14 0 008.966 8.94v.29a3.096 3.096 0 00-.887-.405c.256-.313.409-.712.409-1.146v-.357a1.818 1.818 0 00-1.816-1.816 1.818 1.818 0 00-1.816 1.816v.357c0 .434.153.833.408 1.146A3.088 3.088 0 003 11.796v3.197c0 .68.553 1.232 1.232 1.232h.328v6.384a.39.39 0 00.39.391h3.438a.39.39 0 00.39-.39v-6.384h.334c.677 0 1.228-.55 1.232-1.226.126.049.259.085.395.109v7.5a.39.39 0 00.39.391h3.75a.39.39 0 00.392-.39v-3.788a.39.39 0 00-.782 0v3.397h-1.093v-6.59a.39.39 0 00-.782 0v6.59h-1.093V13.92h2.968v1.882a.39.39 0 00.782 0v-.693c.133-.023.262-.058.385-.105a1.233 1.233 0 001.232 1.222h.334v6.383a.39.39 0 00.39.391h3.438a.39.39 0 00.39-.39v-6.384h.328c.68 0 1.232-.553 1.232-1.232v-3.198c0-1.416-.96-2.612-2.264-2.971zM5.637 7.322a1.036 1.036 0 012.07 0v.357a1.036 1.036 0 01-2.07 0v-.357zm2.36 14.897h-.935v-6.016a.39.39 0 00-.781 0v.41a.39.39 0 00-.005.059v5.547h-.935v-7.54h2.656v7.54zm1.565-7.226a.45.45 0 01-.45.451h-.334v-2.079a.39.39 0 00-.78 0v.533H5.34v-1.776a.39.39 0 00-.781 0v3.322h-.328a.451.451 0 01-.45-.45v-3.198a2.304 2.304 0 012.3-2.301H7.26a2.307 2.307 0 011.705.756v2.752c0 .573.228 1.094.596 1.478v.512zm3.443-11.212c.745 0 1.352.607 1.352 1.352v.317c0 .746-.607 1.352-1.352 1.352a1.353 1.353 0 01-1.352-1.352v-.317c0-.745.606-1.352 1.352-1.352zm3.257 9.222c0 .621-.42 1.146-.992 1.306v-5.37a.39.39 0 10-.78 0v4.2h-2.97v-4.2a.39.39 0 00-.78 0v5.37a1.359 1.359 0 01-.992-1.306V8.94c0-.748.608-1.357 1.356-1.357H12.6v1.068a.39.39 0 00.781 0V7.583h1.524c.748 0 1.356.609 1.356 1.357v4.063zm2.031-5.68a1.036 1.036 0 012.07 0v.356a1.036 1.036 0 01-2.07 0v-.357zm2.366 14.896h-.935v-5.547a.39.39 0 00-.005-.059v-.41a.39.39 0 00-.781 0v6.016h-.935v-7.54h2.656v7.54zm1.109-6.775h-.328v-3.322a.39.39 0 00-.781 0v1.776h-2.656v-.533a.39.39 0 00-.782 0v2.08h-.333a.451.451 0 01-.45-.452v-.501a2.13 2.13 0 00.606-1.49V10.24a2.307 2.307 0 011.695-.745h1.178a2.304 2.304 0 012.302 2.301v3.197a.452.452 0 01-.451.451z"/><path d="M15.156 17.01a.392.392 0 00-.552 0 .392.392 0 00.276.667.394.394 0 00.276-.667zm-1.888-7.176a.393.393 0 00-.553 0 .394.394 0 000 .553.394.394 0 00.553 0 .392.392 0 000-.553z"/></symbol><symbol viewBox="0 0 25 25" id="phone"><path d="M10.447 6.337a4.314 4.314 0 014.106 0 .365.365 0 00.496-.148.366.366 0 00-.149-.497 5.045 5.045 0 00-4.8 0 .366.366 0 10.347.645zm3.711.733a3.485 3.485 0 00-3.316 0 .366.366 0 10.348.646c.82-.443 1.8-.443 2.62 0a.365.365 0 00.497-.149.366.366 0 00-.149-.496zm-.746 1.385a1.92 1.92 0 00-1.825 0 .366.366 0 00.348.645 1.19 1.19 0 011.13 0 .364.364 0 00.496-.149.366.366 0 00-.149-.496z"/><path d="M17.98 0H7.02a1.934 1.934 0 00-1.932 1.932v21.136c0 1.065.867 1.932 1.932 1.932h10.96a1.934 1.934 0 001.932-1.932V1.932A1.934 1.934 0 0017.98 0zm-5.846 10.91v1.615h-2.008V10.91h2.008zm2.74 0v1.615h-2.008V10.91h2.008zm2.74 0v1.615h-2.008V10.91h2.008zm-8.22 1.615H7.386V10.91h2.008v1.616zm-2.008.733h10.228v11.01H7.386v-11.01zm10.228-3.081H7.386V3.864h10.228v6.313zm1.565 12.891a1.2 1.2 0 01-.833 1.142V2.715a1.15 1.15 0 00-1.149-1.15h-.391a.366.366 0 000 .733h.391c.23 0 .417.187.417.417v.416H7.386v-.416c0-.23.187-.417.417-.417h.391a.366.366 0 000-.732h-.39a1.15 1.15 0 00-1.15 1.149V24.21a1.201 1.201 0 01-.833-1.142V1.932a1.2 1.2 0 011.2-1.2H17.98a1.2 1.2 0 011.2 1.2v21.136z"/><path d="M15.24 1.566H9.76a.366.366 0 000 .732h5.48a.366.366 0 000-.732zM12.5 14.09a1.15 1.15 0 00-1.149 1.15 1.15 1.15 0 001.149 1.149 1.15 1.15 0 001.149-1.15 1.15 1.15 0 00-1.149-1.148zm0 1.566a.417.417 0 110-.834.417.417 0 010 .835zm3.131.733a1.15 1.15 0 001.15-1.15 1.15 1.15 0 00-1.15-1.148 1.15 1.15 0 00-1.149 1.149 1.15 1.15 0 001.15 1.149zm0-1.566a.417.417 0 110 .834.417.417 0 010-.834zm-6.262-.733a1.15 1.15 0 00-1.15 1.15 1.15 1.15 0 001.15 1.149 1.15 1.15 0 001.149-1.15 1.15 1.15 0 00-1.15-1.148zm0 1.566a.417.417 0 110-.834.417.417 0 010 .835zm3.131 1.566a1.15 1.15 0 000 2.298 1.15 1.15 0 001.149-1.149 1.15 1.15 0 00-1.149-1.149zm0 1.566a.417.417 0 110-.834.417.417 0 010 .834zm3.131-1.566a1.15 1.15 0 000 2.298 1.15 1.15 0 001.15-1.149 1.15 1.15 0 00-1.15-1.149zm0 1.566a.417.417 0 11.001-.834.417.417 0 010 .834zm-6.262-1.566a1.15 1.15 0 000 2.298 1.15 1.15 0 001.149-1.149 1.15 1.15 0 00-1.15-1.149zm0 1.566a.417.417 0 110-.834.417.417 0 010 .834zm3.131 1.566a1.15 1.15 0 00-1.149 1.149A1.15 1.15 0 0012.5 22.65a1.15 1.15 0 001.149-1.148 1.15 1.15 0 00-1.149-1.15zm0 1.565a.417.417 0 110-.834.417.417 0 010 .834zm3.131-1.565a1.15 1.15 0 00-1.149 1.149 1.15 1.15 0 001.15 1.148 1.15 1.15 0 001.148-1.148 1.15 1.15 0 00-1.149-1.15zm0 1.565a.417.417 0 11.001-.834.417.417 0 010 .834zm-6.262-1.565a1.15 1.15 0 00-1.15 1.149 1.15 1.15 0 001.15 1.148 1.15 1.15 0 001.149-1.148 1.15 1.15 0 00-1.15-1.15zm0 1.565a.417.417 0 110-.834.417.417 0 010 .834z"/></symbol><symbol viewBox="0 0 30 30" id="photo-camera"><path d="M28.828 7.172C28.048 6.39 27.105 6 26 6h-3.5l-.796-2.125c-.198-.51-.56-.95-1.086-1.32C20.092 2.184 19.552 2 19 2h-8c-.552 0-1.091.185-1.617.554-.526.37-.888.81-1.086 1.32L7.5 6H4a3.85 3.85 0 00-2.828 1.172A3.854 3.854 0 000 10v14a3.85 3.85 0 001.172 2.828A3.854 3.854 0 004 28h22a3.85 3.85 0 002.828-1.172A3.853 3.853 0 0030 24V10c0-1.105-.39-2.047-1.172-2.828zm-8.883 14.773C18.575 23.315 16.927 24 15 24c-1.927 0-3.575-.685-4.945-2.055S8 18.927 8 17c0-1.927.685-3.575 2.055-4.945S13.073 10 15 10c1.927 0 3.576.685 4.945 2.055C21.315 13.425 22 15.073 22 17c0 1.927-.685 3.576-2.055 4.945z"/><path d="M15 12.5c-1.24 0-2.3.44-3.18 1.32-.88.88-1.32 1.94-1.32 3.18 0 1.24.44 2.3 1.32 3.18.88.88 1.94 1.32 3.18 1.32 1.24 0 2.3-.44 3.18-1.32.88-.88 1.32-1.94 1.32-3.18 0-1.24-.44-2.3-1.32-3.18-.88-.88-1.94-1.32-3.18-1.32z"/></symbol><symbol viewBox="0 0 50 50" id="play-market"><path fill-rule="evenodd" clip-rule="evenodd" d="M30.29 20.096l-14.47-7.872c-.41-.222-.788-.274-1.094-.179L26.577 23.77l3.713-3.674m1.02 8.366l4.939-2.687c1.001-.547 1.001-1.436 0-1.982l-4.958-2.697-3.714 3.674 3.732 3.692M13.725 13.045c-.44.136-.725.577-.725 1.244l.003 20.99c0 .66.276 1.094.703 1.239l11.871-11.746-11.852-11.727m.981 24.473c.309.103.694.055 1.115-.173l14.486-7.883-3.73-3.69-11.871 11.746"/></symbol><symbol viewBox="0 0 9 9" fill="none" id="plus"><path stroke="inherit" stroke-linecap="round" stroke-linejoin="round" d="M4.5.5v8m-4-4h8"/></symbol><symbol viewBox="0 0 16 16" id="question-round"><path d="M8 12.61a.781.781 0 100-1.563.781.781 0 000 1.562z"/><path d="M8 0C3.579 0 0 3.578 0 8c0 4.421 3.578 8 8 8 4.421 0 8-3.578 8-8 0-4.421-3.578-8-8-8zm0 14.75A6.746 6.746 0 011.25 8c0-3.73 3.019-6.75 6.75-6.75 3.73 0 6.75 3.019 6.75 6.75 0 3.73-3.019 6.75-6.75 6.75z"/><path d="M8 4.016a2.503 2.503 0 00-2.5 2.5.625.625 0 101.25 0A1.25 1.25 0 118 7.766a.625.625 0 00-.625.625v1.562a.625.625 0 101.25 0V8.937A2.504 2.504 0 0010.5 6.516c0-1.379-1.121-2.5-2.5-2.5z"/></symbol><symbol viewBox="0 0 25 25" id="roll"><path d="M6.518 18.467c-.28 0-.55.07-.788.2A9.236 9.236 0 013.78 13c0-5.083 4.136-9.219 9.219-9.219a9.31 9.31 0 011.836.183.39.39 0 00.155-.766A10.075 10.075 0 0013 3a9.935 9.935 0 00-7.071 2.929A9.935 9.935 0 003 13c0 2.247.763 4.44 2.152 6.197a1.629 1.629 0 00-.275.91c0 .439.17.85.48 1.16.31.31.722.481 1.16.481.439 0 .85-.17 1.16-.48.31-.31.481-.723.481-1.16 0-.439-.17-.851-.48-1.16a1.63 1.63 0 00-1.16-.481zm.607 2.248a.854.854 0 01-.607.252.854.854 0 01-.608-.252.854.854 0 01-.252-.608c0-.23.09-.445.252-.607a.853.853 0 01.608-.252c.23 0 .445.09.607.252a.854.854 0 01.252.607c0 .23-.09.446-.252.608zM20.848 6.802a1.643 1.643 0 00-1.366-2.55c-.438 0-.85.17-1.16.48-.31.31-.48.722-.48 1.16 0 .439.17.85.48 1.16a1.641 1.641 0 001.948.281A9.236 9.236 0 0122.22 13c0 5.083-4.136 9.219-9.219 9.219-.612 0-1.224-.06-1.818-.18a.39.39 0 00-.154.767c.645.128 1.309.194 1.972.194a9.934 9.934 0 007.071-2.929A9.935 9.935 0 0023 13c0-2.247-.763-4.44-2.152-6.198zM18.875 6.5a.854.854 0 01-.252-.607c0-.23.09-.446.252-.608a.853.853 0 01.607-.252.86.86 0 010 1.719.854.854 0 01-.607-.252z"/><path d="M11.388 19.719c0 .215.175.39.39.39h2.443a.39.39 0 00.39-.39v-.758a6.121 6.121 0 001.467-.607l.535.535a.39.39 0 00.552 0l1.726-1.728a.39.39 0 000-.553l-.534-.534c.266-.461.47-.952.608-1.466h.754a.39.39 0 00.391-.39v-2.443a.39.39 0 00-.39-.39h-.755a6.117 6.117 0 00-.608-1.466l.532-.532a.39.39 0 000-.552L17.16 7.108a.39.39 0 00-.553 0l-.53.531a6.119 6.119 0 00-1.466-.607v-.75a.39.39 0 00-.39-.391h-2.443a.39.39 0 00-.39.39v.75a6.112 6.112 0 00-1.467.608l-.53-.53a.39.39 0 00-.553 0L7.112 8.834a.39.39 0 000 .552l.53.532a6.124 6.124 0 00-.607 1.466h-.753a.39.39 0 00-.39.39l-.002 2.442a.39.39 0 00.39.391h.755c.138.514.342 1.005.608 1.466l-.534.534a.39.39 0 000 .553l1.726 1.727a.39.39 0 00.553 0l.534-.534c.462.266.953.47 1.466.608v.757zm-1.313-2.187a.39.39 0 00-.488.052l-.476.476-1.174-1.175.475-.476a.39.39 0 00.052-.488 5.347 5.347 0 01-.74-1.785.39.39 0 00-.382-.309h-.67v-1.661h.67a.39.39 0 00.382-.309 5.347 5.347 0 01.74-1.785.39.39 0 00-.052-.488L7.94 9.11l1.175-1.174.472.472a.39.39 0 00.488.052 5.344 5.344 0 011.786-.74.39.39 0 00.308-.382v-.667h1.662v.667a.39.39 0 00.308.382 5.35 5.35 0 011.786.74.39.39 0 00.488-.052l.472-.472L18.06 9.11l-.472.472a.39.39 0 00-.052.489 5.36 5.36 0 01.74 1.785.39.39 0 00.381.309h.672v1.661h-.672a.39.39 0 00-.381.309 5.346 5.346 0 01-.74 1.785.39.39 0 00.052.488l.475.476-1.174 1.175-.476-.476a.39.39 0 00-.488-.052 5.35 5.35 0 01-1.786.74.39.39 0 00-.308.382v.674h-1.662v-.674a.39.39 0 00-.308-.382 5.346 5.346 0 01-1.786-.74z"/><path d="M16.228 13A3.231 3.231 0 0013 9.772 3.231 3.231 0 009.772 13 3.231 3.231 0 0013 16.228 3.231 3.231 0 0016.228 13zm-5.674 0A2.45 2.45 0 0113 10.554 2.45 2.45 0 0115.447 13 2.45 2.45 0 0113 15.447 2.45 2.45 0 0110.554 13zm6.043-8.523a.394.394 0 00.39-.39.394.394 0 00-.667-.276.394.394 0 000 .552.393.393 0 00.277.114zM9.42 21.53a.394.394 0 00-.39.39.393.393 0 00.39.39.394.394 0 00.39-.39.394.394 0 00-.39-.39z"/></symbol><symbol viewBox="0 0 16 16" id="search"><path d="M11.742 10.328A6.456 6.456 0 0013 6.5C13 2.916 10.084 0 6.5 0A6.507 6.507 0 000 6.5C0 10.084 2.916 13 6.5 13a6.457 6.457 0 003.828-1.258L14.586 16 16 14.586l-4.258-4.258zM6.5 11A4.505 4.505 0 012 6.5C2 4.02 4.019 2 6.5 2S11 4.02 11 6.5C11 8.982 8.981 11 6.5 11z"/></symbol><symbol viewBox="0 0 110 40" id="site-logo"><path d="M49.58 4.385v16.896h3.84v-4.8h1.105c3.96 0 6.192-3 6.192-6.144 0-3.12-2.016-5.952-6.576-5.952h-4.56zm3.84 8.64V7.841h.697c1.656 0 2.76.96 2.76 2.593 0 1.464-1.104 2.591-2.76 2.591h-.696zm20.735 8.257l-3.096-5.76c1.8-1.129 2.712-3.145 2.712-5.184 0-3.12-2.016-5.953-6.576-5.953h-4.56v16.896h3.84v-4.8h1.104l2.352 4.8h4.224zm-7.68-13.44h.696c1.656 0 2.76.96 2.76 2.592 0 1.464-1.104 2.591-2.76 2.591h-.696V7.841zm13.641 13.44V4.385h-3.84v16.897h3.84zm11.382-3.072c-2.976 0-5.424-2.377-5.424-5.377s2.448-5.376 5.424-5.376c1.344 0 2.52.504 3.408 1.248l1.92-2.928c-1.464-1.152-3.575-1.776-5.352-1.776-5.088 0-9.24 3.96-9.24 8.832 0 4.873 4.152 8.833 9.24 8.833 1.776 0 3.888-.625 5.352-1.776l-1.92-2.928a5.287 5.287 0 01-3.408 1.247zm16.667-10.369V4.385h-9.6v16.896h9.6v-3.455h-5.76V15.52h4.224v-3.456h-4.224V7.841h5.76zM7.336 10.17C6.112 9.712 5.8 9.232 5.8 8.584c0-.552.6-1.128 1.536-1.128 1.224 0 2.208.744 2.688 1.248l2.064-2.832C9.976 3.881 7.912 4.001 7.384 4.001c-3.048 0-5.424 1.824-5.424 4.656 0 2.808 1.728 4.056 5.184 5.4 1.344.504 1.92 1.08 1.92 2.232 0 .864-.744 1.92-2.112 1.92s-2.64-.768-3.816-2.304L1 18.593c.384.696 2.616 3.072 5.952 3.072 3.6 0 5.952-2.64 5.952-5.616 0-3.84-2.688-4.8-5.568-5.88zm15.926-5.785v7.68h-4.224v-7.68h-3.84v16.896h3.84v-5.76h4.224v5.76h3.84V4.385h-3.84zm14.981-.384c-4.992 0-9.024 3.96-9.024 8.832 0 4.872 4.032 8.832 9.024 8.832 4.992 0 9.024-3.96 9.024-8.832 0-4.872-4.032-8.832-9.024-8.832zm0 14.208c-2.856 0-5.184-2.4-5.184-5.376 0-2.976 2.328-5.376 5.184-5.376 2.856 0 5.184 2.4 5.184 5.376 0 2.976-2.328 5.376-5.184 5.376zM1.192 27.833v8.448h1.644c2.748 0 4.308-1.884 4.308-4.224 0-2.34-1.488-4.224-4.308-4.224H1.192zm1.152 7.392V28.89h.672c1.692 0 2.976 1.404 2.976 3.168 0 1.764-1.284 3.168-2.976 3.168h-.672zm7.514 1.056v-8.448H8.706v8.448h1.152zm1.561-4.224a4.317 4.317 0 004.32 4.32c2.388 0 4.128-1.92 4.128-4.308v-.156h-4.416v1.056h3.156c-.348 1.404-1.368 2.352-2.868 2.352-1.764 0-3.168-1.476-3.168-3.264 0-1.812 1.404-3.264 3.168-3.264.708 0 1.38.252 1.86.672l.636-.864a4.055 4.055 0 00-2.496-.864 4.317 4.317 0 00-4.32 4.32zm11.16 4.224v-8.448h-1.152v8.448h1.152zm1.654-8.448v1.056h1.728v7.392h1.152V28.89h1.728v-1.056h-4.608zm10.785 8.448h1.248l-3.84-8.64-3.84 8.64h1.248l.528-1.2h4.128l.528 1.2zm-4.2-2.256l1.608-3.696 1.608 3.696h-3.216zm7.871 1.2v-7.392h-1.152v8.448h3.84v-1.056h-2.688zm8.114-3.168a4.317 4.317 0 004.32 4.32c.948 0 1.92-.336 2.592-.864l-.624-.864c-.48.42-1.2.672-1.956.672-1.752 0-3.18-1.476-3.18-3.264 0-1.788 1.428-3.264 3.18-3.264.756 0 1.476.252 1.956.672l.624-.864c-.672-.528-1.644-.864-2.592-.864a4.317 4.317 0 00-4.32 4.32zm12.127-4.32a4.317 4.317 0 00-4.32 4.32 4.317 4.317 0 004.32 4.32 4.317 4.317 0 004.32-4.32 4.317 4.317 0 00-4.32-4.32zm0 7.584c-1.763 0-3.167-1.452-3.167-3.264 0-1.812 1.404-3.264 3.168-3.264 1.764 0 3.168 1.452 3.168 3.264 0 1.812-1.404 3.264-3.168 3.264zm9.536-3.264l-3.648-4.416v8.64h1.152v-5.496l2.496 3 2.496-3v5.496h1.152v-8.64l-3.648 4.416zm9.331 0l-3.648-4.416v8.64H75.3v-5.496l2.496 3 2.496-3v5.496h1.152v-8.64l-3.648 4.416zm9.715-3.167v-1.057H83.48v8.448h4.032v-1.056h-2.88V32.97h2.112v-1.056h-2.112V28.89h2.88zm6.653 7.391l-1.704-3.18c.96-.468 1.512-1.416 1.512-2.484 0-1.524-.972-2.784-3.072-2.784h-1.536v8.448h1.152v-2.88h.552c.096 0 .18 0 .276-.012l1.476 2.892h1.344zm-3.648-3.936V28.89h.516c.828 0 1.788.504 1.788 1.728 0 1.104-.888 1.728-1.716 1.728h-.588zm4.737-.288a4.317 4.317 0 004.32 4.32c.948 0 1.92-.336 2.592-.864l-.624-.864c-.48.42-1.2.672-1.957.672-1.751 0-3.18-1.476-3.18-3.264 0-1.788 1.428-3.264 3.18-3.264.757 0 1.477.252 1.957.672l.624-.864c-.672-.528-1.644-.864-2.593-.864a4.317 4.317 0 00-4.32 4.32zm12.317-3.167v-1.057h-4.032v8.448h4.032v-1.056h-2.88V32.97h2.112v-1.056h-2.112V28.89h2.88z"/></symbol><symbol viewBox="0 0 18 18" id="star-empty"><path d="M4.029 17.636a.957.957 0 01-.932-1.17l1.158-5.101L.327 7.921A.956.956 0 01.87 6.247l5.196-.472L8.12.968A.956.956 0 019.88.967l2.054 4.808 5.195.472a.955.955 0 01.824.658.956.956 0 01-.28 1.016l-3.927 3.443 1.158 5.101a.956.956 0 01-1.423 1.034L9 14.82 4.52 17.5a.96.96 0 01-.491.135zM9 13.668a.96.96 0 01.49.135l4.23 2.53-1.094-4.815a.957.957 0 01.303-.932l3.708-3.252-4.905-.446a.956.956 0 01-.795-.58L9 1.771 7.061 6.31a.953.953 0 01-.793.578l-4.906.445 3.708 3.252c.265.233.382.59.303.933L4.28 16.332l4.228-2.529a.96.96 0 01.49-.135zm-2.974-7.8v.002-.002zm5.946-.002l.001.001v-.001z"/></symbol><symbol viewBox="0 0 18 18" id="star-filled"><path d="M17.953 6.904a.955.955 0 00-.823-.657l-5.196-.472L9.881.968a.957.957 0 00-1.76 0L6.066 5.775.87 6.247a.958.958 0 00-.544 1.674l3.928 3.444-1.158 5.1A.957.957 0 004.519 17.5L9 14.821l4.48 2.68a.956.956 0 001.424-1.035l-1.158-5.1 3.928-3.445a.958.958 0 00.279-1.017z"/></symbol><symbol viewBox="0 0 18 18" id="star-half"><path d="M4.029 17.636a.957.957 0 01-.932-1.17l1.158-5.101L.327 7.921A.956.956 0 01.87 6.247l5.196-.472L8.12.968A.956.956 0 019.88.967l2.054 4.808 5.195.472a.955.955 0 01.824.658.956.956 0 01-.28 1.016l-3.927 3.443 1.158 5.101a.956.956 0 01-1.423 1.034L9 14.82 4.52 17.5a.96.96 0 01-.491.135zM9 13.668a.96.96 0 01.49.135l4.23 2.53-1.094-4.815a.957.957 0 01.303-.932l3.708-3.252-4.905-.446a.956.956 0 01-.795-.58L9 1.771v11.897z"/></symbol><symbol viewBox="0 0 25 25" id="statistic"><path d="M22.61 11.154h-2.5a.39.39 0 00-.391.39v1.973a.39.39 0 10.781 0v-1.582h1.719V22.22H20.5v-5.772a.39.39 0 00-.781 0v5.772h-.782v-8.086a.39.39 0 00-.39-.39h-2.5a.39.39 0 00-.39.39v8.086h-.782v-5.352a.39.39 0 00-.39-.39h-2.5a.39.39 0 00-.391.39v5.352h-.781v-3.11a.39.39 0 00-.391-.391h-2.5a.39.39 0 00-.39.39v3.11h-3.36a.391.391 0 01-.39-.39V4.172a.39.39 0 01.39-.39h10.077v2.577c0 .647.526 1.172 1.172 1.172h2.578v4.805a.39.39 0 00.781 0V7.14a.39.39 0 00-.114-.276l-3.75-3.75A.391.391 0 0014.64 3H4.172C3.526 3 3 3.526 3 4.172v17.656C3 22.474 3.526 23 4.172 23h18.437a.39.39 0 00.391-.39V11.544a.39.39 0 00-.39-.39zm-7.58-6.82l2.417 2.416H15.42a.391.391 0 01-.39-.39V4.333zm-4.999 17.885H8.312v-2.72h1.72v2.72zm4.063 0h-1.719v-4.961h1.719v4.96zm4.062 0h-1.718v-7.696h1.718v7.696z"/><path d="M20.386 14.634a.392.392 0 00-.667.276.394.394 0 00.39.39.394.394 0 00.391-.39.394.394 0 00-.114-.276zM8.687 5.138a.39.39 0 00-.391.39v.703a3.598 3.598 0 00-3.202 3.572 3.597 3.597 0 003.593 3.593 3.598 3.598 0 003.571-3.203h.703a.39.39 0 00.39-.39 4.67 4.67 0 00-4.664-4.665zm0 7.476a2.815 2.815 0 01-2.812-2.811 2.816 2.816 0 012.42-2.785v2.785c0 .215.176.39.392.39h2.784a2.816 2.816 0 01-2.784 2.421zm.39-3.202V5.94a3.891 3.891 0 013.474 3.473H9.077zm3.883 5.082H5.5a.39.39 0 000 .781h7.46a.39.39 0 100-.78zM8 16.379H5.5a.39.39 0 000 .781H8a.39.39 0 000-.781zm2.232.114a.394.394 0 00-.552 0 .392.392 0 00.276.667.394.394 0 00.39-.39.394.394 0 00-.114-.277z"/></symbol><symbol viewBox="0 0 30 30" id="statistics"><path d="M4.453 14.063c.71 0 1.351-.285 1.825-.742l2.602 1.3c-.013.107-.032.211-.032.32a2.64 2.64 0 002.636 2.637 2.64 2.64 0 002.637-2.637c0-.405-.1-.785-.264-1.13l3.53-3.528c.343.164.723.264 1.129.264a2.64 2.64 0 002.636-2.637c0-.274-.053-.532-.131-.78l3.066-2.3c.419.28.92.443 1.46.443a2.64 2.64 0 002.637-2.636A2.64 2.64 0 0025.547 0a2.64 2.64 0 00-2.637 2.637c0 .273.054.532.132.78l-3.067 2.3a2.62 2.62 0 00-1.46-.444A2.64 2.64 0 0015.88 7.91c0 .406.1.786.264 1.13l-3.53 3.529a2.606 2.606 0 00-1.129-.264c-.709 0-1.35.284-1.825.741l-2.601-1.3c.013-.107.032-.21.032-.32a2.64 2.64 0 00-2.637-2.637 2.64 2.64 0 00-2.637 2.637 2.64 2.64 0 002.637 2.636z"/><path d="M29.121 28.242h-.937V9.668a.879.879 0 00-.88-.879H23.79a.879.879 0 00-.879.879v18.574h-1.758v-13.3a.879.879 0 00-.879-.88h-3.515a.879.879 0 00-.88.88v13.3h-1.757v-6.27a.879.879 0 00-.879-.878H9.727a.879.879 0 00-.88.879v6.27H7.09v-9.786a.879.879 0 00-.88-.879H2.696a.879.879 0 00-.879.879v9.785H.88A.879.879 0 10.88 30h28.24a.879.879 0 100-1.758z"/></symbol><symbol viewBox="0 0 20 20" id="support"><g clip-path="url(#clip0)"><path fill-rule="evenodd" clip-rule="evenodd" d="M4.545 7.27a5.455 5.455 0 0110.91 0v7.273a1.82 1.82 0 01-1.815 1.82h-2.065a1.817 1.817 0 100 1.819h2.065a3.638 3.638 0 003.633-3.636h.454A2.272 2.272 0 0020 12.274v-2.73a2.273 2.273 0 00-2.273-2.271h-.454V7.27a7.273 7.273 0 00-14.546 0v.002h-.454A2.273 2.273 0 000 9.544v2.73a2.272 2.272 0 004.545 0V7.271zM2.273 9.092h.454v3.183a.455.455 0 01-.909 0v-2.73c0-.25.204-.453.455-.453zm15.909 3.183c0 .25-.203.453-.455.453h-.454V9.091h.454c.25 0 .455.204.455.453v2.73zm-10.455-.456a1.364 1.364 0 100-2.727 1.364 1.364 0 000 2.727zm5.91-1.363a1.364 1.364 0 11-2.728 0 1.364 1.364 0 012.727 0z"/></g></symbol><symbol viewBox="0 0 25 25" id="warehouse"><path d="M4.89 12.766a.393.393 0 00.277-.114.394.394 0 00-.276-.667.394.394 0 00-.391.39c0 .104.042.204.114.277a.393.393 0 00.277.114z"/><path d="M21.798 7.36l-3.57-1.973a.39.39 0 10-.378.683l3.369 1.863v13.285H19.5V8.952a.39.39 0 00-.39-.39H4.89a.39.39 0 00-.39.39v1.86a.39.39 0 00.781 0v-1.47H18.72v11.876h-1.636v-3.906a.782.782 0 00-.781-.782H14.74v-3.906c0-.43-.35-.781-.78-.781h-3.907a.781.781 0 00-.781.781v3.906H7.703c-.43 0-.781.35-.781.782v3.906h-1.64v-7.28a.39.39 0 10-.782 0v7.28H2.781V7.933L12 2.836l3.115 1.722a.39.39 0 00.378-.683L12.19 2.048a.39.39 0 00-.378 0L2.2 7.36a.39.39 0 00-.2.342v13.906a.39.39 0 00.39.391h19.22a.39.39 0 00.39-.39V7.701a.39.39 0 00-.202-.342zm-7.84 9.952h.781v.78h-.78v-.78zm-1.567-4.688v.781h-.782v-.78h.782zm-2.34 0h.777v1.172c0 .216.175.39.39.39h1.563a.39.39 0 00.39-.39v-1.172h.787v3.906h-3.906v-3.906zm0 4.688v.78h-.78v-.78h.78zm-2.348 3.906v-3.906h.786v1.171a.39.39 0 00.391.391h1.563a.39.39 0 00.39-.39v-1.172h.776v3.906H7.703zm4.693 0v-3.906h.78v1.171c0 .216.176.391.392.391h1.562a.39.39 0 00.39-.39v-1.172h.782v3.906h-3.906z"/><path d="M16.672 5.364a.394.394 0 00.39-.39.393.393 0 00-.39-.391.393.393 0 00-.39.39.394.394 0 00.39.391zm-6.312.62c0 .905.735 1.641 1.64 1.641a1.642 1.642 0 000-3.281c-.905 0-1.64.736-1.64 1.64zm2.5 0a.86.86 0 01-1.72 0 .86.86 0 011.72 0z"/></symbol></svg>