<svg xmlns="http://www.w3.org/2000/svg" width="52.265" height="50.523" viewBox="0 0 52.265 50.523"><g transform="translate(0 -0.3)"><path d="M9.209,19.612a1.737,1.737,0,0,1-.81-.2A15.656,15.656,0,0,1,0,5.527a5.227,5.227,0,0,1,10.453,0,5.221,5.221,0,0,0,3.586,4.962,1.742,1.742,0,1,1-1.1,3.308,8.7,8.7,0,0,1-5.975-8.27,1.742,1.742,0,1,0-3.484,0,12.18,12.18,0,0,0,6.538,10.8,1.742,1.742,0,0,1-.813,3.284Zm0,0" transform="translate(0)" fill="#ff1a41"/><path d="M296.68,19.543a1.742,1.742,0,0,1-.829-3.275,12.2,12.2,0,0,0,6.423-10.74,1.742,1.742,0,1,0-3.484,0,8.709,8.709,0,0,1-5.917,8.251,1.742,1.742,0,1,1-1.12-3.3,5.227,5.227,0,0,0,3.552-4.951,5.227,5.227,0,1,1,10.453,0,15.68,15.68,0,0,1-8.253,13.806,1.718,1.718,0,0,1-.825.209Zm0,0" transform="translate(-253.493 -0.001)" fill="#ff1a41"/><path d="M77.264,98.478a1.741,1.741,0,0,1-1.742-1.742V93.864a1.742,1.742,0,0,1,.7-1.393,2.388,2.388,0,0,0,1.046-1.832,2.056,2.056,0,0,0-.42-1.193,1.749,1.749,0,0,1-.155-1.744,11.226,11.226,0,0,1,4.7-5.126c5.584-3.1,8.075-6.795,8.075-11.972A10.757,10.757,0,0,0,85.8,62.01c-3.69-3.161-10-4.324-17.3-3.176A12.167,12.167,0,0,0,58.105,71c.121,4.881,2.446,8.292,7.775,11.406a12.548,12.548,0,0,1,4.963,5.282,1.741,1.741,0,0,1-.138,1.769,2.051,2.051,0,0,0-.41,1.179,2.389,2.389,0,0,0,1.047,1.832,1.742,1.742,0,0,1,.7,1.393v2.872a1.742,1.742,0,0,1-3.485,0V94.657a5.665,5.665,0,0,1-1.742-4.018,5.341,5.341,0,0,1,.475-2.183,9.175,9.175,0,0,0-3.164-3.04c-4.32-2.525-9.3-6.435-9.5-14.329a15.663,15.663,0,0,1,13.344-15.7c8.308-1.3,15.637.15,20.1,3.973A14.28,14.28,0,0,1,92.944,70.6c0,6.506-3.136,11.278-9.868,15.018a7.568,7.568,0,0,0-2.822,2.788,5.371,5.371,0,0,1,.495,2.229,5.665,5.665,0,0,1-1.742,4.018v2.079a1.741,1.741,0,0,1-1.743,1.742Zm0,0" transform="translate(-47.647 -47.655)" fill="#212121"/></g></svg>