<svg xmlns="http://www.w3.org/2000/svg" width="47.264" height="50.523" viewBox="0 0 47.264 50.523"><g transform="translate(-0.125 0)"><path d="M200.942,331.635a1.629,1.629,0,0,1-.561-3.159,12.951,12.951,0,0,1,4.491-.8,1.63,1.63,0,0,1,0,3.26,9.755,9.755,0,0,0-3.368.595A1.614,1.614,0,0,1,200.942,331.635Zm0,0" transform="translate(-175.411 -288.566)" fill="#ff1a41"/><path d="M155.371,172.264a1.629,1.629,0,0,1-1.564-2.085,12.958,12.958,0,0,1,2.025-4.089,1.63,1.63,0,1,1,2.623,1.936,9.734,9.734,0,0,0-1.518,3.064A1.63,1.63,0,0,1,155.371,172.264Zm0,0" transform="translate(-135.279 -145.682)" fill="#ff1a41"/><path d="M44.217,19.194c.012-.021.019-.044.03-.065s.028-.042.04-.066.008-.039.017-.058A13.029,13.029,0,0,0,23.757,3.579a13.031,13.031,0,0,0-22,9.459,1.63,1.63,0,1,0,3.259,0A9.771,9.771,0,0,1,22.476,7a1.687,1.687,0,0,0,2.562,0,9.744,9.744,0,0,1,14.921-.516,4.89,4.89,0,0,1-3.968,5.539,4.825,4.825,0,0,1-2.031-.065,1.63,1.63,0,1,0-.783,3.164,8.067,8.067,0,0,0,1.945.239,8.091,8.091,0,0,0,7.168-4.332A9.814,9.814,0,0,1,32.72,22.817a6.519,6.519,0,0,0,0,13.038,1.63,1.63,0,1,0,0-3.26,3.26,3.26,0,0,1,0-6.519,13,13,0,0,0,9.519-4.124,9.645,9.645,0,0,1,1.889,5.753,9.793,9.793,0,0,1-4.21,8.033,1.627,1.627,0,0,0-.7,1.4l.02.35a9.765,9.765,0,0,1-14.666,8.459,1.626,1.626,0,0,0-1.633,0A9.728,9.728,0,0,1,8.617,39.918a13,13,0,0,0,3.8.79A6.5,6.5,0,0,0,18.053,44a1.63,1.63,0,0,0,0-3.26,3.26,3.26,0,0,1,0-6.519h3.26a1.63,1.63,0,0,0,0-3.259h-3.26a6.477,6.477,0,0,0-4.426,1.762,1.6,1.6,0,0,0-.49-.1,1.643,1.643,0,0,1-1.631-1.66,1.656,1.656,0,0,1,.148-.671,1.63,1.63,0,1,0-2.967-1.35,4.864,4.864,0,0,0,3.133,6.737,6.429,6.429,0,0,0-.272,1.663A9.666,9.666,0,0,1,7.6,35.74l0,0a9.771,9.771,0,0,1-.88-.695c-.042-.036-.083-.075-.124-.112A9.746,9.746,0,0,1,6.457,20.6a1.63,1.63,0,1,0-2.241-2.368A13.012,13.012,0,0,0,3.925,36.9c.008.008.01.02.019.028a13.273,13.273,0,0,0,1.078.958A13.023,13.023,0,0,0,23.757,49.2,13.023,13.023,0,0,0,42.493,37.882a13.05,13.05,0,0,0,4.9-10.177,12.889,12.889,0,0,0-3.172-8.511Zm0,0" transform="translate(0 0)" fill="#212121"/><path d="M213.748,82.061a1.634,1.634,0,0,0-2.152.828,6.7,6.7,0,0,0,6.118,9.419,1.63,1.63,0,0,0,0-3.26,3.44,3.44,0,0,1-3.435-3.436,3.394,3.394,0,0,1,.3-1.4,1.632,1.632,0,0,0-.828-2.152Zm0,0" transform="translate(-185.72 -72.142)" fill="#212121"/><path d="M74.6,76.723a1.63,1.63,0,0,0-3.259,0,3.26,3.26,0,1,1-6.519,0,1.63,1.63,0,0,0-3.26,0A6.512,6.512,0,0,0,67.8,83.214a1.524,1.524,0,0,0,.215.258,1.649,1.649,0,0,1-.28,2.75,1.63,1.63,0,0,0,1.49,2.9,4.9,4.9,0,0,0,2.041-6.745A6.5,6.5,0,0,0,74.6,76.723Zm0,0" transform="translate(-54.107 -66.13)" fill="#ff1a41"/></g></svg>