<svg xmlns="http://www.w3.org/2000/svg" width="41.443" height="50.523" viewBox="0 0 41.443 50.523"><g transform="translate(-0.083 0.001)"><path d="M112.4,33.34l-5.133,3.422-6.844-3.422L98.708,19.652h17.11Zm0,0" transform="translate(-86.265 -17.19)" fill="#ff1a41"/><path d="M34.093.5A10.607,10.607,0,0,0,27.862.479L27.318.63A1.707,1.707,0,0,0,26.07,2.378c.035.59.06,1.186.06,1.795,0,8.067-3.156,13.688-5.989,13.688s-5.988-5.621-5.988-13.688c0-.72.035-1.423.085-2.114a1.712,1.712,0,0,0-1.35-1.8,10.04,10.04,0,0,0-4.3-.052A10.837,10.837,0,0,0,.17,12.183a16.229,16.229,0,0,0,1.589,5.247L5.6,25.11C5.608,28.744,5.757,42.534,7.49,46c1.118,2.236,2.552,4.522,4.7,4.522,1.383,0,2.558-.946,3.49-2.811.67-1.341.874-3.4,1.133-6.01.548-5.555,1.243-10.154,4.18-10.154s3.632,4.6,4.18,10.154c.259,2.609.463,4.668,1.133,6.01.933,1.865,2.107,2.811,3.491,2.811,2.152,0,3.586-2.286,4.7-4.522C36.3,42.4,36.4,27.628,36.4,24.7a1.574,1.574,0,0,0-.051-.255l3.51-7.02a16.225,16.225,0,0,0,1.589-5.248A10.92,10.92,0,0,0,34.093.5Zm3.955,11.251A12.832,12.832,0,0,1,36.793,15.9L31.062,27.361A1.668,1.668,0,0,0,32.9,29.794c-.16,6.046-.6,12.965-1.458,14.676a9.376,9.376,0,0,1-1.592,2.5,4.391,4.391,0,0,1-.479-.785,20.031,20.031,0,0,1-.787-4.815c-.553-5.588-1.31-13.24-7.587-13.24s-7.035,7.652-7.587,13.24a20.06,20.06,0,0,1-.787,4.815,4.385,4.385,0,0,1-.48.785,9.375,9.375,0,0,1-1.592-2.5c-.854-1.707-1.3-8.6-1.457-14.643a1.7,1.7,0,0,0,1.457-2.467L4.82,15.9a12.824,12.824,0,0,1-1.255-4.142,7.428,7.428,0,0,1,5.768-8.21,6.09,6.09,0,0,1,1.409-.122q-.01.373-.01.748c0,9.594,4.134,17.109,9.41,17.109s9.41-7.515,9.41-17.109c0-.194,0-.386-.007-.578a6.9,6.9,0,0,1,3.462.154,7.487,7.487,0,0,1,5.041,8.006Zm0,0" transform="translate(0 0)" fill="#212121"/></g></svg>