<svg xmlns="http://www.w3.org/2000/svg" width="44.243" height="50.523" viewBox="0 0 44.243 50.523"><g transform="translate(-0.125 0)"><path d="M42.243,29.769a8.657,8.657,0,0,0,.5-2.877,8.9,8.9,0,0,0-1.868-5.435,8.026,8.026,0,0,0,.751-9.233,7.963,7.963,0,0,0,1.117-4.074A8.119,8.119,0,0,0,29.7,1.66a8.262,8.262,0,0,0-9.778,0A8.076,8.076,0,0,0,7.851,4.352,8.127,8.127,0,0,0,2.513,18.223l4.609,4.611a1.678,1.678,0,0,0,2.3,0l4.607-4.609a7.828,7.828,0,0,0,1.42-1.939,8.1,8.1,0,0,0,4.468-1.649,8.17,8.17,0,0,0,6.52,1.493c0,.056,0,.111,0,.167a8.062,8.062,0,0,0,1.14,4.13,8.9,8.9,0,0,0-2.493,4.252,7.829,7.829,0,0,0-1.907-.234A8.191,8.191,0,0,0,15.7,29.369c-.226-.022-.449-.033-.67-.033H13.4a8.158,8.158,0,0,0-8.149,8.149V48.893a1.63,1.63,0,1,0,3.259,0V37.485A4.895,4.895,0,0,1,13.4,32.6h1.63a4.885,4.885,0,0,1,1.331.214A1.629,1.629,0,0,0,18.4,31.578a4.906,4.906,0,0,1,4.779-3.872,4.8,4.8,0,0,1,2.446.686,1.63,1.63,0,0,0,2.453-1.407c0-.047,0-.108-.009-.169A5.681,5.681,0,0,1,30.709,22.1a1.63,1.63,0,0,0,.313-2.481A4.867,4.867,0,0,1,29.7,16.3a4.8,4.8,0,0,1,.619-2.319,1.63,1.63,0,0,0-2.456-2.048,4.872,4.872,0,0,1-6.715-.584,1.685,1.685,0,0,0-2.454,0,4.816,4.816,0,0,1-3.662,1.692,1.213,1.213,0,0,1-.19-.022l-.274-.033a1.646,1.646,0,0,0-1.7,1.086,4.835,4.835,0,0,1-1.138,1.851L8.274,19.378,4.817,15.919a4.887,4.887,0,0,1,0-6.914,4.767,4.767,0,0,1,2.1-1.2c0,.114-.034.224-.034.339A8.157,8.157,0,0,0,7.9,12.085a1.63,1.63,0,1,0,2.854-1.576,4.749,4.749,0,0,1-.322-3.942c0-.009.01-.015.013-.024A4.889,4.889,0,0,1,15.032,3.26a4.816,4.816,0,0,1,3.662,1.692,1.685,1.685,0,0,0,2.454,0,4.919,4.919,0,0,1,7.325,0,1.685,1.685,0,0,0,2.454,0A4.816,4.816,0,0,1,34.589,3.26a4.895,4.895,0,0,1,4.889,4.889A4.812,4.812,0,0,1,38.373,11.2a1.632,1.632,0,0,0,0,2.05,4.793,4.793,0,0,1-.783,6.876,1.629,1.629,0,0,0-.069,2.505,5.566,5.566,0,0,1,1.361,6.745,1.629,1.629,0,0,0,.312,1.867,6.481,6.481,0,0,1,1.915,4.614c0,4.413-4.558,4.889-6.519,4.889-4.733,0-5.814-1.593-6.249-3.151-.011-.039-.043-.065-.057-.1a6.563,6.563,0,0,1-.213-1.635,6.47,6.47,0,0,1,.539-2.6,1.63,1.63,0,0,0-2.989-1.3,9.711,9.711,0,0,0-.81,3.9,9.86,9.86,0,0,0,.088,1.3,4.839,4.839,0,0,1-1.717.327,4.9,4.9,0,0,1-1.331-.213,1.629,1.629,0,0,0-2.039,1.23,4.906,4.906,0,0,1-4.779,3.872A1.629,1.629,0,0,0,13.4,44v4.889a1.63,1.63,0,1,0,3.259,0V45.467a8.21,8.21,0,0,0,5.849-4.756,7.734,7.734,0,0,0,3.436-.452C28.126,44,32.886,44,34.589,44c5.939,0,9.778-3.2,9.778-8.149a9.706,9.706,0,0,0-2.125-6.086Zm0,0" transform="translate(0 0)" fill="#212121"/><path d="M268.058,262.674a3.26,3.26,0,1,1-3.259-3.259A3.259,3.259,0,0,1,268.058,262.674Zm0,0" transform="translate(-230.209 -228.448)" fill="#ff1a41"/></g></svg>