<svg xmlns="http://www.w3.org/2000/svg" width="52.218" height="51.88" viewBox="0 0 52.218 51.88"><g transform="translate(0 -0.277)"><path d="M48.672,9.854a7.885,7.885,0,0,0-4.949-1.528,9.49,9.49,0,0,0,.57-3.034A4.873,4.873,0,0,0,39.278.277c-2.691,0-6.686,4.211-6.686,10.029a18.938,18.938,0,0,0,.368,3.861,13.8,13.8,0,0,1-1.428,9.985c-1.918,3.194-4.281,5.088-7.022,5.628-3.581.705-7.05-1.03-8.537-1.928a6.772,6.772,0,0,0-3.526-6.506A9.957,9.957,0,0,0,3.39,22,6.731,6.731,0,0,0,0,27.856c0,.685,0,2.768,1.556,3.725,1.575.966,3.357.062,4.787-.664.354-.18.862-.438,1.092-.526.7.483,2.071,2.86,2.68,4.68.059.178,6.165,17.088,22.416,17.088.607,0,1.228-.022,1.862-.072C45.229,51.252,50.544,37.711,51.8,26.368c.748-6.729.885-13.387-3.132-16.514ZM48.48,26c-.248,2.235-2.758,21.863-14.345,22.753-15.085,1.172-20.8-14.581-20.85-14.741-.095-.285-2.372-6.993-5.764-6.993a6.287,6.287,0,0,0-2.688.914,12.462,12.462,0,0,1-1.441.653,4.6,4.6,0,0,1-.049-.731,3.415,3.415,0,0,1,1.8-3.01,6.687,6.687,0,0,1,5.806-.509c2.139,1.069,1.635,3.917,1.616,4.026a1.67,1.67,0,0,0,.631,1.662c.23.175,5.716,4.244,11.927,3.041,3.72-.723,6.839-3.142,9.271-7.193A17.123,17.123,0,0,0,36.23,13.48a15.606,15.606,0,0,1-.3-3.174c0-4.245,2.685-6.578,3.323-6.686a1.534,1.534,0,0,1,1.691,1.671A8.837,8.837,0,0,1,39.81,8.933q-.945.265-1.955.643a1.672,1.672,0,1,0,1.175,3.131c3.521-1.32,6.075-1.392,7.588-.215C49.715,14.9,48.849,22.678,48.48,26Zm0,0" fill="#212121"/><path d="M230.175,334.976a18.136,18.136,0,0,1-3.553-.378,1.671,1.671,0,1,1,.656-3.278c6.832,1.364,8.1-2.2,8.115-2.233a1.671,1.671,0,0,1,3.17,1.058c-.075.225-1.7,4.831-8.388,4.831Zm0,0" transform="translate(-197.7 -287.553)" fill="#ff1a41"/></g></svg>