<svg viewBox="0 0 649 419" fill="none" xmlns="http://www.w3.org/2000/svg"><path opacity=".5" d="M494.293 124.993c.622.498.705 1.41.207 2.032-.497.622-1.409.705-2.03.207-.58-.498-.705-1.41-.207-2.032.497-.58 1.408-.704 2.03-.207zm9.282-80.353c.705.54.788 1.577.249 2.24-.539.705-1.575.788-2.238.249a1.598 1.598 0 01-.248-2.28 1.577 1.577 0 012.237-.208zm143.923-6.052c.705.58.829 1.658.249 2.363-.58.746-1.658.83-2.404.249-.746-.622-.87-1.659-.29-2.405.622-.663 1.699-.788 2.445-.207zM160.739 98.25c.746.623.912 1.742.29 2.53-.622.787-1.782.912-2.528.29-.787-.622-.911-1.783-.29-2.57.622-.788 1.741-.871 2.528-.25zm394.596-53.983c.787.664.911 1.825.248 2.654-.663.83-1.823.954-2.61.29-.829-.663-.954-1.865-.291-2.653a1.863 1.863 0 012.653-.29zM241.133.443a2.03 2.03 0 01.332 2.82 1.986 1.986 0 01-2.818.29 2.031 2.031 0 01-.332-2.82c.705-.83 1.948-.995 2.818-.29zm334.549 154.443a2.047 2.047 0 01.29 2.903c-.746.87-2.031 1.036-2.901.29-.87-.705-1.036-2.032-.331-2.902.746-.912 2.072-1.037 2.942-.291zM446.305 20.676c.87.705 1.036 2.073.332 2.986a2.153 2.153 0 01-2.984.331 2.156 2.156 0 01-.332-2.985c.705-.912 2.072-1.078 2.984-.332zm-166.88 238.818a2.214 2.214 0 01.331 3.068c-.746.912-2.113 1.078-3.025.332a2.13 2.13 0 01-.332-3.027c.746-.995 2.072-1.119 3.026-.373zm148.812-72.185c.953.788 1.119 2.198.332 3.151-.746.954-2.155 1.12-3.15.332-.911-.788-1.077-2.197-.331-3.11.787-.995 2.196-1.16 3.149-.373zM258.29 62.635c.994.788 1.16 2.24.331 3.193a2.212 2.212 0 01-3.19.331 2.263 2.263 0 01-.332-3.234c.746-.953 2.196-1.119 3.191-.29zM517.748 23.33a2.371 2.371 0 01.373 3.317c-.829 1.036-2.279 1.16-3.315.331a2.363 2.363 0 01-.332-3.317 2.31 2.31 0 013.274-.331zM4.26 413.523c1.12.912 1.285 2.571.415 3.69a2.627 2.627 0 01-3.689.373c-1.118-.912-1.326-2.529-.414-3.648a2.595 2.595 0 013.688-.415z" fill="#fff"/><path opacity=".327" d="M553.76 45.801l20.223 110.744c.041.248.248.373.497.331a.453.453 0 00.331-.497L554.547 45.636a.381.381 0 00-.456-.29c-.207.082-.331.248-.331.455z" fill="#fff"/><path opacity=".262" d="M239.476 2.101l16.949 62.4c.083.248.332.414.58.331a.485.485 0 00.332-.539L240.305 1.894c-.042-.207-.29-.332-.497-.29-.249.083-.373.29-.332.497z" fill="#fff"/><path opacity=".132" d="M444.937 22.75l71.319 2.901a.48.48 0 00.498-.497c0-.249-.208-.456-.456-.498l-71.319-2.82c-.207 0-.456.167-.456.416 0 .29.166.497.414.497z" fill="#fff"/></svg>