<svg xmlns="http://www.w3.org/2000/svg" xmlns:xlink="http://www.w3.org/1999/xlink" width="44" height="44" viewBox="0 0 44 44">
  <defs>
    <clipPath id="clip-path">
      <rect id="Rectangle_31" data-name="Rectangle 31" width="44" height="44" fill="#003cc3" stroke="#003cc3" stroke-width="1"/>
    </clipPath>
  </defs>
  <g id="Mask_Group_11" data-name="Mask Group 11" clip-path="url(#clip-path)">
    <g id="wallet" transform="translate(0 5.495)">
      <path id="Path_49" data-name="Path 49" d="M26.606,26.361h.252a.978.978,0,1,0,0-1.956h-.252a.978.978,0,0,0,0,1.956Z" transform="translate(-18.454 -24.405)" fill="#003cc3"/>
      <path id="Path_50" data-name="Path 50" d="M63.43,36.773h-.939V25.385a.978.978,0,0,0-.978-.978H32.582a.978.978,0,1,0,0,1.956H60.538V36.774H52.6a6.023,6.023,0,0,0-6.014,6.013v.156a6.023,6.023,0,0,0,6.013,6.014h4.268v6.5H24.886a2.523,2.523,0,0,1-2.52-2.52V32.8a2.523,2.523,0,0,1,2.52-2.52H56.862v3.788a.978.978,0,1,0,1.956,0V29.3a.978.978,0,0,0-.978-.978H24.886A4.481,4.481,0,0,0,20.411,32.8V52.936a4.481,4.481,0,0,0,4.476,4.478H57.84a.978.978,0,0,0,.978-.978V48.96h1.721v3.559a.978.978,0,1,0,1.956,0V48.96h.939a.978.978,0,0,0,.978-.978V37.751a.978.978,0,0,0-.98-.978Zm-14.894,6.17v-.156a4.063,4.063,0,0,1,4.057-4.057H62.45v8.276H52.594a4.063,4.063,0,0,1-4.057-4.062Z" transform="translate(-20.411 -24.405)" fill="#003cc3"/>
      <path id="Path_51" data-name="Path 51" d="M44.5,36.509a1.819,1.819,0,1,0,1.82,1.818,1.819,1.819,0,0,0-1.82-1.818Z" transform="translate(-12.058 -19.866)" fill="#003cc3"/>
    </g>
  </g>
</svg>
