<svg xmlns="http://www.w3.org/2000/svg" xmlns:xlink="http://www.w3.org/1999/xlink" width="44" height="44" viewBox="0 0 44 44">
  <defs>
    <clipPath id="clip-path">
      <rect id="Rectangle_31" data-name="Rectangle 31" width="44" height="44" fill="#003cc3" stroke="#707070" stroke-width="1"/>
    </clipPath>
  </defs>
  <g id="Mask_Group_18" data-name="Mask Group 18" clip-path="url(#clip-path)">
    <g id="no-entry" transform="translate(4.396 0)">
      <path id="Path_78" data-name="Path 78" d="M34.33,43.448a.88.88,0,0,0-.88.88v5.555a.88.88,0,1,0,1.76,0V44.328A.88.88,0,0,0,34.33,43.448Z" transform="translate(-14.903 -6.763)" fill="#003cc3"/>
      <path id="Path_79" data-name="Path 79" d="M41.688,33a.88.88,0,0,0,.88-.88V28.486a.88.88,0,0,0-.88-.88H28.048a.88.88,0,0,0-.88.88v3.637a.88.88,0,0,0,.88.88Zm-12.76-3.637h11.88v1.877H28.928Z" transform="translate(-17.259 -12.704)" fill="#003cc3"/>
      <path id="Path_80" data-name="Path 80" d="M37.57,16.768a17.6,17.6,0,0,0-2.7,34.993v8.127a.88.88,0,1,0,1.76,0V51.943c.311.016.624.025.939.025a17.6,17.6,0,0,0,0-35.2Zm0,33.44a15.84,15.84,0,1,1,15.84-15.84A15.84,15.84,0,0,1,37.57,50.208Z" transform="translate(-19.962 -16.768)" fill="#003cc3"/>
      <path id="Path_81" data-name="Path 81" d="M36.547,19.492a13.858,13.858,0,0,0-8.978,3.3.88.88,0,1,0,1.14,1.339,12.08,12.08,0,1,1-2.491,2.918.88.88,0,0,0-1.5-.915,13.855,13.855,0,1,0,11.832-6.644Z" transform="translate(-18.938 -15.746)" fill="#003cc3"/>
    </g>
  </g>
</svg>
