<svg xmlns="http://www.w3.org/2000/svg" xmlns:xlink="http://www.w3.org/1999/xlink" width="44" height="44" viewBox="0 0 44 44">
  <defs>
    <clipPath id="clip-path">
      <rect id="Rectangle_31" data-name="Rectangle 31" width="44" height="44" fill="#003cc3" stroke="#003cc3" stroke-width="1"/>
    </clipPath>
  </defs>
  <g id="Mask_Group_17" data-name="Mask Group 17" clip-path="url(#clip-path)">
    <path id="notification" d="M49.632,44.128a6.027,6.027,0,0,1-1.549-4.038V31.106A13.732,13.732,0,0,0,35.153,17.418V14.453a.8.8,0,0,0-1.593,0V17.4a13.75,13.75,0,0,0-5.473,1.489.8.8,0,1,0,.726,1.416,12,12,0,0,1,5.543-1.338A12.146,12.146,0,0,1,46.49,31.1v8.984a7.618,7.618,0,0,0,1.957,5.1A6.028,6.028,0,0,1,50,49.229v2.43H18.718V50.027H46.332a.8.8,0,0,0,0-1.593H18.776a6.024,6.024,0,0,1,1.49-3.241,7.617,7.617,0,0,0,1.957-5.1V31.106a12.118,12.118,0,0,1,3.033-8.026.8.8,0,0,0-1.195-1.054,13.711,13.711,0,0,0-3.43,9.078v8.984a6.027,6.027,0,0,1-1.549,4.038,7.619,7.619,0,0,0-1.957,5.1v3.226a.8.8,0,0,0,.8.8h11.3a5.2,5.2,0,0,0,10.27,0h11.3a.8.8,0,0,0,.8-.8V49.229a7.62,7.62,0,0,0-1.957-5.1ZM34.357,56.066a3.615,3.615,0,0,1-3.521-2.813h7.042A3.617,3.617,0,0,1,34.357,56.066Z" transform="translate(-12.357 -13.656)" fill="#003cc3"/>
  </g>
</svg>
