<svg xmlns="http://www.w3.org/2000/svg" xmlns:xlink="http://www.w3.org/1999/xlink" width="44" height="44" viewBox="0 0 44 44">
  <defs>
    <clipPath id="clip-path">
      <rect id="Rectangle_31" data-name="Rectangle 31" width="44" height="44" fill="#003cc3" stroke="#003cc3" stroke-width="1"/>
    </clipPath>
  </defs>
  <g id="Mask_Group_13" data-name="Mask Group 13" clip-path="url(#clip-path)">
    <path id="gift-box" d="M56.856,21.85H39.534L44.747,15.9a.8.8,0,0,0-.6-1.321H39.9a.8.8,0,0,0-.6.271l-2.124,2.421a.8.8,0,1,0,1.2,1.051l1.886-2.152h2.129l-4.614,5.264-5.773-6.581a.8.8,0,0,0-.6-.271H27.159a.8.8,0,0,0-.6,1.321l5.213,5.947H14.451a.8.8,0,0,0-.8.8v8.3a.8.8,0,0,0,.8.8h1.975V55.235a.8.8,0,0,0,.8.8H54.079a.8.8,0,0,0,.8-.8V34.669a.8.8,0,0,0-1.593,0v5.5H38.574V31.744H56.858a.8.8,0,0,0,.8-.8v-8.3a.8.8,0,0,0-.8-.8ZM31.046,16.174,36.02,21.85H33.891l-4.975-5.676ZM18.022,41.764H32.733v2.653H18.022Zm10.73-10.02a.8.8,0,0,0,0-1.593h-13.5V23.443H32.733V40.171H18.022V31.744ZM18.022,46.01H32.733v8.429H18.022Zm16.3,8.429v-31h2.655v31ZM53.286,41.764v2.653h-11.9a.8.8,0,0,0,0,1.593h11.9v8.429H38.574V41.764ZM56.06,30.152H38.574V23.443H56.06Z" transform="translate(-13.655 -13.306)" fill="#003cc3"/>
  </g>
</svg>
