<svg xmlns="http://www.w3.org/2000/svg" xmlns:xlink="http://www.w3.org/1999/xlink" width="44" height="44" viewBox="0 0 44 44">
  <defs>
    <clipPath id="clip-path">
      <rect id="Rectangle_31" data-name="Rectangle 31" width="44" height="44" fill="#003cc3" stroke="#003cc3" stroke-width="1"/>
    </clipPath>
  </defs>
  <g id="Mask_Group_14" data-name="Mask Group 14" clip-path="url(#clip-path)">
    <g id="thinking" transform="translate(0 0)">
      <path id="Path_56" data-name="Path 56" d="M47.365,30.891A11.721,11.721,0,0,0,38.247,28,11.409,11.409,0,0,0,34.6,29.04a.979.979,0,0,0,.844,1.768,9.455,9.455,0,0,1,3.023-.865A9.705,9.705,0,0,1,46.97,45.9a11.226,11.226,0,0,0-2.765,6.6H34.98a10.357,10.357,0,0,0-2.608-6.422,9.6,9.6,0,0,1-2.416-7.744,9.465,9.465,0,0,1,.664-2.482.978.978,0,0,0-1.8-.757,11.394,11.394,0,0,0-.8,3,11.687,11.687,0,0,0,2.9,9.294,8.464,8.464,0,0,1,2.119,5.7v.391a.978.978,0,0,0,.975.981H45.163a.978.978,0,0,0,.978-.978v-.391a9.165,9.165,0,0,1,2.309-5.918,11.655,11.655,0,0,0-1.085-16.276Z" transform="translate(-17.59 -17.592)" fill="#003cc3"/>
      <path id="Path_57" data-name="Path 57" d="M30.967,32.419a.975.975,0,0,0,.72-.313l.122-.13a.978.978,0,0,0-1.417-1.348l-.145.156a.978.978,0,0,0,.719,1.643Z" transform="translate(-16.818 -16.69)" fill="#003cc3"/>
      <path id="Path_58" data-name="Path 58" d="M43.769,48.569H32.622a.978.978,0,1,0,0,1.956h2.933v.684a2.64,2.64,0,1,0,5.28,0v-.684h2.933a.978.978,0,0,0,0-1.956Zm-4.889,2.64a.684.684,0,1,1-1.369,0v-.684H38.88Z" transform="translate(-16.196 -9.849)" fill="#003cc3"/>
      <path id="Path_59" data-name="Path 59" d="M36.676,27.253a.978.978,0,0,0,.978-.978V21.387a.978.978,0,1,0-1.956,0v4.889A.978.978,0,0,0,36.676,27.253Z" transform="translate(-14.676 -20.409)" fill="#003cc3"/>
      <path id="Path_60" data-name="Path 60" d="M44.972,30.3a.975.975,0,0,0,.691-.286l3.457-3.457a.978.978,0,0,0-1.383-1.383L44.281,28.63a.978.978,0,0,0,.691,1.669Z" transform="translate(-11.564 -18.73)" fill="#003cc3"/>
      <path id="Path_61" data-name="Path 61" d="M53.3,35.7H48.409a.978.978,0,1,0,0,1.956H53.3a.978.978,0,1,0,0-1.956Z" transform="translate(-10.276 -14.676)" fill="#003cc3"/>
      <path id="Path_62" data-name="Path 62" d="M45.664,44.281a.978.978,0,0,0-1.383,1.383l3.457,3.457a.978.978,0,1,0,1.383-1.383Z" transform="translate(-11.564 -11.564)" fill="#003cc3"/>
      <path id="Path_63" data-name="Path 63" d="M28.63,44.281l-3.457,3.457a.978.978,0,1,0,1.383,1.383l3.457-3.457a.978.978,0,1,0-1.383-1.383Z" transform="translate(-18.73 -11.564)" fill="#003cc3"/>
      <path id="Path_64" data-name="Path 64" d="M27.253,36.676a.978.978,0,0,0-.978-.978H21.387a.978.978,0,1,0,0,1.956h4.889A.978.978,0,0,0,27.253,36.676Z" transform="translate(-20.409 -14.676)" fill="#003cc3"/>
      <path id="Path_65" data-name="Path 65" d="M28.63,30.013a.978.978,0,1,0,1.383-1.383l-3.457-3.457a.978.978,0,0,0-1.383,1.383Z" transform="translate(-18.73 -18.73)" fill="#003cc3"/>
    </g>
  </g>
</svg>
