<svg xmlns="http://www.w3.org/2000/svg" xmlns:xlink="http://www.w3.org/1999/xlink" width="44" height="44" viewBox="0 0 44 44">
  <defs>
    <clipPath id="clip-path">
      <rect id="Rectangle_31" data-name="Rectangle 31" width="44" height="44" fill="#003cc3" stroke="#003cc3" stroke-width="1"/>
    </clipPath>
  </defs>
  <g id="Mask_Group_15" data-name="Mask Group 15" clip-path="url(#clip-path)">
    <g id="conversation" transform="translate(0 4.761)">
      <path id="Path_66" data-name="Path 66" d="M50.031,21.617H29.048a3.1,3.1,0,0,0-3.1,3.1V28.4H18.746a.675.675,0,0,0-.505.228L14.76,32.562V29.074a.675.675,0,0,0-.675-.675H11.92a1.444,1.444,0,0,1-1.442-1.442V15.382a1.444,1.444,0,0,1,1.442-1.442H30.269a1.444,1.444,0,0,1,1.442,1.442v3.74a.675.675,0,0,0,1.35,0v-3.74a2.8,2.8,0,0,0-2.792-2.792H11.92a2.8,2.8,0,0,0-2.792,2.792V26.956a2.8,2.8,0,0,0,2.792,2.792H13.41v4.595a.675.675,0,0,0,1.18.447l4.46-5.042h6.9v8.2a3.1,3.1,0,0,0,3.1,3.1H42.226a.675.675,0,0,0,0-1.35H29.048A1.748,1.748,0,0,1,27.3,37.948V24.713a1.748,1.748,0,0,1,1.746-1.746H50.031a1.748,1.748,0,0,1,1.746,1.746V37.948a1.749,1.749,0,0,1-1.746,1.746H47.556a.675.675,0,0,0-.675.675v4.244l-1.764-1.994a.675.675,0,0,0-1.011.894l2.947,3.328a.675.675,0,0,0,1.18-.447v-5.35h1.8a3.1,3.1,0,0,0,3.1-3.1V24.713a3.1,3.1,0,0,0-3.1-3.1Z" transform="translate(-9.128 -12.59)" fill="#003cc3"/>
      <path id="Path_67" data-name="Path 67" d="M25.115,26.893a1.906,1.906,0,1,0,1.906-1.906A1.906,1.906,0,0,0,25.115,26.893Z" transform="translate(-3.133 -7.941)" fill="#003cc3"/>
      <path id="Path_68" data-name="Path 68" d="M29.859,26.893a1.906,1.906,0,1,0,1.906-1.906,1.906,1.906,0,0,0-1.906,1.906Z" transform="translate(-1.354 -7.941)" fill="#003cc3"/>
      <path id="Path_69" data-name="Path 69" d="M36.51,28.8A1.906,1.906,0,1,0,34.6,26.892,1.906,1.906,0,0,0,36.51,28.8Z" transform="translate(0.425 -7.941)" fill="#003cc3"/>
    </g>
  </g>
</svg>
