<svg xmlns="http://www.w3.org/2000/svg" xmlns:xlink="http://www.w3.org/1999/xlink" width="44" height="44" viewBox="0 0 44 44">
  <defs>
    <clipPath id="clip-path">
      <rect id="Rectangle_31" data-name="Rectangle 31" width="44" height="44" fill="#003cc3" stroke="#003cc3" stroke-width="1"/>
    </clipPath>
  </defs>
  <g id="Mask_Group_9" data-name="Mask Group 9" clip-path="url(#clip-path)">
    <g id="customer-support" transform="translate(0 4.014)">
      <path id="Path_44" data-name="Path 44" d="M12.515,41.134a.692.692,0,0,0,.692-.692V24.448a2.186,2.186,0,0,1,2.184-2.184h6.118v1.759a2.342,2.342,0,0,0,2.338,2.338h.992V29.77a.692.692,0,0,0,1.21.458l3.421-3.866h8.656a2.342,2.342,0,0,0,2.338-2.338V15.018a2.342,2.342,0,0,0-2.338-2.339H23.846a2.342,2.342,0,0,0-2.339,2.339v5.861H15.391a3.571,3.571,0,0,0-3.567,3.567V40.44a.692.692,0,0,0,.692.694ZM22.892,15.018a.956.956,0,0,1,.955-.956H38.125a.956.956,0,0,1,.956.956v9.006a.956.956,0,0,1-.956.955H29.159a.692.692,0,0,0-.518.234l-2.417,2.732V25.67a.692.692,0,0,0-.692-.692H23.846a.956.956,0,0,1-.955-.955Z" transform="translate(-8.987 -12.678)" fill="#003cc3" stroke="#003cc3" stroke-width="0.402"/>
      <path id="Path_45" data-name="Path 45" d="M53.066,40.465H50.921V22.21a3.571,3.571,0,0,0-3.567-3.567H43.288a.692.692,0,1,0,0,1.384h4.065a2.187,2.187,0,0,1,2.184,2.184V40.465H10.452a.692.692,0,0,0-.692.692v.059a5.206,5.206,0,0,0,5.2,5.2h33.6a5.206,5.206,0,0,0,5.2-5.2v-.059a.692.692,0,0,0-.695-.692Zm-4.508,4.566H14.96A3.822,3.822,0,0,1,11.2,41.849H52.321a3.822,3.822,0,0,1-3.763,3.182Z" transform="translate(-9.76 -10.442)" fill="#003cc3" stroke="#003cc3" stroke-width="0.402"/>
      <path id="Path_46" data-name="Path 46" d="M29.161,36.174h-5.05a.692.692,0,0,0,0,1.384h5.05a.692.692,0,1,0,0-1.384Z" transform="translate(-4.638 -3.868)" fill="#003cc3" stroke="#003cc3" stroke-width="0.402"/>
    </g>
  </g>
</svg>
