<svg xmlns="http://www.w3.org/2000/svg" width="20" height="20"><path fill-rule="evenodd" d="M17.149 20h-1.021a2.854 2.854 0 0 1-2.851-2.851v-3.064a2.854 2.854 0 0 1 2.851-2.85h2.256V10c0-4.623-3.761-8.384-8.384-8.384S1.616 5.377 1.616 10v1.235h2.256a2.854 2.854 0 0 1 2.851 2.85v3.064A2.854 2.854 0 0 1 3.872 20H2.851A2.854 2.854 0 0 1 0 17.149V10a9.932 9.932 0 0 1 2.929-7.071A9.938 9.938 0 0 1 10 0a9.934 9.934 0 0 1 7.071 2.929A9.932 9.932 0 0 1 20 10v7.149A2.854 2.854 0 0 1 17.149 20zM1.616 17.149c0 .681.554 1.235 1.235 1.235h1.021c.681 0 1.235-.554 1.235-1.235v-3.064c0-.681-.554-1.234-1.235-1.234H1.616v4.298zm16.768-1.021v-3.277h-2.256c-.681 0-1.235.553-1.235 1.234v3.064c0 .681.554 1.235 1.235 1.235h1.021c.681 0 1.235-.554 1.235-1.235v-1.021z"/></svg>