<svg xmlns="http://www.w3.org/2000/svg" width="23" height="15"><path fill-rule="evenodd" d="M22.496 13.016a.939.939 0 0 1-.965-.068l-5.258-3.679v2.938c0 1.54-1.279 2.793-2.851 2.793H2.851C1.279 15 0 13.747 0 12.207V2.793C0 1.253 1.279 0 2.851 0h10.571c1.572 0 2.851 1.253 2.851 2.793v2.938l5.258-3.679a.945.945 0 0 1 .965-.068c.31.156.504.468.504.809v9.414a.907.907 0 0 1-.504.809zM14.415 2.793a.984.984 0 0 0-.993-.973H2.851a.985.985 0 0 0-.993.973v9.414c0 .536.446.973.993.973h10.571a.984.984 0 0 0 .993-.973V2.793zm6.727 1.768l-4.2 2.939 4.2 2.939V4.561z"/></svg>