<svg xmlns="http://www.w3.org/2000/svg" width="23" height="20"><path fill-rule="evenodd" d="M21.1 10.923l-8.942 8.809a.938.938 0 0 1-1.314 0l-8.942-8.81A6.306 6.306 0 0 1 0 6.398c0-1.709.675-3.315 1.902-4.523A6.497 6.497 0 0 1 6.494.001c1.735 0 3.366.665 4.592 1.874l.415.409.415-.409.001-.002h.002C14.45-.621 18.57-.62 21.1 1.875l.004.003a6.337 6.337 0 0 1-.004 9.045zm-1.312-7.752l-.004-.004c-1.806-1.779-4.745-1.779-6.552 0l-.001.002-1.073 1.056a.938.938 0 0 1-1.314 0L9.772 3.169a4.659 4.659 0 0 0-3.278-1.335 4.659 4.659 0 0 0-3.278 1.335 4.505 4.505 0 0 0-1.357 3.229c0 1.22.482 2.367 1.357 3.23l8.285 8.162 8.285-8.162a4.523 4.523 0 0 0 .002-6.457z"/></svg>