<svg xmlns="http://www.w3.org/2000/svg" width="24" height="24"><defs><filter id="a"><feFlood flood-color="#FFF" flood-opacity="1" result="floodOut"/><feComposite operator="atop" in="floodOut" in2="SourceGraphic" result="compOut"/><feBlend in="compOut" in2="SourceGraphic"/></filter></defs><g filter="url(#a)"><path fill-rule="evenodd" fill="#FFF" d="M12 24C5.373 24 0 18.627 0 12S5.373 0 12 0s12 5.373 12 12-5.373 12-12 12zm1.828-15.414a1 1 0 1 0-1.414-1.415L8.666 10.92a.976.976 0 0 0-.494.252.982.982 0 0 0-.27.828.982.982 0 0 0 .27.828c.14.14.314.212.494.252l3.748 3.749a1 1 0 0 0 1.414-1.415L10.414 12l3.414-3.414z"/></g></svg>