<svg xmlns="http://www.w3.org/2000/svg" width="24" height="24"><defs><filter id="a"><feFlood flood-color="#FFF" flood-opacity="1" result="floodOut"/><feComposite operator="atop" in="floodOut" in2="SourceGraphic" result="compOut"/><feBlend in="compOut" in2="SourceGraphic"/></filter></defs><g filter="url(#a)"><path fill-rule="evenodd" fill="#FFF" d="M12 24C5.372 24 0 18.627 0 12.001 0 5.373 5.372 0 12 0s12 5.373 12 12.001C24 18.627 18.628 24 12 24zm3.829-12.828a.98.98 0 0 0-.494-.252l-3.749-3.749a1.002 1.002 0 0 0-1.415 0 1.002 1.002 0 0 0 0 1.415L13.586 12l-3.415 3.414a1.002 1.002 0 0 0 0 1.415c.391.39 1.024.39 1.415 0l3.749-3.749a.984.984 0 0 0 .494-.252.985.985 0 0 0 .269-.828.985.985 0 0 0-.269-.828z"/></g></svg>