<svg xmlns="http://www.w3.org/2000/svg" viewBox="0 0 38.4 28.8"><path data-name="Path 2013" d="M33.758 28.378H4.642a4.176 4.176 0 01-4.22-4.112v-18.9a4.172 4.172 0 014.22-4.108h29.116a4.176 4.176 0 014.22 4.108v18.9a4.176 4.176 0 01-4.22 4.112z" fill="#fafafa"/><g data-name="Group 961" fill="#3a3a3a"><path data-name="Path 2015" d="M26.585 11.52v6.994H38.4v.823H26.585v2.057a4.419 4.419 0 01-1.688 3.7l-3.8 3.7h-1.264l4.642-4.526a4.606 4.606 0 001.266-3.291V7.817a4.606 4.606 0 00-1.266-3.291L19.833 0h1.266l3.8 3.7a6.057 6.057 0 011.688 3.7v2.057h11.815v.823H26.585z"/><path data-name="Path 2017" d="M11.815 11.52v6.994H0v.823h11.815v2.057a4.419 4.419 0 001.688 3.7l3.8 3.7h1.266l-4.642-4.526a4.606 4.606 0 01-1.266-3.291V7.817a4.606 4.606 0 011.266-3.291L18.569 0H17.3l-3.8 3.7a6.057 6.057 0 00-1.688 3.7v2.057H0v.823h11.815z"/></g></svg>