<svg xmlns="http://www.w3.org/2000/svg" viewBox="0 0 12.348 14.226"><g data-name="Group 951" fill="#fff" fill-rule="evenodd"><path data-name="Path 38" d="M12.348 7.596a7.085 7.085 0 01-1.535 5 6.214 6.214 0 01-4.735 1.632 5.944 5.944 0 01-4.532-1.632A6.929 6.929 0 01.001 7.674V.314A.314.314 0 01.314.001h3.611a.314.314 0 01.313.313v7.52a3.607 3.607 0 00.5 2.071 1.825 1.825 0 002.881.043 3.432 3.432 0 00.493-2.018V6.522h4.236z"/><path data-name="Path 39" d="M12.02 5.699H8.111V.327A.328.328 0 018.438 0h.585a3.323 3.323 0 003.323 3.32v2.379z"/><path data-name="Path 40" d="M9.857 0h2.164a.328.328 0 01.327.327v2.166A2.491 2.491 0 019.857.002z"/></g></svg>