<svg viewBox="0 0 9 7" fill="none" xmlns="http://www.w3.org/2000/svg"><g clip-path="url(#clip0)"><path d="M4.03 5.475h0l-3.01-3.01a.665.665 0 11.94-.94m2.07 3.95L1.144 2.342a.49.49 0 11.693-.694l2.54 2.54.123-.124m-.47 1.411a.664.664 0 00.94 0h0l3.01-3.01s0 0 0 0m-3.95 3.01l3.95-3.95a.665.665 0 00-.94 0h0L4.5 4.065m-2.54-2.54l-.123.123.124-.123h0zm0 0l2.54 2.54m0 0l.124.123 2.54-2.54a.49.49 0 01.692.694l.124.124m0 0a.665.665 0 000-.941" fill="#9DA8C2" stroke="#9DA8C2" stroke-width=".35"/></g><defs><clipPath id="clip0"><path transform="rotate(90 9 0)" fill="#fff" d="M9 0h7v9H9z"/></clipPath></defs></svg>