<svg xmlns="http://www.w3.org/2000/svg" xmlns:xlink="http://www.w3.org/1999/xlink" width="152.588" height="50.505" viewBox="0 0 152.588 50.505">
  <defs>
    <clipPath id="clip-path">
      <rect id="Rectangle_27" data-name="Rectangle 27" width="9.394" height="9.34" fill="#004db7"/>
    </clipPath>
  </defs>
  <g id="TOP_toza2" data-name="TOP toza2" transform="translate(-39.141 -91.346)">
    <g id="Group_28" data-name="Group 28" transform="translate(39.141 95.419)">
      <g id="Group_54" data-name="Group 54" transform="translate(0 0.489)">
        <path id="Path_189" data-name="Path 189" d="M75.614,145.316V140.7H56.5v4.616h6.516v22.97h6.028v-22.97Z" transform="translate(-56.5 -140.7)" fill="#004db7"/>
      </g>
      <g id="Group_53" data-name="Group 53" transform="translate(23.893)">
        <path id="Path_190" data-name="Path 190" d="M118.583,153.973c0,5.213-1.738,9.5-5.973,9.5-4.181,0-5.973-4.236-5.973-9.5,0-5.213,1.846-9.557,5.973-9.557C116.791,144.416,118.583,148.706,118.583,153.973Zm6.136.109c0-8.634-4.616-14.281-12.109-14.281-7.439,0-12.109,5.647-12.109,14.281,0,8.688,4.616,14.281,12.109,14.281C120.157,168.363,124.719,162.77,124.719,154.081Z" transform="translate(-100.5 -139.8)" fill="#004db7"/>
      </g>
      <g id="Group_52" data-name="Group 52" transform="translate(52.347 0.109)">
        <path id="Path_191" data-name="Path 191" d="M166.584,148.96c0,3.53-2.009,4.833-6.353,4.724-.489,0-.923-.054-1.412-.054v-9.068a17.014,17.014,0,0,1,2.281-.217C164.575,144.344,166.584,145.593,166.584,148.96Zm5.973.054c0-5.647-3.638-9.014-11.512-9.014a28.4,28.4,0,0,0-8.145,1.195v26.717h5.919v-9.937h1.466C168.485,158.191,172.557,154.933,172.557,149.014Z" transform="translate(-152.9 -140)" fill="#004db7"/>
      </g>
      <g id="Group_51" data-name="Group 51" transform="translate(2.12 34.74)">
        <path id="Path_238" data-name="Path 238" d="M.826,0V-6.3H2.619a1.96,1.96,0,0,1,1.3.4A1.292,1.292,0,0,1,4.395-4.86a1.533,1.533,0,0,1-.29.932,1.564,1.564,0,0,1-.8.563v.018a1.6,1.6,0,0,1,1.02.481,1.48,1.48,0,0,1,.382,1.057A1.648,1.648,0,0,1,4.126-.5,2.159,2.159,0,0,1,2.663,0Zm.738-5.634V-3.6H2.32a1.435,1.435,0,0,0,.954-.292,1.018,1.018,0,0,0,.347-.824q0-.918-1.208-.918Zm0,2.7V-.668h1A1.5,1.5,0,0,0,3.575-.976a1.054,1.054,0,0,0,.358-.844q0-1.116-1.521-1.116Z" transform="translate(0 10)" fill="#004db7"/>
      </g>
      <g id="Group_50" data-name="Group 50" transform="translate(9.737 34.74)">
        <path id="Path_239" data-name="Path 239" d="M6.218,0H5.48V-6.3h.738ZM.826,0V-6.3h.738V-3.63h1.2a2.159,2.159,0,0,1,1.463.455,1.623,1.623,0,0,1,.523,1.294A1.777,1.777,0,0,1,4.2-.505,2.128,2.128,0,0,1,2.7,0Zm.738-2.962V-.668H2.6A1.5,1.5,0,0,0,3.612-.976a1.077,1.077,0,0,0,.356-.861q0-1.125-1.367-1.125Z" transform="translate(0 10)" fill="#004db7"/>
      </g>
      <g id="Group_49" data-name="Group 49" transform="translate(19.682 34.74)">
        <path id="Path_240" data-name="Path 240" d="M4.166,0H.826V-6.3h3.2v.668H1.564v2.1H3.841v.664H1.564V-.668h2.6Z" transform="translate(0 10)" fill="#004db7"/>
      </g>
      <g id="Group_48" data-name="Group 48" transform="translate(26.683 34.74)">
        <path id="Path_241" data-name="Path 241" d="M.422-.264v-.8A2.763,2.763,0,0,0,2.1-.523a1.657,1.657,0,0,0,1.083-.33,1.088,1.088,0,0,0,.4-.888q0-1.213-1.639-1.213H1.288v-.611h.6a1.711,1.711,0,0,0,1.083-.3,1.028,1.028,0,0,0,.385-.857.971.971,0,0,0-.319-.76,1.266,1.266,0,0,0-.877-.286,2.745,2.745,0,0,0-1.538.5v-.747a3.232,3.232,0,0,1,1.6-.387,2.145,2.145,0,0,1,1.411.426A1.385,1.385,0,0,1,4.148-4.86a1.462,1.462,0,0,1-1.2,1.547V-3.3a1.6,1.6,0,0,1,1.033.488,1.45,1.45,0,0,1,.382,1.024A1.7,1.7,0,0,1,3.753-.406,2.552,2.552,0,0,1,2.07.105,3.073,3.073,0,0,1,.422-.264Z" transform="translate(0 10)" fill="#004db7"/>
      </g>
      <g id="Group_47" data-name="Group 47" transform="translate(34.133 34.74)">
        <path id="Path_242" data-name="Path 242" d="M5.941,1.692H5.26V0H.747V1.692H.066V-.668H.554a13.148,13.148,0,0,0,1.074-2.7,12.57,12.57,0,0,0,.5-2.933H5.093V-.668h.848ZM4.355-.668V-5.634h-1.6a12.435,12.435,0,0,1-.483,2.54A13.013,13.013,0,0,1,1.354-.668Z" transform="translate(0 10)" fill="#004db7"/>
      </g>
      <g id="Group_46" data-name="Group 46" transform="translate(42.93 34.74)">
        <path id="Path_243" data-name="Path 243" d="M5.563,0H4.825V-2.874H1.564V0H.826V-6.3h.738v2.764H4.825V-6.3h.738Z" transform="translate(0 10)" fill="#004db7"/>
      </g>
      <g id="Group_45" data-name="Group 45" transform="translate(51.595 34.74)">
        <path id="Path_244" data-name="Path 244" d="M5.7,0H4.887L4.219-1.767H1.547L.918,0H.1L2.514-6.3h.765ZM3.977-2.43,2.988-5.115a2.571,2.571,0,0,1-.1-.422H2.874a2.354,2.354,0,0,1-.1.422L1.793-2.43Z" transform="translate(0 10)" fill="#004db7"/>
      </g>
      <g id="Group_44" data-name="Group 44" transform="translate(59.51 34.74)">
        <path id="Path_245" data-name="Path 245" d="M4.487,0H3.749V-2.681H2.83a.777.777,0,0,0-.464.143,1.664,1.664,0,0,0-.428.639L1.147,0H.268l.958-2.1a1.943,1.943,0,0,1,.283-.437,1.068,1.068,0,0,1,.446-.327v-.018a1.646,1.646,0,0,1-.978-.576A1.656,1.656,0,0,1,.628-4.526a1.622,1.622,0,0,1,.56-1.29A2.165,2.165,0,0,1,2.659-6.3H4.487ZM3.749-3.349V-5.634H2.725a1.448,1.448,0,0,0-.969.294,1.032,1.032,0,0,0-.345.831,1.076,1.076,0,0,0,.352.848,1.372,1.372,0,0,0,.945.312Z" transform="translate(0 10)" fill="#004db7"/>
      </g>
      <g id="Group_43" data-name="Group 43" transform="translate(70.287 34.74)">
        <path id="Path_246" data-name="Path 246" d="M5.177,0h-.9L2.826-2.413a2.164,2.164,0,0,1-.145-.312H2.663q-.044.1-.149.312L1.02,0H.114L2.224-3.168.281-6.3h.905L2.474-4.087a4.443,4.443,0,0,1,.224.439h.018A4.852,4.852,0,0,1,2.962-4.1L4.3-6.3H5.15L3.168-3.177Z" transform="translate(0 10)" fill="#004db7"/>
      </g>
      <g id="Group_42" data-name="Group 42" transform="translate(77.803 34.74)">
        <path id="Path_247" data-name="Path 247" d="M5.906,0H5.168V-4.553a5.769,5.769,0,0,1,.044-.866H5.186a2.091,2.091,0,0,1-.2.4L1.74,0H.826V-6.3h.738v4.438a7.421,7.421,0,0,1-.035.927h.018a4.274,4.274,0,0,1,.246-.422L4.957-6.3h.949Z" transform="translate(0 10)" fill="#004db7"/>
      </g>
      <g id="Group_41" data-name="Group 41" transform="translate(86.617 34.74)">
        <path id="Path_248" data-name="Path 248" d="M7.251,0H6.517V-4.228q0-.5.062-1.226H6.561a3.92,3.92,0,0,1-.189.611L4.219,0h-.36L1.709-4.808a3.767,3.767,0,0,1-.189-.646H1.5q.035.378.035,1.235V0H.826V-6.3H1.8L3.735-1.907a5.627,5.627,0,0,1,.29.756h.026q.189-.519.3-.773L6.328-6.3h.923Z" transform="translate(0 10)" fill="#004db7"/>
      </g>
      <g id="Group_40" data-name="Group 40" transform="translate(97.294 34.74)">
        <path id="Path_237" data-name="Path 237" d="M5.067,0H4.329V-2.834A4.042,4.042,0,0,1,2.457-2.3,1.78,1.78,0,0,1,1.18-2.731a1.58,1.58,0,0,1-.45-1.2V-6.3h.738v2.333q0,1.015,1.081,1.015a4.165,4.165,0,0,0,1.78-.483V-6.3h.738Z" transform="translate(0 10)" fill="#004db7"/>
      </g>
      <g id="Group_39" data-name="Group 39" transform="translate(105.659 34.74)">
        <path id="Path_249" data-name="Path 249" d="M5.906,0H5.168V-4.553a5.769,5.769,0,0,1,.044-.866H5.186a2.091,2.091,0,0,1-.2.4L1.74,0H.826V-6.3h.738v4.438a7.421,7.421,0,0,1-.035.927h.018a4.274,4.274,0,0,1,.246-.422L4.957-6.3h.949Z" transform="translate(0 10)" fill="#004db7"/>
      </g>
      <g id="Group_38" data-name="Group 38" transform="translate(114.473 34.74)">
        <path id="Path_250" data-name="Path 250" d="M5.115-.264a3.7,3.7,0,0,1-1.74.369A2.806,2.806,0,0,1,1.222-.76,3.194,3.194,0,0,1,.413-3.032a3.348,3.348,0,0,1,.91-2.443A3.087,3.087,0,0,1,3.63-6.407a3.7,3.7,0,0,1,1.485.259v.787a3.012,3.012,0,0,0-1.494-.378,2.293,2.293,0,0,0-1.76.725,2.732,2.732,0,0,0-.675,1.938,2.6,2.6,0,0,0,.631,1.835,2.146,2.146,0,0,0,1.655.683A3.1,3.1,0,0,0,5.115-.98Z" transform="translate(0 10)" fill="#004db7"/>
      </g>
      <g id="Group_37" data-name="Group 37" transform="translate(122.988 34.74)">
        <path id="Path_251" data-name="Path 251" d="M4.553-5.634H2.733V0H2V-5.634H.18V-6.3H4.553Z" transform="translate(0 10)" fill="#004db7"/>
      </g>
      <g id="Group_36" data-name="Group 36" transform="translate(130.504 34.74)">
        <path id="Path_252" data-name="Path 252" d="M5.212,0H4.184L1.749-2.883a1.757,1.757,0,0,1-.167-.22H1.564V0H.826V-6.3h.738V-3.34h.018a1.737,1.737,0,0,1,.167-.215L4.1-6.3h.918L2.32-3.278Z" transform="translate(0 10)" fill="#004db7"/>
      </g>
      <g id="Group_35" data-name="Group 35" transform="translate(138.071 34.74)">
        <path id="Path_253" data-name="Path 253" d="M5.7,0H4.887L4.219-1.767H1.547L.918,0H.1L2.514-6.3h.765ZM3.977-2.43,2.988-5.115a2.571,2.571,0,0,1-.1-.422H2.874a2.354,2.354,0,0,1-.1.422L1.793-2.43Z" transform="translate(0 10)" fill="#004db7"/>
      </g>
      <g id="Group_34" data-name="Group 34" transform="translate(75.154 5.81)">
        <path id="Path_192" data-name="Path 192" d="M207.118,173.035c-.109-1.195-.272-2.389-.38-3.584a5.663,5.663,0,0,1-2.661.489c-1.629-.109-1.9-1.195-1.9-3.693v-7.276h4.561v-3.747h-4.561V150.5h-4.941v4.779H194.9v3.693h2.335c0,2.009.054,5.539.054,7.494.217,3.855,1.032,7.494,6.571,7.276A7.854,7.854,0,0,0,207.118,173.035Z" transform="translate(-194.9 -150.5)" fill="#004db7"/>
      </g>
      <g id="Group_33" data-name="Group 33" transform="translate(90.358 10.154)">
        <path id="Path_193" data-name="Path 193" d="M234.629,168c0,3.258-.977,5.7-3.367,5.7s-3.421-2.389-3.421-5.7c0-3.258.977-5.756,3.421-5.756C233.652,162.247,234.629,164.745,234.629,168Zm5,.054c0-5.647-3.2-9.557-8.362-9.557s-8.363,3.91-8.363,9.557,3.15,9.557,8.363,9.557S239.625,173.65,239.625,168.057Z" transform="translate(-222.9 -158.5)" fill="#004db7"/>
      </g>
      <g id="Group_31" data-name="Group 31" transform="translate(109.744 10.535)">
        <path id="Path_194" data-name="Path 194" d="M272.338,177.5v-3.693h-7.711c1.9-3.367,3.855-6.353,5.7-9.123l1.846-2.769V159.2H259.143v3.747h6.625c-1.9,3.2-5.267,8.145-7.168,11.566V177.5h13.738Z" transform="translate(-258.6 -159.2)" fill="#004db7"/>
      </g>
      <g id="Group_32" data-name="Group 32" transform="translate(126.089 10.154)">
        <path id="Path_195" data-name="Path 195" d="M298.963,173.813a6.339,6.339,0,0,1-2.281.272c-1.955,0-3.2-.76-3.2-2.607,0-2.063,1.575-2.715,3.53-2.932.76-.054,1.412-.054,1.955-.054Zm4.724,2.607v-10.1c0-.76-.054-1.466-.109-2.172-.434-3.747-2.878-5.647-7.222-5.647a16.259,16.259,0,0,0-6.3,1.195l.869,3.53a12.036,12.036,0,0,1,4.833-1.032c2.389,0,3.1,1.3,3.2,3.258-.434-.054-1.195-.054-1.846-.054-4.561.326-8.417,1.846-8.417,6.19,0,4.127,2.878,5.865,7.711,5.865A21.347,21.347,0,0,0,303.687,176.42Z" transform="translate(-288.7 -158.5)" fill="#004db7"/>
      </g>
    </g>
    <g id="Group_30" data-name="Group 30" transform="translate(182.336 91.346)">
      <g id="Group_29" data-name="Group 29" clip-path="url(#clip-path)">
        <path id="Path_196" data-name="Path 196" d="M324.97,141.74a4.67,4.67,0,0,1,4.67-4.67,4.67,4.67,0,0,1-4.67-4.67,4.67,4.67,0,0,1-4.67,4.67A4.67,4.67,0,0,1,324.97,141.74Z" transform="translate(-320.246 -132.346)" fill="#004db7"/>
      </g>
    </g>
  </g>
</svg>
