<svg xmlns="http://www.w3.org/2000/svg" width="15.514" height="16" viewBox="0 0 15.514 16">
  <path id="Path_9" data-name="Path 9" d="M15.1,6.292l.025.006H4.419L7.785,2.361a1.116,1.116,0,0,0,.255-.726A1.113,1.113,0,0,0,7.785.91L7.261.3A.79.79,0,0,0,6.025.3L.255,7.033a1.156,1.156,0,0,0,0,1.449l5.769,6.735a.791.791,0,0,0,1.237,0l.524-.612a1.1,1.1,0,0,0,.255-.722,1.068,1.068,0,0,0-.255-.708l-3.4-3.96H15.113A.994.994,0,0,0,16,8.167V7.3A.966.966,0,0,0,15.1,6.292Z" transform="translate(15.514 0) rotate(90)" fill="#fff"/>
</svg>
