<svg xmlns="http://www.w3.org/2000/svg" width="21.638" height="49.286" viewBox="0 0 21.638 49.286">
  <g id="noun_mouse_scroll_496855" data-name="noun_mouse scroll_496855" transform="translate(-228.571 -64.286)">
    <path id="Path_2" data-name="Path 2" d="M295.692,564.646l-3.967,3.967-3.967-3.967a1.19,1.19,0,0,0-1.683,1.683l4.808,4.808a1.162,1.162,0,0,0,1.683,0l4.808-4.808a1.19,1.19,0,0,0-1.683-1.683Z" transform="translate(-52.335 -457.927)" fill="#fff"/>
    <path id="Path_3" data-name="Path 3" d="M297.375,486.075a1.162,1.162,0,0,0-1.683,0l-3.967,3.967-3.967-3.967a1.19,1.19,0,0,0-1.683,1.683l4.808,4.808a1.162,1.162,0,0,0,1.683,0l4.808-4.808A1.162,1.162,0,0,0,297.375,486.075Z" transform="translate(-52.335 -385.967)" fill="#fff"/>
    <path id="Path_4" data-name="Path 4" d="M250.209,85.923V75.1a10.819,10.819,0,0,0-21.638,0V85.923a10.819,10.819,0,0,0,21.638,0ZM239.39,94.338a8.439,8.439,0,0,1-8.415-8.415V75.1a8.415,8.415,0,1,1,16.829,0V85.923A8.439,8.439,0,0,1,239.39,94.338Z" fill="#fff"/>
    <path id="Path_5" data-name="Path 5" d="M344.059,142.857a1.206,1.206,0,0,0-1.2,1.2v3.606a1.2,1.2,0,0,0,2.4,0v-3.606A1.206,1.206,0,0,0,344.059,142.857Z" transform="translate(-104.669 -71.96)" fill="#fff"/>
  </g>
</svg>
