<svg xmlns="http://www.w3.org/2000/svg" width="131.339" height="38.68" viewBox="0 0 131.339 38.68">
  <g id="gray-aprica" transform="translate(0.16 -28.59)">
    <path id="Path_267" data-name="Path 267" d="M70.1,36.05h7.64V28.59H70.1v7.46Z" fill="#696057"/>
    <path id="Path_268" data-name="Path 268" d="M54.26,38.1V60.27H61.9V48.63c0-4.08,3-5.62,7-4V38.1Z" fill="#696057"/>
    <path id="Path_269" data-name="Path 269" d="M70.1,60.27h7.64V38.1H70.1V60.27Z" fill="#696057"/>
    <path id="Path_270" data-name="Path 270" d="M41.14,55.86c3.11,0,4.51-2.94,4.51-6.57s-1.4-6.57-4.51-6.57-4.43,2.94-4.43,6.57,1.32,6.57,4.43,6.57M53.22,49.5c0,6.89-4.34,10.77-9.48,10.77H37.3v7H29.67v-7H23.93l-2-4.75H10.4l-2,4.75H-.16L12.14,33.5h8.25l9.27,19.92V38.1H40.92c7.32,0,12.3,2.72,12.3,11.4m-33.53.08-3.42-8.32h-.16l-3.42,8.32Z" fill="#6b6258"/>
    <path id="Path_271" data-name="Path 271" d="M112.59,37.54c-7,0-10,2.75-11.11,6.72-1.12-4-4.11-6.72-11.11-6.72-8,0-11.69,5.22-11.69,11.65s3.68,11.65,11.69,11.65c6.21,0,9.22-2,10.61-5.14.87,2.8,3.57,4.58,7.07,4.58h15v-15c0-3.38-2.47-7.77-10.48-7.77m3.11,9-5.12.05c-7.1.12-9.13,2.83-9.7,5.07H94.2c-.2,2.45-.92,4.19-3.31,4.19-3.11,0-4.43-2.94-4.43-6.57s1.32-6.89,4.43-6.89c2,0,2.85,1.38,3.18,3.35h14.82c.33-2,.95-3.51,3.63-3.51,2.25,0,3.19,1.4,3.19,3.35v.95m0,6.2c0,1.64-1.1,3.35-3.94,3.35-1.82,0-3.32-.9-3.38-2.32-.08-2,1.37-2.59,3.56-2.85l3.75-.16v2Z" fill="#696057"/>
    <path id="Path_272" data-name="Path 272" d="M129.55,59.16h-.68l-.24-1a.87.87,0,0,0-.3-.51,1,1,0,0,0-.62-.15h-.44v1.64h-.81V55.28h1.45a2.7,2.7,0,0,1,1.2.23.84.84,0,0,1,.51.79.89.89,0,0,1-.32.68,1.48,1.48,0,0,1-.44.26.9.9,0,0,1,.18.12,1.17,1.17,0,0,1,.33.55l.37,1.25Zm-2.28-2.22h.39a1.72,1.72,0,0,0,.85-.18.46.46,0,0,0,.28-.42.33.33,0,0,0-.18-.32,1.38,1.38,0,0,0-.68-.13h-.66v1Zm-.15-1Z" fill="#696057"/>
    <path id="Path_273" data-name="Path 273" d="M125,57.22a3.09,3.09,0,1,1,3.09,3,3.09,3.09,0,0,1-3.09-3m.3,0a2.79,2.79,0,1,0,2.79-2.75,2.79,2.79,0,0,0-2.79,2.75" fill="#696057"/>
  </g>
</svg>
