<svg xmlns="http://www.w3.org/2000/svg" xmlns:xlink="http://www.w3.org/1999/xlink" width="150.65" height="36.2" viewBox="0 0 150.65 36.2">
  <defs>
    <clipPath id="clip-path">
      <rect id="Rectangle_63" data-name="Rectangle 63" width="150.65" height="36.2" transform="translate(-0.04 37.2)" fill="none"/>
    </clipPath>
  </defs>
  <g id="gray-contigo" transform="translate(0.04 -37.2)">
    <path id="Path_258" data-name="Path 258" d="M147.74,44.49a2.85,2.85,0,1,0,2.025.824,2.84,2.84,0,0,0-2.025-.824m0,5.35a2.52,2.52,0,1,1,1.791-.727,2.51,2.51,0,0,1-1.791.727" fill="#696057"/>
    <g id="Group_114" data-name="Group 114" clip-path="url(#clip-path)">
      <path id="Path_259" data-name="Path 259" d="M146.66,49.17a.28.28,0,0,1-.28-.29V45.61a.26.26,0,0,1,.28-.28h1.55c.87,0,1.3.46,1.3,1.12a1,1,0,0,1-.79,1l.64,1.31a.25.25,0,0,1,0,.12.27.27,0,0,1-.27.28.25.25,0,0,1-.25-.16l-.73-1.48h-1.22v1.35a.27.27,0,0,1-.27.29m.27-3.35v1.23h1.39a.617.617,0,1,0,0-1.23Z" fill="#696057"/>
      <path id="Path_260" data-name="Path 260" d="M18.75,49.11a.69.69,0,0,1-.6.51H11.43c-4.21,0-4.58.37-5.27,5.93-.72,5.73-.55,6,3.7,6h6.8a.44.44,0,0,1,.42.55L16.62,66a.67.67,0,0,1-.59.49H9.27C.6,66.49-.84,64.77.3,55.55c1.23-10,2.25-10.9,11.68-10.9h6.81a.44.44,0,0,1,.42.55l-.46,3.91Z" fill="#696057"/>
    </g>
    <path id="Path_261" data-name="Path 261" d="M30.35,66.49c-8.54,0-10.2-1.68-9.06-10.9,1.19-9.68,2-10.95,11.65-10.95,9,0,10.11,1.69,9,10.95-1.23,9.64-2.89,10.9-11.6,10.9m2-16.84c-4.3,0-4.51.22-5.18,5.94s-.63,5.89,3.69,5.89,4.37.13,5.14-5.89c.72-5.77.59-5.94-3.65-5.94" fill="#696057"/>
    <path id="Path_262" data-name="Path 262" d="M65.34,65.62a.6.6,0,0,1-.6.5h-4.9a.48.48,0,0,1-.46-.5l1.4-11.33c.52-4.22.17-4.64-3.69-4.64H52.88l-2,16.46h-6l2.56-20.67A.49.49,0,0,1,48,45l10.79-.34c6.63-.21,9,1.93,8,9.65Z" fill="#696057"/>
    <path id="Path_263" data-name="Path 263" d="M84.67,49.49a.63.63,0,0,1-.54.51H77.54l-1.06,8.47c-.3,2.28,0,2.56,3.49,2.56h2.5a.43.43,0,0,1,.42.55l-.5,4a.63.63,0,0,1-.55.5H79.28c-8,0-9.39-2.1-8.67-7.69L73.24,37.2h5.87l-1,7.79H84.7a.46.46,0,0,1,.47.55l-.51,4Z" fill="#696057"/>
    <path id="Path_264" data-name="Path 264" d="M92.29,66.12H86.42L89.09,45h5.83Zm-.13-22.86c-2.37,0-3-.45-2.63-3s.68-3,3.36-3c2.46,0,2.93.46,2.62,3s-.93,3-3.35,3" fill="#696057"/>
    <path id="Path_265" data-name="Path 265" d="M116.77,65.7c-.81,6.36-3,7.7-10,7.7h-8.5a.44.44,0,0,1-.43-.5l.43-3.61a.59.59,0,0,1,.59-.55H106c4.42,0,4.71-.3,5-3l.13-1.21a44.912,44.912,0,0,1-5.14.33c-7.9,0-9.14-1.65-8.07-10.1s2.68-10.07,10.62-10.07c2.68,0,4.93,1.18,8,1.18a5.93,5.93,0,0,0,2.21-.75A.32.32,0,0,1,119,45a.26.26,0,0,1,.26.33l-2.5,20.38Zm-8-15.91c-4.16,0-4.38.29-5,4.93-.67,5.26-.64,5.69,3.6,5.69,3.83,0,4.26-.51,4.77-4.43l.38-3c.38-3,.21-3.2-3.79-3.2" fill="#696057"/>
    <path id="Path_266" data-name="Path 266" d="M131.05,66.49c-8.54,0-10.2-1.68-9.06-10.9,1.2-9.69,2-10.95,11.65-10.95,9,0,10.11,1.69,9,10.95-1.23,9.64-2.89,10.9-11.6,10.9m2-16.84c-4.29,0-4.5.22-5.19,5.94s-.63,5.89,3.7,5.89,4.38.13,5.15-5.89c.72-5.77.6-5.94-3.66-5.94" fill="#696057"/>
  </g>
</svg>
