<svg xmlns="http://www.w3.org/2000/svg" width="136.12" height="41.04" viewBox="0 0 136.12 41.04">
  <g id="gray-sharpie" transform="translate(0 -27.57)">
    <path id="Path_237" data-name="Path 237" d="M29.9,27.63l.36-.03.39-.01.39-.01.42-.01.42.01.44.01.44.01.45.04.45.03.46.04.46.06.45.06.46.08.45.09.44.09.43.1.43.12.41.13.4.14.38.15.36.17.35.18.32.18.3.21.27.21.24.24.22.24.18.26.15.28.12.28.08.31.04.32.01.5-.03.48-.07.47-.1.46-.15.45-.18.44-.2.42-.24.41-.26.4-.29.39-.3.37-.33.37-.34.35-.35.33-.38.32-.37.32-.4.29-.39.29-.39.27-.4.25-.39.25-.39.24-.39.21-.38.21-.37.19-.35.18-.33.17-.33.15-.58.26-.48.21-.19.04-.19.03-.19.02-.18.02h-.18l-.18-.01-.17-.02-.17-.03-.16-.03-.16-.03-.15-.05-.13-.06-.14-.07-.12-.08-.12-.08-.1-.09-.1-.09-.09-.1-.07-.12-.06-.11-.05-.12-.03-.12-.03-.14v-.28l.03-.15.04-.16.05-.16.08-.16.08-.16.11-.18.13-.17.59-.38.58-.37.55-.34.54-.33,1.01-.6.93-.55.85-.48.76-.44.67-.39.57-.36.26-.17.22-.17.2-.15.18-.14.15-.15.12-.14.1-.13.08-.14.04-.12.01-.14-.01-.13-.04-.13-.07-.12-.11-.14-.12-.13-.16-.13-.46-.31-.52-.25-.58-.2-.65-.16-.7-.12-.75-.07-.78-.04h-.84l-.86.05-.88.06-.91.11-.93.13-.94.17-.93.18-.95.22-.93.23-.93.25-.91.27-.88.29-.85.3-.83.31-.79.32-.74.33-.7.34-.64.34-.58.35-.52.35-.44.34-.37.35-.28.33-.2.33-.11.31-.02.18-.01.17.02.17.03.16.04.18.07.16.1.16.1.16.13.16.13.17.16.16.18.16.2.16.21.15.23.16.25.17.27.16.28.17.31.16.31.17.34.16.36.17.38.18.39.17.83.37.91.37.97.39,1.04.4.74.28.73.29.72.29.73.3.72.3.71.32.7.31.68.33.67.34.65.34.63.36.6.35.59.38.55.38.53.39.5.41.46.42.44.43.39.45.35.45.31.47.27.49.22.49.18.52.12.53.07.55.01.57-.03.57-.1.6-.17.62-.22.63-.29.66-.31.6-.35.57-.38.53-.42.52-.45.5-.49.46-.51.46-.53.42-.56.4-.58.39-.6.36-.62.34-.64.33-.65.3-.66.29-.68.27-.69.27-.69.24-.7.23-.7.21-.71.19-.71.19-.7.18-.7.16-.7.16-.69.14-.68.13-.67.13-1.31.23-1.23.2-.48.07-.49.05-.53.05-.54.04-.58.02-.58.02-.6.01-.61-.01-.62-.01-.63-.02-.64-.03-.63-.04-.64-.05-.63-.05-.62-.07-.62-.06L6.3,65.8l-.59-.09-.57-.09-.55-.09-.54-.11-.5-.11-.48-.12-.45-.13-.41-.13-.38-.13-.34-.15-.31-.15-.25-.15L.71,64.2l-.16-.16-.11-.17-.06-.08L.32,63.7l-.05-.09-.05-.09-.04-.1-.04-.1-.04-.1-.02-.1-.03-.1L.03,62.9l-.01-.11-.01-.1L0,62.58v-.11l.01-.1.01-.11.01-.11.02-.1.03-.1.03-.09.03-.09.05-.09.04-.08.05-.08.06-.07.07-.06.07-.06.07-.05.08-.05.08-.04.1-.02.09-.02.22-.02h.23l.25.02.26.03.29.05.31.06.33.07.34.08.74.19.85.19.45.1.48.11.51.09.52.09.57.1.58.07.62.08.64.06.67.04.7.04.74.01h.76l.81-.01.83-.05.86-.06.9-.09.94-.11.97-.14,1-.17,1.05-.2.32-.07.34-.08.36-.11.39-.11.41-.12.42-.13L22,61l.45-.16.46-.17.48-.18.48-.19.48-.21.5-.21.48-.23.49-.23.48-.24.48-.25.47-.26.46-.26.44-.28.44-.27.41-.29.39-.29.38-.29.35-.29.32-.31.3-.31.26-.3.24-.32.2-.31.17-.33.12-.31.08-.56-.03-.53-.15-.5-.27-.47L31,51.98l-.45-.45-.53-.43-.62-.42-.68-.41-.74-.39-.8-.39-.84-.37-.89-.39-.92-.37-.94-.37-.96-.37-.97-.38-.97-.38-.96-.38-.95-.4-.93-.41-.9-.4-.87-.44-.83-.44-.77-.45-.71-.49-.66-.49-.57-.52-.49-.55-.41-.57-.31-.59-.2-.63-.15-.8-.05-.76.05-.74.13-.71.21-.67.3-.66.37-.62.42-.59.5-.57.55-.53.6-.51.65-.49.69-.46.74-.43.75-.4.79-.39.82-.36.82-.34.84-.31.85-.29.84-.27.85-.24.84-.22.82-.21.81-.18.78-.16.75-.14.73-.12.69-.11.64-.08.59-.06.55-.05Z" fill="#6b6259" fill-rule="evenodd"/>
    <path id="Path_238" data-name="Path 238" d="M61.53,57l.31-.05.31-.09.28-.1.26-.13.25-.14.24-.18.21-.2.21-.22.2-.24.18-.27.18-.29.17-.32.16-.33.16-.36.15-.38.15-.41.14-.43.15-.45.15-.48.15-.49.32-1.06.34-1.14.19-.61.2-.62.21-.66.22-.66.23-.7.26-.72.26-.73.28-.76-.25-.11-.23-.12-.22-.11-.22-.09h-.94l-.32.12-.33.16-.32.21-.32.25-.32.29-.31.32L64,45l-.31.39-.29.42-.28.44-.27.47-.26.49-.25.51-.23.52-.22.53-.2.54-.19.55-.16.54-.14.55-.13.54-.11.55-.08.54-.06.53V54.6l.05.46.08.43.1.41.14.37.17.35.2.31Zm-13-28.9.09.15.07.21v2.23l-.05.49-.05.52-.07.54-.07.56-.08.56-.09.58-.09.59-.1.58-.2,1.15-.2,1.1-.2,1-.18.9L47.2,40l-.12.58L47,41v.14h1.25l.62-.09.61-.09.6-.08.59-.06h2.08l.24.06.22.07.21.09.2.1.2.13.19.14.17.16.15.18.15.2.14.22.12.25.11.27.1.36.08.37v1.29l-.05.47-.08.49-.1.5-.12.52-.13.52-.15.54-.16.55-.36,1.1-.37,1.11-.37,1.1-.35,1.07-.16.52-.14.51-.14.49-.11.49-.09.46-.07.44v1.53l.09.31.12.28.56-.09.51-.14.47-.18.43-.23.38-.26.34-.31.32-.33.28-.37.26-.4.22-.43.21-.45.19-.49.17-.49.16-.52.14-.54.14-.55.27-1.15.29-1.19.14-.6.17-.61.18-.6.2-.61.21-.6.24-.6.26-.6.3-.58.32-.57.37-.56.4-.54.44-.53.32-.35.32-.34.33-.31.33-.29.34-.26.34-.24.34-.21.35-.19.34-.16.35-.14.35-.11.34-.09.34-.07h1.32l.32.06.31.09.3.11.3.14.28.17.27.2.26.22.25.26.23.27.22.31.2.33.19.37.18.38.15.42.14.45.32.11.26.16L71,44l.14.27.1.31.06.35v.82l-.06.45-.08.48-.11.5-.14.52-.15.54-.16.55-.18.55-.19.57L69.84,51l-.36,1.1-.16.53-.15.52-.13.49-.1.47-.08.44-.05.41v.7l.07.29.12.25.16.2.22.14.2.09.19.06h.91l.17-.05.16-.06.16-.08.16-.09.15-.1.15-.12.14-.13.14-.14.15-.15.14-.16.14-.18.13-.18.13-.19.13-.2.12-.2.12-.21.11-.21.22-.44.21-.46.2-.47.18-.47.11-.31.12-.36.13-.39.13-.43.14-.45.14-.47.13-.49.11-.5.1-.5.1-.5.09-.49.06-.47V45.43h-.6l-.14-.05-.14-.05-.13-.06-.13-.06L74,45l-.11-.07-.12-.08-.1-.08-.1-.08-.09-.09-.09-.09-.08-.09-.07-.09-.07-.1-.06-.1L73,44V42.56l.06-.16v-.11l.05-.05.05-.06.07-.05.07-.05.09-.05h.09l.19-.09.21-.09.23-.08.25-.08.26-.07.26-.07.26-.05.27-.05h1.01l.3-.54.26-.49.22-.43.2-.4.17-.35.15-.32.14-.28.14-.25.08-.11.08-.1.08-.09.08-.09.09-.08.09-.07.09-.07.1-.06.11-.05.2-.17h1.29l.06.05.06.07.05.08v3.27l.66-.12.62-.11.58-.1.54-.09h2l.17.05.17.06.15.08.15.09.14.11.13.12.13.14.11.15.1.18.09.2.09.21.08.23.07.26.06.28.05.3v1.53l-.06.54-.08.53-.1.52-.13.52-.14.51-.16.49-.17.5-.18.49-.19.48L85,50l-.39.9-.2.43-.18.43-.18.43-.16.41-.14.4-.14.39-.11.37-.09.37-.07.36v1.02l.05.32.09.31.13.29.17.28h.12l.2-.05h.12l.14-.05.15-.05.17-.08.18-.08.2-.09.2-.12.22-.13.22-.15.23-.17.25-.2.24-.21.26-.23.26-.26.26-.28.26-.31.26-.34.26-.37.26-.4.26-.43.26-.47L89,51.7l.25-.53.24-.57.24-.6.22-.64.21-.68.2-.72.3-1.24.3-1.26.3-1.26.25-1.2.15-.6.16-.59.15-.56.16-.55.16-.53.16-.5.16-.49.16-.44.17-.43.17-.38.17-.34.17-.32.18-.26.17-.22.18-.18.18-.13.19-.07h.38l.19.09.2.16.19.22.2.29.2.36.07.14.05.14v1.38l-.07.27-.09.26-.09.26-.09.26-.09.26-.08.26V41.8l.08-.06.19-.15.28-.24.37-.3.21-.16.23-.17.25-.17.26-.18.27-.17.29-.18.3-.16.31-.15.32-.15.31-.13.32-.11.32-.09.33-.07h.97l.31.05.31.09.31.13.29.17.29.21.27.26.26.31.25.36v.23l.05.14.05.18.05.2.05.22.05.25.05.27.05.29.05.31v4.96l-.05.49-.07.5-.08.5-.09.51-.11.52-.12.52-.14.53-.15.52-.18.54-.2.53-.13.35-.16.43-.19.48-.21.53-.24.56-.27.59-.14.3-.15.3-.15.3-.16.3-.17.3-.17.3-.19.28-.18.28-.2.27-.2.26-.2.26-.2.24-.22.23-.21.2-.23.2L98.4,60l-.24.16-.24.13-.25.11-.25.09-.3.07H95.98l-.26-.07-.26-.08-.25-.11L95,60.15,94.75,60l-.2-.18-.2-.19-.18-.21L94,59.19l-.14-.25-.13-.26-.11-.27-.08-.28-.07-.3V56.56l.07-.34.09-.34.12-.34.15-.35.19-.35.22-.35.26-.35.29-.35.33-.34.15-.08.14-.05h.46l.05.05v.8l-.09.57-.1.6v1.01l.2.4.21.28.23.17.23.05h.25l.26-.14.26-.23.26-.31.26-.38.26-.44.26-.51.26-.55.26-.6.25-.65.23-.67.23-.7.2-.72.2-.72.18-.73.15-.72.14-.72.12-.7.09-.67.06-.64V44.8l-.08-.44-.1-.37-.15-.31-.2-.22-.23-.14H98.77l-.17.06-.17.07-.16.08-.15.09-.15.09-.14.1-.14.11-.14.12-.14.13-.14.14-.13.14-.13.14-.13.15-.12.15-.12.16-.12.17-.12.16-.22.36-.22.36-.22.37-.2.37-.41.72-.38.76-.34.79-.32.81-.29.83-.27.85-.24.87-.22.88-.2.89-.19.89-.16.89-.15.89-.14.89-.12.87-.12.85-.1.84L91.77,62l-.16,1.5-.08.7-.08.66-.08.62-.09.57-.09.52-.09.47-.09.41-.11.36-.12.29-.13.22-.14.14-.16.08-.3.07H88.84l-.19-.05-.18-.08-.15-.1-.14-.13-.13-.15-.1-.1-.09-.2-.08-.23-.07-.25L87.66,67V64.13l.05-.54.05-.58.07-.62.08-.66L88,61l.2-1.5.23-1.67-.13.05-.15.07L88,58l-.18.12-.4.27-.45.32-.49.35-.52.35-.28.18-.28.16-.28.16-.29.14-.3.13-.29.11-.3.09-.3.08H82.46l-.29-.08-.28-.11-.28-.16-.26-.2L81,59.74l-.25-.29-.25-.35-.23-.39-.21-.4L80,57.87l-.1-.45-.05-.49V55.9l.07-.54L80,54.8l.14-.57.16-.58.18-.58.2-.59.22-.59.22-.59.24-.59.24-.57L82.09,49l.44-1,.2-.49.18-.48.15-.45.14-.43.09-.38.07-.36v-.6l-.06-.24-.1-.2-.16-.14-.22-.09H81.35l-.15.05-.15.05-.15.06-.29.12-.26.13-.12.06-.11.1-.11.13-.1.16-.11.19-.1.22-.1.25-.1.27-.1.3-.1.32-.1.34-.11.37-.22.78-.25.84-.26.91-.29.95-.16.49-.16.5-.18.5-.19.51-.2.51-.21.52-.22.52-.23.51-.26.52-.26.52-.28.5-.29.51-.23.38-.24.37-.26.35-.26.34-.27.31-.28.3-.29.28-.3.26-.3.24-.31.22-.31.2-.31.17-.32.15-.31.13-.31.1-.32.08-.31.06h-.91l-.3-.05L69,60.71l-.28-.11-.28-.14-.26-.17-.26-.2-.25-.22-.23-.26-.22-.29L67,59l-.19-.36-.18-.39-.36.28-.37.27-.37.27-.37.26-.37.24-.37.24-.37.22-.37.2-.37.19L63,60.6l-.36.15-.35.14-.35.12-.34.1-.33.08-.32.06H59.74l-.28-.07-.26-.1-.25-.13-.23-.16-.22-.2-.2-.23-.19-.26-.17-.3-.15-.33-.14-.37-.11-.4-.09-.45-.24.08L57,58.4l-.25.11-.25.14-.25.14L56,59l-.26.17-.26.19-.52.39-.54.4-.26.2-.27.2-.27.19-.28.18L53,61l-.28.15-.28.14-.28.12-.29.09-.28.07-.29.05h-.88l-.3-.09-.3-.12-.3-.15-.3-.2-.3-.24-.31-.3-.25-.28-.2-.3L48,59.62l-.14-.32L47.8,59l-.07-.36V57.51l.05-.41.07-.42.09-.43.11-.44.12-.46.14-.48.15-.49.34-1,.37-1.06.39-1.12.36-1.2.2-.61.18-.62.18-.63.17-.65.15-.66.14-.68.14-.69.11-.7-.12-.06-.13-.06h-3l-.22.06-.22.06-.21.07-.2.08-.2.08-.19.08-.19.09-.17.09-.16.09-.14.1-.14.11-.12.11-.1.12-.09.12-.07.12-.06.15-.07.21-.06.28-.06.34-.06.38-.07.44-.06.49-.07.52L44.87,50l-.14,1.25-.15,1.32-.17,1.36-.09.68-.09.67-.1.66-.1.66-.11.64-.12.61-.12.59-.14.55-.13.53-.14.48-.15.43-.15.39-.17.33-.17.27-.19.22-.19.15L41.8,62l-.38.14-.34.07h-.3l-.26-.07-.22-.13-.19-.19-.11-.2-.12-.29L39.74,61l-.06-.39V58.64l.05-.57.07-.6.09-.62.09-.65.11-.66.11-.67.13-.68.13-.69.13-.69.26-1.38L41.1,50l.12-.66.11-.65.1-.61.09-.6-.35-.2-.36-.17L40.47,47l-.34-.15-.33-.15-.31-.15-.14-.09-.14-.08-.14-.09-.07-.1-.11-.09-.1-.1-.09-.1-.09-.1-.07-.12-.06-.12v-.9l.05-.19.07-.2.09-.2.1-.22v-.07l.05-.05.06-.06h.45l.24-.05.26-.05.27-.05h.29l.3-.06L41,43.4h.43l.14-.05.13-.05.13-.06.12-.06.11-.07.1-.08.09-.09.09-.09.07-.1.17-.28.16-.31.15-.35.15-.37.14-.39.13-.43.13-.44.11-.46.12-.48.1-.49.1-.5.1-.52.2-1.06.19-1.07.19-1.07.19-1.06.1-.51.1-.51.1-.49.12-.48.11-.47.13-.44.13-.42.14-.41.14-.37.15-.34.16-.32.17-.29V28.2l.05-.06.06-.06.06-.05h1.17l.18.06.17.06h.17l.08.05.07.05.07.05.07.06.06.06.05.06Z" fill="#6b6259" fill-rule="evenodd"/>
    <path id="Path_239" data-name="Path 239" d="M110.6,34.68l.06-.16.07-.15.08-.15.08-.14.08-.14.09-.14.09-.13.09-.12.1-.12.1-.12.1-.11.11-.1.11-.11.11-.09.11-.09.11-.08.12-.08.12-.06.12-.06.12-.06.12-.06.12-.04.12-.03.12-.04.12-.01.12-.02.12-.01h.12l.11.02.12.01.11.02.12.04.11.04.1.05.1.05.09.07.1.07.08.07.08.08.08.09.07.09.06.1.07.1.05.11.05.12.05.12.04.12.03.12.03.13.02.14.02.13.01.14.01.14v.29l-.02.16-.02.15-.02.15-.03.16-.03.15-.04.15-.06.16-.05.16-.06.16-.06.15-.07.16-.08.14-.09.15-.07.14-.1.14-.09.13-.09.12-.1.12-.1.11-.1.11-.11.11-.1.1-.11.09-.12.09-.11.08-.12.08-.11.07-.12.06-.12.06-.12.05-.13.04-.12.04-.12.03-.12.02-.12.01-.12.01h-.11l-.12-.01-.11-.02-.12-.02-.11-.03-.11-.04-.11-.05-.1-.06-.09-.06-.1-.07-.08-.07-.08-.08-.07-.1-.08-.09-.06-.09-.06-.1-.06-.12-.05-.11-.04-.11-.05-.13-.03-.12-.03-.14-.02-.13-.02-.13-.01-.15v-.43l.01-.15.02-.15.02-.15.03-.16.03-.15.05-.16.05-.15.05-.17.07-.15Z" fill="#6b6259" fill-rule="evenodd"/>
    <path id="Path_240" data-name="Path 240" d="M115.82,53.29l.43-.41.4-.41.37-.42.35-.41.32-.41.3-.41.27-.41.26-.4.23-.39.2-.39.19-.39.17-.37.15-.37.13-.37.11-.36.1-.35.09-.33.07-.32L120,46V43.52l-.05-.12-.05-.09h-.94l-.19.09-.18.13-.19.15-.19.19-.18.21-.19.24-.18.26-.18.29-.17.3-.18.32-.16.34-.16.36-.15.36-.14.38-.14.38-.13.38-.12.4-.11.39-.1.4-.09.39-.08.39-.07.38-.05.38v2l.07.27.08.25.1.22Zm3.26-14.11.37-.09.36-.05h.68l.31.05.32.08.29.11.28.14.27.16.26.2.24.22.22.25.2.27.19.3.17.32.15.34.14.37.12.39.09.41.08.43.06.44v1.99l-.06.53-.08.54-.1.55-.13.57-.15.58-.19.59-.2.6-.23.55-.24.53-.26.49-.26.48-.27.44-.29.42-.28.4-.3.37-.29.36-.3.34-.3.32-.29.3-.29.29-.28.26-.27.26-.26.24-.49.46-.43.42-.19.2-.17.19-.15.2-.12.19-.1.19-.08.18v.58l.06.19.08.2.12.2.14.19.14.17.15.17.17.16.18.14.19.14.2.13.2.13.21.11.21.1.22.09.23.09.23.08.24.07.24.05h1.99l.24-.05.25-.05.23-.08.24-.08.22-.09.23-.1.21-.12.21-.14.2-.14.12-.09.12-.11.11-.1.1-.12.09-.11.09-.13.08-.13.09-.13.08-.14.08-.14.08-.14.07-.14.14-.32.14-.33.29-.72L126,56l.2-.43.22-.44.12-.23.13-.24.14-.24.14-.25h.51l.21.05.19.09.15.13.14.16.11.2.09.23.06.26v1.27l-.05.37-.07.37-.08.38-.11.39-.12.4-.14.4-.16.39-.17.4-.2.38-.2.37-.21.37-.24.36-.24.33-.26.31-.27.29-.28.26-.29.23-.3.2-.31.17-.33.15-.34.14-.36.12-.36.1-.37.09-.37.06-.38.05h-1.92l-.38-.05-.38-.07-.38-.09-.38-.1-.37-.11L118,63.1l-.37-.14-.35-.16-.34-.18-.33-.2-.32-.21L116,62l-.3-.24-.28-.26-.26-.27-.25-.29-.23-.3-.21-.31-.2-.33-.17-.35h-.98l-.55.11L112,60l-.61.14-.63.13-.32.06-.32.05h-2.53l-.3-.06-.29-.09-.28-.11-.27-.13-.26-.15-.26-.19-.24-.2-.23-.24-.21-.27-.2-.3-.15-.23-.14-.22-.13-.23-.12-.23-.1-.22-.09-.23-.09-.24-.08-.23-.06-.25-.05-.24V53.83l.05-.32.06-.33.08-.34.08-.36.09-.37.09-.38.11-.39.11-.41.12-.43.27-.9.3-1,.14-.38.14-.39.14-.39.15-.39.16-.39.17-.38.17-.39.17-.37.18-.38.19-.37.19-.37.19-.36.19-.35.2-.34.19-.32.2-.32.2-.31.2-.29.2-.28.2-.26.2-.25.19-.22.2-.21.19-.19.19-.17.18-.14.18-.13.18-.1.17-.08.16-.05H111l.32.05.26.08.2.11.16.14.11.17.08.2v.75l-.07.31-.1.32-.13.35-.15.37-.17.39-.2.41-.21.43-.45.92-.49,1-.26.52-.25.53-.26.55-.25.56-.24.58-.22.58-.22.6-.2.6-.18.62-.16.62-.14.63-.11.64-.05.31v1.51l.05.2.07.18.08.16.09.15.1.14.12.13.13.11.14.1.15.09.16.08.18.07.18.06.2.05h2.45l.61-.05-.09-.31-.09-.32-.08-.32-.09-.34-.08-.34-.07-.35-.06-.37-.05-.37-.05-.38V50.73l.05-.48.06-.39.08-.41.08-.42.09-.42.1-.43.1-.43.13-.43.13-.43.14-.43.15-.43.16-.43.17-.43.19-.42.2-.41.2-.41.21-.4.23-.39.24-.37.26-.37.26-.36.27-.34.29-.33.3-.31.31-.3.32-.28.34-.26.35-.24.36-.22.37-.2.39-.17.4-.15.41-.12Z" fill="#6b6259" fill-rule="evenodd"/>
    <path id="Path_241" data-name="Path 241" d="M132.63,56.32v-1h1.26v.62h-1.3Zm0,.44h.6l.89,1.47h.58l-1-1.5h.58l.06-.06.06-.06.05-.06V55.48l-.05-.08-.06-.07-.07-.06-.08-.06-.09-.05h-2.02v3.41h.51V56.76Zm.63,2.73h1.01l.14-.05.13-.06.14-.06.12-.07.12-.08.12-.08.12-.08.1-.09.11-.09.09-.1.09-.11.09-.11.09-.11.08-.12.08-.13.07-.13.06-.13.05-.14.05-.14V55.84l-.05-.14-.05-.14-.06-.13-.07-.13-.09-.3-.08-.13-.09-.11-.09-.11-.09-.1-.09-.1-.11-.09-.1-.09-.12-.08-.12-.08-.12-.08-.12-.07-.14-.07-.13-.05-.14-.05-.14-.05h-1.68l-.14.05-.14.05-.14.05-.13.07-.13.07-.12.08-.12.08-.11.08-.11.09-.1.09-.1.1-.09.1-.09.11-.09.11-.08.13-.08.12-.06.13-.07.13-.05.14-.05.14v1.78l.05.14.05.14.07.13.06.13.08.13.08.12.09.11.09.11.09.11.1.1.1.09.11.09.11.08.12.08.12.08.13.07.13.06.14.06.14.05h1.01Zm-2.41-3V55.4l.06-.1.05-.1.07-.1.06-.09.08-.09.08-.09.08-.08.09-.09.09-.08.09-.07.09-.07.1-.06.1-.06.1-.05.1-.05h1.89l.1.05.1.05.1.06.09.06.09.07.09.07.09.08.09.09.08.08.08.09.07.09.07.09.06.1.06.1.05.1.05.11v1.97l-.05.11-.05.11-.06.1-.06.1-.07.09-.07.09-.08.09-.08.09-.09.08-.09.08-.09.08-.09.07-.09.06-.1.06-.1.05-.1.05H132.3l-.1-.05-.1-.05-.1-.06-.1-.06-.09-.07-.09-.08-.09-.08-.09-.08-.08-.09-.08-.09-.08-.09-.06-.09-.07-.1-.05-.1-.06-.11v-1.1Z" fill="#6b6259" fill-rule="evenodd"/>
  </g>
</svg>
