<svg xmlns="http://www.w3.org/2000/svg" width="1189.029" height="406.837" viewBox="0 0 1189.029 406.837"><g transform="translate(0 4)"><path d="M382.948,212.105,232.806-1H165V388.885h89.6V178.2L404.743,388.885H472.55V-1h-89.6V212.105ZM322.407,86.179h60.542V-1H322.407Z" transform="translate(234.572 4.265)" fill-rule="evenodd"/><path d="M520.72,185.467H462.6V86.179H373V388.885h89.6V267.8H520.72c77.493,0,138.034-60.541,138.034-133.191C658.753,59.541,598.213-1,520.72-1H373V86.179H520.72c26.638,0,48.434,21.795,48.434,50.855A48.576,48.576,0,0,1,520.72,185.467Z" transform="translate(530.275 4.265)"/><path d="M468.515-1H299V86.179h0V388.885h87.179V86.179h82.336Z" transform="translate(425.073 4.265)"/><path d="M203.419,315.658c-65.385,0-113.818-46.011-113.818-116.239S138.034,83.179,203.419,83.179c62.963,0,111.4,46.011,111.4,116.239S266.381,315.658,203.419,315.658Zm0,87.179c111.4,0,201-89.6,201-203.419S314.814-4,203.419-4C89.6-4,0,85.6,0,199.419S89.6,402.837,203.419,402.837Z" transform="translate(0 0)"/></g></svg>