<svg xmlns="http://www.w3.org/2000/svg" width="234.691" height="32.387" viewBox="0 0 234.691 32.387"><g transform="translate(0 4)"><path d="M182.35,15.965,170.4-1H165V30.038h7.133V13.266l11.952,16.772h5.4V-1H182.35V15.965ZM177.531,5.94h4.82V-1h-4.82Z" transform="translate(-133.191 -2.422)" fill="#fff" fill-rule="evenodd"/><path d="M384.76,13.844h-4.627V5.94H373v24.1h7.133V20.4h4.627A10.784,10.784,0,0,0,395.748,9.8,10.821,10.821,0,0,0,384.76-1H373V5.94h11.76a3.913,3.913,0,0,1,3.856,4.048A3.867,3.867,0,0,1,384.76,13.844Z" transform="translate(-301.092 -2.422)" fill="#fff"/><path d="M312.495-1H299V5.94h0v24.1h6.94V5.94h6.555Z" transform="translate(-241.358 -2.422)" fill="#fff"/><path d="M16.194,21.447c-5.205,0-9.061-3.663-9.061-9.254S10.989,2.94,16.194,2.94c5.012,0,8.868,3.663,8.868,9.254S21.206,21.447,16.194,21.447Zm0,6.94a16,16,0,0,0,16-16.194A16.1,16.1,0,1,0,0,12.194,16.046,16.046,0,0,0,16.194,28.388Z" transform="translate(0 0)" fill="#fff"/><g transform="translate(71 -37)"><path d="M190.493,193.493h-.831v-1.246h2.493V191H188v6.647h2.493c1.662,0,2.493-.831,2.493-2.077S192.154,193.493,190.493,193.493Zm0,2.908h-.831v-1.662h.831a.831.831,0,1,1,0,1.662Z" transform="translate(-146.859 -157.185)" fill="#fff"/><path d="M202.662,197.647h2.908a1.962,1.962,0,0,0,2.077-2.077c0-1.662-.831-2.492-2.077-2.492h-1.246V191H201v1.246h1.662Zm1.662-1.246v-1.662h1.246c.415,0,.831,0,.831.831a.893.893,0,0,1-.831.831Z" transform="translate(-154.458 -157.185)" fill="#fff"/><path d="M225.816,196.4V191h-4.57v2.908a14.685,14.685,0,0,1-.415,2.492H220v2.908h1.662v-1.662h3.323v1.662h1.662V196.4Zm-3.323,0a14.687,14.687,0,0,0,.415-2.492v-1.662h1.246V196.4Z" transform="translate(-165.565 -157.185)" fill="#fff"/><path d="M243.739,197.647H245.4V191h-1.246l-2.492,3.739V191H240v6.647h1.246l2.493-3.739Z" transform="translate(-177.257 -157.185)" fill="#fff"/><path d="M261.739,191v2.493h-2.077V191H258v6.647h1.662v-2.492h2.077v2.492H263.4V191Z" transform="translate(-187.779 -157.185)" fill="#fff"/><path d="M276.662,196.4v-1.246h2.493v-1.662h-2.493v-1.246h2.908V191H275v6.647h4.57V196.4Z" transform="translate(-197.717 -157.185)" fill="#fff"/><path d="M293.739,191v2.493h-2.077V191H290v6.647h1.662v-2.492h2.077v2.492H295.4V191Z" transform="translate(-206.485 -157.185)" fill="#fff"/><path d="M311.739,197.647H313.4V191h-1.246l-2.493,3.739V191H308v6.647h1.246l2.492-3.739Z" transform="translate(-217.008 -157.185)" fill="#fff"/><path d="M327.246,196.4v-1.246h2.493v-1.662h-2.493v-1.246h2.908V191H326v6.647h4.154V196.4Z" transform="translate(-227.53 -157.185)" fill="#fff"/><path d="M170.739,221v2.493h-2.077V221H167v6.647h1.662v-2.493h2.077v2.493H172.4V221Z" transform="translate(-134.583 -174.722)" fill="#fff"/><path d="M187.985,227.647h1.662L187.57,221h-2.077L183,227.647h1.662l.415-.831h2.492Zm-2.493-2.493.831-2.493.831,2.493Z" transform="translate(-143.936 -174.722)" fill="#fff"/><path d="M205.154,221l-1.246,2.908L202.662,221H201l2.077,4.57c0,.415-.415.831-1.246.831v1.246c1.246,0,2.077-.415,2.908-2.077l2.077-4.57Z" transform="translate(-154.458 -174.722)" fill="#fff"/><path d="M221.739,221v2.908h-1.246a.894.894,0,0,1-.831-.831V221H218v2.077a2.394,2.394,0,0,0,2.492,2.493,1.526,1.526,0,0,0,1.246-.415v2.493H223.4V221Z" transform="translate(-164.396 -174.722)" fill="#fff"/><path d="M238.739,221v2.493h-2.077V221H235v6.647h1.662v-2.493h2.077v2.493H240.4V221Z" transform="translate(-174.334 -174.722)" fill="#fff"/><path d="M255.739,227.478A3.739,3.739,0,1,0,252,223.739,3.723,3.723,0,0,0,255.739,227.478Zm0-1.662a2.077,2.077,0,1,1,2.077-2.077A1.962,1.962,0,0,1,255.739,225.816Z" transform="translate(-184.272 -174.137)" fill="#fff"/><path d="M274,229.662h3.739V228H274Z" transform="translate(-197.132 -178.814)" fill="#fff"/><path d="M290.4,221H285v1.246h2.077v5.4h1.246v-5.4H290.4Z" transform="translate(-203.563 -174.722)" fill="#fff"/><path d="M302.662,226.4v-1.246h2.492v-1.662h-2.492v-1.246h2.908V221H301v6.647h4.57V226.4Z" transform="translate(-212.916 -174.722)" fill="#fff"/><path d="M320.816,227.647l-2.077-3.323L320.816,221h-2.077l-.831,1.662L316.662,221H315l2.077,3.323L315,227.647h1.662l1.246-2.077,1.246,2.077Z" transform="translate(-221.1 -174.722)" fill="#fff"/><path d="M336.739,221v2.493h-2.492V221H333v6.647h1.246v-2.493h2.492v2.493h1.246V221Z" transform="translate(-231.622 -174.722)" fill="#fff"/><path d="M353.739,227.647H355.4V221h-1.246l-2.492,3.739V221H350v6.647h1.246l2.492-3.739Z" transform="translate(-241.56 -174.722)" fill="#fff"/><path d="M371.739,221v2.908h-1.246a.893.893,0,0,1-.831-.831V221H368v2.077a2.2,2.2,0,0,0,2.492,2.493,1.526,1.526,0,0,0,1.246-.415v2.493h1.246V221Z" transform="translate(-252.082 -174.722)" fill="#fff"/><path d="M386.662,226.4v-1.246h2.493v-1.662h-2.493v-1.246h2.908V221H385v6.647h4.57V226.4Z" transform="translate(-262.02 -174.722)" fill="#fff"/><path d="M402.739,227.478a4.2,4.2,0,0,0,2.908-1.662l-1.662-.831c0,.415-.831.831-1.246.831a2.077,2.077,0,1,1,0-4.154c.415,0,1.246.415,1.246.831l1.662-.831A4.2,4.2,0,0,0,402.739,220a3.739,3.739,0,0,0,0,7.478Z" transform="translate(-270.204 -174.137)" fill="#fff"/><path d="M423.816,227.647l-2.492-3.323L423.816,221h-2.077l-2.077,2.908V221H418v6.647h1.662v-3.323l2.493,3.323Z" transform="translate(-281.311 -174.722)" fill="#fff"/><path d="M436.739,227.478A3.739,3.739,0,1,0,433,223.739,3.723,3.723,0,0,0,436.739,227.478Zm0-1.662a2.077,2.077,0,1,1,2.077-2.077A1.962,1.962,0,0,1,436.739,225.816Z" transform="translate(-290.08 -174.137)" fill="#fff"/><path d="M458.739,221H455v6.647h1.246v-5.4h2.493Z" transform="translate(-302.94 -174.722)" fill="#fff"/><path d="M469.739,227.478c2.077,0,3.323-1.662,3.323-3.739S471.816,220,469.739,220a3.739,3.739,0,1,0,0,7.478Zm0-1.662a2.077,2.077,0,1,1,0-4.154,2.077,2.077,0,1,1,0,4.154Z" transform="translate(-309.371 -174.137)" fill="#fff"/><path d="M172.4,250H167v7.062h1.662v-5.4h2.077v5.4H172.4Z" transform="translate(-134.583 -191.675)" fill="#fff"/><path d="M186.908,250H184v7.062h1.662v-2.077h1.246a2.493,2.493,0,1,0,0-4.985Zm0,3.323h-1.246v-1.662h1.246a.831.831,0,0,1,0,1.662Z" transform="translate(-144.52 -191.675)" fill="#fff"/><path d="M203.323,257.062c2.077,0,3.739-1.246,3.739-3.323A3.723,3.723,0,0,0,203.323,250c-2.077,0-3.323,1.662-3.323,3.739A3.057,3.057,0,0,0,203.323,257.062Zm0-1.246a2.077,2.077,0,0,1,0-4.154,2.077,2.077,0,0,1,0,4.154Z" transform="translate(-153.874 -191.675)" fill="#fff"/><path d="M225.154,250H221v7.062h1.662v-5.4h2.493Z" transform="translate(-166.15 -191.675)" fill="#fff"/><path d="M236.493,250H234v7.062h1.662v-2.077h.831a2.493,2.493,0,0,0,0-4.985Zm0,3.323h-.831v-1.662h.831c.831,0,1.246.415,1.246.831S237.323,253.323,236.493,253.323Z" transform="translate(-173.749 -191.675)" fill="#fff"/><path d="M251.662,255.4v-1.246h2.493v-1.246h-2.493v-1.246h2.908V250H250v7.062h4.57V255.4Z" transform="translate(-183.102 -191.675)" fill="#fff"/><path d="M267.739,257.062a3.772,3.772,0,0,0,2.908-1.246l-1.662-.831c0,.415-.831.831-1.246.831a2.077,2.077,0,0,1,0-4.154c.415,0,1.246,0,1.246.831l1.662-.831A4.205,4.205,0,0,0,267.739,250,3.723,3.723,0,0,0,264,253.739C264,255.816,265.662,257.062,267.739,257.062Z" transform="translate(-191.286 -191.675)" fill="#fff"/><path d="M285.739,257.062c1.246,0,2.493-.415,2.908-1.246l-1.246-.831a2.158,2.158,0,0,1-1.662.831,2.077,2.077,0,0,1,0-4.154c.831,0,1.246,0,1.662.831l1.246-.831A3.5,3.5,0,0,0,285.739,250,3.723,3.723,0,0,0,282,253.739C282,255.816,283.662,257.062,285.739,257.062Z" transform="translate(-201.809 -191.675)" fill="#fff"/><path d="M305.985,257.062h1.662L305.154,250h-2.077L301,257.062h1.662l.415-1.246h2.492Zm-2.492-2.492.831-2.493.831,2.493Z" transform="translate(-212.916 -191.675)" fill="#fff"/><path d="M169.739,197.478A3.739,3.739,0,1,0,166,193.739,3.723,3.723,0,0,0,169.739,197.478Zm0-1.662a2.077,2.077,0,1,1,2.077-2.077A1.962,1.962,0,0,1,169.739,195.816Z" transform="translate(-133.998 -156.6)" fill="#fff"/></g></g></svg>