<svg xmlns="http://www.w3.org/2000/svg" viewBox="0 0 15.585 15.585"><g data-name="Group 23"><g data-name="Group 22"><path data-name="Path 35" d="M11.374 0H4.211A4.216 4.216 0 000 4.211v7.163a4.216 4.216 0 004.211 4.211h7.163a4.216 4.216 0 004.211-4.211V4.211A4.216 4.216 0 0011.374 0zm2.952 11.374a2.955 2.955 0 01-2.952 2.952H4.211a2.955 2.955 0 01-2.952-2.952V4.211a2.955 2.955 0 012.952-2.952h7.163a2.955 2.955 0 012.952 2.952z" fill="#fff"/></g></g><g data-name="Group 25"><g data-name="Group 24"><path data-name="Path 36" d="M11.28 7.249a3.494 3.494 0 10-3.464 4.008 3.542 3.542 0 00.52-.039 3.495 3.495 0 002.944-3.97zM8.151 9.973a2.236 2.236 0 111.884-2.539 2.221 2.221 0 01-1.884 2.54z" fill="#fff"/></g></g><g data-name="Group 27"><g data-name="Group 26"><path data-name="Path 37" d="M12.178 3.407a.63.63 0 10.184.445.634.634 0 00-.184-.445z" fill="#fff"/></g></g></svg>