<svg data-name="telegram-logo (1)" xmlns="http://www.w3.org/2000/svg" viewBox="0 0 16.011 15.595"><path data-name="Path 182" d="M15.715.536A1.381 1.381 0 0014.605 0a1.9 1.9 0 00-.884.237L.957 6.93a1.5 1.5 0 00.15 2.851l1.631.645a2.782 2.782 0 001.028.186c.059 0 .115-.008.174-.011-.022.029-.049.051-.07.081a1.818 1.818 0 00-.044 1.735c0 .011.008.021.013.031a139.612 139.612 0 011.084 2.443 1.1 1.1 0 001.014.7c.689 0 .893-.332 2.019-2.165a1.852 1.852 0 00.316-.845l.361.145 1.807.737.847.347a1.124 1.124 0 00.163.082 1.085 1.085 0 00.4.076c.822 0 1.019-.712 1.125-1.093.052-.189.124-.45.2-.738l2.758-10.124a1.64 1.64 0 00-.218-1.477zM7.046 12.854a18.415 18.415 0 01-1.11 1.665c-.1-.27-1.111-2.509-1.111-2.509-.186-.449-.153-.833.168-.833a.674.674 0 01.253.059l.785.408a2.166 2.166 0 00.431.229l.04.015.074.037c.601.317.794.429.47.929zm7.848-11.125l-2.756 10.125c-.156.571-.285 1.038-.288 1.038s-.005-.012-.005-.014-.449-.187-1-.412l-1.808-.737c-.549-.222-1.45-.582-2-.795l-.091-.037-.338-.175a.659.659 0 01-.028-1.038l5.595-5.991c.225-.24.309-.363.261-.363a1.288 1.288 0 00-.371.243L4.986 9.16a2.063 2.063 0 01-1.219.376 1.739 1.739 0 01-.632-.11L1.5 8.781c-.551-.218-.572-.621-.047-.9L14.222 1.19a.854.854 0 01.383-.113c.275 0 .4.241.289.652z" fill="#fff"/></svg>