<svg xmlns="http://www.w3.org/2000/svg" viewBox="0 0 16.066 13.054"><g data-name="Group 19"><path data-name="Path 27" d="M16.066 1.544a6.581 6.581 0 01-1.892.519A3.31 3.31 0 0015.623.24a6.643 6.643 0 01-2.094.8 3.3 3.3 0 00-5.616 3.006A9.356 9.356 0 011.119.603a3.3 3.3 0 001.02 4.4 3.3 3.3 0 01-1.492-.414v.041A3.3 3.3 0 003.29 7.859a3.337 3.337 0 01-.868.115 3.163 3.163 0 01-.62-.061 3.3 3.3 0 003.078 2.29 6.611 6.611 0 01-4.094 1.413 7 7 0 01-.787-.045 9.314 9.314 0 005.052 1.483 9.314 9.314 0 009.377-9.379l-.011-.427a6.583 6.583 0 001.649-1.704z" fill="#fff"/></g></svg>