<svg viewBox="0 0 206 46" fill="none" xmlns="http://www.w3.org/2000/svg"><g clip-path="url(#clip0)" fill="#fff"><path fill-rule="evenodd" clip-rule="evenodd" d="M33.42 12.377c5.811 5.814 5.811 15.24 0 21.055-5.813 5.814-15.236 5.814-21.047 0-5.812-5.814-5.812-15.24 0-21.055a14.841 14.841 0 0111.3-4.34l6.762-6.765C22.402-1.523 13.123.289 6.706 6.709c-8.941 8.944-8.941 23.447 0 32.391 8.941 8.945 23.438 8.945 32.38 0 8.941-8.944 8.941-23.447 0-32.391a23.082 23.082 0 00-2.61-2.249l-5.767 5.77a14.92 14.92 0 012.71 2.147z"/><path d="M26.457 14.483l9.715-9.718 2.752 2.753-3.36 7.572-4.25 4.252-4.857-4.86zm-1.133 5.992a3.437 3.437 0 010 4.859 3.433 3.433 0 01-4.857 0 3.436 3.436 0 010-4.859 3.433 3.433 0 014.857 0z"/></g><path d="M85.637 12.089H74.476v4.453h5.946c-.795 2.132-2.735 3.436-5.692 3.436-4.325 0-6.996-2.768-6.996-6.553 0-3.913 2.798-6.68 6.55-6.68 2.513 0 4.516 1.144 5.439 2.608l4.324-2.482c-1.876-2.99-5.47-5.09-9.73-5.09-6.551 0-11.671 5.154-11.671 11.612 0 6.394 5.024 11.548 12.02 11.548 6.233 0 10.971-4.136 10.971-10.944V12.09zm11.137 7.507v-3.944h7.95v-4.836h-7.95v-3.69h8.745v-4.9H91.686v22.27h13.992v-4.9h-8.904zM124.13 2.227v12.088l-8.586-12.088h-3.816v22.268h5.088V12.407l8.586 12.088h3.816V2.227h-5.088zm17.17 17.369v-3.944h7.95v-4.836h-7.95v-3.69h8.745v-4.9h-13.833v22.27h13.992v-4.9H141.3zm22.746 5.344c4.833 0 8.268-2.544 8.268-6.839 0-4.708-3.785-5.885-7.155-6.903-3.467-1.05-4.007-1.75-4.007-2.768 0-.89.795-1.686 2.385-1.686 2.035 0 3.084.986 3.848 2.577l4.293-2.513c-1.622-3.277-4.484-5.026-8.141-5.026-3.848 0-7.473 2.48-7.473 6.775 0 4.263 3.243 5.854 6.551 6.776 3.339.923 4.611 1.464 4.611 2.832 0 .859-.605 1.813-3.021 1.813-2.513 0-3.88-1.24-4.675-3.086l-4.388 2.545c1.24 3.277 4.229 5.504 8.904 5.504zm13.835-22.713v22.268h5.088V2.227h-5.088zm19.573 22.713c4.834 0 8.268-2.544 8.268-6.839 0-4.708-3.784-5.885-7.155-6.903-3.466-1.05-4.007-1.75-4.007-2.768 0-.89.795-1.686 2.385-1.686 2.036 0 3.085.986 3.848 2.577l4.293-2.513c-1.622-3.277-4.484-5.026-8.141-5.026-3.847 0-7.473 2.48-7.473 6.775 0 4.263 3.244 5.854 6.551 6.776 3.339.923 4.611 1.464 4.611 2.832 0 .859-.604 1.813-3.021 1.813-2.512 0-3.879-1.24-4.674-3.086l-4.389 2.545c1.24 3.277 4.23 5.504 8.904 5.504zM64.236 34.675v11.134h1.113V34.675h-1.113zm16.384 0v9.066l-6.2-9.066h-.954v11.134h1.113v-9.066l6.2 9.066h.955V34.675H80.62zm16.373 0v9.066l-6.201-9.066h-.954v11.134h1.113v-9.066l6.2 9.066h.955V34.675h-1.113zM111.33 46c3.243 0 5.755-2.577 5.755-5.758s-2.512-5.758-5.755-5.758c-3.244 0-5.756 2.577-5.756 5.758S108.086 46 111.33 46zm0-1.082c-2.64 0-4.643-2.083-4.643-4.676s2.003-4.676 4.643-4.676c2.639 0 4.642 2.083 4.642 4.676s-2.003 4.676-4.642 4.676zm15.732.892h1.144l4.103-11.135H131.1l-3.466 9.655-3.466-9.655h-1.209l4.103 11.134zm19.022 0h1.176l-4.277-11.135h-1.145l-4.277 11.134h1.177l1.033-2.736h5.279l1.034 2.736zm-5.915-3.787l2.242-5.964 2.242 5.965h-4.484zm20.29-7.348h-7.95v1.05h3.418v10.084h1.113V35.725h3.419v-1.05zm7.155 0v11.134h1.113V34.675h-1.113zM181.963 46c3.244 0 5.756-2.577 5.756-5.758s-2.512-5.758-5.756-5.758c-3.243 0-5.755 2.577-5.755 5.758S178.72 46 181.963 46zm0-1.082c-2.639 0-4.642-2.083-4.642-4.676s2.003-4.676 4.642-4.676c2.64 0 4.643 2.083 4.643 4.676s-2.003 4.676-4.643 4.676zm20.38-10.243v9.066l-6.201-9.066h-.954v11.134h1.113v-9.066l6.201 9.066h.954V34.675h-1.113z" fill="#fff"/><defs><clipPath id="clip0"><path fill="#fff" d="M0 0h45.792v45.809H0z"/></clipPath></defs></svg>