<svg width="30" height="30" viewBox="0 0 30 30" fill="none" xmlns="http://www.w3.org/2000/svg">
<path d="M29.9999 14.9999C29.9999 6.71569 23.2842 0 14.9999 0C6.71569 0 0 6.71569 0 14.9999C0 22.4868 5.48525 28.6924 12.6562 29.8176V19.3359H8.84762V14.9999H12.6562V11.6953C12.6562 7.9359 14.8956 5.85936 18.3219 5.85936C19.963 5.85936 21.6796 6.15232 21.6796 6.15232V9.84371H19.7881C17.9248 9.84371 17.3437 11 17.3437 12.1862V14.9999H21.5038L20.8388 19.3359H17.3437V29.8176C24.5146 28.6924 29.9999 22.4868 29.9999 14.9999Z" fill="#1877F2"/>
<path d="M20.8388 19.3359L21.5039 15H17.3437V12.1862C17.3437 11 17.9248 9.84373 19.7882 9.84373H21.6796V6.15234C21.6796 6.15234 19.963 5.85938 18.3219 5.85938C14.8956 5.85938 12.6562 7.93592 12.6562 11.6953V15H8.84766V19.3359H12.6562V29.8177C13.4316 29.9392 14.2152 30.0001 15 29.9999C15.7973 29.9999 16.58 29.9375 17.3437 29.8177V19.3359H20.8388Z" fill="white"/>
</svg>
