<svg width="30" height="30" viewBox="0 0 30 30" fill="none" xmlns="http://www.w3.org/2000/svg">
<g clip-path="url(#clip0)">
<path d="M15.2646 0.333984C9.00224 0.333984 7.17076 0.340446 6.81475 0.369987C5.52961 0.476843 4.72992 0.679244 3.85871 1.11313C3.1873 1.44662 2.65779 1.83319 2.1352 2.37508C1.18346 3.36332 0.606647 4.57911 0.397841 6.02431C0.296323 6.72591 0.26679 6.869 0.260791 10.4527C0.258484 11.6473 0.260791 13.2194 0.260791 15.3281C0.260791 21.5871 0.267713 23.4172 0.297707 23.7727C0.401533 25.0235 0.597649 25.8105 1.01295 26.6714C1.80664 28.3192 3.3225 29.5562 5.10831 30.0178C5.72665 30.177 6.4096 30.2647 7.28635 30.3063C7.65782 30.3224 11.444 30.334 15.2325 30.334C19.021 30.334 22.8095 30.3294 23.1717 30.3109C24.1869 30.2631 24.7764 30.184 25.4282 30.0155C26.3137 29.7884 27.1389 29.3706 27.8463 28.7914C28.5536 28.2122 29.126 27.4855 29.5236 26.6621C29.9308 25.8221 30.1373 25.0051 30.2307 23.8195C30.251 23.561 30.2596 19.4398 30.2596 15.3242C30.2596 11.2078 30.2503 7.09425 30.23 6.83577C30.1354 5.63105 29.9289 4.82098 29.5086 3.96475C29.1636 3.26385 28.7806 2.74042 28.2246 2.20522C27.2325 1.25714 26.0189 0.680168 24.5725 0.471534C23.8717 0.370218 23.7322 0.340216 20.1467 0.333984H15.2646Z" fill="url(#paint0_radial)"/>
<path d="M15.2646 0.333984C9.00224 0.333984 7.17076 0.340446 6.81475 0.369987C5.52961 0.476843 4.72992 0.679244 3.85871 1.11313C3.1873 1.44662 2.65779 1.83319 2.1352 2.37508C1.18346 3.36332 0.606647 4.57911 0.397841 6.02431C0.296323 6.72591 0.26679 6.869 0.260791 10.4527C0.258484 11.6473 0.260791 13.2194 0.260791 15.3281C0.260791 21.5871 0.267713 23.4172 0.297707 23.7727C0.401533 25.0235 0.597649 25.8105 1.01295 26.6714C1.80664 28.3192 3.3225 29.5562 5.10831 30.0178C5.72665 30.177 6.4096 30.2647 7.28635 30.3063C7.65782 30.3224 11.444 30.334 15.2325 30.334C19.021 30.334 22.8095 30.3294 23.1717 30.3109C24.1869 30.2631 24.7764 30.184 25.4282 30.0155C26.3137 29.7884 27.1389 29.3706 27.8463 28.7914C28.5536 28.2122 29.126 27.4855 29.5236 26.6621C29.9308 25.8221 30.1373 25.0051 30.2307 23.8195C30.251 23.561 30.2596 19.4398 30.2596 15.3242C30.2596 11.2078 30.2503 7.09425 30.23 6.83577C30.1354 5.63105 29.9289 4.82098 29.5086 3.96475C29.1636 3.26385 28.7806 2.74042 28.2246 2.20522C27.2325 1.25714 26.0189 0.680168 24.5725 0.471534C23.8717 0.370218 23.7322 0.340216 20.1467 0.333984H15.2646Z" fill="url(#paint1_radial)"/>
<path d="M15.2576 4.25781C12.2499 4.25781 11.8724 4.27097 10.6911 4.32474C9.51209 4.37875 8.70733 4.56545 8.00316 4.8394C7.27476 5.12235 6.65688 5.50084 6.04131 6.11682C5.42527 6.73256 5.04688 7.35061 4.76309 8.07898C4.48853 8.78358 4.30164 9.5888 4.24858 10.7677C4.19597 11.9493 4.18213 12.3271 4.18213 15.3357C4.18213 18.3442 4.19551 18.7207 4.24904 19.9023C4.30326 21.0816 4.48992 21.8866 4.76355 22.591C5.04665 23.3196 5.42504 23.9376 6.04084 24.5534C6.65619 25.1696 7.27407 25.549 8.002 25.8319C8.70663 26.1059 9.51163 26.2926 10.6904 26.3466C11.8717 26.4004 12.2489 26.4135 15.2564 26.4135C18.2644 26.4135 18.6407 26.4004 19.822 26.3466C21.001 26.2926 21.8067 26.1059 22.5113 25.8319C23.2395 25.549 23.8565 25.1696 24.4718 24.5534C25.0878 23.9376 25.4662 23.3196 25.75 22.5912C26.0223 21.8866 26.2092 21.0814 26.2645 19.9025C26.3176 18.7209 26.3314 18.3442 26.3314 15.3357C26.3314 12.3271 26.3176 11.9495 26.2645 10.7679C26.2092 9.58857 26.0223 8.78358 25.75 8.07921C25.4662 7.35061 25.0878 6.73256 24.4718 6.11682C23.8558 5.50061 23.2397 5.12212 22.5106 4.8394C21.8046 4.56545 20.9994 4.37875 19.8204 4.32474C18.6391 4.27097 18.263 4.25781 15.2544 4.25781H15.2576ZM14.2641 6.25414C14.559 6.25367 14.888 6.25414 15.2576 6.25414C18.2146 6.25414 18.565 6.26475 19.7327 6.31783C20.8125 6.36722 21.3986 6.5477 21.7889 6.69933C22.3058 6.90011 22.6742 7.14013 23.0616 7.52786C23.4492 7.91558 23.6892 8.28485 23.8904 8.80181C24.042 9.19185 24.2226 9.77805 24.2718 10.8581C24.3248 12.0259 24.3364 12.3767 24.3364 15.3331C24.3364 18.2895 24.3248 18.6403 24.2718 19.8081C24.2224 20.8882 24.042 21.4744 23.8904 21.8645C23.6896 22.3814 23.4492 22.7495 23.0616 23.137C22.674 23.5248 22.306 23.7648 21.7889 23.9656C21.399 24.1179 20.8125 24.2979 19.7327 24.3473C18.5653 24.4004 18.2146 24.4119 15.2576 24.4119C12.3004 24.4119 11.9499 24.4004 10.7825 24.3473C9.70267 24.2974 9.11663 24.117 8.72602 23.9653C8.20919 23.7645 7.84003 23.5245 7.45242 23.1368C7.0648 22.7491 6.82485 22.3807 6.62365 21.8635C6.47207 21.4735 6.29141 20.8873 6.24227 19.8072C6.1892 18.6394 6.17859 18.2886 6.17859 15.3304C6.17859 12.3721 6.1892 12.0232 6.24227 10.8554C6.29164 9.77528 6.47207 9.18908 6.62365 8.79858C6.82438 8.28161 7.0648 7.91235 7.45242 7.52463C7.84003 7.1369 8.20919 6.89688 8.72602 6.69563C9.1164 6.54331 9.70267 6.3633 10.7825 6.31368C11.8041 6.26752 12.2 6.25367 14.2641 6.25137V6.25414ZM21.1692 8.09352C20.9063 8.09352 20.6494 8.1715 20.4308 8.31759C20.2123 8.46368 20.0419 8.67132 19.9414 8.91425C19.8408 9.15719 19.8145 9.4245 19.8658 9.68238C19.9171 9.94026 20.0437 10.1771 20.2297 10.363C20.4156 10.5489 20.6524 10.6755 20.9102 10.7267C21.1681 10.778 21.4353 10.7516 21.6781 10.6509C21.9209 10.5502 22.1285 10.3797 22.2744 10.1611C22.4204 9.9424 22.4983 9.68534 22.4982 9.4224C22.4982 8.68849 21.9029 8.09306 21.1692 8.09306V8.09352ZM15.2576 9.64673C12.1167 9.64673 9.57024 12.1939 9.57024 15.3357C9.57024 18.4774 12.1167 21.0235 15.2576 21.0235C18.3984 21.0235 20.9443 18.4774 20.9443 15.3357C20.9443 12.1939 18.3982 9.64673 15.2574 9.64673H15.2576ZM15.2576 11.6431C17.2963 11.6431 18.9492 13.2962 18.9492 15.3357C18.9492 17.3749 17.2963 19.0283 15.2576 19.0283C13.2187 19.0283 11.566 17.3749 11.566 15.3357C11.566 13.2962 13.2187 11.6431 15.2576 11.6431Z" fill="white"/>
</g>
<defs>
<radialGradient id="paint0_radial" cx="0" cy="0" r="1" gradientUnits="userSpaceOnUse" gradientTransform="translate(8.2285 32.6446) rotate(-90) scale(29.7322 27.6531)">
<stop stop-color="#FFDD55"/>
<stop offset="0.1" stop-color="#FFDD55"/>
<stop offset="0.5" stop-color="#FF543E"/>
<stop offset="1" stop-color="#C837AB"/>
</radialGradient>
<radialGradient id="paint1_radial" cx="0" cy="0" r="1" gradientUnits="userSpaceOnUse" gradientTransform="translate(-4.76536 2.49513) rotate(78.6807) scale(13.2904 54.7834)">
<stop stop-color="#3771C8"/>
<stop offset="0.128" stop-color="#3771C8"/>
<stop offset="1" stop-color="#6600FF" stop-opacity="0"/>
</radialGradient>
<clipPath id="clip0">
<rect width="30" height="30" fill="white"/>
</clipPath>
</defs>
</svg>
