<svg width="30" height="30" viewBox="0 0 30 30" fill="none" xmlns="http://www.w3.org/2000/svg">
<path d="M15 30C23.2843 30 30 23.2843 30 15C30 6.71573 23.2843 0 15 0C6.71573 0 0 6.71573 0 15C0 23.2843 6.71573 30 15 30Z" fill="url(#paint0_linear)"/>
<path d="M6.24276 14.8701L16.3439 10.7083C17.341 10.2747 20.7225 8.88746 20.7225 8.88746C20.7225 8.88746 22.2832 8.28052 22.1532 9.75451C22.1098 10.3614 21.763 12.4857 21.4162 14.7834L20.3324 21.5898C20.3324 21.5898 20.2457 22.5869 19.5087 22.7603C18.7717 22.9337 17.5578 22.1534 17.341 21.9799C17.1676 21.8499 14.0896 19.899 12.9624 18.9453C12.6589 18.6851 12.3121 18.1649 13.0058 17.558C14.5665 16.1273 16.4306 14.3499 17.5578 13.2227C18.078 12.7025 18.5983 11.4886 16.4306 12.9626L10.3179 17.0811C10.3179 17.0811 9.62426 17.5146 8.32369 17.1245C7.02311 16.7343 5.50577 16.214 5.50577 16.214C5.50577 16.214 4.4653 15.5638 6.24276 14.8701Z" fill="white"/>
<defs>
<linearGradient id="paint0_linear" x1="20.0012" y1="5.00116" x2="12.5012" y2="22.5" gradientUnits="userSpaceOnUse">
<stop stop-color="#37AEE2"/>
<stop offset="1" stop-color="#1E96C8"/>
</linearGradient>
</defs>
</svg>
