<svg xmlns="http://www.w3.org/2000/svg" viewBox="0 0 240 40"><defs><clipPath id="a"><path data-name="Rectangle 21" fill="#5a7b73" d="M0 0h240v40H0z"/></clipPath></defs><g clip-path="url(#a)" fill="#5a7b73"><path data-name="Path 23" d="M25.136 18.438a12.667 12.667 0 11-9.22-10.014.884.884 0 11-.431 1.713 10.9 10.9 0 107.815 8.136l-1.745 1.745a.8.8 0 01-1.132-1.132l3.147-3.147a.8.8 0 011.132 0l3.019 3.019a.8.8 0 01-1.132 1.132l-1.456-1.456zm-1.26-8.831a.8.8 0 00-1.132 0l-5.607 5.614a.8.8 0 001.132 1.132l5.611-5.611a.8.8 0 000-1.132z" stroke="#5a7b73" stroke-miterlimit="22.926" stroke-width=".216" fill-rule="evenodd"/><path data-name="Path 24" d="M12.745 24.513A3.843 3.843 0 108.9 20.67a3.843 3.843 0 003.845 3.843z"/><path data-name="Path 25" d="M39.224 24.1a.287.287 0 01-.288-.288V16a.32.32 0 01.072-.216.292.292 0 01.216-.084h3.216a3.457 3.457 0 012.268.684 2.4 2.4 0 01.828 1.98 2.4 2.4 0 01-.828 1.98A3.513 3.513 0 0142.44 21h-1.788v2.808a.278.278 0 01-.084.2.254.254 0 01-.2.084zm3.156-4.428a1.578 1.578 0 001.068-.324 1.258 1.258 0 00.372-.984 1.289 1.289 0 00-.36-.972 1.467 1.467 0 00-1.08-.36h-1.752v2.64z"/><path data-name="Path 26" d="M48.514 24.216a2.642 2.642 0 01-1.128-.24 2.145 2.145 0 01-.8-.672 1.641 1.641 0 01.372-2.244 3.962 3.962 0 011.812-.684l1.644-.24v-.252a1.076 1.076 0 00-.264-.792 1.169 1.169 0 00-.852-.264 1.214 1.214 0 00-.648.156 2 2 0 00-.384.288q-.144.156-.192.2a.181.181 0 01-.18.144h-.924a.287.287 0 01-.192-.072.259.259 0 01-.072-.192 1.315 1.315 0 01.288-.684 2.274 2.274 0 01.876-.66 3.375 3.375 0 011.44-.276 2.859 2.859 0 012.064.636 2.233 2.233 0 01.648 1.668v3.768a.278.278 0 01-.084.2.254.254 0 01-.2.084h-.972a.287.287 0 01-.288-.288v-.46a2 2 0 01-.756.636 2.672 2.672 0 01-1.208.24zm.408-1.14A1.44 1.44 0 0050 22.644a1.737 1.737 0 00.42-1.26v-.252l-1.2.192a2.669 2.669 0 00-1.056.348.7.7 0 00-.348.588.683.683 0 00.324.6 1.374 1.374 0 00.782.216z"/><path data-name="Path 27" d="M55.958 24.216a3.759 3.759 0 01-1.56-.276 2.153 2.153 0 01-.864-.7 1.667 1.667 0 01-.288-.8v-.04a.16.16 0 01.06-.132.239.239 0 01.156-.06h.984a.284.284 0 01.18.048.353.353 0 01.12.156.847.847 0 00.432.5 2.085 2.085 0 00.84.144 1.518 1.518 0 00.84-.2.694.694 0 00.312-.624q0-.816-.972-.816h-.66a.248.248 0 01-.264-.264v-.5a.244.244 0 01.072-.18.24.24 0 01.192-.084h.612a1.106 1.106 0 00.648-.156.613.613 0 00.216-.516.743.743 0 00-.252-.576 1.157 1.157 0 00-.816-.24 1.393 1.393 0 00-.78.168 1.072 1.072 0 00-.372.552.438.438 0 01-.132.156.284.284 0 01-.18.048h-.948a.254.254 0 01-.168-.06.193.193 0 01-.06-.168 1.776 1.776 0 01.3-.9 2.039 2.039 0 01.876-.684 3.472 3.472 0 011.476-.276 3.02 3.02 0 011.944.516 1.557 1.557 0 01.636 1.248 1.542 1.542 0 01-.18.78 1.267 1.267 0 01-.576.516 1.509 1.509 0 01.96 1.572 1.532 1.532 0 01-.768 1.356 3.651 3.651 0 01-2.016.492z"/><path data-name="Path 28" d="M60.279 26.376a.278.278 0 01-.2-.084.254.254 0 01-.084-.2v-7.948a.254.254 0 01.084-.2.278.278 0 01.2-.084h.948a.287.287 0 01.288.288v.48a2.264 2.264 0 011.92-.888 2.3 2.3 0 011.86.768 3.242 3.242 0 01.7 2.052q.012.144.012.42t-.012.432a3.293 3.293 0 01-.7 2.04 2.3 2.3 0 01-1.86.768 2.164 2.164 0 01-1.848-.852v2.724a.287.287 0 01-.288.288zm2.712-3.444q1.3 0 1.38-1.6.012-.12.012-.36t-.012-.36q-.084-1.6-1.38-1.6a1.211 1.211 0 00-1.032.444 1.943 1.943 0 00-.372 1.092l-.012.456.012.468a1.708 1.708 0 00.372 1.032 1.285 1.285 0 001.033.428z"/><path data-name="Path 29" d="M69.163 24.216a2.642 2.642 0 01-1.128-.24 2.145 2.145 0 01-.8-.672 1.641 1.641 0 01.365-2.244 3.962 3.962 0 011.812-.684l1.644-.24v-.252a1.076 1.076 0 00-.264-.792 1.169 1.169 0 00-.852-.264 1.214 1.214 0 00-.648.156 1.994 1.994 0 00-.384.288q-.144.156-.192.2a.181.181 0 01-.18.144h-.924a.287.287 0 01-.192-.072.26.26 0 01-.072-.192 1.315 1.315 0 01.288-.684 2.274 2.274 0 01.876-.66 3.375 3.375 0 011.44-.276 2.859 2.859 0 012.064.636 2.233 2.233 0 01.648 1.668v3.768a.278.278 0 01-.084.2.254.254 0 01-.2.084h-.972a.287.287 0 01-.288-.288v-.46a2 2 0 01-.756.636 2.672 2.672 0 01-1.201.24zm.408-1.14a1.44 1.44 0 001.08-.432 1.737 1.737 0 00.42-1.26v-.252l-1.2.192a2.669 2.669 0 00-1.056.348.7.7 0 00-.348.588.683.683 0 00.324.6 1.374 1.374 0 00.78.216z"/><path data-name="Path 30" d="M80.026 20.832q.012.132.012.408t-.012.384a2.618 2.618 0 01-.828 1.9 3.094 3.094 0 01-2.172.7 2.932 2.932 0 01-2.22-.768 3.482 3.482 0 01-.78-2.292l-.012-.72.012-.72a5.472 5.472 0 01.528-2.556 2.833 2.833 0 011.428-1.248 21.426 21.426 0 013.024-.9l.06-.012a.272.272 0 01.18.072.228.228 0 01.1.168l.156.792.012.072a.254.254 0 01-.06.168.327.327 0 01-.156.084l-.384.084a18.762 18.762 0 00-2.052.552 1.872 1.872 0 00-.936.672 2.61 2.61 0 00-.372 1.368 2.046 2.046 0 01.756-.576 2.429 2.429 0 011.008-.216 2.645 2.645 0 011.956.7 2.769 2.769 0 01.752 1.884zm-1.632.732a2.636 2.636 0 00.012-.312q0-.252-.012-.36a1.81 1.81 0 00-.36-1.14 1.119 1.119 0 00-.912-.408 1.365 1.365 0 00-1.044.408 1.653 1.653 0 00-.408 1.14l-.012.36.012.312a1.785 1.785 0 00.372 1.152 1.241 1.241 0 00.984.4 1.26 1.26 0 00.984-.384 1.762 1.762 0 00.384-1.168z"/><path data-name="Path 31" d="M84.126 24.216a3.055 3.055 0 01-2.172-.72 2.818 2.818 0 01-.828-1.992l-.012-.528.012-.528a2.779 2.779 0 01.84-1.98 3.553 3.553 0 014.32 0 2.779 2.779 0 01.84 1.98q.012.144.012.528t-.012.528A2.818 2.818 0 0186.3 23.5a3.055 3.055 0 01-2.174.716zm0-1.188a1.241 1.241 0 00.984-.4 1.927 1.927 0 00.384-1.188q.012-.12.012-.468t-.012-.468a1.872 1.872 0 00-.384-1.176 1.391 1.391 0 00-1.968 0 1.872 1.872 0 00-.384 1.176l-.012.468.012.468a1.927 1.927 0 00.384 1.188 1.241 1.241 0 00.984.4z"/><path data-name="Path 32" d="M90.376 24.1a.287.287 0 01-.288-.288v-4.68h-1.956a.278.278 0 01-.2-.084.292.292 0 01-.084-.216v-.684a.254.254 0 01.084-.2.278.278 0 01.2-.084h5.448a.292.292 0 01.216.084.278.278 0 01.084.2v.684a.32.32 0 01-.084.216.292.292 0 01-.216.084h-1.944v4.68a.278.278 0 01-.084.2.254.254 0 01-.2.084z"/><path data-name="Path 33" d="M96.643 24.216a2.642 2.642 0 01-1.128-.24 2.145 2.145 0 01-.8-.672 1.641 1.641 0 01.372-2.244 3.962 3.962 0 011.812-.684l1.644-.24v-.252a1.076 1.076 0 00-.264-.792 1.168 1.168 0 00-.852-.264 1.214 1.214 0 00-.648.156 1.994 1.994 0 00-.384.288q-.144.156-.192.2a.181.181 0 01-.18.144H95.1a.287.287 0 01-.192-.072.26.26 0 01-.072-.192 1.315 1.315 0 01.288-.684 2.274 2.274 0 01.876-.66 3.375 3.375 0 011.44-.276 2.859 2.859 0 012.064.636 2.233 2.233 0 01.648 1.668v3.768a.278.278 0 01-.084.2.254.254 0 01-.2.084h-.972a.287.287 0 01-.288-.288v-.46a2 2 0 01-.756.636 2.672 2.672 0 01-1.209.24zm.408-1.14a1.44 1.44 0 001.08-.432 1.737 1.737 0 00.42-1.26v-.252l-1.2.192a2.669 2.669 0 00-1.056.348.7.7 0 00-.348.588.683.683 0 00.324.6 1.374 1.374 0 00.78.216z"/><path data-name="Path 34" d="M101.975 24.1a.287.287 0 01-.288-.288v-5.668a.287.287 0 01.288-.288h1a.287.287 0 01.288.288v2.148h2.712v-2.148a.254.254 0 01.084-.2.278.278 0 01.2-.084h1a.287.287 0 01.288.288v5.664a.278.278 0 01-.084.2.254.254 0 01-.2.084h-1a.287.287 0 01-.288-.288v-2.256h-2.712v2.256a.278.278 0 01-.084.2.254.254 0 01-.2.084z"/><path data-name="Path 35" d="M111.923 24.216a3.055 3.055 0 01-2.172-.72 2.818 2.818 0 01-.828-1.992l-.012-.528.012-.528a2.779 2.779 0 01.84-1.98 3.553 3.553 0 014.32 0 2.779 2.779 0 01.84 1.98q.012.144.012.528t-.012.528a2.818 2.818 0 01-.823 1.996 3.055 3.055 0 01-2.177.716zm0-1.188a1.241 1.241 0 00.984-.4 1.927 1.927 0 00.384-1.188q.012-.12.012-.468t-.012-.468a1.872 1.872 0 00-.384-1.176 1.391 1.391 0 00-1.968 0 1.872 1.872 0 00-.384 1.176l-.012.468.012.468a1.927 1.927 0 00.384 1.188 1.241 1.241 0 00.984.4z"/><path data-name="Path 36" d="M119.295 24.1a.287.287 0 01-.288-.288v-5.668a.287.287 0 01.288-.288h2.664a3.141 3.141 0 011.86.456 1.477 1.477 0 01.636 1.272 1.436 1.436 0 01-.18.768 1.626 1.626 0 01-.54.492 1.42 1.42 0 01.648.576 1.6 1.6 0 01.24.864 1.557 1.557 0 01-.648 1.344 3.194 3.194 0 01-1.884.468zm2.64-3.7a1.305 1.305 0 00.756-.192.687.687 0 00.276-.588.563.563 0 00-.264-.528 1.53 1.53 0 00-.768-.156h-1.392V20.4zm.048 2.616a1.4 1.4 0 00.768-.18.635.635 0 00.288-.564.647.647 0 00-.264-.576 1.379 1.379 0 00-.792-.18h-1.44v1.5z"/><path data-name="Path 37" d="M132.153 24.216a3.645 3.645 0 01-2.568-.852 3.28 3.28 0 01-.972-2.376q-.012-.348-.012-1.116t.012-1.116a3.171 3.171 0 01.984-2.328 3.654 3.654 0 012.556-.852 4.428 4.428 0 011.9.372 3.026 3.026 0 011.2.936 1.992 1.992 0 01.432 1.092V18a.23.23 0 01-.072.168.272.272 0 01-.18.06h-1.236a.357.357 0 01-.18-.036.409.409 0 01-.108-.156 1.672 1.672 0 00-.588-.756 1.864 1.864 0 00-1.164-.324 1.839 1.839 0 00-1.32.456 1.994 1.994 0 00-.5 1.4q-.012.348-.012 1.056t.012 1.056q.072 1.908 1.848 1.908a1.99 1.99 0 001.368-.456 1.769 1.769 0 00.516-1.38v-.372H132.6a.292.292 0 01-.216-.084.32.32 0 01-.072-.216v-.636a.32.32 0 01.072-.216.292.292 0 01.216-.084h2.868a.254.254 0 01.2.084.292.292 0 01.084.216v1.26a3.331 3.331 0 01-.444 1.74 2.855 2.855 0 01-1.248 1.128 4.324 4.324 0 01-1.907.4z"/><path data-name="Path 38" d="M139.836 24.216a2.921 2.921 0 01-2.124-.768 3.112 3.112 0 01-.828-2.184l-.012-.3.012-.3a3.106 3.106 0 01.84-2.148 2.879 2.879 0 012.112-.78 2.769 2.769 0 012.184.864 3.308 3.308 0 01.78 2.3v.252a.278.278 0 01-.084.2.292.292 0 01-.216.084h-3.984v.1a1.954 1.954 0 00.36 1.116 1.14 1.14 0 00.948.444 1.377 1.377 0 001.14-.552.8.8 0 01.168-.168.466.466 0 01.2-.036h1.032a.244.244 0 01.18.072.184.184 0 01.084.156 1.131 1.131 0 01-.348.684 2.811 2.811 0 01-.972.672 3.547 3.547 0 01-1.472.292zm1.332-3.78V20.4a1.723 1.723 0 00-.36-1.14 1.31 1.31 0 00-1.944 0 1.762 1.762 0 00-.348 1.14v.036z"/><path data-name="Path 39" d="M144.361 24.1a.287.287 0 01-.288-.288v-5.668a.287.287 0 01.288-.288h.984a.287.287 0 01.288.288v.492a2.4 2.4 0 012-.9 2.222 2.222 0 011.752.732 2.834 2.834 0 01.648 1.968v3.372a.278.278 0 01-.084.2.254.254 0 01-.2.084h-1.056a.287.287 0 01-.288-.288v-3.3a1.57 1.57 0 00-.348-1.092 1.218 1.218 0 00-.984-.4 1.317 1.317 0 00-1.008.4 1.563 1.563 0 00-.36 1.092v3.3a.278.278 0 01-.084.2.254.254 0 01-.2.084z"/><path data-name="Path 40" d="M154.25 24.216a2.921 2.921 0 01-2.124-.768 3.112 3.112 0 01-.828-2.184l-.012-.3.012-.3a3.106 3.106 0 01.84-2.148 2.879 2.879 0 012.112-.78 2.769 2.769 0 012.184.864 3.308 3.308 0 01.78 2.3v.252a.278.278 0 01-.084.2.292.292 0 01-.216.084h-3.984v.1a1.954 1.954 0 00.36 1.116 1.14 1.14 0 00.948.444 1.377 1.377 0 001.14-.552.8.8 0 01.168-.168.466.466 0 01.2-.036h1.032a.244.244 0 01.18.072.184.184 0 01.084.156 1.131 1.131 0 01-.348.684 2.811 2.811 0 01-.972.672 3.547 3.547 0 01-1.472.292zm1.332-3.78V20.4a1.723 1.723 0 00-.36-1.14 1.31 1.31 0 00-1.944 0 1.762 1.762 0 00-.348 1.14v.036z"/><path data-name="Path 41" d="M160.851 24.216a3.821 3.821 0 01-1.512-.264 2.508 2.508 0 01-.912-.636 1.12 1.12 0 01-.288-.636.24.24 0 01.084-.192.287.287 0 01.192-.072h.948a.227.227 0 01.18.084q.048.036.252.216a1.478 1.478 0 00.48.3 1.666 1.666 0 00.612.108 1.489 1.489 0 00.792-.192.592.592 0 00.312-.528.578.578 0 00-.144-.408 1.1 1.1 0 00-.492-.276 7.881 7.881 0 00-1.068-.276 3.247 3.247 0 01-1.512-.66 1.526 1.526 0 01-.48-1.176 1.562 1.562 0 01.288-.9 2.02 2.02 0 01.852-.7 3.138 3.138 0 011.368-.276A3.376 3.376 0 01162.2 18a2.321 2.321 0 01.888.612 1 1 0 01.312.624.264.264 0 01-.084.192.244.244 0 01-.18.072h-.888a.339.339 0 01-.2-.084 3.073 3.073 0 01-.264-.228 1.336 1.336 0 00-.42-.264 1.514 1.514 0 00-.564-.1 1.124 1.124 0 00-.7.192.614.614 0 00-.24.5.562.562 0 00.12.372 1.151 1.151 0 00.468.276 6.641 6.641 0 001.044.264 3.252 3.252 0 011.644.708 1.561 1.561 0 01.5 1.176 1.617 1.617 0 01-.732 1.368 3.46 3.46 0 01-2.053.536z"/><path data-name="Path 42" d="M165.114 16.824a.287.287 0 01-.288-.288v-.864a.287.287 0 01.288-.288h1.092a.278.278 0 01.2.084.261.261 0 01.1.2v.864a.278.278 0 01-.084.2.292.292 0 01-.216.084zm.048 7.272a.287.287 0 01-.288-.288v-5.664a.287.287 0 01.288-.288h1a.287.287 0 01.288.288v5.664a.278.278 0 01-.084.2.254.254 0 01-.2.084z"/><path data-name="Path 43" d="M170.4 24.216a3.821 3.821 0 01-1.512-.264 2.508 2.508 0 01-.912-.636 1.12 1.12 0 01-.288-.636.24.24 0 01.084-.192.287.287 0 01.192-.072h.948a.227.227 0 01.18.084q.048.036.252.216a1.478 1.478 0 00.48.3 1.666 1.666 0 00.612.108 1.489 1.489 0 00.792-.192.592.592 0 00.312-.528.578.578 0 00-.14-.404 1.1 1.1 0 00-.492-.276 7.882 7.882 0 00-1.068-.276 3.247 3.247 0 01-1.512-.66 1.526 1.526 0 01-.48-1.176 1.562 1.562 0 01.288-.9 2.02 2.02 0 01.852-.7 3.138 3.138 0 011.368-.276 3.376 3.376 0 011.392.264 2.321 2.321 0 01.888.612 1 1 0 01.312.624.264.264 0 01-.084.192.244.244 0 01-.18.072h-.888a.339.339 0 01-.2-.084 3.071 3.071 0 01-.264-.228 1.336 1.336 0 00-.42-.264 1.514 1.514 0 00-.564-.1 1.124 1.124 0 00-.7.192.614.614 0 00-.24.5.562.562 0 00.12.372 1.151 1.151 0 00.468.276 6.641 6.641 0 001.044.264 3.252 3.252 0 011.644.708 1.561 1.561 0 01.5 1.176 1.617 1.617 0 01-.732 1.368 3.46 3.46 0 01-2.052.536z"/><path data-name="Path 44" d="M177.6 24.1a.287.287 0 01-.288-.288v-7.828a.254.254 0 01.084-.2.278.278 0 01.2-.084h1.128a.287.287 0 01.288.288v7.824a.278.278 0 01-.084.2.254.254 0 01-.2.084z"/><path data-name="Path 45" d="M181.041 24.1a.287.287 0 01-.288-.288v-5.668a.287.287 0 01.288-.288h.984a.287.287 0 01.288.288v.492a2.4 2.4 0 012-.9 2.222 2.222 0 011.752.732 2.834 2.834 0 01.648 1.968v3.372a.278.278 0 01-.084.2.254.254 0 01-.2.084h-1.056a.287.287 0 01-.288-.288v-3.3a1.57 1.57 0 00-.348-1.092 1.218 1.218 0 00-.984-.4 1.317 1.317 0 00-1.008.4 1.563 1.563 0 00-.36 1.092v3.3a.278.278 0 01-.084.2.254.254 0 01-.2.084z"/><path data-name="Path 46" d="M188.529 24.1a.287.287 0 01-.288-.288v-5.668a.287.287 0 01.288-.288h.984a.287.287 0 01.288.288v.492a2.4 2.4 0 012-.9 2.222 2.222 0 011.752.732 2.834 2.834 0 01.648 1.968v3.372a.278.278 0 01-.084.2.254.254 0 01-.2.084h-1.056a.287.287 0 01-.288-.288v-3.3a1.57 1.57 0 00-.348-1.092 1.218 1.218 0 00-.984-.4 1.317 1.317 0 00-1.008.4 1.563 1.563 0 00-.36 1.092v3.3a.278.278 0 01-.084.2.254.254 0 01-.2.084z"/><path data-name="Path 47" d="M198.49 24.216a3.055 3.055 0 01-2.172-.72 2.818 2.818 0 01-.828-1.992l-.012-.528.012-.528a2.779 2.779 0 01.84-1.98 3.553 3.553 0 014.32 0 2.779 2.779 0 01.84 1.98q.012.144.012.528t-.012.528a2.818 2.818 0 01-.828 1.992 3.055 3.055 0 01-2.172.72zm0-1.188a1.241 1.241 0 00.984-.4 1.927 1.927 0 00.384-1.188q.012-.12.012-.468t-.012-.468a1.872 1.872 0 00-.384-1.176 1.391 1.391 0 00-1.968 0 1.872 1.872 0 00-.384 1.176l-.012.468.012.468a1.927 1.927 0 00.384 1.188 1.241 1.241 0 00.984.4z"/><path data-name="Path 48" d="M204.816 24.1a.454.454 0 01-.276-.072.606.606 0 01-.156-.228l-2.244-5.568-.024-.108a.244.244 0 01.072-.18.264.264 0 01.192-.084h.972a.311.311 0 01.312.228l1.6 4.212 1.6-4.212a.5.5 0 01.108-.156.3.3 0 01.2-.072h.984a.216.216 0 01.168.084.227.227 0 01.084.18.364.364 0 01-.012.108l-2.26 5.568a.606.606 0 01-.156.228.454.454 0 01-.276.072z"/><path data-name="Path 49" d="M211.053 24.216a2.642 2.642 0 01-1.128-.24 2.145 2.145 0 01-.8-.672 1.641 1.641 0 01.372-2.244 3.962 3.962 0 011.812-.684l1.644-.24v-.252a1.076 1.076 0 00-.264-.792 1.169 1.169 0 00-.852-.264 1.214 1.214 0 00-.648.156 2 2 0 00-.384.288q-.144.156-.192.2a.181.181 0 01-.18.144h-.924a.287.287 0 01-.192-.072.259.259 0 01-.072-.192 1.315 1.315 0 01.288-.684 2.274 2.274 0 01.876-.66 3.375 3.375 0 011.44-.276 2.859 2.859 0 012.064.636 2.233 2.233 0 01.648 1.668v3.768a.278.278 0 01-.084.2.254.254 0 01-.2.084h-.977a.287.287 0 01-.288-.288v-.46a2 2 0 01-.756.636 2.672 2.672 0 01-1.203.24zm.408-1.14a1.44 1.44 0 001.08-.432 1.737 1.737 0 00.42-1.26v-.252l-1.2.192a2.669 2.669 0 00-1.056.348.7.7 0 00-.348.588.683.683 0 00.324.6 1.374 1.374 0 00.78.216z"/><path data-name="Path 50" d="M218.858 24.1a2.2 2.2 0 01-1.644-.564 2.369 2.369 0 01-.54-1.68v-2.728h-.948a.278.278 0 01-.2-.084.32.32 0 01-.084-.216v-.684a.287.287 0 01.288-.288h.948v-1.992a.254.254 0 01.084-.2.278.278 0 01.2-.084h.972a.287.287 0 01.288.288v1.992h1.5a.287.287 0 01.288.288v.684a.292.292 0 01-.084.216.278.278 0 01-.2.084h-1.5v2.6a1.388 1.388 0 00.18.78.673.673 0 00.6.264h.828a.287.287 0 01.288.288v.744a.278.278 0 01-.084.2.254.254 0 01-.2.084z"/><path data-name="Path 51" d="M221.423 16.824a.287.287 0 01-.288-.288v-.864a.287.287 0 01.288-.288h1.092a.278.278 0 01.2.084.261.261 0 01.1.2v.864a.278.278 0 01-.084.2.292.292 0 01-.216.084zm.048 7.272a.287.287 0 01-.288-.288v-5.664a.287.287 0 01.288-.288h1a.287.287 0 01.288.288v5.664a.278.278 0 01-.084.2.254.254 0 01-.2.084z"/><path data-name="Path 52" d="M227.107 24.216a3.055 3.055 0 01-2.172-.72 2.818 2.818 0 01-.828-1.992l-.012-.528.012-.528a2.779 2.779 0 01.84-1.98 3.553 3.553 0 014.32 0 2.779 2.779 0 01.84 1.98q.012.144.012.528t-.012.528a2.818 2.818 0 01-.828 1.992 3.055 3.055 0 01-2.172.72zm0-1.188a1.241 1.241 0 00.984-.4 1.927 1.927 0 00.384-1.188q.012-.12.012-.468t-.012-.468a1.872 1.872 0 00-.384-1.176 1.391 1.391 0 00-1.968 0 1.872 1.872 0 00-.384 1.176l-.012.468.012.468a1.927 1.927 0 00.384 1.188 1.241 1.241 0 00.984.4z"/><path data-name="Path 53" d="M231.736 24.1a.287.287 0 01-.288-.288v-5.668a.287.287 0 01.288-.288h.984a.287.287 0 01.288.288v.492a2.4 2.4 0 012-.9 2.222 2.222 0 011.752.732 2.834 2.834 0 01.648 1.968v3.372a.278.278 0 01-.084.2.254.254 0 01-.2.084h-1.056a.287.287 0 01-.288-.288v-3.3a1.57 1.57 0 00-.348-1.092 1.218 1.218 0 00-.984-.4 1.317 1.317 0 00-1.008.4 1.563 1.563 0 00-.36 1.092v3.3a.278.278 0 01-.084.2.254.254 0 01-.2.084z"/></g></svg>