<?xml version="1.0" encoding="utf-8"?><svg xmlns="http://www.w3.org/2000/svg" xmlns:xlink="http://www.w3.org/1999/xlink"><symbol viewBox="0 0 7.089 12.177" id="chevron"><path d="M1.414 10.763l.779-.779 3.9-3.9-4.679-4.67" fill="none" stroke="inherit" stroke-linecap="round" stroke-linejoin="round" stroke-width="2"/></symbol><symbol viewBox="0 0 7.286 15.633" id="facebook"><path data-name="Path 71" d="M4.848 5.123V3.776a2.973 2.973 0 01.028-.469.912.912 0 01.128-.327.523.523 0 01.322-.223 2.3 2.3 0 01.593-.062h1.347V0H5.113a3.505 3.505 0 00-2.685.887 3.736 3.736 0 00-.816 2.614v1.622H-.001v2.694h1.613v7.817h3.235V7.817H7l.285-2.694z"/></symbol><symbol viewBox="0 0 19.516 16.545" id="map"><g data-name="Group 2009"><g data-name="Group 2008"><path data-name="Path 112" d="M9.758 2.545a1.909 1.909 0 101.909 1.909 1.911 1.911 0 00-1.909-1.909zm0 2.545a.636.636 0 11.636-.636.637.637 0 01-.636.636z"/></g></g><g data-name="Group 2011"><g data-name="Group 2010"><path data-name="Path 113" d="M19.482 15.708l-2.545-7.636a.636.636 0 00-.6-.435h-3.321a5.366 5.366 0 001.2-3.182 4.455 4.455 0 10-8.909 0 5.3 5.3 0 001.202 3.18H3.182a.636.636 0 00-.6.435L.033 15.708a.637.637 0 00.6.838h18.246a.637.637 0 00.603-.838zM9.758 1.273a3.182 3.182 0 012.69 4.881l-2.665 4.208-2.7-4.184a3.182 3.182 0 012.675-4.9zm-8.238 14L3.641 8.91h3.69l1.923 2.979a.636.636 0 001.072 0l1.884-2.974h3.665L18 15.273H1.52z"/></g></g></symbol><symbol viewBox="0 0 13.556 13.579" id="phone-call"><path d="M8.168 3.122a2.867 2.867 0 012.27 2.264M8.168.828a5.161 5.161 0 014.558 4.553m-.573 4.576v1.72a1.147 1.147 0 01-1.249 1.151 11.347 11.347 0 01-4.948-1.76 11.181 11.181 0 01-3.44-3.44 11.347 11.347 0 01-1.76-4.971 1.147 1.147 0 011.141-1.25h1.72a1.147 1.147 0 011.147.986 7.362 7.362 0 00.4 1.611 1.147 1.147 0 01-.258 1.21l-.728.728a9.174 9.174 0 003.44 3.44l.728-.728a1.147 1.147 0 011.21-.258 7.362 7.362 0 001.611.4 1.147 1.147 0 01.986 1.164z" fill="none" stroke="inherit" stroke-linecap="round" stroke-linejoin="round" stroke-width="1.5"/></symbol><symbol viewBox="0 0 21.615 21.922" id="printer"><g fill="none" stroke="inherit" stroke-linecap="round" stroke-linejoin="round" stroke-width="2"><path data-name="Path 87" d="M4.923 7.865V1h11.769v6.865"/><path data-name="Path 88" d="M4.923 16.692H2.962A1.962 1.962 0 011 14.73v-4.9a1.962 1.962 0 011.962-1.965h15.692a1.962 1.962 0 011.962 1.962v4.9a1.962 1.962 0 01-1.962 1.962h-1.962"/><path data-name="Rectangle 264" d="M4.984 12.953h11.953v7.969H4.984z"/></g></symbol><symbol viewBox="0 0 20 22" id="share"><g transform="translate(-2 -1)" stroke-width="2" stroke="inherit" stroke-linecap="round" stroke-linejoin="round" fill="none"><circle data-name="Ellipse 74" cx="3" cy="3" r="3" transform="translate(15 2)"/><circle data-name="Ellipse 75" cx="3" cy="3" r="3" transform="translate(3 9)"/><circle data-name="Ellipse 76" cx="3" cy="3" r="3" transform="translate(15 16)"/><path data-name="Line 54" d="M8.59 13.51l6.83 3.98"/><path data-name="Line 55" d="M15.41 6.51l-6.82 3.98"/></g></symbol><symbol viewBox="0 0 16.123 13.097" id="twitter"><g data-name="Group 34"><path data-name="Path 70" d="M16.123 1.55a6.605 6.605 0 01-1.9.521A3.321 3.321 0 0015.677.242a6.668 6.668 0 01-2.1.8A3.31 3.31 0 007.94 4.059 9.39 9.39 0 011.123.603a3.311 3.311 0 001.024 4.416 3.308 3.308 0 01-1.5-.415v.041a3.311 3.311 0 002.652 3.244 3.35 3.35 0 01-.872.116 3.175 3.175 0 01-.623-.061 3.309 3.309 0 003.089 2.3 6.636 6.636 0 01-4.104 1.415 7.03 7.03 0 01-.79-.05 9.349 9.349 0 005.07 1.488 9.345 9.345 0 009.41-9.41l-.01-.428a6.6 6.6 0 001.654-1.709z"/></g></symbol><symbol viewBox="0 0 10.889 12" id="user"><g transform="translate(1 1)" fill="none" stroke="inherit" stroke-linecap="round" stroke-linejoin="round" stroke-width="2"><path data-name="Path 18" d="M8.889 10V8.889a2.222 2.222 0 00-2.222-2.222H2.222A2.222 2.222 0 000 8.889V10"/><circle data-name="Ellipse 1" cx="2.222" cy="2.222" r="2.222" transform="translate(2.222)"/></g></symbol><symbol viewBox="0 0 19.488 11.119" id="vk"><path data-name="Path 78" d="M19.385 10.042a1.333 1.333 0 00-.066-.127 10.1 10.1 0 00-1.938-2.243l-.02-.02-.01-.01-.01-.01h-.01q-.649-.619-.822-.832a.781.781 0 01-.142-.822 7.663 7.663 0 01.913-1.329q.416-.538.659-.862 1.756-2.334 1.522-2.983l-.06-.1a.594.594 0 00-.314-.167 1.6 1.6 0 00-.65-.025l-2.922.02a.379.379 0 00-.2.005l-.132.031-.051.025-.04.031a.451.451 0 00-.112.106.7.7 0 00-.1.178 16.568 16.568 0 01-1.086 2.283q-.375.629-.69 1.091a5.248 5.248 0 01-.527.68 3.682 3.682 0 01-.386.35q-.173.132-.264.112l-.173-.041a.675.675 0 01-.228-.249 1.113 1.113 0 01-.117-.4q-.03-.239-.036-.411t.005-.487q.011-.315.01-.426 0-.386.015-.837t.025-.715q.01-.264.01-.558a2.345 2.345 0 00-.036-.462 1.579 1.579 0 00-.106-.325.547.547 0 00-.208-.244 1.172 1.172 0 00-.34-.137A6.752 6.752 0 009.378 0a6.656 6.656 0 00-2.425.244 1.367 1.367 0 00-.386.3q-.183.223-.051.243a1.244 1.244 0 01.862.436l.061.122a1.941 1.941 0 01.142.467 4.709 4.709 0 01.091.741 7.9 7.9 0 010 1.268q-.051.528-.1.822a1.646 1.646 0 01-.137.477 2.011 2.011 0 01-.122.223.175.175 0 01-.051.051.76.76 0 01-.274.051.643.643 0 01-.345-.142 2.434 2.434 0 01-.421-.391 5.224 5.224 0 01-.492-.7q-.274-.446-.568-1.055L5 2.873q-.152-.284-.416-.827T4.117.996a.669.669 0 00-.243-.325L3.823.64a.694.694 0 00-.162-.086 1.077 1.077 0 00-.233-.066l-2.78.02A.707.707 0 00.07.701L.029.762a.328.328 0 00-.031.162.808.808 0 00.061.274q.609 1.431 1.324 2.76t1.243 2.141q.528.812 1.076 1.532t.725.923q.178.2.279.3l.254.243a6.019 6.019 0 00.715.583 12.2 12.2 0 001.045.67 5.67 5.67 0 001.334.538 4.614 4.614 0 001.481.168H10.7a.808.808 0 00.538-.223l.04-.051a.673.673 0 00.076-.188 1.031 1.031 0 00.036-.279 3.343 3.343 0 01.066-.786 2.067 2.067 0 01.173-.528 1.3 1.3 0 01.218-.3.882.882 0 01.173-.147.663.663 0 01.081-.035.644.644 0 01.573.157 3.368 3.368 0 01.619.589q.289.35.695.786a4.776 4.776 0 00.71.649l.2.122a2.471 2.471 0 00.528.223 1.138 1.138 0 00.568.051l2.6-.041a1.177 1.177 0 00.6-.127.5.5 0 00.254-.279.786.786 0 00.005-.345 1.274 1.274 0 00-.068-.262z"/></symbol></svg>