<?xml version="1.0" encoding="utf-8"?><svg viewBox="0 0 12.511 12.511" xmlns="http://www.w3.org/2000/svg" xmlns:xlink="http://www.w3.org/1999/xlink"><style>:root>svg{display:none}:root>svg:target{display:block}</style><svg viewBox="0 0 12.511 12.511" id="search" xmlns="http://www.w3.org/2000/svg"><path d="M12.233 10.872L9.654 8.297a5.149 5.149 0 00.932-3 5.2 5.2 0 00-.417-2.056A5.184 5.184 0 007.35.417a5.275 5.275 0 00-4.113 0 5.184 5.184 0 00-2.82 2.82 5.275 5.275 0 000 4.113 5.185 5.185 0 002.82 2.82 5.2 5.2 0 002.056.417 5.15 5.15 0 003-.932l2.579 2.571a.893.893 0 00.677.286.962.962 0 00.684-1.639zm-4.56-3.2a3.244 3.244 0 01-2.38.989 3.244 3.244 0 01-2.38-.989 3.244 3.244 0 01-.988-2.375 3.244 3.244 0 01.989-2.38 3.244 3.244 0 012.38-.989 3.245 3.245 0 012.38.989 3.244 3.244 0 01.988 2.38 3.244 3.244 0 01-.989 2.376z"/></svg></svg>