<svg xmlns="http://www.w3.org/2000/svg" xmlns:xlink="http://www.w3.org/1999/xlink" width="96" height="33" viewBox="0 0 96 33">
  <defs>
    <clipPath id="clip-path">
      <rect id="Rectangle_109" data-name="Rectangle 109" width="96" height="33" transform="translate(368 112)" fill="#fff" stroke="#707070" stroke-width="1"/>
    </clipPath>
  </defs>
  <g id="Mask_Group_74" data-name="Mask Group 74" transform="translate(-368 -112)" clip-path="url(#clip-path)">
    <g id="KapitalBank" transform="translate(368 118.818)">
      <g id="Group_183" data-name="Group 183">
        <path id="Path_171" data-name="Path 171" d="M.1,0l8.43,8.43L16.907,0Z" fill="#fff" fill-rule="evenodd"/>
        <path id="Path_172" data-name="Path 172" d="M0,16.763v.1H16.859v-.1L8.43,8.381Z" fill="#fff" fill-rule="evenodd"/>
        <path id="Path_173" data-name="Path 173" d="M.1,0H0V16.763L8.478,8.381Z" fill="#fff" fill-rule="evenodd"/>
        <path id="Path_174" data-name="Path 174" d="M22.109,7.707,25.77,3.516h2.457L24.036,8.092l4.383,5.395H25.867L22.35,9.008l-.241.241v4.239H20.183V3.516h1.927Z" fill="#fff"/>
        <path id="Path_175" data-name="Path 175" d="M33.718,6.984h1.83v6.5h-1.83v-.819a2.316,2.316,0,0,1-1.975,1.06,3.305,3.305,0,0,1-3.324-3.468,3.216,3.216,0,0,1,3.227-3.42A2.361,2.361,0,0,1,33.718,7.9ZM30.3,10.212a1.783,1.783,0,1,0,1.782-1.83A1.789,1.789,0,0,0,30.3,10.212Z" fill="#fff"/>
        <path id="Path_176" data-name="Path 176" d="M38.342,16.907h-1.83V6.984h1.83V7.8a2.455,2.455,0,0,1,2.119-1.06,3.179,3.179,0,0,1,3.179,3.42,3.231,3.231,0,0,1-3.227,3.468,2.51,2.51,0,0,1-2.071-1.06Zm-.193-6.7a1.783,1.783,0,1,0,1.782-1.83A1.789,1.789,0,0,0,38.15,10.212Z" fill="#fff"/>
        <path id="Path_177" data-name="Path 177" d="M45.278,3.179a1.12,1.12,0,0,1,1.108,1.108,1.108,1.108,0,0,1-2.216,0A1.12,1.12,0,0,1,45.278,3.179Zm.915,3.805v6.5h-1.83v-6.5Z" fill="#fff"/>
        <path id="Path_178" data-name="Path 178" d="M50,8.574v4.913h-1.83V8.574h-.723V7.033h.723V4.769H50V6.984h1.252V8.526H50Z" fill="#fff"/>
        <path id="Path_179" data-name="Path 179" d="M56.839,6.984h1.83v6.5h-1.83v-.819a2.316,2.316,0,0,1-1.975,1.06A3.305,3.305,0,0,1,51.54,10.26a3.216,3.216,0,0,1,3.227-3.42A2.361,2.361,0,0,1,56.839,7.9Zm-3.42,3.227a1.789,1.789,0,0,0,1.782,1.83,1.76,1.76,0,0,0,1.782-1.83A1.76,1.76,0,0,0,55.2,8.381,1.789,1.789,0,0,0,53.419,10.212Z" fill="#fff"/>
        <path id="Path_180" data-name="Path 180" d="M61.559,2.264V13.487h-1.83V2.264Z" fill="#fff"/>
        <path id="Path_181" data-name="Path 181" d="M68.207,3.516a4.039,4.039,0,0,1,2.457.626,2.554,2.554,0,0,1,.915,2.071,2.183,2.183,0,0,1-1.108,1.975,2.182,2.182,0,0,1,1.3.626,2.663,2.663,0,0,1,.723,1.879,2.6,2.6,0,0,1-.867,2.023,3.572,3.572,0,0,1-2.5.819H65.8V3.516Zm-.53,4.142h.53a1.324,1.324,0,0,0,1.493-1.3c0-.915-.723-1.252-1.493-1.252h-.578V7.659Zm0,4.239H68.5a2.45,2.45,0,0,0,1.349-.289,1.308,1.308,0,0,0,.626-1.156A1.194,1.194,0,0,0,69.748,9.3,3.279,3.279,0,0,0,68.4,9.1h-.723Z" fill="#fff"/>
        <path id="Path_182" data-name="Path 182" d="M78.611,6.984h1.83v6.5h-1.83v-.819a2.316,2.316,0,0,1-1.975,1.06,3.305,3.305,0,0,1-3.324-3.468A3.216,3.216,0,0,1,76.54,6.84,2.361,2.361,0,0,1,78.611,7.9Zm-3.42,3.227a1.783,1.783,0,1,0,3.564,0,1.783,1.783,0,1,0-3.564,0Z" fill="#fff"/>
        <path id="Path_183" data-name="Path 183" d="M81.5,6.984h1.83V7.8a2.387,2.387,0,0,1,2.023-1.06,2.5,2.5,0,0,1,1.927.771,2.814,2.814,0,0,1,.53,1.83v4.142h-1.83V9.971a1.779,1.779,0,0,0-.337-1.252,1.246,1.246,0,0,0-.867-.337,1.143,1.143,0,0,0-1.108.578,2.076,2.076,0,0,0-.289,1.252v3.275h-1.83v-6.5Z" fill="#fff"/>
        <path id="Path_184" data-name="Path 184" d="M90.99,2.264V9.345L93.4,6.984h2.36L92.725,9.826,96,13.439H93.592l-2.408-2.746-.193.193v2.6H89.16V2.264Z" fill="#fff"/>
        <g id="Group_182" data-name="Group 182">
          <path id="Path_185" data-name="Path 185" d="M65.75,16.811h.867a1.061,1.061,0,0,1,.385.048.685.685,0,0,1,.289.1.376.376,0,0,1,.193.193.611.611,0,0,1,.048.289.364.364,0,0,1-.048.193c0,.048-.048.1-.1.145l-.145.145c-.048.048-.1.048-.193.1h0c.193.048.337.1.385.193a.92.92,0,0,1,.145.385.7.7,0,0,1-.1.337.481.481,0,0,1-.193.241L67,19.316a.939.939,0,0,1-.385.048H65.7V16.811Zm.819,1.012a.407.407,0,0,0,.289-.1.368.368,0,0,0,.1-.241.25.25,0,0,0-.1-.193c-.048-.048-.145-.048-.289-.048H66.28v.578Zm.048,1.06c.289,0,.482-.1.482-.337A.368.368,0,0,0,67,18.3a.7.7,0,0,0-.337-.1h-.337v.674Z" fill="#fff"/>
          <path id="Path_186" data-name="Path 186" d="M68.977,16.618a.334.334,0,1,1,.241-.1A.368.368,0,0,1,68.977,16.618Zm-.289.193h.578v2.5h-.578Z" fill="#fff"/>
          <path id="Path_187" data-name="Path 187" d="M71.771,19.316,71.29,18.4H71v.915h-.578v-2.5h.915a1.061,1.061,0,0,1,.385.048c.1.048.241.048.289.145a.481.481,0,0,1,.193.241.907.907,0,0,1,.1.385.589.589,0,0,1-.145.434,2.1,2.1,0,0,1-.337.289l.578,1.012h-.626ZM71,17.967h.289a.7.7,0,0,0,.337-.1c.1-.048.1-.145.1-.289a.283.283,0,0,0-.1-.241.7.7,0,0,0-.337-.1H71Z" fill="#fff"/>
          <path id="Path_188" data-name="Path 188" d="M73.553,16.618a.334.334,0,1,1,.241-.1C73.7,16.57,73.65,16.618,73.553,16.618Zm-.289.193h.578v2.5h-.578Z" fill="#fff"/>
          <path id="Path_189" data-name="Path 189" d="M75.143,16.811h.578l.674,1.252.241.578h0c0-.145-.048-.289-.048-.434s-.048-.337-.048-.482v-.867h.53v2.5h-.578l-.674-1.252-.241-.53h0c0,.145.048.289.048.434s.048.337.048.482v.867h-.53Z" fill="#fff"/>
          <path id="Path_190" data-name="Path 190" d="M78.178,18.063a2.418,2.418,0,0,1,.1-.578,1.953,1.953,0,0,1,.241-.434.662.662,0,0,1,.385-.241,1.425,1.425,0,0,1,.482-.1,1.406,1.406,0,0,1,.434.1.864.864,0,0,1,.337.241l-.289.337c-.048-.048-.145-.1-.193-.145a.626.626,0,0,0-.482,0,.665.665,0,0,0-.193.145,1.053,1.053,0,0,0-.145.241.714.714,0,0,0-.048.337,1.205,1.205,0,0,0,.145.626.47.47,0,0,0,.434.193.611.611,0,0,0,.289-.048.665.665,0,0,0,.193-.145l.289.337c-.1.145-.241.193-.337.289a1.407,1.407,0,0,1-.434.1,1.711,1.711,0,0,1-.482-.1,1.01,1.01,0,0,1-.626-.626A1.487,1.487,0,0,1,78.178,18.063Z" fill="#fff"/>
          <path id="Path_191" data-name="Path 191" d="M81.453,16.618a.334.334,0,1,1,.241-.1A.368.368,0,0,1,81.453,16.618Zm-.289.193h.578v2.5h-.578Z" fill="#fff"/>
          <path id="Path_192" data-name="Path 192" d="M84.391,16.811h.867a1.061,1.061,0,0,1,.385.048.685.685,0,0,1,.289.1.376.376,0,0,1,.193.193.611.611,0,0,1,.048.289.364.364,0,0,1-.048.193c0,.048-.048.1-.1.145l-.145.145c-.048.048-.1.048-.193.1h0c.193.048.337.1.385.193a.92.92,0,0,1,.145.385.7.7,0,0,1-.1.337.481.481,0,0,1-.193.241l-.289.145a.939.939,0,0,1-.385.048h-.915V16.811Zm.819,1.012a.407.407,0,0,0,.289-.1.368.368,0,0,0,.1-.241.25.25,0,0,0-.1-.193c-.048-.048-.145-.048-.289-.048h-.289v.578Zm.048,1.06c.289,0,.482-.1.482-.337a.368.368,0,0,0-.1-.241.7.7,0,0,0-.337-.1h-.337v.674Z" fill="#fff"/>
          <path id="Path_193" data-name="Path 193" d="M88.534,18.738h-.771l-.145.578h-.578l.771-2.5h.674l.771,2.5h-.578Zm-.145-.482-.048-.241c-.048-.145-.048-.241-.1-.385s-.048-.289-.1-.385h0c-.048.145-.048.289-.1.434s-.048.289-.1.385l-.048.241h.482Z" fill="#fff"/>
          <path id="Path_194" data-name="Path 194" d="M90.172,16.811h.578l.674,1.252.241.578h0c0-.145-.048-.289-.048-.434s-.048-.337-.048-.482v-.867h.53v2.5H91.52l-.674-1.252-.241-.53h0c0,.145.048.289.048.434s.048.337.048.482v.867h-.53Z" fill="#fff"/>
          <path id="Path_195" data-name="Path 195" d="M93.351,16.811h.578v1.012h0l.771-1.012h.626l-.771,1.012.915,1.493h-.626l-.626-1.06-.289.385v.674h-.578v-2.5Z" fill="#fff"/>
        </g>
      </g>
    </g>
  </g>
</svg>
