<svg xmlns="http://www.w3.org/2000/svg" xmlns:xlink="http://www.w3.org/1999/xlink" width="16" height="16" viewBox="0 0 16 16">
  <defs>
    <clipPath id="clip-path">
      <rect id="Rectangle_45" data-name="Rectangle 45" width="16" height="16" transform="translate(1448 35)" fill="#e3e3e3" stroke="#707070" stroke-width="1"/>
    </clipPath>
  </defs>
  <g id="Mask_Group_24" data-name="Mask Group 24" transform="translate(-1448 -35)" clip-path="url(#clip-path)">
    <path id="phone-call_2_" data-name="phone-call (2)" d="M10.5,3.489a3.489,3.489,0,0,1,2.756,2.756M10.5.7a6.28,6.28,0,0,1,5.547,5.54m-.7,5.568V13.9a1.4,1.4,0,0,1-1.521,1.4,13.809,13.809,0,0,1-6.022-2.142A13.607,13.607,0,0,1,3.621,8.966a13.809,13.809,0,0,1-2.142-6.05A1.4,1.4,0,0,1,2.868,1.4H4.961a1.4,1.4,0,0,1,1.4,1.2,8.959,8.959,0,0,0,.488,1.961,1.4,1.4,0,0,1-.314,1.472l-.886.886A11.164,11.164,0,0,0,9.832,11.1l.886-.886A1.4,1.4,0,0,1,12.19,9.9a8.959,8.959,0,0,0,1.961.488,1.4,1.4,0,0,1,1.2,1.416Z" transform="translate(1447.239 35)" fill="none" stroke="#e3e3e3" stroke-linecap="round" stroke-linejoin="round" stroke-width="1.396"/>
  </g>
</svg>
