<svg xmlns="http://www.w3.org/2000/svg" xmlns:xlink="http://www.w3.org/1999/xlink" width="24.102" height="16.067" viewBox="0 0 24.102 16.067">
  <defs>
    <clipPath id="clip-path">
      <rect id="Rectangle_106" data-name="Rectangle 106" width="24.102" height="16.068" transform="translate(565.9 973)" fill="#fff" stroke="#707070" stroke-width="1"/>
    </clipPath>
  </defs>
  <g id="Mask_Group_76" data-name="Mask Group 76" transform="translate(-565.9 -973)" clip-path="url(#clip-path)">
    <g id="UnionPay_logo" transform="translate(565.9 973.496)">
      <path id="Path_196" data-name="Path 196" d="M4.72,0h6.016A1.172,1.172,0,0,1,11.9,1.527L9.1,13.552a2.044,2.044,0,0,1-1.879,1.525H1.207A1.172,1.172,0,0,1,.041,13.552l2.8-12.025A2.039,2.039,0,0,1,4.72,0" fill="#e21836"/>
      <path id="Path_197" data-name="Path 197" d="M10.235,0h6.918c.84,0,.461.684.263,1.527l-2.8,12.025c-.2.84-.135,1.525-.977,1.525H6.722a1.169,1.169,0,0,1-1.164-1.525l2.8-12.025A2.043,2.043,0,0,1,10.235,0" fill="#00447c"/>
      <path id="Path_198" data-name="Path 198" d="M16.879,0h6.016A1.171,1.171,0,0,1,24.06,1.527l-2.8,12.025a2.045,2.045,0,0,1-1.88,1.525H13.367A1.17,1.17,0,0,1,12.2,13.552L15,1.527A2.038,2.038,0,0,1,16.879,0" fill="#007b84"/>
      <path id="Path_199" data-name="Path 199" d="M6.291,3.854a6.464,6.464,0,0,1-.86-.014c-.022.107-.44,2.032-.441,2.034a1.41,1.41,0,0,1-.377.847.672.672,0,0,1-.444.155.41.41,0,0,1-.461-.395L3.7,6.392s.084-.522.084-.525S4.224,4.112,4.3,3.88a.169.169,0,0,0,.006-.026A6.438,6.438,0,0,1,3.295,3.84c-.006.019-.027.128-.027.128L2.821,5.945l-.038.168-.074.549a.807.807,0,0,0,.1.408c.2.356.785.41,1.114.41a2.162,2.162,0,0,0,1.09-.254,1.615,1.615,0,0,0,.7-1.089l.05-.2s.451-1.823.528-2.06A.083.083,0,0,1,6.291,3.854Zm1.536,1.47a1.192,1.192,0,0,0-.486.114c-.065.033-.126.072-.191.11l.058-.211L7.176,5.3c-.379.077-.463.087-.813.136l-.029.02a10.348,10.348,0,0,1-.227,1.252c-.057.244-.117.49-.177.734l.016.031c.359-.019.467-.019.779-.014l.025-.027c.04-.2.045-.25.132-.661.041-.195.127-.623.17-.775a.581.581,0,0,1,.228-.072c.175,0,.153.152.147.213-.007.1-.071.435-.136.721l-.044.184c-.03.136-.064.269-.094.4l.013.027c.353-.019.461-.019.763-.014l.035-.027c.055-.317.071-.4.167-.863l.049-.212c.095-.415.142-.625.071-.8A.411.411,0,0,0,7.827,5.324Zm1.715.434c-.188.036-.308.06-.427.076s-.233.036-.415.061l-.014.013-.013.01c-.019.135-.032.252-.057.389s-.054.3-.107.535a2.1,2.1,0,0,1-.086.3,2.61,2.61,0,0,0-.094.3l.011.016.009.015c.17-.008.281-.014.395-.015s.232,0,.415,0l.016-.013.017-.014c.026-.157.03-.2.046-.277s.044-.2.111-.5c.032-.143.068-.286.1-.432s.071-.289.1-.432l-.005-.017Zm0-.585a.688.688,0,0,0-.672.07c-.2.136-.224.33-.054.432A.686.686,0,0,0,9.489,5.6C9.689,5.464,9.714,5.272,9.546,5.173Zm1.032,2.333a1.283,1.283,0,0,0,.966-.378,1.711,1.711,0,0,0,.332-.71A.9.9,0,0,0,11.8,5.6a.889.889,0,0,0-.724-.266,1.33,1.33,0,0,0-.91.315,1.492,1.492,0,0,0-.4.786c-.065.285-.14.8.331.988A1.381,1.381,0,0,0,10.578,7.506Zm-.027-1.046c.08-.352.174-.648.413-.648.188,0,.2.22.118.573a1.58,1.58,0,0,1-.176.494.291.291,0,0,1-.226.147c-.025,0-.175,0-.178-.223A1.517,1.517,0,0,1,10.551,6.459Zm2.187,1,.027-.027c.038-.2.045-.25.129-.661.042-.195.13-.623.171-.775a.573.573,0,0,1,.229-.072c.173,0,.152.152.145.213a6.926,6.926,0,0,1-.136.721l-.041.184c-.032.136-.066.269-.1.4l.013.027c.355-.019.458-.019.762-.014l.037-.027c.053-.317.068-.4.167-.863l.048-.212c.1-.415.143-.625.073-.8a.416.416,0,0,0-.425-.238,1.186,1.186,0,0,0-.486.114c-.063.033-.127.072-.19.11l.054-.211L13.191,5.3c-.379.077-.465.087-.815.136l-.027.02a10.733,10.733,0,0,1-.227,1.252c-.057.244-.117.49-.176.734l.016.031C12.32,7.455,12.428,7.455,12.739,7.46Zm2.6.014c.022-.109.155-.754.156-.754s.113-.473.12-.49a.28.28,0,0,1,.071-.069h.052a2.424,2.424,0,0,0,1.485-.321,1.582,1.582,0,0,0,.59-.939,1.42,1.42,0,0,0,.041-.327.687.687,0,0,0-.118-.418c-.222-.311-.665-.317-1.176-.319l-.252,0c-.654.008-.916.006-1.024-.007-.009.048-.026.132-.026.132s-.234,1.086-.234,1.088L14.44,7.47C15.011,7.463,15.245,7.463,15.344,7.474Zm.434-1.929s.249-1.084.248-1.08l.008-.056,0-.042.1.01.526.045a.428.428,0,0,1,.228.545.792.792,0,0,1-.411.542,1.3,1.3,0,0,1-.577.09h-.135Zm1.551.934c-.066.281-.141.793.328.976a.915.915,0,0,0,.42.076.693.693,0,0,0,.4-.184l-.033.128.021.027c.337-.014.442-.014.808-.011l.033-.025c.053-.314.1-.618.242-1.219.068-.288.135-.572.2-.859l-.011-.032c-.377.07-.478.085-.841.136l-.028.022-.011.085a.519.519,0,0,0-.265-.218,1.011,1.011,0,0,0-.867.315A1.472,1.472,0,0,0,17.329,6.479Zm.793.017c.081-.346.174-.639.414-.639.152,0,.232.14.216.38-.013.06-.027.123-.043.194-.024.1-.05.2-.076.307a.744.744,0,0,1-.089.179.416.416,0,0,1-.294.142c-.024,0-.172,0-.178-.219A1.5,1.5,0,0,1,18.121,6.5Zm4.139-1.142-.029-.033c-.373.076-.441.088-.784.134l-.025.025s0,.01,0,.016V5.491c-.255.589-.248.462-.456.926,0-.021,0-.034,0-.057l-.052-1.006-.033-.033c-.391.076-.4.088-.762.134l-.028.025a.273.273,0,0,0-.006.04l0,.005a5.075,5.075,0,0,1,.08.544c.021.179.049.359.07.535.036.3.056.441.1.892-.244.4-.3.555-.537.908l0,0-.165.262a.125.125,0,0,1-.06.055.25.25,0,0,1-.108.015h-.092l-.136.453L19.7,9.2a.576.576,0,0,0,.54-.3l.294-.5h0l.031-.035C20.757,7.933,22.261,5.354,22.261,5.354ZM17.329,11.3h-.2l.734-2.427h.243l.077-.25.007.278c-.009.172.126.324.481.3h.411l.141-.467h-.155c-.089,0-.13-.022-.125-.071l-.007-.283h-.761a10.661,10.661,0,0,0-1.129.063,1.329,1.329,0,0,0-.369.183l.074-.25h-.711l-.148.5-.744,2.464h-.144l-.141.464h1.417l-.048.155h.7l.046-.155h.2Zm-.581-1.934a3.18,3.18,0,0,0-.326.127l.189-.62h.565l-.136.452A1.837,1.837,0,0,0,16.747,9.371Zm.011.886s-.178.022-.294.049a2.881,2.881,0,0,0-.331.145l.195-.645H16.9Zm-.317,1.053h-.567l.164-.545H16.6Zm1.365-1.505h.817l-.117.38h-.828l-.124.416h.725l-.549.773a.226.226,0,0,1-.111.093.326.326,0,0,1-.147.042h-.2l-.138.455h.526a.639.639,0,0,0,.554-.288l.376-.515.081.523a.246.246,0,0,0,.135.178.487.487,0,0,0,.184.078c.082,0,.142.006.182.006h.258l.155-.51h-.1a.426.426,0,0,1-.176-.028.277.277,0,0,1-.026-.109l-.082-.524h-.336l.147-.175h.827l.127-.416H19.2l.119-.38h.763l.141-.469H17.946Zm-6.9,1.611.191-.635h.784l.143-.472h-.785l.12-.391h.767l.142-.457H10.347l-.139.457h.436l-.116.391h-.437l-.145.48h.436l-.254.84a.2.2,0,0,0,.048.205.21.21,0,0,0,.14.1.845.845,0,0,0,.2.027H11.4l.157-.523-.392.054C11.091,11.5,10.881,11.486,10.9,11.416Zm.09-3.038-.2.359a.417.417,0,0,1-.115.15.382.382,0,0,1-.178.027h-.1l-.139.459H10.6a.78.78,0,0,0,.353-.091c.065-.035.082-.015.133-.064l.116-.1h1.075l.143-.478h-.787l.137-.261Zm1.587,3.047c-.018-.026-.005-.073.023-.17l.294-.973h1.045c.152,0,.262,0,.334-.009a.683.683,0,0,0,.251-.085.47.47,0,0,0,.183-.168,1.435,1.435,0,0,0,.18-.409l.369-1.231-1.085.006a3.438,3.438,0,0,0-.481.1,1.967,1.967,0,0,0-.36.23l.1-.337h-.67L11.825,11.5a1.919,1.919,0,0,0-.061.261c0,.057.072.113.119.155a.427.427,0,0,0,.219.042c.084.006.2.01.367.01h.515l.158-.534-.461.044A.121.121,0,0,1,12.581,11.426Zm.506-1.8h1.1l-.07.219a.791.791,0,0,0-.145,0H13.02Zm.22-.734h1.107l-.08.263s-.522-.005-.605.01a1.235,1.235,0,0,0-.583.26Zm.833,1.685a.117.117,0,0,1-.044.068.217.217,0,0,1-.112.02h-.156l.009-.266h-.651l-.026,1.3c0,.094.008.148.077.192a1.306,1.306,0,0,0,.566.061h.408l.147-.488-.355.02-.118.007a.135.135,0,0,1-.049-.03c-.015-.015-.04-.006-.036-.1l0-.334.372-.015a.482.482,0,0,0,.36-.128.4.4,0,0,0,.119-.221l.062-.3h-.512Z" fill="#fefefe"/>
    </g>
  </g>
</svg>
