<svg xmlns="http://www.w3.org/2000/svg" width="24.793" height="8.025" viewBox="0 0 24.793 8.025">
  <g id="visa-seeklogo.com" transform="translate(-1.017 -0.983)">
    <path id="Path_119" data-name="Path 119" d="M38.721.983c-1.986,0-3.381,1.056-3.393,2.566-.013,1.118,1,1.742,1.757,2.114.784.38,1.046.624,1.043.964-.008.521-.627.759-1.2.759a4.024,4.024,0,0,1-1.888-.406l-.261-.124L34.5,8.595a6.081,6.081,0,0,0,2.238.414c2.107,0,3.479-1.044,3.5-2.655.008-.887-.528-1.558-1.687-2.113-.7-.36-1.133-.6-1.126-.965,0-.323.363-.668,1.15-.668a3.509,3.509,0,0,1,1.5.3L40.247,3,40.52,1.31a4.961,4.961,0,0,0-1.8-.327Zm-6.235.136L31.23,8.894h2.007l1.257-7.775H32.487Zm-2.94.008-1.965,5.3-.21-1.077a5.994,5.994,0,0,0-2.783-3.267l1.8,6.8h2.125l3.16-7.759H29.546Zm14.572,0a.994.994,0,0,0-1.053.645L40.085,8.9h2.109s.345-.959.423-1.169l2.57,0c.062.271.244,1.164.244,1.164H47.3l-1.626-7.77H44.118Zm.142,2.1.134.67s.386,1.855.466,2.244H43.194c.167-.446.8-2.173.8-2.173-.012.021.165-.45.267-.741Z" transform="translate(-21.485)" fill="#224099"/>
    <path id="Path_120" data-name="Path 120" d="M4.274,2.554H1.036l-.019.134a6.752,6.752,0,0,1,4.87,4.095l-.7-3.573a.842.842,0,0,0-.909-.655" transform="translate(0 -1.431)" fill="#ffab00"/>
  </g>
</svg>
