<svg xmlns="http://www.w3.org/2000/svg" width="51.795" height="16.766" viewBox="0 0 51.795 16.766">
  <g id="visa-seeklogo.com" transform="translate(-1.017 -1.983)">
    <path id="Path_119" data-name="Path 119" d="M54.112.983c-4.149,0-7.063,2.206-7.089,5.36C47,8.679,49.107,9.982,50.694,10.759c1.638.794,2.185,1.3,2.179,2.014-.016,1.089-1.31,1.585-2.513,1.585a8.406,8.406,0,0,1-3.944-.849l-.545-.259-.587,3.635a12.7,12.7,0,0,0,4.675.865c4.4,0,7.267-2.18,7.3-5.547.017-1.853-1.1-3.256-3.525-4.414-1.462-.753-2.366-1.252-2.353-2.015,0-.674.759-1.4,2.4-1.4A7.331,7.331,0,0,1,56.926,5l.374.187.571-3.521A10.364,10.364,0,0,0,54.112.983Zm-13.024.283L38.463,17.509h4.193L45.281,1.266H41.088Zm-6.142.016L30.84,12.352,30.4,10.1c-1.022-2.758-3.236-5.651-5.813-6.824l3.755,14.215,4.439,0,6.6-16.209H34.945Zm30.442,0a2.076,2.076,0,0,0-2.2,1.348L56.961,17.514h4.4s.72-2,.883-2.442c.481,0,4.759.009,5.369.009.13.566.511,2.432.511,2.432h3.895l-3.4-16.231h-3.24Zm.3,4.379.28,1.4s.806,3.875.974,4.687H63.455c.348-.932,1.671-4.54,1.671-4.54-.026.044.344-.939.557-1.547Z" transform="translate(-19.212 1)" fill="#fff"/>
    <path id="Path_120" data-name="Path 120" d="M7.821,2.554H1.056l-.039.28C6.276,4.178,9.746,7.481,11.19,11.387L9.72,3.922a1.76,1.76,0,0,0-1.9-1.368" transform="translate(0 -0.28)" fill="#ffab00"/>
  </g>
</svg>
