<svg data-name="002-calendar" xmlns="http://www.w3.org/2000/svg" viewBox="0 0 53.45 53.45"><g data-name="Group 1990"><g data-name="Group 1989" fill="#5eaf5e"><ellipse data-name="Ellipse 6" cx="2" cy="2.5" rx="2" ry="2.5" transform="translate(38 19.45)"/><path data-name="Path 100" d="M45.1 4.176h-2.715V2.088a2.088 2.088 0 10-4.176 0v2.088h-9.5V2.088a2.088 2.088 0 00-4.176 0v2.088h-9.4V2.088a2.088 2.088 0 10-4.176 0v2.088H8.352A8.361 8.361 0 000 12.527V45.1a8.361 8.361 0 008.352 8.35h15.972a2.088 2.088 0 000-4.176H8.352A4.181 4.181 0 014.176 45.1V12.527a4.181 4.181 0 014.176-4.175h2.61v2.088a2.088 2.088 0 104.176 0V8.352h9.4v2.088a2.088 2.088 0 104.176 0V8.352h9.5v2.088a2.088 2.088 0 104.176 0V8.352h2.71a4.181 4.181 0 014.176 4.176v11.9a2.088 2.088 0 104.176 0v-11.9A8.361 8.361 0 0045.1 4.176z"/><path data-name="Path 101" d="M40.819 28.187a12.632 12.632 0 1012.632 12.632 12.646 12.646 0 00-12.632-12.632zm0 21.088a8.456 8.456 0 118.456-8.456 8.466 8.466 0 01-8.456 8.456z"/><path data-name="Path 102" d="M43.846 38.73h-.94v-2.192a2.088 2.088 0 00-4.176 0v4.28a2.088 2.088 0 002.088 2.088h3.027a2.088 2.088 0 100-4.176z"/><ellipse data-name="Ellipse 7" cx="2" cy="2.5" rx="2" ry="2.5" transform="translate(29 19.45)"/><ellipse data-name="Ellipse 8" cx="2" cy="2.5" rx="2" ry="2.5" transform="translate(20 28.45)"/><ellipse data-name="Ellipse 9" cx="2" cy="2.5" rx="2" ry="2.5" transform="translate(11 19.45)"/><ellipse data-name="Ellipse 10" cx="2" cy="2.5" rx="2" ry="2.5" transform="translate(11 28.45)"/><ellipse data-name="Ellipse 11" cx="2" cy="2.5" rx="2" ry="2.5" transform="translate(11 37.45)"/><ellipse data-name="Ellipse 12" cx="2" cy="2.5" rx="2" ry="2.5" transform="translate(20 37.45)"/><ellipse data-name="Ellipse 13" cx="2" cy="2.5" rx="2" ry="2.5" transform="translate(20 19.45)"/></g></g></svg>