<svg data-name="001-wall-clock" xmlns="http://www.w3.org/2000/svg" viewBox="0 0 52.69 52.69"><g data-name="Group 1992"><g data-name="Group 1991" fill="#5eaf5e"><path data-name="Path 103" d="M47.175 39.176a2.058 2.058 0 00-2.88.423c-.373.5-.772.994-1.187 1.462a2.058 2.058 0 103.084 2.726c.491-.555.964-1.138 1.406-1.732a2.058 2.058 0 00-.423-2.879z"/><path data-name="Path 104" d="M50.617 29.524a2.059 2.059 0 00-2.449 1.573 22.329 22.329 0 01-.478 1.82 2.058 2.058 0 103.933 1.215c.219-.708.41-1.434.567-2.159a2.058 2.058 0 00-1.573-2.449z"/><path data-name="Path 105" d="M37.268 45.768c-.546.305-1.112.59-1.682.847a2.058 2.058 0 101.694 3.752 28.323 28.323 0 001.994-1 2.058 2.058 0 00-2.007-3.594z"/><path data-name="Path 106" d="M24.287 9.879v15.613l-7.547 7.547a2.058 2.058 0 002.911 2.911l8.15-8.15a2.058 2.058 0 00.6-1.455V9.879a2.058 2.058 0 10-4.116 0z"/><path data-name="Path 107" d="M50.632 4.425a2.058 2.058 0 00-2.058 2.058V12.2a26.347 26.347 0 10-22.229 40.49h.102c.742 0 1.491-.031 2.227-.093a2.058 2.058 0 10-.344-4.1c-.622.052-1.256.078-1.883.078h-.102a22.229 22.229 0 1119.135-33.55h-5.659a2.058 2.058 0 000 4.116H46.1a6.546 6.546 0 003.425-.963 2.055 2.055 0 00.185-.119 6.585 6.585 0 002.977-5.505V6.483a2.058 2.058 0 00-2.055-2.058z"/></g></g></svg>