<svg xmlns="http://www.w3.org/2000/svg" viewBox="0 0 46.766 45.579"><path data-name="004-management" d="M46.766 21.83a1.827 1.827 0 01-1.827 1.827H28.955a1.827 1.827 0 110-3.654h15.984a1.827 1.827 0 011.827 1.827zm-17.811-5.48h15.984a1.827 1.827 0 000-3.654H28.955a1.827 1.827 0 100 3.654zm15.984 10.961H28.955a1.827 1.827 0 100 3.654h15.984a1.827 1.827 0 000-3.654zm0 7.307H28.955a1.827 1.827 0 100 3.654h15.984a1.827 1.827 0 100-3.654zm0 7.307H28.955a1.827 1.827 0 100 3.654h15.984a1.827 1.827 0 100-3.654zM5.48 28.772a1.829 1.829 0 01-1.827-1.827v-8.768A1.829 1.829 0 015.48 16.35h16.168a1.827 1.827 0 100-3.654H5.48A5.486 5.486 0 000 18.177v8.769a5.49 5.49 0 003.654 5.167v11.639a1.827 1.827 0 003.654 0V30.6a1.827 1.827 0 00-1.828-1.828zm7.307 0a1.827 1.827 0 00-1.826 1.828v13.152a1.827 1.827 0 003.654 0V30.6a1.827 1.827 0 00-1.827-1.828zM3.654 5.48a5.48 5.48 0 115.48 5.48 5.486 5.486 0 01-5.48-5.48zm3.654 0a1.827 1.827 0 101.826-1.826A1.829 1.829 0 007.307 5.48zM21.739 20a1.827 1.827 0 101.827 1.827A1.827 1.827 0 0021.739 20zm0 7.307a1.827 1.827 0 101.827 1.827 1.827 1.827 0 00-1.827-1.823zm0 7.307a1.827 1.827 0 101.827 1.827 1.827 1.827 0 00-1.827-1.823zm0 7.307a1.827 1.827 0 101.827 1.827 1.827 1.827 0 00-1.827-1.823zm0 0" fill="#5eaf5e"/></svg>