<svg xmlns="http://www.w3.org/2000/svg" viewBox="0 0 50.171 50.17"><path data-name="003-trust" d="M48.537 25.168a1.924 1.924 0 00-.115-.106L35.24 13.837a10.316 10.316 0 00-6.684-2.46h-.036a10.246 10.246 0 00-7.255 3.02l-1.778 1.778a1.969 1.969 0 01-2.744.027 1.9 1.9 0 01-.576-1.368 2.085 2.085 0 01.6-1.486l.044-.046 3.859-4.114a16.722 16.722 0 0111.476-5.255l14.825 12.088a1.96 1.96 0 002.477-3.038L34.064.441A1.961 1.961 0 0032.826 0 20.638 20.638 0 0022.4 2.845 20.533 20.533 0 0011.959 0a1.961 1.961 0 00-1.386.573l-10 9.995a1.96 1.96 0 102.772 2.772l9.407-9.4a16.606 16.606 0 016.144 1.5q-.561.516-1.086 1.074L13.974 10.6a6.027 6.027 0 00-1.725 4.269 5.861 5.861 0 0010.01 4.074l1.778-1.778a6.351 6.351 0 014.5-1.872h.022a6.4 6.4 0 014.141 1.528l13.11 11.165a1.668 1.668 0 01-.044 2.31 1.676 1.676 0 01-2.356 0l-.4-.4a1.96 1.96 0 00-2.772 2.772l.4.4a5.3 5.3 0 00.369.336 1.94 1.94 0 00.185.218 1.666 1.666 0 11-2.356 2.356l-.015-.015-.65-.645a1.96 1.96 0 00-2.771 2.771l.447.447a1.984 1.984 0 01.561 1.326 1.59 1.59 0 01-.421 1.18 1.684 1.684 0 01-2.366-.141 2.27 2.27 0 00-.114-.106l-.294-.251a1.96 1.96 0 00-2.657 2.877 1.728 1.728 0 01.515 1.2 1.584 1.584 0 01-.464 1.148 1.691 1.691 0 01-2.392-.036l-.277-.275a5.691 5.691 0 00-1.268-6.1 5.8 5.8 0 00-2.609-1.512 5.575 5.575 0 00-5.051-6.361 5.5 5.5 0 00-1.62-3.483 5.559 5.559 0 00-3.5-1.614 5.581 5.581 0 00-9.5-3.512l-2.734 2.649-.024.024a5.581 5.581 0 002.944 9.44 5.57 5.57 0 001.624 4.14 5.355 5.355 0 003.827 1.571h.083a5.545 5.545 0 005.51 4.8c.12 0 .24-.005.36-.013a5.69 5.69 0 009.543 3.1 5.628 5.628 0 003.92 1.587 5.547 5.547 0 003.937-1.624 5.461 5.461 0 001.565-3.167 5.342 5.342 0 005.369-5.007 5.57 5.57 0 005.28-5.764 5.532 5.532 0 002.944-1.541 5.591 5.591 0 00-.001-7.903zM6.783 30.652l-.024.024a1.666 1.666 0 01-2.366-2.346l2.735-2.64.024-.024a1.665 1.665 0 012.5 2.189l-.152.144-2.01 1.971zm4.5 5.628a1.686 1.686 0 01-2.31.078 1.668 1.668 0 01-.006-2.351l1.255-1.231 2.03-1.959.024-.024c.053-.053.1-.106.153-.161a1.667 1.667 0 012.188.145 1.525 1.525 0 01.01 2.224zm5.561 4.787l-.007.007a1.666 1.666 0 11-2.359-2.353l2.871-2.841.007-.007a1.666 1.666 0 012.359 2.353zm7.056 3.562l-.025.025-1.055 1.093a1.766 1.766 0 01-2.484-.01 1.819 1.819 0 01-.532-1.276 1.7 1.7 0 01.492-1.236l1.176-1.176a1.594 1.594 0 011.138-.469 1.831 1.831 0 011.29.553 1.766 1.766 0 010 2.496zm0 0" fill="#5eaf5e"/></svg>