<svg width="237" height="93" viewBox="0 0 237 93" fill="none" xmlns="http://www.w3.org/2000/svg">
<path d="M10.7 27.36C7.36404 27.36 4.85604 26.616 3.17604 25.128C1.52004 23.64 0.584042 21.6 0.368042 19.008H4.97604C5.14404 20.496 5.63604 21.66 6.45204 22.5C7.29204 23.34 8.70804 23.76 10.7 23.76C12.14 23.76 13.304 23.4 14.192 22.68C15.104 21.96 15.56 21 15.56 19.8C15.56 18.6 15.188 17.724 14.444 17.172C13.7 16.62 12.284 16.176 10.196 15.84C7.00404 15.384 4.68804 14.604 3.24804 13.5C1.83204 12.396 1.12404 10.668 1.12404 8.316C1.12404 6.18 1.95204 4.416 3.60804 3.02401C5.26404 1.632 7.42404 0.936005 10.088 0.936005C15.776 0.936005 18.896 3.42 19.448 8.38801H15.056C14.816 7.02001 14.3 6.03601 13.508 5.436C12.74 4.83601 11.6 4.53601 10.088 4.53601C8.67204 4.53601 7.58004 4.848 6.81204 5.472C6.04404 6.072 5.66004 6.88801 5.66004 7.92C5.66004 9.04801 6.00804 9.88801 6.70404 10.44C7.42404 10.968 8.85204 11.388 10.988 11.7C14.204 12.156 16.532 12.936 17.972 14.04C19.436 15.144 20.168 16.932 20.168 19.404C20.168 21.66 19.28 23.556 17.504 25.092C15.752 26.604 13.484 27.36 10.7 27.36Z" fill="white"/>
<path d="M29.5162 27.36C27.6682 27.36 26.1562 26.904 24.9802 25.992C23.8042 25.056 23.2162 23.652 23.2162 21.78C23.2162 19.716 24.0922 18.204 25.8442 17.244C27.6202 16.284 29.9602 15.804 32.8642 15.804H35.2042V14.832C35.2042 13.512 34.9522 12.552 34.4482 11.952C33.9442 11.352 33.0562 11.052 31.7842 11.052C29.6482 11.052 28.4482 12.036 28.1842 14.004H23.9722C24.1642 11.916 24.9922 10.356 26.4562 9.32401C27.9202 8.292 29.7802 7.776 32.0362 7.776C37.0522 7.776 39.5602 10.068 39.5602 14.652V27H35.2762V24.696C33.8842 26.472 31.9642 27.36 29.5162 27.36ZM30.5602 24.228C31.9522 24.228 33.0682 23.892 33.9082 23.22C34.7722 22.548 35.2042 21.612 35.2042 20.412V18.54H32.9722C29.3482 18.54 27.5362 19.56 27.5362 21.6C27.5362 23.352 28.5442 24.228 30.5602 24.228Z" fill="white"/>
<path d="M44.6936 8.17201H49.0496V11.052C49.5296 10.116 50.2736 9.33601 51.2816 8.71201C52.2896 8.08801 53.4536 7.776 54.7736 7.776C57.3896 7.776 59.1656 8.904 60.1016 11.16C60.7976 10.056 61.7216 9.216 62.8736 8.64C64.0256 8.064 65.2256 7.776 66.4736 7.776C68.3216 7.776 69.8216 8.388 70.9736 9.61201C72.1496 10.812 72.7376 12.636 72.7376 15.084V27H68.3816V15.372C68.3816 12.732 67.2656 11.412 65.0336 11.412C63.8816 11.412 62.8976 11.796 62.0816 12.564C61.2896 13.308 60.8936 14.364 60.8936 15.732V27H56.5376V15.372C56.5376 12.732 55.4216 11.412 53.1896 11.412C52.0376 11.412 51.0536 11.796 50.2376 12.564C49.4456 13.308 49.0496 14.364 49.0496 15.732V27H44.6936V8.17201Z" fill="white"/>
<path d="M84.3251 27.36C81.8771 27.36 79.9691 26.832 78.6011 25.776C77.2571 24.696 76.5371 23.148 76.4411 21.132H80.5451C80.6891 22.14 81.0371 22.896 81.5891 23.4C82.1411 23.904 83.0411 24.156 84.2891 24.156C86.5451 24.156 87.6731 23.352 87.6731 21.744C87.6731 21 87.3611 20.448 86.7371 20.088C86.1371 19.704 85.1051 19.392 83.6411 19.152C81.1211 18.768 79.3571 18.156 78.3491 17.316C77.3411 16.476 76.8371 15.18 76.8371 13.428C76.8371 11.652 77.5331 10.272 78.9251 9.28801C80.3411 8.28001 81.9971 7.776 83.8931 7.776C88.4051 7.776 90.8651 9.672 91.2731 13.464H87.2411C87.0491 12.576 86.6891 11.94 86.1611 11.556C85.6331 11.148 84.8771 10.944 83.8931 10.944C82.9571 10.944 82.2251 11.148 81.6971 11.556C81.1691 11.964 80.9051 12.504 80.9051 13.176C80.9051 13.872 81.1691 14.388 81.6971 14.724C82.2491 15.06 83.2811 15.348 84.7931 15.588C87.2411 15.972 89.0291 16.56 90.1571 17.352C91.2851 18.144 91.8491 19.476 91.8491 21.348C91.8491 23.268 91.2011 24.756 89.9051 25.812C88.6091 26.844 86.7491 27.36 84.3251 27.36Z" fill="white"/>
<path d="M102.111 27.36C100.143 27.36 98.5708 26.772 97.3948 25.596C96.2188 24.42 95.6308 22.632 95.6308 20.232V8.17201H99.9868V19.728C99.9868 21.168 100.287 22.224 100.887 22.896C101.487 23.544 102.423 23.868 103.695 23.868C104.943 23.868 105.987 23.472 106.827 22.68C107.667 21.888 108.087 20.784 108.087 19.368V8.17201H112.443V27H108.087V24.048C106.911 26.256 104.919 27.36 102.111 27.36Z" fill="white"/>
<path d="M117.748 8.17201H122.104V11.16C122.584 10.176 123.34 9.372 124.372 8.748C125.428 8.1 126.7 7.776 128.188 7.776C130.18 7.776 131.752 8.388 132.904 9.61201C134.056 10.812 134.632 12.66 134.632 15.156V27H130.276V15.552C130.276 14.112 129.976 13.068 129.376 12.42C128.776 11.748 127.828 11.412 126.532 11.412C125.236 11.412 124.168 11.808 123.328 12.6C122.512 13.368 122.104 14.472 122.104 15.912V27H117.748V8.17201Z" fill="white"/>
<path d="M147.819 33.912C145.011 33.912 142.851 33.348 141.339 32.22C139.851 31.092 138.987 29.568 138.747 27.648H143.139C143.547 29.616 145.095 30.6 147.783 30.6C151.287 30.6 153.039 28.908 153.039 25.524V22.752C152.487 23.712 151.647 24.54 150.519 25.236C149.415 25.908 148.203 26.244 146.883 26.244C144.483 26.244 142.491 25.428 140.907 23.796C139.323 22.14 138.531 19.968 138.531 17.28V17.028C138.531 14.364 139.323 12.156 140.907 10.404C142.515 8.652 144.543 7.776 146.991 7.776C149.727 7.776 151.743 8.86801 153.039 11.052V8.17201H157.395V25.596C157.371 28.332 156.519 30.396 154.839 31.788C153.159 33.204 150.819 33.912 147.819 33.912ZM147.963 22.896C149.499 22.896 150.747 22.38 151.707 21.348C152.691 20.316 153.183 18.912 153.183 17.136V16.884C153.183 15.084 152.727 13.692 151.815 12.708C150.927 11.7 149.691 11.196 148.107 11.196C146.499 11.196 145.239 11.724 144.327 12.78C143.439 13.812 142.995 15.204 142.995 16.956V17.244C142.995 18.948 143.463 20.316 144.399 21.348C145.335 22.38 146.523 22.896 147.963 22.896Z" fill="white"/>
<path d="M44.6 69C44.6 74.44 42.88 79.16 39.44 83.16L43.76 87.66L37.88 92.88L33.32 88.14C30.08 89.94 26.56 90.84 22.76 90.84C16.72 90.84 11.58 88.74 7.34004 84.54C3.10004 80.3 0.980042 75.12 0.980042 69C0.980042 62.88 3.10004 57.72 7.34004 53.52C11.58 49.28 16.72 47.16 22.76 47.16C28.8 47.16 33.94 49.28 38.18 53.52C42.46 57.72 44.6 62.88 44.6 69ZM22.76 82.74C24.32 82.74 25.88 82.48 27.44 81.96L20.54 74.76L26.42 69.54L33.8 77.22C35.48 74.82 36.32 72.08 36.32 69C36.32 65 35.02 61.7 32.42 59.1C29.82 56.5 26.6 55.2 22.76 55.2C18.92 55.2 15.7 56.5 13.1 59.1C10.5 61.7 9.20004 65 9.20004 69C9.20004 72.96 10.5 76.24 13.1 78.84C15.7 81.44 18.92 82.74 22.76 82.74Z" fill="white"/>
<path d="M58.9925 82.08H75.0125V90H50.7125V48H58.9925V82.08Z" fill="white"/>
<path d="M87.9965 82.08H105.696V90H79.7164V48H105.396V55.92H87.9965V64.86H103.896V72.66H87.9965V82.08Z" fill="white"/>
<path d="M128.213 48C133.973 48 138.773 50.02 142.613 54.06C146.493 58.1 148.433 63.08 148.433 69C148.433 74.92 146.493 79.9 142.613 83.94C138.773 87.98 133.973 90 128.213 90H111.533V48H128.213ZM128.213 82.08C131.853 82.08 134.813 80.88 137.093 78.48C139.373 76.04 140.513 72.88 140.513 69C140.513 65.12 139.373 61.98 137.093 59.58C134.813 57.14 131.853 55.92 128.213 55.92H119.813V82.08H128.213Z" fill="white"/>
<path d="M191.686 68.16C195.566 70.48 197.506 73.86 197.506 78.3C197.506 82.18 196.146 85.24 193.426 87.48C190.746 89.72 187.086 90.84 182.446 90.84C177.766 90.84 174.086 89.72 171.406 87.48C168.726 85.24 167.386 82.18 167.386 78.3C167.386 73.86 169.306 70.48 173.146 68.16C170.226 66.04 168.766 63.14 168.766 59.46C168.766 55.58 170.066 52.56 172.666 50.4C175.306 48.24 178.566 47.16 182.446 47.16C186.326 47.16 189.566 48.24 192.166 50.4C194.766 52.56 196.066 55.58 196.066 59.46C196.066 63.18 194.606 66.08 191.686 68.16ZM186.346 56.28C185.346 55.4 184.046 54.96 182.446 54.96C180.846 54.96 179.546 55.4 178.546 56.28C177.546 57.16 177.046 58.36 177.046 59.88C177.046 61.4 177.546 62.62 178.546 63.54C179.546 64.42 180.846 64.86 182.446 64.86C184.046 64.86 185.346 64.42 186.346 63.54C187.346 62.62 187.846 61.4 187.846 59.88C187.846 58.36 187.346 57.16 186.346 56.28ZM177.466 81.54C178.746 82.54 180.406 83.04 182.446 83.04C184.486 83.04 186.126 82.54 187.366 81.54C188.646 80.5 189.286 79.06 189.286 77.22C189.286 75.42 188.646 74.02 187.366 73.02C186.126 71.98 184.486 71.46 182.446 71.46C180.406 71.46 178.746 71.98 177.466 73.02C176.226 74.02 175.606 75.42 175.606 77.22C175.606 79.06 176.226 80.5 177.466 81.54Z" fill="white"/>
<path d="M236.228 90H226.688L211.688 70.32V90H203.408V48H211.688V66.54L226.088 48H235.628L220.088 68.4L236.228 90Z" fill="white"/>
</svg>
