<svg width="95" height="25" viewBox="0 0 95 25" fill="none" xmlns="http://www.w3.org/2000/svg">
  <path d="M0.24 18.43L6.66 7.72H0.93V3.31H15.06V3.91L8.34 14.62H14.64V19H0.24V18.43ZM20.4209 19.39C18.8809 19.39 17.6009 19 16.5809 18.22C15.5809 17.42 15.0809 16.23 15.0809 14.65C15.0809 12.85 15.7809 11.55 17.1809 10.75C18.6009 9.93 20.7109 9.52 23.5109 9.52H24.8609V9.25C24.8609 8.49 24.7409 7.92 24.5009 7.54C24.2609 7.16 23.7709 6.97 23.0309 6.97C21.9109 6.97 21.2909 7.53 21.1709 8.65H15.6509C15.7709 6.77 16.5109 5.34 17.8709 4.36C19.2509 3.36 21.0909 2.86 23.3909 2.86C25.7309 2.86 27.5309 3.36 28.7909 4.36C30.0709 5.36 30.7109 6.86 30.7109 8.86V19H25.0109V17.2C24.1909 18.66 22.6609 19.39 20.4209 19.39ZM22.5509 15.43C23.2309 15.43 23.7809 15.26 24.2009 14.92C24.6409 14.56 24.8609 14.09 24.8609 13.51V12.7H23.6009C22.6009 12.7 21.9009 12.81 21.5009 13.03C21.1009 13.25 20.9009 13.64 20.9009 14.2C20.9009 15.02 21.4509 15.43 22.5509 15.43ZM36.9638 17.44L30.6938 3.31H37.0838L40.0538 11.14L42.8138 3.31H48.3938L40.0238 24.22H34.4138L36.9638 17.44ZM55.875 19.36C52.015 19.36 50.085 17.49 50.085 13.75V7.27H48.255V3.31H50.085V0.0999984H55.995V3.31H58.995V7.27H55.995V13.18C55.995 14.2 56.505 14.71 57.525 14.71C58.025 14.71 58.515 14.63 58.995 14.47V18.91C57.975 19.21 56.935 19.36 55.875 19.36ZM65.4595 19.39C63.8995 19.39 62.6295 18.9 61.6495 17.92C60.6895 16.92 60.2095 15.48 60.2095 13.6V3.31H66.1195V12.58C66.1195 14.18 66.7795 14.98 68.0995 14.98C69.6595 14.98 70.4395 14.07 70.4395 12.25V3.31H76.3495V19H70.4395V16.57C69.4595 18.45 67.7995 19.39 65.4595 19.39ZM78.2674 3.31H84.1774V5.83C85.1974 3.87 86.9274 2.89 89.3674 2.89C90.9074 2.89 92.1274 3.38 93.0274 4.36C93.9474 5.34 94.4074 6.78 94.4074 8.68V19H88.4974V10C88.4974 8.4 87.8374 7.6 86.5174 7.6C84.9574 7.6 84.1774 8.51 84.1774 10.33V19H78.2674V3.31Z" fill="#0066FF"/>
</svg>
